<?xml version="1.0" encoding="utf-8"?>
<!-- Generator: Adobe Illustrator 18.0.0, SVG Export Plug-In . SVG Version: 6.00 Build 0)  -->
<!DOCTYPE svg PUBLIC "-//W3C//DTD SVG 1.1//EN" "http://www.w3.org/Graphics/SVG/1.1/DTD/svg11.dtd">
<svg version="1.1" id="US_UK_Download_on_the" xmlns="http://www.w3.org/2000/svg" xmlns:xlink="http://www.w3.org/1999/xlink"
	 x="0px" y="0px" viewBox="0 0 165 40" enable-background="new 0 0 165 40" xml:space="preserve">
<g>
	<path fill="#A6A6A6" d="M160.3,40H4.7C2.1,40,0,37.9,0,35.3V4.7C0,2.1,2.1,0,4.7,0h155.5c2.6,0,4.7,2.1,4.7,4.7v30.5
		C165,37.9,162.9,40,160.3,40L160.3,40z"/>
	<path d="M164.1,35.3c0,2.1-1.7,3.8-3.8,3.8H4.7c-2.1,0-3.8-1.7-3.8-3.8V4.7c0-2.1,1.7-3.8,3.8-3.8h155.5c2.1,0,3.8,1.7,3.8,3.8
		L164.1,35.3L164.1,35.3z"/>
	<g>
		<g>
			<path fill="#FFFFFF" d="M30.5,19.8c0-3.2,2.7-4.8,2.8-4.9c-1.5-2.2-3.9-2.5-4.8-2.5c-2-0.2-4,1.2-5,1.2c-1,0-2.6-1.2-4.3-1.1
				c-2.2,0-4.2,1.3-5.4,3.2c-2.3,3.9-0.6,9.7,1.6,12.9c1.1,1.6,2.4,3.3,4.1,3.2c1.7-0.1,2.3-1,4.3-1c2,0,2.6,1,4.3,1
				c1.8,0,2.9-1.6,4-3.1c1.3-1.8,1.8-3.5,1.8-3.6C33.9,24.9,30.5,23.6,30.5,19.8z"/>
			<path fill="#FFFFFF" d="M27.2,10.3c0.9-1.1,1.5-2.6,1.3-4.1c-1.3,0.1-2.9,0.9-3.8,1.9c-0.8,0.9-1.6,2.5-1.4,3.9
				C24.8,12.2,26.3,11.4,27.2,10.3z"/>
		</g>
	</g>
	<g>
		<path fill="#FFFFFF" d="M55.7,31.5h-2l-0.3-5.3c-0.1-2.4-0.2-4.1-0.2-5.3h-0.1c-0.4,1.5-0.9,3.1-1.5,4.8l-2,5.7h-1.5l-1.8-5.6
			c-0.5-1.7-1-3.3-1.3-4.9h0c-0.1,1.9-0.1,3.7-0.2,5.4l-0.3,5.2h-1.9l0.8-12.6h2.6l1.8,5.5c0.4,1.3,0.8,2.8,1.2,4.3h0.1
			c0.4-1.6,0.8-3,1.3-4.3l1.9-5.5h2.6L55.7,31.5z"/>
		<path fill="#FFFFFF" d="M64.5,31.5h-1.8l-0.1-1h-0.1c-0.6,0.8-1.5,1.2-2.7,1.2c-0.9,0-1.5-0.3-2.1-0.8C57.3,30.4,57,29.8,57,29
			c0-1.1,0.5-2,1.4-2.5c0.9-0.6,2.2-0.9,3.9-0.9v-0.2c0-1.2-0.6-1.8-1.9-1.8c-0.9,0-1.7,0.2-2.4,0.7L57.7,23
			c0.8-0.5,1.9-0.8,3.1-0.8c2.4,0,3.6,1.2,3.6,3.8v3.3C64.4,30.2,64.4,31,64.5,31.5z M62.4,28.4V27c-2.2,0-3.3,0.6-3.3,1.8
			c0,0.5,0.1,0.8,0.4,1.1c0.3,0.2,0.6,0.4,1,0.4c0.4,0,0.9-0.1,1.2-0.4c0.4-0.3,0.6-0.6,0.7-1.1C62.4,28.6,62.4,28.5,62.4,28.4z"/>
		<path fill="#FFFFFF" d="M73,22.7l-0.4,1.5c-0.5-0.2-1.1-0.4-1.8-0.4c-0.9,0-1.6,0.3-2.1,0.9S68,26.1,68,27c0,1,0.3,1.7,0.8,2.3
			c0.5,0.6,1.2,0.8,2.1,0.8c0.6,0,1.2-0.1,1.8-0.4l0.3,1.5c-0.7,0.3-1.5,0.5-2.5,0.5c-1.4,0-2.5-0.4-3.3-1.3s-1.2-2-1.2-3.4
			s0.4-2.6,1.3-3.5c0.9-0.9,2.1-1.4,3.6-1.4C71.6,22.2,72.4,22.4,73,22.7z"/>
		<path fill="#FFFFFF" d="M87.9,31.5h-2.1l-1.2-3.7h-4.1l-1.1,3.7h-2.1l4.1-12.6h2.5L87.9,31.5z M84.2,26.3L83.1,23
			c-0.1-0.3-0.3-1.1-0.6-2.4h0c-0.1,0.5-0.3,1.3-0.6,2.4l-1,3.3H84.2z"/>
		<path fill="#FFFFFF" d="M98.3,26.8c0,1.5-0.4,2.8-1.2,3.7c-0.7,0.8-1.7,1.2-2.8,1.2c-1.2,0-2.1-0.4-2.6-1.3h0v4.8h-2v-9.8
			c0-1,0-2-0.1-3h1.8l0.1,1.4h0c0.7-1.1,1.7-1.6,3.1-1.6c1.1,0,2,0.4,2.7,1.3C97.9,24.4,98.3,25.5,98.3,26.8z M96.2,26.9
			c0-0.9-0.2-1.6-0.6-2.2c-0.4-0.6-1-0.9-1.8-0.9c-0.5,0-0.9,0.2-1.4,0.5s-0.7,0.8-0.8,1.3c-0.1,0.2-0.1,0.5-0.1,0.6v1.5
			c0,0.7,0.2,1.2,0.6,1.7c0.4,0.5,0.9,0.7,1.6,0.7c0.8,0,1.3-0.3,1.8-0.9C96,28.7,96.2,27.9,96.2,26.9z"/>
		<path fill="#FFFFFF" d="M108.7,26.8c0,1.5-0.4,2.8-1.2,3.7c-0.7,0.8-1.7,1.2-2.8,1.2c-1.2,0-2.1-0.4-2.6-1.3h0v4.8h-2v-9.8
			c0-1,0-2-0.1-3h1.8l0.1,1.4h0c0.7-1.1,1.7-1.6,3.1-1.6c1.1,0,2,0.4,2.7,1.3C108.4,24.4,108.7,25.5,108.7,26.8z M106.7,26.9
			c0-0.9-0.2-1.6-0.6-2.2c-0.4-0.6-1-0.9-1.8-0.9c-0.5,0-0.9,0.2-1.4,0.5s-0.7,0.8-0.8,1.3c-0.1,0.2-0.1,0.5-0.1,0.6v1.5
			c0,0.7,0.2,1.2,0.6,1.7c0.4,0.5,0.9,0.7,1.6,0.7c0.8,0,1.3-0.3,1.8-0.9C106.5,28.7,106.7,27.9,106.7,26.9z"/>
		<path fill="#FFFFFF" d="M120.4,28c0,1.1-0.4,1.9-1.1,2.6c-0.8,0.7-2,1.1-3.4,1.1c-1.4,0-2.4-0.3-3.3-0.8l0.5-1.7
			c0.9,0.5,1.9,0.8,2.9,0.8c0.8,0,1.4-0.2,1.8-0.5s0.6-0.8,0.6-1.4c0-0.5-0.2-0.9-0.5-1.3c-0.3-0.4-0.9-0.7-1.7-1
			c-2.2-0.8-3.3-2-3.3-3.6c0-1,0.4-1.9,1.2-2.5c0.8-0.7,1.8-1,3.1-1c1.1,0,2.1,0.2,2.9,0.6l-0.5,1.6c-0.7-0.4-1.5-0.6-2.4-0.6
			c-0.7,0-1.3,0.2-1.7,0.5c-0.3,0.3-0.5,0.7-0.5,1.1c0,0.5,0.2,0.9,0.6,1.2c0.3,0.3,0.9,0.6,1.8,1c1.1,0.4,1.9,0.9,2.4,1.5
			C120.1,26.4,120.4,27.1,120.4,28z"/>
		<path fill="#FFFFFF" d="M127.1,23.9h-2.2v4.4c0,1.1,0.4,1.7,1.2,1.7c0.4,0,0.7,0,0.9-0.1l0.1,1.5c-0.4,0.1-0.9,0.2-1.6,0.2
			c-0.8,0-1.4-0.2-1.9-0.7c-0.4-0.5-0.7-1.3-0.7-2.4v-4.6h-1.3v-1.5h1.3v-1.7l2-0.6v2.3h2.2L127.1,23.9L127.1,23.9z"/>
		<path fill="#FFFFFF" d="M137.1,26.9c0,1.4-0.4,2.5-1.2,3.4c-0.8,0.9-1.9,1.4-3.3,1.4c-1.3,0-2.4-0.4-3.2-1.3
			c-0.8-0.9-1.2-2-1.2-3.3c0-1.4,0.4-2.6,1.2-3.5c0.8-0.9,1.9-1.3,3.3-1.3c1.3,0,2.4,0.4,3.2,1.3C136.7,24.4,137.1,25.5,137.1,26.9z
			 M135,27c0-0.8-0.2-1.6-0.5-2.2c-0.4-0.7-1-1.1-1.8-1.1c-0.8,0-1.4,0.4-1.9,1.1c-0.4,0.6-0.5,1.3-0.5,2.2c0,0.8,0.2,1.6,0.5,2.2
			c0.4,0.7,1,1.1,1.8,1.1c0.8,0,1.4-0.4,1.8-1.1C134.8,28.5,135,27.8,135,27z"/>
		<path fill="#FFFFFF" d="M143.6,24.2c-0.2,0-0.4-0.1-0.6-0.1c-0.7,0-1.3,0.3-1.6,0.8c-0.3,0.5-0.5,1.1-0.5,1.8v4.8h-2l0-6.2
			c0-1,0-2-0.1-2.9h1.8l0.1,1.7h0.1c0.2-0.6,0.5-1.1,1-1.4c0.4-0.3,0.9-0.5,1.5-0.5c0.2,0,0.4,0,0.5,0L143.6,24.2L143.6,24.2z"/>
		<path fill="#FFFFFF" d="M152.6,26.5c0,0.4,0,0.7-0.1,0.9h-6c0,0.9,0.3,1.6,0.9,2.1c0.5,0.4,1.2,0.6,2,0.6c0.9,0,1.7-0.1,2.4-0.4
			l0.3,1.4c-0.9,0.4-1.9,0.6-3,0.6c-1.4,0-2.5-0.4-3.3-1.2s-1.2-1.9-1.2-3.3c0-1.4,0.4-2.5,1.1-3.4c0.8-1,1.8-1.5,3.2-1.5
			c1.3,0,2.3,0.5,3,1.5C152.4,24.4,152.6,25.4,152.6,26.5z M150.7,26c0-0.6-0.1-1.1-0.4-1.5c-0.3-0.6-0.9-0.8-1.6-0.8
			c-0.7,0-1.2,0.3-1.6,0.8c-0.3,0.4-0.5,1-0.6,1.6L150.7,26L150.7,26z"/>
	</g>
	<g>
		<g>
			<path fill="#FFFFFF" d="M49,10c0,1.2-0.4,2.1-1.1,2.7c-0.7,0.5-1.6,0.8-2.8,0.8c-0.6,0-1.1,0-1.5-0.1V7c0.6-0.1,1.2-0.1,1.8-0.1
				c1.1,0,2,0.2,2.6,0.7C48.6,8.2,49,9,49,10z M47.9,10c0-0.8-0.2-1.3-0.6-1.8c-0.4-0.4-1-0.6-1.8-0.6c-0.3,0-0.6,0-0.8,0.1v4.9
				c0.1,0,0.4,0,0.7,0c0.8,0,1.4-0.2,1.9-0.7S47.9,10.9,47.9,10z"/>
			<path fill="#FFFFFF" d="M54.8,11c0,0.7-0.2,1.3-0.6,1.8c-0.4,0.5-1,0.7-1.7,0.7c-0.7,0-1.2-0.2-1.7-0.7c-0.4-0.5-0.6-1-0.6-1.7
				c0-0.7,0.2-1.3,0.6-1.8s1-0.7,1.7-0.7c0.7,0,1.2,0.2,1.7,0.7C54.6,9.8,54.8,10.3,54.8,11z M53.7,11.1c0-0.4-0.1-0.8-0.3-1.1
				c-0.2-0.4-0.5-0.6-0.9-0.6c-0.4,0-0.7,0.2-1,0.6c-0.2,0.3-0.3,0.7-0.3,1.1c0,0.4,0.1,0.8,0.3,1.1c0.2,0.4,0.5,0.6,1,0.6
				c0.4,0,0.7-0.2,0.9-0.6C53.6,11.9,53.7,11.5,53.7,11.1z"/>
			<path fill="#FFFFFF" d="M62.7,8.7l-1.5,4.7h-1l-0.6-2c-0.2-0.5-0.3-1-0.4-1.5h0c-0.1,0.5-0.2,1-0.4,1.5l-0.6,2h-1l-1.4-4.7h1.1
				l0.5,2.2c0.1,0.5,0.2,1,0.3,1.5h0c0.1-0.4,0.2-0.9,0.4-1.5l0.7-2.2h0.9l0.6,2.2c0.2,0.5,0.3,1.1,0.4,1.6h0c0.1-0.5,0.2-1,0.3-1.6
				l0.6-2.2L62.7,8.7L62.7,8.7z"/>
			<path fill="#FFFFFF" d="M68.1,13.4h-1v-2.7c0-0.8-0.3-1.2-0.9-1.2c-0.3,0-0.6,0.1-0.8,0.3c-0.2,0.2-0.3,0.5-0.3,0.8v2.8h-1v-3.4
				c0-0.4,0-0.9,0-1.3h0.9l0,0.7h0c0.1-0.2,0.3-0.4,0.5-0.6c0.3-0.2,0.6-0.3,0.9-0.3c0.4,0,0.8,0.1,1.1,0.4c0.4,0.3,0.5,0.9,0.5,1.6
				L68.1,13.4L68.1,13.4z"/>
			<path fill="#FFFFFF" d="M71,13.4h-1V6.6h1C71,6.6,71,13.4,71,13.4z"/>
			<path fill="#FFFFFF" d="M77.2,11c0,0.7-0.2,1.3-0.6,1.8c-0.4,0.5-1,0.7-1.7,0.7c-0.7,0-1.2-0.2-1.7-0.7c-0.4-0.5-0.6-1-0.6-1.7
				c0-0.7,0.2-1.3,0.6-1.8s1-0.7,1.7-0.7c0.7,0,1.2,0.2,1.7,0.7C77,9.8,77.2,10.3,77.2,11z M76.1,11.1c0-0.4-0.1-0.8-0.3-1.1
				c-0.2-0.4-0.5-0.6-0.9-0.6c-0.4,0-0.7,0.2-1,0.6c-0.2,0.3-0.3,0.7-0.3,1.1c0,0.4,0.1,0.8,0.3,1.1c0.2,0.4,0.5,0.6,1,0.6
				c0.4,0,0.7-0.2,0.9-0.6C76,11.9,76.1,11.5,76.1,11.1z"/>
			<path fill="#FFFFFF" d="M82.2,13.4h-0.9l-0.1-0.5h0c-0.3,0.4-0.8,0.6-1.4,0.6c-0.4,0-0.8-0.1-1.1-0.4c-0.2-0.3-0.4-0.6-0.4-1
				c0-0.6,0.2-1,0.7-1.3c0.5-0.3,1.2-0.5,2-0.4v-0.1c0-0.6-0.3-0.9-1-0.9c-0.5,0-0.9,0.1-1.2,0.3L78.7,9c0.4-0.3,1-0.4,1.6-0.4
				c1.2,0,1.8,0.6,1.8,1.9v1.7C82.2,12.8,82.2,13.2,82.2,13.4z M81.2,11.8v-0.7c-1.2,0-1.7,0.3-1.7,0.9c0,0.2,0.1,0.4,0.2,0.6
				c0.1,0.1,0.3,0.2,0.5,0.2c0.2,0,0.4-0.1,0.6-0.2s0.3-0.3,0.4-0.6C81.1,11.9,81.2,11.9,81.2,11.8z"/>
			<path fill="#FFFFFF" d="M88.2,13.4h-0.9l0-0.8h0c-0.3,0.6-0.8,0.9-1.5,0.9c-0.6,0-1-0.2-1.4-0.7s-0.6-1-0.6-1.7
				c0-0.8,0.2-1.4,0.6-1.9c0.4-0.4,0.9-0.7,1.5-0.7c0.6,0,1.1,0.2,1.3,0.6h0V6.6h1v5.6C88.2,12.6,88.2,13,88.2,13.4z M87.1,11.4
				v-0.8c0-0.1,0-0.2,0-0.3c-0.1-0.3-0.2-0.5-0.4-0.6c-0.2-0.2-0.4-0.3-0.7-0.3c-0.4,0-0.7,0.2-0.9,0.5c-0.2,0.3-0.3,0.7-0.3,1.2
				c0,0.5,0.1,0.8,0.3,1.1c0.2,0.3,0.5,0.5,0.9,0.5c0.3,0,0.6-0.1,0.8-0.4C87,12.1,87.1,11.8,87.1,11.4z"/>
			<path fill="#FFFFFF" d="M97.2,11c0,0.7-0.2,1.3-0.6,1.8c-0.4,0.5-1,0.7-1.7,0.7c-0.7,0-1.2-0.2-1.7-0.7c-0.4-0.5-0.6-1-0.6-1.7
				c0-0.7,0.2-1.3,0.6-1.8s1-0.7,1.7-0.7c0.7,0,1.2,0.2,1.7,0.7C97,9.8,97.2,10.3,97.2,11z M96.1,11.1c0-0.4-0.1-0.8-0.3-1.1
				c-0.2-0.4-0.5-0.6-0.9-0.6c-0.4,0-0.7,0.2-1,0.6c-0.2,0.3-0.3,0.7-0.3,1.1c0,0.4,0.1,0.8,0.3,1.1c0.2,0.4,0.5,0.6,1,0.6
				c0.4,0,0.7-0.2,0.9-0.6C96,11.9,96.1,11.5,96.1,11.1z"/>
			<path fill="#FFFFFF" d="M102.8,13.4h-1v-2.7c0-0.8-0.3-1.2-0.9-1.2c-0.3,0-0.6,0.1-0.8,0.3c-0.2,0.2-0.3,0.5-0.3,0.8v2.8h-1v-3.4
				c0-0.4,0-0.9,0-1.3h0.9l0,0.7h0c0.1-0.2,0.3-0.4,0.5-0.6c0.3-0.2,0.6-0.3,0.9-0.3c0.4,0,0.8,0.1,1.1,0.4c0.4,0.3,0.5,0.9,0.5,1.6
				V13.4z"/>
			<path fill="#FFFFFF" d="M109.8,9.5h-1.2v2.3c0,0.6,0.2,0.9,0.6,0.9c0.2,0,0.3,0,0.5,0l0,0.8c-0.2,0.1-0.5,0.1-0.8,0.1
				c-0.4,0-0.7-0.1-1-0.4s-0.3-0.7-0.3-1.3V9.5H107V8.7h0.7V7.9l1-0.3v1.2h1.2L109.8,9.5L109.8,9.5z"/>
			<path fill="#FFFFFF" d="M115.4,13.4h-1v-2.7c0-0.8-0.3-1.3-0.9-1.3c-0.5,0-0.8,0.2-1,0.7c0,0.1,0,0.2,0,0.4v2.8h-1V6.6h1v2.8h0
				c0.3-0.5,0.8-0.8,1.4-0.8c0.4,0,0.8,0.1,1.1,0.4c0.4,0.4,0.5,0.9,0.5,1.6V13.4z"/>
			<path fill="#FFFFFF" d="M120.9,10.9c0,0.2,0,0.3,0,0.5h-3.1c0,0.5,0.2,0.8,0.5,1.1c0.3,0.2,0.6,0.3,1,0.3c0.5,0,0.9-0.1,1.3-0.2
				l0.2,0.7c-0.4,0.2-1,0.3-1.6,0.3c-0.7,0-1.3-0.2-1.7-0.6s-0.6-1-0.6-1.7c0-0.7,0.2-1.3,0.6-1.8c0.4-0.5,1-0.8,1.6-0.8
				c0.7,0,1.2,0.3,1.5,0.8C120.7,9.8,120.9,10.3,120.9,10.9z M119.9,10.6c0-0.3-0.1-0.6-0.2-0.8c-0.2-0.3-0.5-0.4-0.8-0.4
				c-0.3,0-0.6,0.1-0.8,0.4c-0.2,0.2-0.3,0.5-0.3,0.8C117.7,10.6,119.9,10.6,119.9,10.6z"/>
		</g>
	</g>
</g>
</svg>
