<?xml version="1.0" encoding="utf-8"?>
<!-- Generator: Adobe Illustrator 18.0.0, SVG Export Plug-In . SVG Version: 6.00 Build 0)  -->
<!DOCTYPE svg PUBLIC "-//W3C//DTD SVG 1.1//EN" "http://www.w3.org/Graphics/SVG/1.1/DTD/svg11.dtd">
<svg version="1.1" id="Layer_2" xmlns="http://www.w3.org/2000/svg" xmlns:xlink="http://www.w3.org/1999/xlink" x="0px" y="0px"
	 viewBox="0 0 612 792" enable-background="new 0 0 612 792" xml:space="preserve">
<g>
	<path fill="#999999" d="M158.4,358.7c0.6-1.1,1.3-2.4,2-3.8c-0.6,2,0.6,4.1,2.6,4.8c-0.5-0.3,0.5,0,2.2,0.2c0.1,0,0.3-0.1,0.4-0.1
		c-0.6,3.6-1.3,7.3-1.7,10.4c-0.8,4-1.5,7.1-2.2,10.6c-0.2,0.8,0.3,1.7,1.2,1.9s1.7-0.3,1.9-1.2c0.8-3.3,1.7-6.2,2.5-9.9
		c0.2-0.2,0.3-0.5,0.3-0.8c0-0.2,0-0.5,0-0.7c0.9-4,2.1-8.8,3-13.2c0.2-0.2,0.3-0.5,0.3-0.9c0.5-0.5,1.1-1,1.7-1.6
		c1.2-1,2.5-2.4,3.9-3.9c1.3-1.3,3-2.9,4.6-4.7c1.5-1.7,3.4-3.7,4.9-5.4c1.7-1.9,3.4-3.5,4.9-5.6c0.3-0.4,0.6-0.9,1-1.3
		c1.2,0.9,2.7,1.2,4.1,0.6c2-1.1,3.1-2.8,3-4.6c0.3-0.4,0.7-0.8,1.3-1.2c1-0.8,2.7-2,4.4-3.2c1.4-1,2.9-1.9,4.3-2.9
		c-0.8,2.6-1.6,5.2-2.4,7.6c-1.3,4.4-2.5,8.6-3.5,12.5c-0.8,3.5-1.7,6.9-2.2,9.6c-0.5,2.7-0.8,5.1-0.8,6.7c0,1.9,0.5,3.4,1.2,4.6
		c0.6,1.1,1.9,2.1,3.4,2.6c0.2,0.1,0.3,0.1,0.5,0.1c1.5,0.1,3.3-0.1,4.9-0.6c0.2,0,0.4-0.1,0.6-0.2c1.5-0.6,3.5-1.7,5.2-2.9
		c0.2-0.1,0.3-0.2,0.5-0.3c1.9-1.5,3.5-3.7,5.1-5.4c1-1,1-2.5,0-3.5s-2.5-1-3.5,0c-1.7,1.7-3.4,3.7-4.7,4.7c-1.4,1.1-2.6,1.9-4,2.5
		c-0.2,0-0.4,0.1-0.6,0.2c-0.2,0.1-0.4,0.2-0.6,0.4c-1,0.4-1.9,0.6-2.5,0.6c-0.3,0-0.5,0-0.8,0.1c-0.2,0-0.3-0.2-0.6-0.4
		c-0.5-0.7-0.8-0.8-1-2.4c0-1.5,0.2-3.5,0.7-6.2c0.5-2.5,1.3-5.9,2.2-9.3c1.2-3.7,2.5-7.8,4-12.1c1.4-3.7,2.9-7.9,4.4-12
		c0.2-0.1,0.4-0.2,0.6-0.3c1.5-0.7,2.9-1.2,4.2-1.9c1.3-0.5,2.5-0.8,3.7-1.2c1-0.3,2-0.5,3-0.7c0.2,0,0.4-0.1,0.6-0.1
		c-0.2,1.3-0.5,3.3-0.8,5.7c-0.3,2.2-0.7,5.4-1,8.1c-0.3,2.9-0.8,6.4-1.2,9.3c-0.3,2.9-0.7,5.7-0.8,8.1c-0.3,2.4-0.5,4.6-0.5,6.2
		c-0.2,1.9,0,3.4,0.3,4.6c0.2,1.3,0.8,2.7,1.9,3.7c0.8,0.7,2.1,1.2,3.4,1.4c0.4,0.1,0.8,0.1,1.1,0.1c1.5-0.2,3.4-0.8,4.7-1.9
		s3-2.4,4.4-3.9c1.3-1.5,2.9-3.5,4-5.4c1.3-2,2.5-4.2,3.5-6.2c1.2-2,2.2-4,3.4-6.4c0.6-1.4,1.3-2.9,1.9-4.4c0,1.9,0,3.8,0,5.4
		c0,2.4-0.2,4.7,0,6.6c0,2,0,3.7,0.2,5.1c0,1.3,0.2,2.9,0.5,4c0.3,1.3,0.8,2.5,1.3,3.4c0.8,1,2,1.9,2.5,2.2c0.8,0.5,2,0.8,3,0.8
		c1.2,0,2.4-0.2,2.9-0.3c0.5-0.2,1.7-0.5,2.7-1.3c0.7-0.5,1.7-1.5,2.4-2.9c0.7-1.2,1.2-2.7,1.9-4.2c0.5-1.7,1.2-3.7,1.9-5.9
		s1.5-4.9,2.2-7.3c0.3-1,0.7-2.1,1-3.1c-0.1,0.9-0.2,1.8-0.3,2.6c-0.2,1.5-0.5,3.1-0.7,4.5c-0.6,1.7-1.1,3.3-1.5,4.6
		c-0.8,3-1.5,5.9-2,7.9c-0.2,1.5-0.2,2.7-0.2,3.5c-0.1,0.3-0.1,0.6-0.1,0.9c0,1.7,1.3,3,3,3c1.3,0,2.4-0.8,2.8-2c0,0,0,0,0,0
		c0,0,0,0,0,0c0.1-0.3,0.2-0.6,0.2-1c0-0.8,0-1.7,0.5-3.2c0.3-1.9,0.8-4.6,1.7-7.4c0.7-2.9,1.5-6.7,2.7-10c1-3.4,2.5-6.7,3.9-9.6
		c1.3-2.9,2.7-4.9,4-7.1c1.3-1.9,2.9-3.7,4.2-5.1c1.3-1.2,2.4-2,3.5-2.9c1-0.7,1.9-1.2,2.7-1.5c0.2-0.1,0.4-0.2,0.6-0.3
		c0.1,0,0.2,0.1,0.4,0.1c0.1,0.1,0.2,0.1,0.4,0.2c-0.2,0,0,0,0.3,0.2c2,1.2,4.6,0.3,5.6-1.7c1.2-2,0.3-4.6-1.7-5.6
		c-0.1,0-0.1,0-0.2-0.1c0,0,0,0,0,0c-0.2-0.1-0.4-0.3-0.7-0.4c-0.1-0.1-0.4-0.1-0.7-0.2c0,0,0,0,0,0c-0.3-0.1-0.6-0.2-1-0.3
		c-0.6-0.1-1.2,0-1.7,0.2c0,0-0.1,0-0.1,0c-1.4,0.2-2.4,1.1-2.9,2.3c-0.3,0.5-0.8,1-1.5,1.6c-0.5,0.7-1.2,1.5-2.2,2.5
		c-0.8,0.8-2,1.9-3.4,3.4c-1.3,1.3-3,3.2-4.6,5.4c-0.7,0.9-1.4,1.8-2.1,2.9c0.2-1.1,0.4-2.1,0.6-2.9c0.5-2.4,0.7-3.9,0.8-5.1
		c0.2-1.5-0.2-2.9,0-2.5c0-0.1-0.1-0.3-0.3-0.4c-0.5-2-2.4-3.3-4.6-3.2c-2.2,0.3-3.7,2.4-3.5,4.7c0,0.2,0.1,0.4,0.2,0.7c0,0,0,0,0,0
		c0,0.8,0,1.9-0.1,3.5c0,0.2,0,0.3-0.1,0.5c-0.3,1.2-0.8,3-1.3,4.7c-0.7,2-1.5,4-2.4,6.6c-0.8,2.4-2,5.1-3,7.6c-1,2.4-2,4.9-3,6.9
		c-1,2-1.7,3.9-2.5,5.2c-0.7,1.5-1.2,2.4-1.9,3c-0.3,0.5-0.5,0.5-0.9,0.8c0,0,0-0.1-0.4,0c-0.1,0-0.2,0.1-0.2,0.1
		c-0.3-0.1-0.5-0.1-0.8-0.1c-0.4,0-0.8,0.1-1.1,0.2c-0.2-0.2-0.4-0.4-0.6-0.7c-0.3-0.7-0.7-1.7-1-2.9c-0.2-1.3-0.3-2.7-0.5-4.6
		c0-1.9,0.2-3.9,0.3-6.4c0.3-2.2,0.7-5.1,1-7.6c0.5-2.7,1-5.4,1.5-7.9c0.3-2.4,0.8-4.7,1.2-6.4c0.2-1.7,0.5-3,0.7-3.5
		c0-0.2-0.1-0.4-0.4-0.6c0,0,0-0.1,0-0.1c0-0.1,0-0.1,0-0.2c0-0.2,0.1-0.3,0.1-0.5c0,0-0.1,0-0.1,0c0,0,0,0,0-0.1c0,0,0.1,0,0.1,0
		c0-0.2,0.1-0.4,0.1-0.6c0-2.2-1.9-3.9-4-3.9c-2,0-3.5,1.5-3.8,3.4c-0.1,0.3-0.2,0.6-0.2,1c0,0.5-0.2,1.9-0.3,3.7
		c0,1.7-0.2,4.2-0.3,6.6c0,0.3,0,0.6,0,0.9c-0.1,0.2-0.1,0.3-0.2,0.5c-0.7,1.7-1.5,3.9-2.4,5.9c-1,2.2-2,4.7-3,6.6
		c-1.2,2-2.2,3.9-3.5,5.9c-1.2,1.9-2.5,3.9-3.9,5.6c-1.3,1.7-2.7,3.2-4,4.4c-1.3,1.3-2.5,2.2-3.5,2.9c-0.3,0.2-0.6,0.4-0.9,0.6
		c-0.5-0.2-1-0.3-1.5-0.2c-0.3,0-0.7,0.1-0.9,0.3c0,0,0-0.1-0.1-0.1c-0.3-0.8-0.7-1.9-0.7-3.4s0.2-3.5,0.5-5.9
		c0.3-2.4,0.7-5.1,1.3-7.9c0.7-2.7,1.5-6.1,2.2-8.9c0.7-2.7,1.3-5.7,2-7.8c0.7-2.2,1.2-4,1.7-5.6c0.3-1.5,0.7-2.4,0.8-3
		c0.2-0.5,0.3-1,0.3-2c-0.1-0.3-0.2-0.6-0.4-0.9c-0.1-0.6-0.3-1.2-0.7-1.7c-0.5-0.9-1.4-1.6-2.5-1.9c-1.6-0.4-3.1,0.2-4.1,1.3
		c-0.3,0.1-0.6,0.2-1,0.4c-0.7,0.2-1.7,0.5-2.7,1c-0.8,0.3-2,0.7-3.2,1.2c-1.2,0.5-2.5,1-3.9,1.7c-0.1,0-0.2,0.1-0.3,0.1
		c1.1-2.7,2.2-5.4,3.2-7.7c1.7-4,3-7.4,4.2-10.3c1-2.6,2-4.7,2.5-6.1c0.1-0.2,0.2-0.3,0.3-0.5c0,0,0.1-0.1,0.1-0.1
		c0.1-0.1,0.3-0.4,0.4-0.6c0.3-0.4,0.6-1,0.7-1.6c0.2-0.8,0.1-1.7-0.2-2.4c-0.3-0.8-0.8-1.4-1.5-2c-1.9-1.3-4.4-0.8-5.7,1
		c-0.1,0.2-0.2,0.4-0.3,0.6c-0.1-0.1-0.2-0.2-0.2-0.2c-0.2,0.3-0.7,1-0.8,1.3c-0.1,0.2-0.2,0.4-0.3,0.5c-0.1,0.2-0.3,0.5-0.6,0.9
		c-1.2,1.6-1.2,3.7,0,5.1c-0.2,0.6-0.3,1.1-0.5,1.8c-0.8,2.9-2,6.6-3.4,10.6c-1.1,3.6-2.5,8.2-3.7,12.3c-1.3,0.6-2.7,1.3-4,1.9
		c-2,0.8-4,1.9-5.9,2.7c-1.1,0.5-2.3,1.1-3.4,1.7c0.1-0.8,0.1-1.6,0-2.2c-0.2-1.5-1-3.2-1.5-4c-0.8-1.2-2.2-2-2.9-2.4
		c-0.8-0.4-1.8-0.7-2.6-0.9c-0.3-0.1-0.6-0.2-0.9-0.3c-0.4-0.1-0.9-0.1-1.3,0c-0.6,0-1,0-1.4,0c-0.8,0-1.9,0-2.7,0s-1.9,0.2-2.7,0.2
		c-0.8,0.2-1.9,0.5-2.5,0.8c-0.8,0.3-1.7,1-2.2,1.3c-0.2,0.2-0.4,0.4-0.7,0.7c-0.3-0.1-0.7-0.2-1-0.2c-1-0.1-2,0.3-2.7,1
		c-0.4-0.1-0.6-0.1-0.6-0.1c-0.5,1.2-0.5,1.9-0.7,2.5c-0.2,0.7-0.3,1.5-0.5,2.5c-0.3,1-0.7,2.2-1.3,3.7c-0.5,1.5-1.3,3.2-2,5.2
		c-0.8,1.9-1.9,4-2.9,6.1c-1.2,2.2-2.4,4.4-3.5,6.6c-1.3,2.2-2.7,4.6-4,6.6c-1.3,2-2.7,4.2-3.9,5.6c-0.9,1.1-1.6,2-2.4,2.7
		c0-0.5-0.1-1.1-0.1-1.7c0-1.5,0.2-3.4,0.2-5.4c0.2-2.2,0.3-4.6,0.7-6.9c0.3-2.2,0.7-4.4,1-6.6c0.3-2,0.5-4.2,0.7-5.7
		s0.3-2.7,0.5-3.5c0.2-1,0.2-1.7,0.2-2c0,0,0,0,0,0c0,0,0,0,0,0c0,0,0-0.1,0-0.1c0,0,0,0,0,0c0-0.3-0.2-0.8-0.4-1.3
		c0.4,0.2,0.8,0.4,1.2,0.6c2.2,0.7,4.6-0.7,5.1-2.9c0.2-0.7,0.3-1.3,0.5-2.4c0.1-0.3,0.1-0.6,0.1-0.8c0-0.2,0.1-0.4,0.1-0.7
		c0-0.3,0.2-1.1,0.3-2.1c0-0.3,0.1-0.6,0-0.9c-0.1-0.9-0.5-1.7-1-2.4c-0.3-0.5-0.6-0.9-0.7-1c-0.7-0.5-1.7-1.2-2.5-1.5
		c-0.7-0.3-1.9-0.7-2.7-0.7c-0.8-0.2-1.9-0.2-3-0.2c-0.8,0-2.4,0.2-3.9,0.5c-1.2,0.3-2.9,0.8-4.6,2c-1.3,1-3,2.5-4.6,4.4
		c-1.5,1.9-3,4.4-4.4,6.9c-1.3,2.5-2.5,5.4-3.7,8.3c-1,2.7-2.2,6.2-2.9,8.9c-0.3,1-0.5,1.9-0.7,2.8c-0.2-0.1-0.3-0.2-0.5-0.3
		c-1.9-1-4.2-0.3-5.1,1.5c-0.2,0.3-0.2,0.7-0.2,0.8c-0.1,0.2-0.1,0.3-0.1,0.5c-0.1,0.3-0.2,0.6-0.3,0.8c-0.3,0.5-0.5,1-0.9,1.7
		c-0.5,0.8-1.3,1.9-2.2,2.9c-1,1.2-2,2.5-3,3.5c-1.3,1.3-2.5,2.7-3.7,3.5c-1.2,1-2.5,1.5-4,2.2c-1.3,0.5-2.5,0.8-3.7,0.8
		c-1.3,0.2-2.2,0-3.4-0.5c-1.2-0.3-2.2-1-3.2-1.9c-1-1-1.9-2.2-2.4-3.7c-0.7-1.7-1.2-3.4-1.3-5.7s0-5.1,0.3-8.4
		c0.3-3.4,1-7.8,1.9-11.8c1-4.4,2.4-9.3,3.9-13.8c1.7-4.4,3.7-9.1,5.7-12.8s4.2-7.1,6.1-9.3c1.9-2.4,3.5-3.5,5.2-4.7
		c1.3-1,2.2-1.2,3.2-1.3c0.5-0.2,0.5,0,1.3,0.3c0.3,0,0.3,0.2,0.8,0.5c0.3,0.3,0.5,0.7,0.8,1.3c0.2,0.5,0.3,1.3,0.5,2
		c0.2,0.7,0,1.2,0,2c0,0.7-0.2,1.7-0.3,2.5c0,0,0,0.1,0,0.1c-0.1,0.3-0.3,0.7-0.3,1.1c0,0.2,0,0.4,0,0.6c0,0.2-0.1,0.3-0.1,0.6
		c-0.5,2.2,1,4.6,3.2,5.1c2.2,0.5,4.4-1,4.9-3.2c0-0.3,0.2-0.8,0.3-1.9c0.1-0.4,0-0.8,0-1.1c0-0.2,0-0.3,0-0.5c0-0.5,0.2-2,0.2-3.2
		c0-1-0.2-2.2-0.5-3.4c-0.3-1-0.7-2.4-1.3-3.5c-0.5-1-1.2-2.4-2.2-3.2c-0.8-0.8-2.2-1.9-3.7-2.4c-1-0.3-3-0.7-5.1-0.2
		c-1.3,0.5-3.5,1.3-5.4,2.9c-1.7,1.5-3.7,3.5-5.7,6.4c-1.9,2.7-3.9,6.6-5.7,10.6c-1.9,4-3.7,9.1-5.1,13.7c-1.5,4.7-2.7,9.8-3.5,14.3
		c-0.8,4.2-1.3,8.8-1.7,12.1c-0.3,3.5-0.5,6.4-0.5,8.9c0.2,2.7,0.5,4.7,1.2,6.7c0.5,1.9,1.5,3.7,2.5,5.1c1.2,1.5,2.7,2.7,4.2,3.5
		c1.3,0.7,3.1,1.2,4.7,1.4c0.2,0.1,0.4,0.1,0.7,0.1c1.9,0,3.9-0.5,5.6-1c1.7-0.7,3.7-1.7,5.4-2.9c1.7-1.3,3.2-3,4.4-4.2
		c1.2-1.3,2.4-2.7,3.4-3.9c1-1.2,1.9-2.2,2.5-2.9c0.4-0.5,0.8-0.9,1.1-1.3c0,0,0,0,0,0c-0.2,1.2-0.3,2.3-0.4,3.3
		c-0.2,1.7-0.2,2.9-0.2,3.9s0.3,2.4,1,3.5c0.4,0.5,1.1,1,1.9,1.4c0.6,0.4,1.3,0.7,2.1,0.6c1.3,0,3.2-0.7,4.6-1.3
		c1.2-0.8,2.7-2,4-3.4c1.2-1.5,2.2-3.4,3.2-4.9c1-1.5,1.9-3.4,2.7-4.9c0.7-1.3,1.5-2.6,2.2-3.8c0,2,0,4.2,0,6c0,2-0.2,3.9-0.2,5.6
		c-0.2,1.7-0.2,3.2-0.2,4.2c-0.2,0.8-0.2,2.2,0.5,3.5c0.3,0.5,1,0.9,1.7,1.3c0.9,0.7,2.1,1,3.1,0.5c1.2-0.3,2.7-1.2,3.9-2.4
		C155.7,362.3,157,360.6,158.4,358.7z M179.8,323.5c0-0.3,0-0.3,0-0.5c0-0.2,0.2-0.3,0.3-0.8c0.3-0.5,0.5-0.8,0.7-1
		c0.2-0.3,0.3-0.3,0.5-0.7c0.3-0.3,0.3-0.3,0.5-0.5c0.3-0.2,0.3-0.2,0.8-0.3c0.3-0.2,0.8-0.2,1.7-0.2c0.7,0,1.5-0.2,2.2-0.2
		c1,0,1.5-0.2,1.9,0c0.5,0,0.7,0.2,1,0.3c0.5,0.2,0.3,0.2,0.3,0.2c0.3,0.3,0.3,0.3,0.3,0.7c0.2,0.7,0.2,1,0,2
		c-0.2,1.2-0.7,2.5-1.3,4c-0.7,1.7-1.7,3.5-2.9,5.2c-1.2,1.9-2.5,3.7-4,5.6c-1.3,1.9-3,3.9-4.4,5.6c-1.5,1.7-3,3.2-4.4,4.6
		c-0.1,0.1-0.3,0.2-0.4,0.4c0.3-1.5,0.7-3,1-4.4c0.3-0.4,0.5-0.8,0.6-1.3c0.1-0.4,0.1-0.9,0-1.3c0.8-3.6,1.5-7.1,2.1-9.7
		c1.7-0.3,3-1.8,3.3-3.7c0-0.1,0-0.2,0-0.3c0.1-0.3,0.1-0.6,0.2-0.9c0-0.3,0-0.5,0-0.8c0-0.3,0-1,0-1.3
		C179.8,323.6,179.8,323.6,179.8,323.5z M165.1,344.9c1.2-2.4,2.2-4.7,3.2-6.9c0.3-0.7,0.6-1.3,0.9-2c-0.2,1.6-0.5,3.4-0.7,5
		c-0.5,3.5-1.1,7.4-1.7,11.3c-0.2,0.1-0.3,0.1-0.5,0.2c-0.2,0.1-0.4,0.1-0.5,0.2c0-0.1-0.1-0.2-0.5-0.4c-1.6-0.5-3.4,0.1-4.3,1.5
		c0.3-0.6,0.5-1.1,0.8-1.6C163,349.8,164.1,347.2,165.1,344.9z M145.7,324.6c0.2-0.3,0.2,0,0.2,0.5c0,0.1,0,0.3,0,0.4
		C145.8,325.1,145.7,324.8,145.7,324.6z M143.6,337c-0.7,1.2-1.2,2.4-2,3.7c-0.7,1.3-1.7,2.7-2.5,4.2c-1,1.5-2,3-3,4.6
		c-1.2,1.5-2.2,2.9-3,3.9s-1.7,1.7-2.5,2.2c-0.7,0.5-1,0.7-1.2,0.7c0,0.1,0.1,0.3,0.1,0.3c0,0-0.1,0-0.1,0c0,0,0,0,0,0c0,0,0,0,0,0
		c-0.1,0-0.3,0-0.4,0c-0.1-0.1-0.2-0.3-0.3-0.5c-0.3-0.8-0.5-1.5-0.7-2.9c0-1.5,0.2-3.4,0.5-5.6c0.3-2.2,0.8-4.6,1.5-7.1
		c0.8-2.5,2-5.7,3.2-8.3c1.3-2.7,2.7-5.1,4.2-7.3c1.3-2.2,3-4,4.4-5.6c1.3-1.3,2.5-2,3.7-2.7c1-0.5,1.5-0.5,2.7-0.7
		c0.7-0.2,1.3,0,2.2,0c0.7,0,1.2,0.2,1.7,0.3c0,0,0,0,0,0c0,0.1,0,0.1,0,0.2c-0.2,0.5-0.2,0.7-0.2,0.8c-0.2,0.7-0.3,1.3-0.5,2
		c-0.2,0.8-0.1,1.7,0.1,2.4c-2.6-0.3-5.9,1.9-6,2.6c0,0,0,0.7-0.2,1.3c0,0.7,0.2,1.2,0.2,2c0.2,0.8,0.2,1.9,0.2,3.5c0,0,0,0.1,0,0.1
		c-0.2,0.8-0.4,1.5-0.7,2.3C144.6,334.8,144.1,335.8,143.6,337z"/>
	<path fill="#999999" d="M259.9,313.2c-0.1,0-0.2,0-0.2-0.1c0,0,0,0,0,0C259.8,313.2,259.9,313.2,259.9,313.2z"/>
	<path fill="#999999" d="M302.6,334.6c1.2-2.4,2.8-4.9,4.4-7.1c0.3,0.1,0.6,0.2,0.8,0.2c0.5,0,1,0.2,2,0.2c0.2,0,1,0,1.9,0
		c0.7,0,2.2,0,3.4-0.3c1.2-0.2,2.4-0.7,3.5-1.2c1-0.5,2.4-1.2,3.4-1.9c1-0.7,2.4-1.7,3.2-2.7c1-1,1.9-2.2,2.5-3c0.7-1,1.2-2.2,1.5-3
		c0.3-1,0.7-2.2,0.8-2.9c0.2-0.5,0.2-2.2-0.7-3.9c-0.7-0.8-2.4-2-3.7-2.5c-0.7-0.2-2.7-0.2-4.6,0.3c-1.3,0.5-3.5,1.3-5.6,3
		c-1.7,1.3-4,3.5-5.9,5.9c-1,1.3-2.1,2.8-3.2,4.4c-1.2,0.6-2.1,1.8-2.2,3.3c0,0,0,0.1,0,0.1c-0.1,0.2-0.2,0.4-0.3,0.6
		c-1.7,2.9-3.4,6.2-4.6,9.1c-1.2,2.9-2,5.7-2.5,8.3c-0.7,2.5-1,5.2-0.8,7.4c0,2.2,0.3,4.4,1.2,6.1c0.7,1.9,2.2,3.7,3.7,4.9
		c1.7,1.2,3.9,2,5.7,2.7c2,0.5,4.6,1.2,7.4,1c2.5-0.2,5.7-0.7,8.9-1.9c3.2-1.3,7.4-3.7,10.5-5.6s5.2-3.9,7.6-5.6
		c0.7-0.5,0.8-1.5,0.3-2.2c-0.5-0.7-1.5-0.8-2.2-0.3c-2.7,1.7-4.7,3.5-7.8,5.1c-3,1.7-7.1,3.7-10,4.6c-2.5,0.7-4.7,1.1-6.8,1.1
		c-0.3-0.1-0.5-0.1-0.8-0.1c-0.3,0-0.5,0.1-0.7,0.1c-1.9-0.1-3.7-0.5-5.5-1c-1.9-0.5-3.2-0.8-4.4-1.7c-1.2-0.7-2.2-1.7-2.9-2.9
		c-0.7-1.3-1.2-2.5-1.2-4.6c0-1.9,0.2-4,0.7-6.6C300.6,339.8,301.4,337.1,302.6,334.6z M319.3,315c1.4-0.9,2.4-1.2,3.6-1.3
		c-0.2,0.5-0.5,0.9-0.7,1.5c-0.5,0.7-1,1.3-1.7,2c-0.7,0.7-1.5,1.2-2.2,1.7c-0.7,0.3-1.5,0.7-2.4,0.8c-0.3,0.1-0.6,0.1-0.8,0.2
		c-0.4-0.1-0.8-0.1-1.2,0c-0.2,0-0.4,0.1-0.6,0.2c-0.1,0-0.2,0-0.2,0c0.2-0.2,0.5-0.5,0.7-0.7C315.6,317.6,317.6,316,319.3,315z"/>
	<path fill="#999999" d="M372.5,305.6c-2.2,1-3.2,3.5-2.2,5.7c0.2,0.6,0.5,1.2,0.9,1.6c0.1,0.8,0.1,1.7,0.1,2.7
		c0,1.9-0.2,5.1-0.2,7.8c0,2.7,0,5.6,0.2,8.1c0,2.5,0.2,5.1,0.5,7.1c0.2,2,0.5,4,0.8,5.6c0.3,1.7,0.7,3.2,1.2,4.4
		c0.5,1.2,1.2,2.5,2,3.4c0.4,0.4,1.4,1,2.6,1.4c0.5,0.2,1.2,0.4,1.8,0.3c1.5-0.2,3.4-1,4.9-2c1.3-1,3-2.5,4.7-4.6
		c1.5-2,3.4-4.9,4.7-7.3c1.5-2.5,2.9-5.2,4-7.6c0.5-0.9,0.9-1.7,1.3-2.6c-0.4,2.8-0.9,5.8-1.3,8.7c-0.7,3.9-1.2,7.9-1.9,11.6
		c-0.5,3.5-1.2,7.1-1.7,10.3c-0.7,3.2-1.2,6.4-1.5,8.9c-0.5,2.7-1,4.7-1.7,6.7c-0.5,1.7-1,3.2-1.5,4.2c-0.1,0.1-0.1,0.2-0.2,0.4
		c-0.3,0.5-0.5,0.7-0.8,0.9c-0.3,0.1-0.6,0.3-0.8,0.6c-0.3,0.2-0.5-0.2-1.3,0.3c-1.3,1-1.5,2.9-0.7,4.2c1,1.3,2.9,1.5,4.2,0.7
		c0-0.3,0.7-0.8,1.5-1.9c0.3-0.5,1-1.5,1.5-3.2c0.5-1.3,0.8-3.2,1.1-5c0.1-0.1,0.2-0.2,0.2-0.4c0-0.2,0-0.4,0-0.6
		c0.4-1.8,0.7-3.8,1.2-6.1c0.5-2.5,1-5.7,1.7-9.1c0.7-3.2,1.5-6.7,2.2-10.3c0.8-3.7,1.7-7.8,2.5-11.5c0.8-3.5,1.9-7.4,2.7-10.6
		c0.8-3.2,1.7-6.2,2.5-8.4c0.7-2.4,1.3-4,1.9-5.6c0.3-1.3,0.7-2.2,0.8-3c0.1-0.3,0.1-0.7,0.1-1c0.1-0.4,0.1-0.9,0.1-1.3
		c-0.3-2-2.2-3.5-4.2-3.2c-1.9,0.3-3.4,2-3.2,3.9c0-0.3-0.2-0.3-0.2,0c0,0.7-0.2,1.3-0.5,2.9c0,0.2,0,0.4-0.1,0.6
		c0,0.1-0.1,0.2-0.1,0.2c-0.3,1.2-0.8,2.5-1.5,4.2c-0.7,1.5-1.5,3.5-2.5,5.4c-1.2,2-2.4,4.4-3.7,6.7c-1.3,2.2-3,4.7-4.6,6.9
		c-1.7,2.2-3.5,4.7-4.9,6.2c-1.5,1.5-2.5,2.4-3.9,3c-1,0.7-1.5,1-1.9,1c0,0,0,0,0,0c-0.5-0.2-0.5,0-1-0.8c-0.5-0.8-0.8-1.9-1.3-3.2
		c-0.3-1.3-0.7-3-0.8-4.9c0-2,0-4.2,0.2-6.7c0.2-2.4,0.7-5.1,1-7.8c0.3-2.2,0.8-4.7,1.1-6.7c0.1-0.3,0.1-0.6,0.1-0.9
		c0,0,0-0.1,0-0.1c0,0,0,0,0,0c0.1-2.1,0.3-3.5,0.3-4.5c0,0,0-0.1,0-0.1c0,0,0,0,0-0.1c0-0.1,0-0.2,0-0.2c0.3-1,0.3-2,0-3.1
		c0-0.3-0.1-0.5-0.1-0.9c-0.2-0.1-0.3-0.1-0.5-0.2c-1.3-1.5-3.5-2-5.4-1.2c-0.1,0.1-0.2,0.1-0.2,0.2
		C371.9,306,371.9,306.1,372.5,305.6z"/>
	<path fill="#999999" d="M411.6,334.9c-0.2,2.5-0.3,5.1-0.3,7.3c-0.2,2-0.2,4-0.2,5.9s0.2,3.7,0.5,5.1c0.3,1.3,0.8,2.9,1.7,4
		c0.8,1.2,2.4,2.4,3.5,3c1.3,0.7,3.2,1.2,4.7,1.3c1.5,0,3.5,0,5.6-0.7c1.7-0.5,3.9-1.7,5.6-3c1.7-1.3,3.2-3.2,4.6-5.2
		c1.3-2,2.4-4.6,3.4-7.3c0.8-2.5,1.7-5.6,2.2-8.1c0.7-2.7,1-5.4,1.3-7.8c0.3-2.4,0.5-4.7,0.7-6.7c0.1-1,0.1-2,0.1-2.9
		c0.2-0.2,0.5-0.3,0.7-0.5c1.7-1,3.2-1.9,4.4-2.5c1.3-0.7,2.5-1.3,3.5-1.9c0.8-0.4,1.4-0.7,2.1-0.9c-0.3,1.6-0.6,3.4-1.1,5.3
		c-0.5,2.2-1.2,5.1-1.7,7.6s-1,5.2-1.3,7.6c-0.3,2.4-0.7,4.7-0.8,6.7c-0.2,1.9-0.3,3.5-0.3,4.9c0,1.5,0,2.9,0.3,4
		c0.3,1.2,1,2.5,1.9,3.5c1,0.8,2.5,1.5,3.5,1.9c1,0.3,2.7,0.7,4.2,0.5c1.3-0.2,3-0.7,4.6-1.5c1.3-0.8,2.9-2,4.2-3.5
		c1.2-1.5,2.5-3.5,3.5-5.6c1.2-2,2.2-4.4,3.4-6.7c1-2.4,2-5.1,3-7.4c0.8-2,1.6-4.1,2.2-5.9c-0.2,2.3-0.4,4.5-0.5,6.6
		c-0.2,2.4-0.5,4.6-0.5,6.4c-0.2,2-0.2,3.5-0.2,5.1c-0.2,1.3-0.2,2.7-0.2,4c0,1.2,0.3,2.5,0.8,3.7c0.5,1,1.7,2.4,2.7,3
		c1.2,0.7,2.7,1,4,1.3c1,0,2.9,0.3,5.1-0.2c1.9-0.5,4.4-1.5,6.4-2.9c0.6-0.4,1.2-0.8,1.8-1.2c-0.1,0.6-0.1,1-0.1,1.4
		c-0.2,0.4-0.3,0.9-0.4,1.3c-0.2,1.9,1.3,3.4,3.2,3.5s3.4-1.3,3.5-3.2c0.2-0.3,0.2-1,0.3-2c0.2-1.2,0.3-2.9,0.7-4.6
		c0.2-1.2,0.4-2.5,0.7-3.9c0.3-0.3,0.7-0.7,1-1c0.8-0.8,1-2.4,0.2-3.2c-0.1-0.1-0.1-0.1-0.2-0.2c0.5-1.8,1.1-3.8,1.7-5.8
		c1-2.7,2-5.7,3.2-8.4c1.3-2.7,2.7-5.6,4.2-7.9c1.5-2.4,3.2-4.6,4.9-6.2s3.4-2.9,5.1-3.9c1.7-1,3-1.5,4.6-1.9c1.3-0.3,2.5-0.3,4-0.5
		c1.2,0,2.4,0,3.5,0.2c1.2,0.2,2.2,0.3,3.2,0.5s1.9,0.5,2.7,0.7c0.7,0.2,1,0.5,2,0.8c1.7,0.7,3.7-0.2,4.4-2c0.7-1.7-0.2-3.7-2-4.4
		c-0.7-0.2-1.3-0.5-2.5-0.8c-1-0.2-2.4-0.5-3.5-0.7s-2.5-0.2-3.9-0.2c-1.2,0.2-2.7,0.2-4.4,0.5c-1.3,0.3-3,0.7-4.7,1.3
		c-1.5,0.7-3.4,1.7-5.1,2.9c-1.7,1.2-3.5,2.7-5.2,4.6c-1.7,1.9-3.7,4.2-5.4,6.6c-0.4,0.6-0.8,1.2-1.3,1.8c0.1-0.6,0.3-1.2,0.4-1.7
		c0.7-2.7,1.2-5.2,1.5-6.7c0.2-1.1,0.4-1.9,0.5-2.4c0.1,0,0.1,0,0.2,0c0.7-2.4-0.5-4.7-2.7-5.6c-3,0-5.4,1.3-6.2,3.5
		c0,0,0.1,0,0.1,0c-0.1,0.3-0.3,0.6-0.3,1c-0.1,0.5,0,1,0.1,1.5c0,0.3,0,0.7-0.1,1.2c-0.2,1.5-0.3,3.9-0.8,6.7
		c-0.3,2.9-0.8,6.6-1.3,10c-0.5,3.4-1,7.1-1.5,10.1c-0.2,1.3-0.4,2.6-0.6,3.8c-0.1,0.3-0.3,0.6-0.4,1c-0.6,1.4-1.1,2.7-1.4,3.9
		c-0.2,0.2-0.4,0.3-0.6,0.5c0,0,0,0,0,0s0,0,0,0c-1.9,1.3-4,3-5.7,3.9c-1.5,0.8-3.3,1.2-4.7,1.6c-0.2,0-0.4,0-0.6,0.1
		c0,0-0.1,0-0.1,0c-0.8,0.1-1.3-0.1-2.4-0.2c-0.8,0-1.2-0.2-1.7-0.3c-0.3-0.2-0.3,0-0.7-0.3c-0.3-0.3-0.5-0.7-0.8-1.5
		s-0.3-1.9-0.5-3.4c0-1.3-0.2-2.9-0.2-4.7c0.2-1.9,0.3-3.9,0.7-6.2c0.3-2.4,1-4.9,1.5-7.6c0.7-2.5,1.3-5.4,2-7.9
		c0.5-2.4,1-4.7,1.3-6.4c0.3-1.7,0.5-3,0.7-3.9c0.2-1.2,0-2,0-1.9c0,0,0,0-0.1,0c-0.4-2-2.3-3.7-4.3-3.5c-1.5,0.1-2.9,1.2-3.5,2.5
		c0,0,0,0,0,0c0,0,0,0,0,0c-0.3,0.6-0.4,1.2-0.3,1.8c0,0.1,0,0.2,0,0.2c0,0.1,0,0.1,0,0.2c0,0.1,0,0.1-0.1,0.3c0,0.8,0,1.9,0,3.4
		c0,0,0,0,0,0.1c-0.1,0.5-0.3,1-0.5,1.6c-0.3,1.3-1,2.9-1.5,4.7c-0.7,1.9-1.5,3.9-2.4,6.2c-1,2.2-2,4.7-3,7.1
		c-1.2,2.4-2.2,4.7-3.4,6.9s-2.5,4.2-3.7,6.1c-1.2,1.7-2.4,3.2-3.4,4.2s-1.9,1.5-2.9,2c-0.8,0.5-1.2,0.5-2,0.5c-0.5,0.2-1,0-1.9-0.2
		c-0.8-0.2-1-0.2-1.2-0.2c-0.3-0.2-0.3,0-0.7-0.5c-0.3-0.5-0.7-1.2-0.8-2.4c-0.2-1.2-0.2-2.5-0.2-4.4c0.2-1.9,0.5-4,0.8-6.2
		c0.5-2.2,1.2-4.7,1.9-7.1c0.8-2.2,1.9-4.9,2.7-7.1s1.7-4.2,2.2-5.7c0.5-1.5,1-2.9,1.3-4c0.1-0.3,0.1-0.5,0.2-0.8
		c0.2-0.5,0.4-1.1,0.3-1.8c-0.1-0.7-0.3-1.4-0.6-1.9c-0.5-1-1.4-1.7-2.6-2.1c-1.2-0.3-2.3,0-3.2,0.5c-0.3,0.2-0.6,0.3-0.9,0.5
		c-0.3,0.2-1,0.5-1.9,1c-0.7,0.5-1.5,1-2.2,1.5c-0.7,0.5-1.7,1-2.7,1.9c-1,0.7-2,1.5-3.4,2.4c-0.9,0.6-1.8,1.1-2.8,1.8
		c-0.2-0.8-0.5-1.6-0.7-2.3c-0.7-1.5-1.5-3-2.5-4s-2.4-2.2-3.7-2.9c-1.2-0.5-3-1.2-4.9-1.3c-1.7,0-3.7,0.7-5.2,1.3s-3.4,2-4.7,3.4
		c-0.4,0.4-0.8,0.9-1.1,1.4c-0.1-0.1-0.2-0.1-0.2-0.2c-1.7-1.7-4.2-1.2-5.6,0.8c-0.2,0.3-0.8,1.2-1.5,2.7c-0.3,0.6-0.4,1.3-0.4,2
		c0,0.2-0.1,0.4-0.1,0.6c-0.2,1-0.8,3-1.2,5.2c0,0.2-0.1,0.5-0.1,0.7c-0.1,1.8-0.3,3.8-0.3,5.7C411.9,329.7,411.8,332.4,411.6,334.9
		z M501,354C501,354,501,354,501,354C501,354,501,354,501,354z M439.9,329c-0.3,2.4-0.8,4.7-1.3,7.4c-0.7,2.4-1.5,5.2-2.4,7.4
		c-1,2.4-2.2,4.2-3.4,5.9c-1.2,1.7-2.4,2.7-3.7,3.7c-1.2,0.8-2.5,1.3-3.9,1.7c-1.1,0.3-2,0.3-3,0.2c-0.1,0-0.1,0-0.2,0
		c-0.1,0-0.1,0-0.2,0c0,0,0,0,0,0c-1,0-1.9-0.2-2.5-0.5c-0.8-0.3-1.3-0.5-1.9-1c-0.5-0.5-0.8-0.7-1.2-1.9c-0.3-1-0.7-2.4-0.8-4
		c-0.2-1.5,0-3.4,0.2-5.4c0.2-2.2,0.5-4.6,0.8-6.9c0.5-2.4,1-4.9,1.5-7.1c0.1-0.6,0.3-1.2,0.4-1.7c1,0.8,2.5,1.6,4.2,1.7
		c1.7,0.2,3.9-0.3,5.7-0.7c1.9-0.5,4-1.2,6.1-2c2-0.8,4.2-2,6.1-3.2l0,0C440.4,324.5,440.3,326.8,439.9,329z M426.4,312.8
		c0.8-0.8,2-1.5,3.2-2c1.2-0.5,1.9-0.8,2.7-0.8c0.7-0.2,1.2,0.2,2.2,0.5c0.8,0.3,1.5,0.7,2.2,1.3c0.8,0.7,1.3,1.3,2,2.4
		c0.5,0.8,0.9,1.7,1.2,2.7c-0.7,0.4-1.5,0.8-2.2,1.2c-1.9,0.8-3.9,1.7-5.7,2.4s-3.7,1-5.2,1.2c-1.3,0.3-2.4,0.4-3.2,0.4
		c-0.1,0-0.1,0-0.2-0.1c-0.1,0-0.2,0-0.3,0c0,0,0,0,0,0c-0.7,0-0.5,0-0.8-0.3c-0.2-0.3,0-1.2,0.3-2.4c0.3-1,0.7-1.9,1.3-3
		C424.8,315,425.4,313.7,426.4,312.8z"/>
	<path fill="#999999" d="M167.5,466.8c3,0.3,7-0.3,10.6-1.2c0.2,0,0.4-0.1,0.6-0.1c2.2-0.7,4.9-2.7,6.2-3.7c1.7-1.2,2.7-2.2,3.9-3.2
		c1-1,1.2-2.5,0.2-3.7c-1-1-2.5-1.2-3.7-0.2c-1.2,1.2-1.9,2.2-3.2,3.2c-1.5,1.2-3.5,3-4.7,3.4c-3.4,1.2-6.7,1.7-9.4,1.5
		c-0.2,0-0.4,0-0.6,0c-0.4,0-0.4-0.2-0.6-1.2c-0.8-3.5-1.2-7.6-1-13.5c0.2-2.9,1-7.4,2.2-12.3c1-4.4,2.2-9.3,3.4-14.2
		c1.4-0.7,2.9-1.4,4.3-2.1c2.2-1.2,4.6-2.5,6.7-4c2.2-1.3,4.4-2.9,6.4-4.6c2-1.5,4-3.4,5.7-5.1c1.1-1.1,2.2-2.2,3.1-3.2
		c-0.4,3.7-1,8.1-1.5,12.7c-0.5,4.6-1,10-1.3,14.5c-0.5,4.6-0.8,8.9-1.2,12.7c-0.3,3.9-0.7,7.1-0.8,10c-0.2,2.7-0.3,5.1-0.5,6.7
		c-0.2,1.9-0.2,3.5-0.3,4c0,0.1,0,0.1,0,0.2c-0.3,0.7-0.3,1.6,0.3,2.3c0.8,1,2.2,1.2,3.2,0.3c0.2-0.1,0.3-0.3,0.4-0.5
		c0.6-0.7,1-1.4,1.4-2.2c0.5-1.2,1.2-2.9,2-4.7c0.8-2,1.9-4.7,3-7.3c1.2-2.7,2.5-5.7,3.7-8.4c1.3-2.7,2.5-5.4,3.9-7.9
		c1.3-2.2,2.7-4.2,3.9-5.9c1.2-1.7,2.4-2.9,3.4-3.9c0.2-0.2,0.4-0.4,0.6-0.5c0,0.8,0,1.7,0,2.7c0.2,2,0.2,4.6,0.3,6.9
		c0,2.4,0,5.1,0,7.4c0,2.2-0.2,4.6-0.2,6.6c-0.2,1.9-0.2,3.5-0.2,5.1c-0.2,1.3-0.2,2.7,0,3.9c0,1,0.5,2.7,1.7,3.9
		c0.8,0.5,2.5,0.9,4,0.7c0.4,0,0.9-0.2,1.3-0.4c1.2-0.7,2.5-2,3.7-3.5c1-1.3,2.2-3.5,3.2-5.6c1-2,2-4.6,2.9-6.7c1-2.2,2-4.4,2.9-6.2
		c1-1.9,2-3.7,2.9-5.2c0.2-0.2,0.3-0.5,0.4-0.7c-0.1,2.2-0.3,4.7-0.4,7.3c-0.2,2.7-0.2,5.7-0.2,8.3c-0.2,2.5-0.2,4.7,0,6.7
		c0,2,0.2,3.7,0.5,5.1c0.2,1.3,0.7,2.9,1.5,4.2c1,1.2,2.9,2.2,4.4,2.4c1.5,0.2,3.5-0.3,5.1-1.2c1.3-0.8,3.2-2.4,4.4-4
		c1.2-1.7,2.4-4,3.2-6.1c0.8-2.2,1.7-4.6,2.4-6.9c0.7-2.2,1.2-4.6,1.5-6.7c0.3-2,0.5-4.1,0.6-5.8c0.3-0.2,0.6-0.5,0.9-0.7
		c1.9-1.5,3.5-3.4,4.7-4.7c1.5-1.3,2.7-2.7,3.7-3.7c1.1-1,1.9-1.5,2.7-2c0.1,0.4,0.1,1,0.1,1.6c0.2,1.7,0.2,4.2,0.2,6.7
		c0,2.5,0,5.4,0,8.1c0,2.5-0.2,5.2-0.2,7.6c-0.2,2.2-0.2,4.2,0,5.9c0,1.7,0.2,3.2,0.8,4.6c0.4,0.6,1,1.4,1.8,2
		c0.5,0.7,1.3,1.2,2.2,1.2c1.5,0.2,3.7-0.3,5.4-1.3c1.5-1,3.2-2.7,4.7-4.6c1.3-1.9,2.7-4.6,3.9-6.7c1.2-2.4,2.2-5.1,3.2-7.4
		c0.8-1.8,1.6-3.5,2.3-5.2c-0.2,2.6-0.3,5.4-0.3,7.7c-0.2,2.5-0.2,4.7-0.2,6.6c0,2,0,3.9,0.2,5.6c0.2,1.5,0.7,3.2,1.5,4.6
		c0.7,0.8,2.1,1.9,3.8,2.4c0.4,0.2,0.8,0.3,1.3,0.3c1.9,0,4.2-0.8,6.2-2c1.9-1.3,4.2-3.5,6.2-5.6c0.3-0.4,0.6-0.8,0.9-1.1
		c0.1,0.6,0.3,1.2,0.4,1.7c0.3,1.7,1,3.2,2.2,4.2c1,0.7,2.6,1.4,4.2,1.4c0.3,0,0.7,0,1-0.1c1.7-0.5,3.5-1.7,5.2-3.4
		c1.5-1.7,3.2-4.4,4.6-7.1c0.8-1.9,1.6-4.2,2.4-6.5c-0.2,1.7-0.4,3.5-0.6,5.1c-0.5,3.7-0.8,7.6-1.3,11.3c-0.5,3.7-1,7.3-1.5,10.5
		c-0.7,3-1.5,6.2-2.2,8.4s-1.3,3.4-2.2,5.1c-0.3,0.8,0.2,1.9,1,2.2c0.8,0.3,1.9-0.2,2.2-1c0.7-1.7,1.2-3,1.9-5.4
		c0.6-2.2,1.6-5.2,2.3-8.3c0-0.1,0.1-0.2,0.1-0.3c0-0.1,0-0.2,0-0.3c0.8-3.1,1.4-6.3,2-9.7c0.1-0.1,0.1-0.3,0.1-0.4
		c0-0.1,0-0.3,0-0.4c0.7-3.5,1.3-7.4,2.2-11c0.7-3.5,1.5-7.4,2.4-10.6c0.7-3.4,1.3-6.7,2-9.4c0.5-2.5,0.8-4.6,1-6.1s0.2-2.5,0.2-3.4
		c-0.1-0.3-0.3-0.5-0.5-0.7c-0.3-0.9-1.1-1.6-2-1.9c0.3-0.6,0.5-1,0.7-1.5c0.3-0.8,0.5-1.7,0.7-2.2c0.2-0.2,0-2-1.2-3.7
		c-1-0.7-2.5-1.3-3.4-1.3c-0.3,0-1.9-0.2-3.4,0.3c-1,0.3-3,1-4.7,1.9c-1.3,0.8-3.4,2.2-5.2,4c-1.5,1.7-3.7,4.4-5.1,7.1
		c-1.5,2.5-2.9,5.7-3.7,8.8c-1,3.2-1.5,6.7-1.9,9.8c-0.2,2-0.5,4-0.5,5.9c-1.3,1.6-2.7,3.2-4,4.4c-1.9,1.9-3.9,3.5-5.4,4.4
		c-1.5,1-2.4,1.2-3.2,1.2c0,0,0,0,0,0c-0.1,0-0.2,0-0.3,0c-0.1,0-0.2,0-0.3,0c-0.1-0.1-0.2-0.2-0.4-0.4c-0.5-0.2-0.5-0.5-0.8-1.7
		c-0.3-1.2-0.3-2.7-0.3-4.6c0-1.9,0.2-3.9,0.5-6.2c0.3-2.4,0.8-5.4,1.3-7.8c0.5-2.5,1.2-5.2,1.7-7.4c0.5-2.2,1-4.2,1.3-5.7
		c0.3-1.3,0.5-2.2,0.5-2.7c0,0-0.1-0.1-0.3-0.2c0-0.1,0.1-0.2,0.1-0.3c0.3-2-0.8-4-2.9-4.4s-4,0.8-4.4,2.9c0,0.2-0.3,1.2-0.7,2.7
		c-0.1,1.1-0.4,2.6-0.6,4.2c-0.2,0.5-0.5,1.1-0.7,1.7c-0.8,1.7-1.7,3.9-2.7,5.9c-1,2.2-2.2,4.4-3.4,6.7c-1.2,2.2-2.5,4.7-3.7,6.7
		c-1.3,2-2.7,4.2-4,5.7c-1.2,1.5-2.4,2.5-3.5,3.2c-0.2,0.1-0.3,0.2-0.5,0.3c-0.4-0.3-1-0.5-1.6-0.5c-0.1,0-0.2,0-0.3,0
		c-0.1-0.3-0.1-0.8-0.2-1.3c-0.2-1.3,0-3.2,0.2-5.4c0.2-2,0.5-4.9,0.8-7.4c0.3-2.7,0.7-5.6,1-8.1c0.2-2.5,0.5-5.1,0.5-7.1
		c0-2-0.2-3.7-0.5-4.7c-0.2-0.7-0.6-1.5-1.2-2.3c-0.1-1.1-0.9-2.2-2-2.8c-1.7-0.8-3.7,0-4.6,1.7c-0.1,0.2-0.2,0.5-0.3,0.8
		c-0.5,0.3-1,0.8-1.6,1.3c-0.8,0.7-1.9,1.7-3,2.7c-1.2,1-2.4,2.4-3.7,3.7c-0.7,0.7-1.5,1.4-2.2,2.1c0-1.5,0-3.1-0.5-4.6
		c-0.5-1.5-1.7-3-2.7-3.9c-1.3-0.8-2.9-1.5-4-1.7c-1.2-0.3-3-0.5-4.7-0.3c-1.4,0.3-3.1,0.9-4.3,1.7c-0.7-1-2-1.7-3.4-1.5
		c-2,0.2-3.3,2-3.2,4c-0.2,0.4-0.4,1-0.7,1.6c-0.3,0.8-1,1.7-1.7,3c-0.7,1.2-1.5,2.5-2.5,4.2c-1,1.5-2,3.4-3.2,5.2
		c-1.2,2-2.4,4-3.5,6.1c-1.2,2-2.4,4.4-3.5,6.1c-1.2,1.7-2.2,3.4-3.2,4.4c-0.1,0.1-0.2,0.2-0.2,0.3c0,0,0,0,0,0c0-0.2,0-0.4-0.1-0.7
		c0-1.3,0-2.9,0-4.7c0.2-1.9,0.3-4.2,0.5-6.4c0.3-2.4,0.7-4.9,0.8-7.4c0.3-2.4,0.5-5.1,0.7-7.1c0-2,0.2-3.7,0.2-5.1
		c-0.1-0.8-0.3-1.6-0.5-2.3c0.2-0.9,0-1.8-0.5-2.6c-1-1.7-3.2-2-4.7-1c-0.9,0.6-1.4,1.5-1.5,2.4c-0.3,0.2-0.6,0.5-0.8,0.8
		c-0.7,0.7-1.5,1.5-2.5,2.9c-1,1.2-2.2,2.5-3.4,4.4c-1.2,1.7-2.7,3.9-4.2,6.1c-1.5,2.4-3,5.1-4.6,7.8s-3,5.6-4.4,8.3
		c-0.4,0.8-0.8,1.7-1.2,2.6c0.3-2.5,0.6-5.3,1-8.5c0.5-3.7,1.2-7.9,1.9-12.5c0.7-4.4,1.7-9.8,2.5-14.2c0.8-4.6,1.9-9.3,2.7-13
		c0.7-3.7,1.3-6.9,1.9-9.3c0.3-2.2,0.7-3.5,0.8-4.2c0-0.2-0.2-0.3-0.5-0.5c0.2-0.4,0.4-0.8,0.5-1.2c0.1-0.3,0.1-0.6,0-1
		c0-0.1,0.1-0.1,0.1-0.1c0,0-0.1-0.1-0.2-0.2c-0.2-1.6-1.3-2.9-2.9-3.2c-2-0.3-4,0.8-4.4,2.9c-0.2,0.5-0.3,2-0.8,4.4
		c-0.1,0.9-0.3,2-0.5,3.3c-0.8,1.3-1.6,2.9-2.7,4.3c-1.2,1.7-2.7,3.2-4.4,4.9c-1.7,1.5-3.4,3.2-5.4,4.7c-1.9,1.3-4,2.7-6.2,3.9
		c-2.2,1.2-4.6,2.2-6.7,3c-0.2,0.1-0.4,0.1-0.6,0.2c0.9-3.7,1.9-7.2,2.8-10.6c0.2-0.3,0.4-0.7,0.5-1c0.1-0.4,0.1-0.7,0.1-1.1
		c1.1-3.5,2.3-7.2,3.2-9.7c0.4-0.4,0.7-0.9,0.9-1.5c0.1-0.5,0.1-1,0.1-1.5c0.9-2.8,1.5-5.2,1.9-6.7c0.3-0.4,0.5-0.9,0.5-1.4
		c0.3-2.2-1.2-4.4-3.4-4.7c-1.2-0.2-2.3,0.2-3.2,0.9c-1.1,0.1-1.3,0.6-0.7-0.2c-2,1.2-2.7,3.9-1.5,5.9c0,0,0.1,0.1,0.1,0.1
		c-0.3,1.5-0.7,3.4-1.3,5.6c-0.5,2.4-2.4,7.6-3.5,12.7c-1.1,4.9-2.3,10.2-3.5,15.6c-0.4,0.1-0.7,0.2-1.1,0.3c-1.3-1.6-3-1.5-4.3-0.6
		c-0.7,0.3-1,0.7-1.2,0.8c-0.1,0.1-0.2,0.1-0.3,0.2c-0.1,0-0.1,0.1-0.2,0.1c-0.1,0-0.1,0-0.2,0.1c-1-0.1-2.1,0.1-3,0.8
		c-1.9,1.3-2.2,3.9-0.8,5.7c0.4,0.5,0.9,0.9,1.4,1.2c0.4,1.3,0.7,2.3,0.6,2.3c0.7,0.2,2.2,0.2,3.2-0.2c0.7-0.3,1.7-0.7,2-0.8
		c0.3-0.2,0.7-0.2,1.3-0.5c0.2-0.2,0.4-0.3,0.7-0.4c-0.5,2.3-0.9,4.5-1.3,6.7c-0.8,5.1-1.3,10.1-1.2,13.3c0,6.1,0.7,10.6,1.7,14.5
		c0.6,2.1,2.3,3.7,4.1,4.1C167.1,466.8,167.3,466.8,167.5,466.8z M337,442.1c-1.2,2.9-2.4,6.2-3.7,8.6c-1.3,2.5-2.7,4.6-3.9,5.9
		c-0.9,1.3-1.6,1.8-2.3,2.1c-0.2,0-0.3,0-0.5,0.1c-0.2,0.1-0.4,0.1-0.6,0.2c-0.2,0-0.4-0.1-0.6-0.2c-0.7-0.2-0.8-0.5-1.3-1.9
		c-0.4-1.2-0.9-2.8-1-4.8c0.5-0.7,0.9-1.4,1.3-2c1.7-2.4,3.2-4.9,4.6-6.9c1.3-2,2.7-3.7,4-5.4c1.3-1.7,2.9-3.5,4.2-5.1
		c1.3-1.7,2.7-3,3.9-4.6c0.5-0.6,1.1-1.2,1.6-1.9c0,0.1,0,0.2,0,0.3c-0.1,0.2-0.1,0.4-0.2,0.6c-0.7,1.7-1.3,3.7-2.2,6.2
		C339.2,436,338.2,439.2,337,442.1z M342.3,416.6c0,0.1,0,0.2,0,0.3c-0.1-0.3-0.2-0.6-0.2-0.7C342.2,416.3,342.3,416.3,342.3,416.6z
		 M326.1,434.5c1-2.7,2.5-5.2,4-7.4c1.5-2,3.4-4,5.1-5.4c1.5-1.2,2.7-1.7,4.2-2.4c0.9-0.4,1.6-0.6,2.4-0.6c-0.3,0.7-0.6,1.5-1.2,2.5
		c-0.7,1.2-1.5,2.5-2.5,4c-1,1.5-2.2,3-3.5,4.9c-1.2,1.7-2.7,3.4-4,5.2c-1.3,1.7-2.9,3.4-4.4,5.4c-0.8,1-1.6,2-2.4,3
		c0-0.1,0-0.1,0-0.2C324.2,440.7,324.9,437.3,326.1,434.5z M258.6,442.4c-0.5,2-1,4-1.9,6.1c-0.8,2.2-1.7,4.2-2.7,6.1s-2,3.5-3,4.7
		c-0.8,1.2-2,1.9-2.9,2.4c0,0,0,0,0,0c-0.4-0.2-0.7-0.3-1.2-0.3c-0.7,0-1.3,0.2-1.8,0.5c-0.1-0.2-0.2-0.5-0.4-1
		c-0.3-1.2-0.5-2.4-0.5-4.2c0-1.7,0.2-3.9,0.3-6.4c0.3-2.4,0.7-5.4,1.2-7.9c0.2-1.1,0.4-2.3,0.7-3.4c0.3,0.2,0.5,0.5,0.8,0.7
		c1.2,0.7,3.4,1.7,5.6,1.7c0.2,0,0.4,0,0.6-0.1c1.9-0.2,3.9-0.9,5.4-1.6c0,0,0,0,0,0C258.9,440.4,258.8,441.4,258.6,442.4z
		 M250.5,429.2c0.3-0.8,0.5-1,1.2-1.3c0.5-0.3,0.8-0.7,1.5-0.7c0.5-0.2,1.5,0,2.5,0.2s1.5,0.2,1.9,0.3c0.5,0.3,0.7,0.2,1,0.8
		c0.3,0.5,0.5,1.7,0.7,3c0.1,0.8,0.1,1.5,0.1,2.3c-0.9,0.4-1.7,0.8-2.5,1.1c-0.7,0.3-1.4,0.6-2.1,0.7c-0.6-0.5-1.3-0.7-2.1-0.7
		c-0.5,0-1,0.1-1.4,0.4c-0.1-0.1-0.2-0.1-0.3-0.2c-0.5-0.3-0.5-0.3-0.8-1.2c-0.3-0.7-0.3-1.5-0.3-2.4S250.2,429.9,250.5,429.2z"/>
	<path fill="#999999" d="M366.2,401.6c-0.5,3.4-1.2,7.6-1.9,11.1c-0.5,3.7-1.2,7.6-1.7,11.3c-0.5,3.4-1,6.9-1.3,9.6
		c-0.5,3-0.7,5.4-1,7.8c-0.3,2.4-0.8,4.4-1.2,6.1c-0.3,1.7-0.7,3.2-1,4.6c-0.3,1.2-0.8,2.2-1.2,3.2c-0.1,0.2-0.2,0.5-0.3,0.7
		c-0.3,0.2-0.5,0.5-0.7,0.8c-1,1.7-0.5,3.9,1.2,4.9c1.7,1,3.9,0.5,4.9-1.2c0.3-0.6,0.5-1,0.7-1.4c0.4,0,0.4-0.2,0.3-0.5
		c0,0,0-0.1,0-0.1c0,0,0,0,0-0.1c0.3-0.8,0.7-2.2,1.2-3.9c0.5-1.9,1.2-4.2,1.9-6.4c0.7-2.4,1.7-5.1,2.7-7.4c1-2.4,2.2-4.7,3.4-6.7
		c1.2-1.9,2.5-3.7,3.7-5.1c1.2-1.3,2.4-2.2,3.2-2.9c0.1-0.1,0.2-0.1,0.2-0.2c0.1,0.4,0.2,0.9,0.3,1.8c0.3,1.5,0.5,3.9,0.7,6.4
		c0.2,2.2,0.3,5.2,0.7,7.8c0.2,2.4,0.2,4.9,0.5,6.7c0.2,1.9,0.3,3.7,0.8,5.2c0.5,1.3,1.5,3,3,3.9c1,0.4,2.7,0.8,4.5,0.6
		c0.4,0,0.8-0.1,1.3-0.3c1.7-0.8,3.7-2.4,5.6-4.4c1.5-1.9,3.5-4.7,5.1-7.6c1.7-3,3.2-6.9,4.7-10.5c0.6-1.5,1.3-3.1,1.9-4.7
		c0.2-0.1,0.3-0.2,0.5-0.3c0.4-0.3,0.9-0.6,1.4-1c-0.5,3.5-0.9,7-1,9.8c-0.3,3-0.3,5.7-0.3,7.8c0,2.2,0,3.7,0.2,4.9
		c0,1,0.3,2.1,0.7,2.9c0.1,0.1,0.2,0.3,0.3,0.4c0.1,0.1,0.2,0.2,0.4,0.2c0.5,0.3,1,0.5,1.5,0.6c0.5,0.3,1.2,0.3,1.8,0.2
		c1.2-0.2,2-0.7,2.5-0.8c1.3-0.8,1.9-2.7,1-4s-2.7-1.9-4-1c-0.5,0.5-0.8,0.8-0.8,1c-0.2-1-0.3-2.3-0.3-4.3c0.2-2,0.2-4.6,0.7-7.4
		c0.5-3,1-6.7,1.9-10.6c0.2-0.8,0.4-1.7,0.6-2.6c1.8-1.2,4-2.3,6-3.5c2.4-1.3,4.9-2.7,7.3-3.9c2.4-1.2,4.7-2.2,6.9-3
		c1.9-0.6,3.8-1.3,5.6-1.8c-0.3,0.4-0.6,0.7-0.9,1.1c-0.8,1-1.9,2.2-2.5,3.5s-1,2.9-1.3,3.9c-0.2,1.2-0.5,2.7-0.3,4
		c0.2,1.3,0.8,2.9,1.5,4c0.8,1.2,2,2.2,3,3c1.3,0.8,2.7,1.7,3.7,2.2c1.2,0.8,2.4,1.5,3.4,2.4c1,0.8,1.9,1.7,2.4,2.4
		c0.5,0.8,0.7,1.2,0.8,1.7c0.2,0.8,0.3,1,0.2,1.7c-0.2,0.8-0.5,1.5-1.2,2.4c-0.8,1.2-1.9,2.2-3.4,3.2c-1.5,1-4,1.9-6.4,2.5
		c-2.2,0.7-4.9,1.2-7.1,1.5c-2.2,0.3-4.4,0.5-6.1,0.5c-1.5,0-2.4-0.3-3.4-0.7c-0.5-0.2-0.5-0.5-1.5-1.2c-1.3-0.7-3,0.2-3.7,1.5
		c-0.7,1.3,0.2,3,1.5,3.7c0.4,0,1,0.2,2,0.4c0.2,0.1,0.4,0.2,0.7,0.3c0.4,0.1,0.8,0.1,1.2,0c0.7,0.1,1.5,0.1,2.4,0.1
		c0.3,0.1,0.6,0.2,0.9,0.1c0.3,0,0.6-0.1,0.9-0.2c1.3,0,2.8-0.2,4.4-0.3c0.4,0.2,0.8,0.3,1.3,0.2c0.4-0.1,0.7-0.2,1-0.4
		c2.1-0.2,4.4-0.5,6.5-1.1c2.5-0.5,5.6-1.3,7.8-2.4c2.4-1.2,4.2-2.9,5.4-4c1.3-1.5,2.2-3.5,2.7-4.9c0.3-1.9,0.2-3.7-0.2-4.7
		c-0.3-1.3-1.2-2.7-2-3.9c-0.8-1.2-2.2-2.4-3.2-3.4c-1.2-1-2.7-2-3.9-2.9c-1.3-1-2.7-1.7-3.4-2.2c-0.8-0.7-1.2-0.8-1.5-1.3
		c-0.3-0.5-0.5-0.8-0.7-1.5c-0.2-0.5-0.2-1,0-2c0.2-1,0.2-1.5,0.5-2.2c0.3-0.7,1-1.3,1.9-2.2s1.9-1.9,3-2.7c1-0.8,2.4-1.7,3.4-2.2
		c0.9-0.4,1.5-0.6,2-0.9c0.4,0.2,0.9,0.3,1.3,0.4c2.2,0.2,4.2-1.5,4.4-3.7c0.2-2.2-1.5-4.2-3.7-4.4c0.3,0-0.6-0.1-1.5,0
		c0-0.1,0-0.1-0.1-0.1c0,0,0,0.1,0,0.1c-0.1,0-0.3,0-0.4,0c-0.3,0.2-1.3,0.3-2.7,0.8c-0.5,0.3-1.2,0.7-1.9,1.1
		c-1,0.3-2.1,0.6-3.5,1.1c-1.3,0.3-3,0.8-5.1,1.3c-1.9,0.5-4,1.2-6.1,1.9c-2.4,0.7-4.9,1.7-7.4,2.7c-2.5,0.8-5.4,2-7.9,3
		c-0.4,0.2-0.8,0.3-1.2,0.5c0.1-0.4,0.2-0.8,0.3-1.2c1-3.9,2.4-8.4,3.4-11.8c1-3.7,2-7.1,2.7-9.4c0.7-2.4,1.2-4.4,1.3-5.1
		c0.1-0.4-0.2-0.8-0.6-1.1c0-0.1,0.1-0.3,0.1-0.4c0.3-1-0.3-2.2-1.5-2.4c-1-0.3-2.2,0.3-2.4,1.5c0,0.1,0,0.2-0.1,0.3
		c-0.4,0.1-0.7,0.3-0.8,0.6c-0.3,0.7-1,2.7-1.9,5.1c-0.7,2.5-1.7,5.9-2.7,9.6c-0.2,1-0.5,2.1-0.8,3.2c-0.5,1.4-1,2.8-1.6,4.2
		c-1.5,3.4-3.1,7.5-4.6,11.1c-1.3,0.7-2.5,1.4-3.4,1.9c-1.5,0.8-2.4,1.3-2.9,1.5c-1.2,0.7-1.7,1-2.4,1.5c-1.7,1.2-2.2,3.7-0.8,5.4
		c0.9,1.6,2.5,2.3,3.9,2.1c-1.6,3.3-3.3,6.4-4.9,8.9c-1.7,2.7-3.4,4.9-4.9,6.4c-1.1,1.2-1.9,2-2.7,2.5c-0.5-0.1-1,0-1.5,0.2
		c-0.2,0.1-0.4,0.2-0.6,0.3c-0.2,0-0.1,0.1-0.6-0.7c-0.3-0.8-0.5-2-0.7-3.9c0-1.7,0-4,0-6.6c0-2.4,0.2-5.4,0.2-7.8
		c0-2.5-0.2-5.1-0.3-6.9c-0.3-1.9-0.7-3.5-1.3-4.7c-0.8-1-2.3-1.8-3.6-2c-0.5-0.3-1.1-0.5-1.8-0.4c-1.2,0.1-2.1,1-2.3,2.1
		c-0.2,0.2-0.4,0.4-0.6,0.6c-1,0.8-2.4,2.2-3.5,3.7c-1.3,1.5-2.9,3.5-4.2,5.6c-1.3,1.8-2.5,3.8-3.7,5.8c0.2-1,0.4-2,0.7-3.1
		c0.7-2.7,1.5-6.1,2.4-9.4c0.8-3.5,1.9-7.3,2.9-11c0.8-3.5,2-7.6,2.9-11c0.8-3.2,1.7-6.4,2.2-8.3c0.5-2,0.8-3.4,1-3.4
		c0.3-1.3,0-0.2,0.7-1.7c0.7-2.2-0.5-4.6-2.7-5.4c-3.4-0.8-5.7,0.3-6.4,2.5c0.2-0.2-0.2,0.5-0.7,2.2c-0.1,0.3-0.1,0.7-0.1,1
		c-0.1,0.6-0.2,1.5-0.4,2.7C367.6,395,366.9,398.4,366.2,401.6z"/>
	<path fill="#999999" d="M135.5,514.9c-1-2.2-2.5-4.4-4.6-5.9c-2-1.5-4.7-2.5-7.1-3.2c-2.5-0.7-5.7-1-8.1-1.2
		c-2.4-0.2-4.4,0-6.2,0.2c-1.7,0-2.9,1.3-2.9,3s1.3,2.9,3,2.9c2.2,0,3.7-0.3,5.7-0.2c2.4,0.2,4.9,0.3,6.9,0.8c2.2,0.5,4,1.2,5.4,2.2
		c1.3,1,2.2,1.9,2.9,3.5s1.2,4,1.2,6.4c0.2,2.4-0.2,4.9-0.5,7.4c-0.3,2.5-1,5.1-1.9,7.1s-1.9,3.4-3.2,4.9c-1.3,1.5-2.7,2.7-4.6,3.7
		c-1.7,0.8-3.9,1.5-6.1,2c-2,0.4-3.9,0.6-5.9,0.5c-0.3-0.1-0.6-0.2-1-0.2c-0.3,0-0.5,0-0.7,0.1c-2.1-0.2-4.4-0.5-6.4-0.9
		c-2.4-0.7-4.6-1.3-5.9-2.4c-1.7-1.2-2.7-2.4-3.5-4c-0.8-1.5-1.2-3.5-1.3-5.6c-0.2-1.9,0.2-3.9,0.7-5.9c0.3-1.9,1.3-4.4,2-6.2
		c0.5-1.5,0.8-2,1.2-2.4c0.5-1,1-1.5,1.7-2.9c1.2-2,0.5-4.7-1.5-5.9c-2.4-1.3-5.1-0.7-6.2,1.3c-0.5,0.8-1.2,1.9-2,3.5
		c-0.1,0.3-0.2,0.6-0.3,0.9c-0.2,0.8-0.5,1.6-0.7,2.8c-0.3,1.5-1.3,4.6-1.7,7.4c-0.2,2.4-0.3,5.4,0.2,7.9c0.5,2.5,1.3,5.4,2.7,7.8
		c1.3,2.2,3.4,4.2,5.6,5.7c2.2,1.3,5.2,2.5,7.8,3c2.7,0.7,5.7,1,8.4,1.2c2.7,0,5.6-0.2,8.1-0.7c2.4-0.5,5.2-1.3,7.6-2.5
		c2.4-1.2,4.6-2.9,6.1-4.7c1.7-1.9,3.2-3.9,4.2-6.4c1-2.5,1.7-5.7,2.2-8.4c0.5-2.7,0.7-5.9,0.5-8.6
		C137,520.5,136.5,517.5,135.5,514.9z"/>
	<path fill="#999999" d="M104.9,584.4c-1-1.9-2.7-4.7-5.7-6.6c-0.2-0.1-0.5-0.2-0.7-0.3c-3-1.3-6.9-1.7-9.5-2.2
		c-3-0.5-5.7-0.3-8.3-0.5c-1.7-0.2-3,1-3.2,2.7s1,3,2.7,3.2c2.9,0.3,5.2,0.3,7.8,0.8c3,0.7,6.4,1.2,7.9,2.2c1.2,0.6,1.7,1.8,2.5,3.4
		c0.1,0.2,0.1,0.4,0.2,0.6c0.1,0.1,0.2,0.2,0.3,0.4c0.8,1.5,1.1,2.9,1.1,4.4c0.2,1.3-0.2,2.4-0.7,3.9c-0.3,1.3-1,2.4-1.9,3.4
		c-0.7,0.8-1.7,1.7-3,2.5c-1.3,1-2.2,1.7-3.5,2.2c-1.3,0.7-2.5,1.2-4,1.5c-1.5,0.3-2.9,0.5-4.2,0.3c0,0,0,0,0,0c0,0,0,0,0,0
		c-1.5,0-2.5-0.3-3.4-0.8c-0.8-0.3-1.5-1-2.4-1.9c-0.7-0.8-1.2-1.7-1.7-2.7c-0.5-1-0.7-2-0.8-3.4c-0.1-1-0.2-2.1,0-3.1
		c0-0.1,0-0.2,0-0.2c0,0,0-0.1,0-0.1c0,0,0,0,0,0c0.2-1,0.7-2.7,1-3.9c0.3-1.3,0.3-1.2,0.5-1.5c0,0,0.2-0.3,0.8-1.2
		c1.3-2.2,0.7-5.1-1.5-6.4c-2.5-1.3-5.4-0.5-6.7,1.7c-0.2,0.3-0.8,1.2-1.3,2.5c-0.2,0.4-0.3,0.8-0.3,1.2c-0.2,0.6-0.3,1.2-0.4,1.9
		c-0.2,1-0.7,3.2-0.8,5.2c0,1.9,0.2,3.9,0.5,5.6c0.3,1.7,1,3.5,1.9,5.2c0.7,1.5,1.9,3.4,3.2,4.7c1.2,1.2,3,2.7,4.9,3.7
		c1.9,0.8,4.2,1.3,6.2,1.3c0.3,0,0.6,0,0.8,0c1.8-0.1,3.8-0.4,5.4-0.6c2-0.5,4-1.3,5.7-2c1.7-0.8,3.4-2,4.7-3c1.2-1,3-2.4,4.4-3.9
		c1.2-1.5,2.4-3.7,3-5.7c0.5-1.9,1.2-4.4,1-6.9C107.1,589.7,106.1,586.8,104.9,584.4z"/>
	<path fill="#999999" d="M602.2,287.7c-0.3-5.1-1-10.8-2.7-16.4c-1.5-5.6-3.5-11.3-6.9-17.2c-3.2-5.6-7.9-11.8-12.7-17.2
		c-5.1-5.6-11.1-11-16.9-15.5c-6.1-4.9-12.1-9.3-18.9-13.2c-6.2-3.7-13.5-7.1-20.2-9.8c-6.9-2.7-13.8-4.7-20.7-6.4
		c-7.1-1.7-14.3-2.7-21.6-3.4c-6.9-0.7-14.5-1.3-21.3-1.2c-6.9,0.2-13.7,0.7-19.9,2c-6.4,1.3-12.8,3.2-18.7,6.2
		c-5.6,2.9-11.1,7.6-15.4,11.5c-4.6,4-8.6,8.8-11.6,13c-3.2,4.4-5.6,8.8-7.3,12.5c-0.6,1.2-1.1,2.3-1.5,3.4c0-0.1,0-0.1,0-0.1
		c-0.3-1.5-1-3.5-1.9-5.4c-0.7-1.7-1.7-3.9-3-6.1c-1.3-2-3-4.4-5.2-6.6c-2-2-4.7-4-7.6-6.1c-2.9-1.9-6.4-4.2-9.8-5.9
		c-3.5-1.7-7.1-2.9-11-4c-3.5-1.2-7.6-2.4-11.6-3c-4.2-0.7-8.4-1-12.8-1.3c-4.4-0.3-9.1-0.7-14-0.7c-4.6,0-10-0.3-15,0.2
		c-5.2,0.7-11.1,1.9-16,3.5c-5.1,1.7-9.8,4-14,6.7c-4.2,2.5-8.1,6.2-11.1,8.9c-3.2,2.9-5.4,5.4-7.3,7.8c-2,2.5-3.4,4.6-4.7,6.4
		c-0.9,1.3-1.8,2.4-2.6,3.5c-0.8-0.6-1.5-1.3-2.5-2.2c-1.7-1.3-3.2-2.9-5.6-5.1c0,0-0.1-0.1-0.1-0.1c0,0,0,0,0,0c0,0,0,0-0.1,0
		c-2.2-2-5-5.1-8.4-7.9c0,0-0.1,0-0.1-0.1c0,0-0.1-0.1-0.1-0.1c-0.1-0.1-0.1-0.1-0.2-0.1c-3.4-2.8-7.2-5.9-12.3-8.8
		c-4.9-2.9-11-6.2-17.7-8.6c-6.6-2.2-14.7-3.9-22.6-4.7c-8.1-0.8-16.8-1.2-25.7-0.5c-0.2-0.1-0.4-0.1-0.6-0.1
		c-0.2,0-0.5,0.1-0.7,0.2c-8.6,0.9-18.1,2.5-27,5c-8.9,2.5-18.7,6.1-27,10.3c-8.9,4.4-17,9.6-25,15.5C55,232.2,47.2,239,40.7,246
		c-6.2,6.9-12.5,15.2-16.5,22.6c-4.4,8.1-7.1,16.5-9.1,24.3c-1.9,7.6-2.7,15-2.7,22.6c0,7.4,1.5,15.5,2.9,22.3
		c1.5,7.3,3.2,13.2,5.7,20.1c2.5,6.7,6.1,14.5,9.4,20.6c3.2,6.1,7.1,11.8,10.6,16.5c3.7,5.1,7.6,9.4,11,12.8c3.5,3.3,7.1,5.3,9.4,7
		c-1.1,0.3-3,0.7-4.6,1.5c-1.3,0.7-3,2-4.2,3.7c-0.8,1.5-1.7,3.7-1.9,6.1c0,2.2,0.5,4.9,0.8,7.1c0.3,2.2,0.7,5.1,1.3,7.9
		c0.8,2.9,1.9,5.7,3.2,8.6c1.2,2.7,2.7,5.7,4.6,8.6c1.9,2.7,4.2,6.1,6.7,8.6c2.5,2.7,5.6,4.9,8.4,6.6c2.7,1.7,5.9,3,8.6,3.9
		c3,0.8,6.2,1,8.3,1.2c2.5,0.2,4.4,0.2,6.1,0.2c1.3,0,2.6,0,3.8-0.1c0.3,0.1,0.7,0.1,1.1,0.1c0.4,0,0.7-0.1,1-0.2
		c1.4-0.1,2.6-0.3,3.4-0.4c1.2-0.2,1.9-0.5,2-0.5c0.8-0.2,1.2-0.3,1.7-0.5c2.4-0.7,3.7-2.9,3-5.2c-0.7-2.2-3-3.7-5.4-3
		c-0.5,0.2-1,0.3-1.7,0.5c-0.3,0.1-0.5,0.1-0.7,0.2c-0.1,0-0.1,0.1-0.2,0.1c-0.2,0.1-0.4,0.1-0.6,0.2c-0.8,0.2-2.2,0.5-3.4,0.7
		c-1.3,0.2-2.9,0.3-4.6,0.5c-1.9,0.2-3.4,0.3-5.4,0.2c-2.4,0-4.7,0-6.7-0.5c-2.4-0.7-4.6-1.5-7.1-2.9c-2.5-1.5-5.1-3.2-7.3-5.4
		c-2.2-2-4.4-4.9-6.1-7.4s-3-5.1-4.2-7.6c-1.2-2.7-2-5.1-2.7-7.6c-0.5-2.2-0.7-4.7-1-7.1c-0.3-2.5-0.7-4.4-0.5-5.7s0.3-1.9,1-2.7
		c0.3-0.5,0.5-0.5,1.5-1c0.5-0.3,1.9-0.5,3.4-0.8c1.2-0.3,2.5-0.5,3.7-0.8c1.2-0.3,2.2-0.7,3-0.8c0.7-0.2,1.9-0.3,2.7-0.7
		c0.6-0.2,1-0.6,1.4-1c0.3-0.2,0.5-0.4,0.8-0.7c1.5-1.9,1.2-4.4-0.5-5.9c-0.7-0.5-1.4-0.8-2.2-0.9c-0.3-0.1-0.6-0.2-1-0.4
		c-1.5-0.7-3.5-1.3-5.7-2.7c-2.9-1.5-5.9-2.9-8.9-5.6c-3.4-2.9-7.3-6.7-11.1-11.3c-3.7-4.4-7.6-9.4-11-15.2
		c-3.5-5.9-7.3-13.3-10-19.7c-2.7-6.6-4.4-12.1-6.1-19.2c-1.5-6.7-3-14.5-3.2-21.6c-0.2-7.4,0.5-14.5,2.4-21.9
		c1.9-7.8,4.4-15.9,8.6-23.8c3.9-7.3,10-15.4,16.2-22.1c6.4-7.1,14-13.7,21.8-19.4c7.8-5.9,15.9-11,24.6-15.4
		c8.3-4.2,17.7-7.6,26.7-10.1c9.1-2.5,18.6-4.2,27.2-5.1c8.9-0.8,17.5-0.5,25.8,0.5c7.8,0.8,15.5,2.5,21.9,4.7
		c6.6,2.2,12.1,5.6,17,8.6s8.4,6.2,11.8,9.3c3,2.9,5.6,6.1,7.8,8.6c2,2.1,3.1,3.7,4.4,5.3c0.1,0.2,0.3,0.4,0.5,0.6
		c1.5,1.7,2.5,2.9,3.9,4.4c1,1,2.5,1.1,3.8,0.5c1.2,0.2,2.5-0.4,3.3-1.5c0.9-1.7,1.9-3.1,2.9-4.9c0.1-0.1,0.2-0.2,0.3-0.3
		c0.1-0.2,0.2-0.4,0.3-0.7c1-1.7,1.8-3.3,3.1-5.2c0.2-0.1,0.4-0.3,0.5-0.4c0.3-0.3,0.4-0.7,0.5-1.1c1.5-2,3.2-4,5.4-6.2
		c0.2-0.1,0.3-0.2,0.5-0.3c0.2-0.2,0.3-0.4,0.4-0.6c2.8-2.6,6.3-5.9,9.9-8c4-2.5,8.3-4.6,13-6.1c4.6-1.5,10.1-2.5,15.2-3
		c4.7-0.5,9.8-0.2,14.3,0c4.9,0.2,9.3,0.5,13.7,0.8c4.4,0.3,8.3,0.7,12.1,1.5c3.7,0.7,7.4,2,11,3.2c3.7,1.2,6.9,2.4,10,4
		c3,1.5,6.1,3.7,8.8,5.6c2.5,1.9,4.7,3.7,6.4,5.6c1.7,1.9,2.9,3.5,4,5.6c1,1.7,1.5,3.2,2.2,4.9c0.5,1.5,0.8,3,1.2,4.4
		c0.1,0.7,0.1,1.3,0.2,2.1c-0.1,0.6-0.2,1.2,0,1.8c0.1,0.4,0.2,0.8,0.3,1.1c-0.1,0.6-0.1,1.2,0,1.8c0.1,0.3,0.1,0.6,0.3,0.8
		c0,0.6,0.2,1.2,0.4,1.7c0.4,0.8,1.1,1.5,1.8,1.9c0,0,0.1,0.1,0.1,0.1c-0.3,1.4,0.7,2.9,2.1,3.4c1.5,0.5,3.2-0.5,3.7-2
		c0.1-0.3,0.1-0.6,0.2-0.9c0.1-0.1,0.2-0.2,0.3-0.2c1-1.4,1.3-3.1,0.9-4.5c0.1-0.2,0.1-0.4,0.2-0.6c0-0.1,0.1-0.2,0.1-0.3
		c0.1-0.2,0.1-0.4,0.1-0.6c0.8-2.7,1.3-5.6,2.6-8.6c0,0,0,0,0,0s0,0,0,0c1.7-3.7,3.5-7.8,6.4-12c2.9-4,6.6-8.6,10.8-12.7
		c4.2-3.9,9.4-8.4,14.5-11.1c5.6-3,11.5-4.7,17.7-6.1c6.1-1.3,12.5-2,19.4-2.2c6.6-0.2,14,0.3,20.9,1c7.3,0.7,14.2,1.7,21.3,3.4
		c6.9,1.5,13.5,3.5,20.4,6.2c6.6,2.7,13.7,6.1,19.7,9.8c6.6,3.9,12.5,8.3,18.2,13.2c5.7,4.7,11.5,10.1,16.2,15.5
		c4.6,5.4,8.9,11.5,11.8,16.9c3,5.6,4.6,10.8,6.1,16.4c1.3,5.2,1.9,10.5,2.2,15.5c0.3,4.7,0,9.1-0.3,13.5c-0.3,4.6-1,8.6-1.7,12.7
		c-0.8,4-1.5,7.9-2.9,11.8c-1.2,3.7-3.2,7.6-4.9,10.8c-1.9,3.5-3.4,6.4-5.4,9.1c-1.9,2.7-4.2,5.1-6.4,7.4c-2.2,2.4-4.2,4.4-6.1,5.9
		s-3.9,2.5-5.9,3.5c-1.9,1-3.4,1.7-4.9,2.2c-0.9,0.2-1.8,0.3-2.8,0.4c-0.5-0.1-1-0.1-1.5-0.1c-0.3,0-0.6,0.1-0.9,0.2
		c-0.5,0-1,0-1.5,0.1c-0.2,0-0.4,0-0.6,0c-0.2,0-0.4,0.1-0.6,0.1c-0.6,0.1-1.2,0.1-1.8,0.4c-0.1,0.1-0.2,0.1-0.3,0.2
		c-1.6,0.4-2.8,1.6-3.2,3.3c-0.3,1.4,0.1,2.8,1,3.7c0,0.1,0.1,0.2,0.2,0.3c0.2,0.5,0.3,1,0.3,0.8c0,0.3,0,0.2,0,1.3
		c0,0.5,0,1.7,0,2.5c0,1,0,1.9,0,2.7s-0.2,2.2-0.3,3.4c-0.2,1.2-0.2,2-0.2,2.9c-0.2,1-0.3,1.9-0.7,3c-0.3,1.2-0.5,1.9-0.8,2.5
		s-0.7,1.2-1.3,2s-1.2,1.5-1.9,2c-0.7,0.5-1.3,1-2.4,1.5c-1,0.5-2,1.2-2.7,1.3c-0.4,0.1-0.8,0.1-1.3,0.2c-0.5-0.2-1-0.2-1.6-0.2
		c-0.5,0-0.9,0.2-1.3,0.3c-0.1,0-0.3,0-0.4,0c-0.5-0.2-1-0.3-1.6-0.3c-0.3,0-0.6,0-0.9,0.1c-0.1,0-0.3-0.1-0.4-0.1
		c-0.2,0-0.5,0-0.7,0c-0.2,0-0.4-0.1-0.8-0.1c-2.4-0.5-4.7,1-5.2,3.5c-0.7,1.9,0.8,4.2,3.2,4.7c0,0,0,0,0,0c0.1,0.2,0.2,0.4,0.3,0.5
		c0-0.3,0-0.2,0.5,1.3c0.2,0.4,0.9,0.9,1.4,1.3c0.2,0.2,0.4,0.4,0.6,0.5c0.4,0.3,0.9,0.5,1.4,0.6c0.3,0.1,0.5,0.3,0.8,0.4
		c1.2,0.3,1.9,0.3,2.7,0.5c1.2,0.2,2.5,0.5,4,0.8c1.7,0.5,3.2,0.7,4.9,1.3c1.9,0.7,3.9,1.9,5.6,3c2,1.3,3.5,2.5,5.4,4.6
		c1.9,2,4,4.6,5.6,7.1c1.5,2.7,2.7,5.7,3.7,8.9c1,3.4,1.9,6.7,2.2,10.5c0.3,3.5,0,6.9,0,11.3c-0.2,4-0.2,8.6-0.7,13.2
		c-0.7,4.9-1.5,10.1-2.9,15.4c-1.3,5.1-2.7,10.3-4.7,14.8s-4.7,8.9-7.3,12.5c-2.7,3.7-5.2,6.2-8.6,9.1c-3,2.7-6.7,4.9-10.5,6.9
		c-3.5,1.9-7.3,3.5-10.8,4.7c-3.7,1.2-7.4,1.7-11.3,2.2c-3.7,0.5-7.1,0.5-11,0.5c-3.7,0-7.8-0.3-11.3-0.7c-3.7-0.3-6.7-0.7-9.8-1.2
		c-3-0.5-6.2-1.2-8.9-2c-2.5-0.7-4.7-1.5-7.1-2.5c-2.5-1-4.7-2-6.9-3c-2-1-3.7-2.2-5.7-3.5c-1.9-1.2-3.7-2.7-5.2-3.9
		c-1.7-1.3-2.9-2.5-4.4-3.9c-1.3-1.3-2.7-2.5-3.9-3.7c-1.2-1.2-2.2-2.5-3.2-3.5c-0.8-1-1.5-2.2-2.4-3.4c-0.7-0.8-1.3-2-2-2.7
		c-0.3-0.3-0.8-0.7-1.2-0.9c-0.5-0.6-1.2-1-2-1.3c-1.4-0.4-2.9-0.1-3.9,0.8c-0.2,0.1-0.3,0.1-0.5,0.2c-0.5,0.4-0.9,0.9-1.2,1.4
		c-0.2,0.2-0.3,0.3-0.5,0.5c-0.3,0.5-0.7,1-1,1.5c-0.5,0.7-0.8,1.3-1.2,1.9c-0.5,0.7-1.2,1.3-2.2,2.5c-0.8,1-1.9,2.4-2.9,3.5
		c-1,1.2-2,2.2-3,3.4c-1.2,1.2-2,2.2-3,2.9c-1,0.8-2,1.5-3.2,1.9c-1.2,0.5-2.2,0.7-3.7,1c-1.5,0.2-2.9,0.3-4.6,0.3s-3.5-0.3-5.4-0.5
		c-2-0.3-3.4-0.5-4.9-1c-1.5-0.5-3.2-1.3-4.7-2.4c-1.3-0.8-2.5-1.9-3.7-2.9c-1.3-1.2-2.5-2.2-3.2-3c-0.2-0.2-0.3-0.4-0.4-0.6
		c0-0.6-0.2-1.2-0.4-1.8c-0.2-0.3-0.4-0.6-0.6-0.8c0-0.2,0-0.3-0.1-0.5c0-0.5,0-0.9-0.1-1.4c-0.3-1.1-1-1.9-1.8-2.5
		c-1.3-1.3-3.3-1.7-5.1-0.7c-1,0.5-1.7,1.4-2,2.5c-1.4,0-2.7,0.7-3.4,2c-0.5,1.2-1,2.2-1.5,3.5c-0.5,1.3-1.1,2.7-1.6,4.3
		c-0.1,0.1-0.2,0.3-0.2,0.4c-0.1,0.3-0.2,0.6-0.2,0.8c-0.4,1.2-0.8,2.5-1.3,3.9c-0.1,0.2-0.2,0.3-0.3,0.5c-0.1,0.3-0.2,0.6-0.2,1
		c-0.8,1.8-1.6,3.7-2.6,6c-1.5,3-3,6.2-5.2,10.1c-2.2,3.7-5.1,8.1-8.3,12.3c-3.2,4-6.9,8.9-10.5,12.5c-3.7,3.7-7.4,6.7-11.5,9.1
		c-3.7,2.4-7.4,3.9-11.5,4.9c-3.9,1.2-8.3,1.5-12.5,1.7c-4.4,0.2-8.3-0.2-12.7-0.5c-4.2-0.3-8.8-0.8-13-1.9c-4-1-8.3-2.4-12-4.2
		c-3.9-1.9-7.4-3.9-10.8-6.4c-3.4-2.4-6.6-5.1-9.4-8.1c-2.7-2.9-5.2-6.1-7.4-9.3c-2.4-3.4-4.4-6.6-5.9-10.1
		c-1.5-3.2-2.4-6.9-3.2-10.3c-0.8-3-1.2-6.1-1.3-8.4c-0.3-2.4,0-4.4-0.2-6.4c-0.1-0.7-0.1-1.5-0.2-2.1c0-0.5,0-1.1-0.2-1.6
		c0,0,0-0.1,0-0.1c0-0.1-0.1-0.3-0.1-0.4c0-0.1-0.1-0.2-0.2-0.3c-0.4-0.7-1-1.3-1.8-1.6c-0.6-0.7-1.4-1.2-2.3-1.4
		c-0.5-0.3-0.8-0.6-0.7-0.6c-2,0.3-3,0.8-4,1.3c-0.5,0.3-2,1-3,1.7c-1,0.5-2,1.2-3.2,2c-1.2,0.8-2.4,1.9-3.7,2.9s-2.5,2.4-3.7,3
		c-1.3,1-2.7,2-3.9,2.5c-1,0.5-1.9,0.8-2.9,1c-0.8,0.2-1.2,0.2-2,0.2c-0.7,0-1.2-0.2-2.4-0.5c-1-0.3-2-0.5-2.7-1
		c-0.7-0.3-1.9-1.2-2.7-1.9c-0.3-0.2-0.5-0.3-0.6-0.4c0-0.1-0.2-0.3-0.4-0.8c-1.3-1.9-3.9-2.5-5.9-1.2c-1.9,2-2.4,4.7-1,6.6
		c0,0,0.2,0.4,0.6,0.9c0.2,0.3,0.4,0.7,0.7,1c0.8,0.8,1.5,1.2,2.2,1.5c0.7,0.3,2.2,1.5,3.7,2.2s3,1,4.2,1.3c1.2,0.3,2.5,0.5,4,0.7
		c1.2,0,2.9,0,4.4-0.5c1.3-0.3,3-1,4.7-1.9c1.5-0.8,3.4-2.2,4.7-3.2c1.5-1.2,2.9-2.5,3.9-3.4c1.2-1,2.2-1.9,3.2-2.5
		c1-0.7,1.7-1,2.5-1.5c0.1-0.1,0.3-0.2,0.4-0.2c0.1,1.4,0.2,3.6,0.4,6.1c0.5,2.5,1.2,6.1,2.2,9.4c1,3.4,2.5,7.4,4.4,11.1
		s4.4,7.3,6.9,10.6c2.4,3.2,5.2,6.7,8.3,9.8c3,3,6.7,6.1,10.3,8.6c3.7,2.5,7.6,4.9,11.8,6.7c4,1.9,8.6,3.4,13,4.4
		c4.6,1,9.4,1.7,13.7,2c4.6,0.3,8.8,0.7,13.3,0.5c4.2-0.2,9.3-0.7,13.7-1.9c4.4-1.2,8.6-3,12.8-5.6c4.2-2.7,8.3-6.1,12.1-10.1
		c3.7-3.7,7.8-8.9,10.8-13.2c3.2-4.4,6.2-8.9,8.4-12.7c2.4-3.9,4-7.4,5.7-10.3c1.5-2.7,2.7-4.9,3.7-6.9c1.2-2,1.9-3.7,2.7-5.1
		c0.8-1.5,1.5-2.9,2.2-4.2c0.3-0.5,0.5-1,0.8-1.4c0,0,0,0.1,0.1,0.1c0.3,0.5,1,2,2.4,3.5c1.2,1.3,2.9,2.7,4.4,3.9
		c1.3,1,3,2.4,4.9,3.4c1.9,1,4.2,2.2,6.2,2.9c2.2,0.7,4.2,1,6.1,1.2c1.9,0.3,4.2,0.5,6.2,0.5c2,0,4,0,5.9-0.3
		c1.9-0.3,3.7-0.7,5.4-1.3c1.7-0.7,3.5-1.7,4.9-2.7c1.5-1.2,2.9-2.5,3.9-3.5c1.2-1.2,2.4-2.5,3.4-3.7c1-1.2,2.2-2.5,2.9-3.5
		c0.8-0.8,1.7-1.7,2.4-2.7c0.2-0.3,0.5-0.6,0.7-0.8c0.7,0.8,1.6,2.1,2.7,3.4c1.2,1.2,2.5,2.7,3.9,3.9c1.3,1.3,2.9,2.5,4.4,3.7
		c1.5,1.2,3,2.7,4.9,4c1.7,1.3,3.9,2.9,5.7,4c2,1.3,4,2.7,6.4,3.9c2.4,1.2,5.1,2.2,7.6,3.2c2.4,0.8,5.1,1.9,7.9,2.5s6.4,1.5,9.6,2
		c3.4,0.5,6.7,0.8,10.5,1c3.5,0.2,7.9,0.5,11.8,0.3c3.9,0,7.8-0.2,11.6-0.7s8.1-1.2,12.3-2.5c3.9-1.3,8.1-3.2,11.8-5.2
		c3.9-2.2,7.9-4.7,11.3-7.6c3.4-2.9,6.4-6.1,9.3-10.1c2.7-3.9,5.6-8.8,7.6-13.7s3.7-10.6,4.9-15.9c1.3-5.4,2.2-11,2.9-15.9
		c0.7-4.9,0.7-9.4,0.8-13.5c0.2-4.2,0.7-7.9,0.3-11.8c-0.3-4-1-7.9-2-11.5c-1-3.4-2.4-7.1-3.9-10.1c-1.7-3.2-4.2-6.2-6.1-8.4
		c-2-2.4-4-4.2-6.2-5.7c-2-1.5-4.7-3-6.6-3.9c-2.2-1-4.2-1.5-5.6-2c-0.2-0.1-0.3-0.1-0.5-0.2c0,0,0,0,0,0c1.5-0.5,3.2-1.5,4.2-2.2
		c1.2-0.7,2.4-1.5,3.5-2.5c1.2-1,2-2.2,2.9-3.2c0.7-0.8,1.5-2,2.2-3.2c0.7-1.3,1-2.7,1.3-3.9c0.3-1.2,0.7-2.7,1-3.9
		c0.2-1.3,0.2-2.5,0.3-3.5s0.2-2.4,0.3-3.7c0-1.2,0-2.2,0-3s0-2.2,0-2.5c0-0.6,0.1-1,0-2c0.3,0,0.5-0.1,0.8-0.2
		c1-0.2,3.2-0.5,5.2-1.2c2-0.8,4-1.9,6.1-3c1.9-1.2,4.4-2.5,6.7-4.6c2.2-1.9,4.6-4.6,6.6-6.9c2.2-2.4,4.7-5.2,6.7-8.3
		c2-3,3.9-6.4,5.6-10.1c1.7-3.4,3.5-7.8,4.9-11.8c1.3-4.2,2.2-8.4,2.9-12.7c0.7-4.2,1.3-8.6,1.5-13.3
		C602.4,297.7,602.6,292.8,602.2,287.7z M172.7,520.5c0,0,0,0.1,0.1,0.1C172.5,520.4,172.6,520.5,172.7,520.5z"/>
</g>
</svg>
