<?xml version="1.0" encoding="utf-8"?>
<!-- Generator: Adobe Illustrator 18.0.0, SVG Export Plug-In . SVG Version: 6.00 Build 0)  -->
<!DOCTYPE svg PUBLIC "-//W3C//DTD SVG 1.1//EN" "http://www.w3.org/Graphics/SVG/1.1/DTD/svg11.dtd">
<svg version="1.1" id="Layer_1" xmlns="http://www.w3.org/2000/svg" xmlns:xlink="http://www.w3.org/1999/xlink" x="0px" y="0px"
	 viewBox="0 0 612 792" enable-background="new 0 0 612 792" xml:space="preserve">
<g id="Layer_1_1_" display="none">
</g>
<g>
	<path fill="#999999" d="M41.3,290.9c0.1-0.5,0.1-0.9,0.1-1.4c0.6-0.2,1.3-0.4,1.9-0.6c2.9-1,6.1-2.4,9.4-3.4
		c3.4-1.2,7.1-2.4,11-3.5c3.5-1,7.6-2,11.1-2.9c3.5-0.7,7.1-1.3,10.1-2c3.2-0.5,5.9-0.7,8.4-1c2.4-0.2,4.4-0.2,6.2-0.3
		c0.9,0,1.7,0,2.5,0c0.7,0.1,1.4,0.2,2.1,0c0.2,0.1,0.4,0.1,0.6,0.2c1.3,0.7,2.8,1,4.3,0.8c0.7,0.2,0.5,0.3,1.2,0.5
		c4.4-0.3,7.8-4.4,7.3-8.8c-0.3-4.4-4.4-7.8-8.8-7.3c-0.2,0.2-0.5,0.5-1.2,0.7c0,0.1-0.1,0.1-0.2,0.2c-1,0.2-1.9,0.5-2.8,1
		c-1,0.3-1.9,0.8-2.6,1.4c-1.3,0.5-2.6,1.1-4.2,1.8c-1.7,0.5-3.5,1.2-5.9,1.9c-2.4,0.5-5.1,1-8.3,1.7c-3,0.5-6.6,1-10.3,1.7
		c-3.5,0.5-7.8,1-11.5,1.5c-3.9,0.5-7.9,1-11.5,1.3c-3.5,0.3-6.9,0.8-10,1c-2.9,0.3-5.9,0.7-7.8,0.7c-0.4,0-0.8,0.1-1.1,0.1
		c-1.3-0.4-2.8-0.5-4.3-0.2c-0.5,0.1-0.9,0.2-1.3,0.3c-0.1,0-0.1,0-0.2,0c-4.9,1.3-7.6,6.4-6.2,11.1c0.6,2.2,2,3.9,3.7,5.1
		c0.5,0.4,1.1,0.7,1.7,0.9c-0.2,2.7-0.8,7.7-1.2,12.7c0,0.3-0.1,0.6-0.1,0.9c-0.3,5.1-0.5,11.1-1,17c-0.1,1.9-0.2,3.9-0.4,5.9
		c-0.4,0.1-0.9,0.2-1.7,0.3c-2.4,1.3-4,2.9-2.7,1.7c-3.9,2.9-4.6,8.1-1.3,11.6c1.1,1.7,2.7,2.7,4.4,3.2c-0.5,6-0.9,12.3-1.2,17.2
		c-0.5,5.6-1,10.5-1.3,14.5c-0.5,4-0.7,6.9-0.8,9.6c-0.2,1.8-0.4,3.6-0.6,4.7c-0.1,0.3-0.2,0.6-0.3,1c-0.5,1.7-0.7,1.2-1.2,2.5
		c-0.3,2.4,1.3,4.6,3.5,4.9c2.4,0.3,4.6-1.3,4.9-3.5c-0.1-0.4-0.3-0.9-0.3-2.4c0.1-0.2,0.1-0.5,0.2-0.8c0-0.5,0-1-0.2-1.4
		c0-1.2,0-2.9,0.2-4.5c0.3-2.7,0.5-5.4,1-9.4c0,0,0,0,0,0v0c0.7-3.9,1.5-8.8,2.5-14.3c1-5.4,2.2-12.3,3.2-18.7
		c0.1-0.6,0.2-1.1,0.3-1.7c0.2-0.1,0.5-0.2,0.7-0.3c0.6-0.2,1.4-0.4,2.2-0.7c1.7-0.7,3.5-1.3,5.4-2.2c1.9-0.7,4-1.7,5.9-2.4
		c1.9-0.7,4-1.3,5.7-1.9c1.9-0.5,3.4-1,4.7-1.3c1.2-0.2,2.4-0.3,3.9-0.5c0.6-0.1,1.2-0.2,1.7-0.2c0.5,0,1,0,1.5-0.1
		c0.4,0,0.7,0,1.1,0c1.3,0.3,2.6,0.2,4-0.2c1.2-0.2,2.2-0.5,1.5-0.2c4.2-1.5,6.4-5.9,4.9-9.8c-1.7-3.9-6.4-5.9-10.6-4.6
		c-1.3,0.7-0.2,0.3-0.2,0.5c0,0.1-0.1,0.1-0.2,0.2c-0.5,0.1-0.9,0.3-1.3,0.5c-0.5,0.1-1.1,0.3-1.5,0.6c-0.2,0.1-0.4,0.1-0.6,0.2
		c-1,0.3-2,0.7-3,1c-0.8,0.3-2.4,0.5-4,1s-3.4,1-5.2,1.5c-1.9,0.3-4,0.8-6.1,1.5c-2.2,0.5-4.6,1-6.2,1.3c-0.4,0.1-0.8,0.1-1.2,0.2
		c0.2-1.2,0.4-2.4,0.7-3.6c1-5.7,2-11.2,2.7-15.9c0.2-0.5,0.3-1,0.3-1.5c0-0.2,0-0.4,0-0.6c0.6-3.5,1.3-6.9,1.8-9.6
		c0.3-0.7,0.6-1.5,0.7-2.3c0.1-0.4,0.1-0.9,0-1.3c0-0.1,0-0.1,0-0.2C40.8,292.9,41.1,292,41.3,290.9z"/>
	<path fill="#999999" d="M86.5,297.1c-0.2,0.2-0.2,0.2-0.3,0.3c-3.5,3.5-3.5,9.3,0,12.8c3.5,3.5,9.3,3.5,12.8,0
		c0.2-0.2,0.2-0.2,0.3-0.3c3.5-3.5,3.5-9.3,0-12.8C95.8,293.6,90.1,293.6,86.5,297.1z"/>
	<path fill="#999999" d="M145.7,373.1c1.3,3.7,3,6.9,4.7,9.6c1.7,2.7,3.9,5.2,5.9,6.7c1.7,1.4,4.1,2.7,6.7,3.4
		c0.4,0.2,0.9,0.3,1.4,0.3c2.7,0.2,6.4-0.3,9.8-2c0,0,0.1,0,0.1-0.1c0.2,0,0.5,0.1,0.7,0.1c2.5,0,5.9-1.5,8.1-3.7
		c2-2.2,4.2-5.7,6.1-9.4c1.3-2.9,2.5-6.6,3.7-10.1c0.4,2.7,0.9,5.3,1.6,7.4c0.7,2.9,1.7,5.6,3.2,7.8c1.5,2.2,4.2,4.2,6.6,5.2
		c1.9,0.7,5.1,1,7.9,0.3c0.4-0.1,0.8-0.2,1.3-0.3c0.3-0.1,0.5-0.2,0.8-0.4c2.2-1.1,5.1-3,7.5-5.9c1.9-2.9,4.3-7,6.1-11.7
		c0.1,1.3,0.3,2.5,0.4,3.6c0.5,3.4,1.5,6.2,2.7,8.3c1,1.7,2.8,3.3,4.7,4.3c0.5,0.3,1,0.6,1.6,0.7c2.4,0.7,6.1,0.5,8.9-0.5
		c2.7-1.2,5.9-3.2,8.6-5.9c2.7-2.9,5.4-6.9,7.6-10.6c1.6-2.7,3-5.9,4.3-8.8c0,0.2,0,0.3,0,0.5c0.3,2.7,1.2,5.7,2,8.1
		c0.8,2.5,2.4,4.9,3.7,6.6c1.2,1.6,2.9,3.3,4.6,4.6c0.2,0.2,0.5,0.4,0.8,0.6c1.6,1,3.5,1.8,4.8,2.3c0.4,0.2,0.8,0.3,1.2,0.4
		c2.7,0.5,4.6,0.2,4.4,0.5c3.9-0.2,6.7-3.4,6.6-7.1c-0.2-3.9-3.4-6.7-7.1-6.6c-1,0.2-1.5,0.3-1.6,0.5c-0.6-0.1-1.2-0.1-1.7,0
		c-0.1,0-0.1-0.1-0.2-0.1c-0.4-0.3-0.8-0.4-1.2-0.6c-0.5-0.3-1.1-0.7-1.6-1.2c-0.1-0.1-0.1-0.3-0.2-0.4c-0.3-0.3-0.5-0.6-0.8-0.8
		c-0.7-0.8-1.1-1.5-1.5-2.6c-0.5-1.5-0.8-3.2-0.8-5.2c0-1.9,0.3-3.7,0.7-6.6c0.2-2.5,0.7-5.9,0.8-8.3c0.2-2.2,0.3-4.4,0.5-5.7
		c-0.1-0.9-0.1-1.6-0.2-2.4c0.1-0.5,0.2-1,0.2-1.5c-0.2-2.9-2.5-5.1-5.6-5.1c-2.9,0.2-5.1,2.5-5.1,5.6c-0.2-0.8-0.7,0.2-1.2,1.9
		c-0.2,0.8-0.4,1.8-0.6,3c-0.5,1-1,2.1-1.6,3.4c-1.5,2.7-3.4,6.2-5.2,9.6c-2,3.4-4,7.6-6.2,10.6c-2.2,3.5-4.7,6.7-6.9,8.9
		c-2,2.2-3.7,3.4-5.4,4.2c-1.3,0.8-2.2,1.1-3.1,1.2c-0.1-0.1-0.3-0.1-0.4-0.1c-0.6-0.1-1.1-0.1-1.6,0c-0.4-0.2-0.7-0.4-1.2-1
		c-1-1.2-1.7-2.5-2.2-5.4c-0.3-2.9-0.5-6.7-0.2-11.1c0.5-4.7,1.5-10.1,2.7-16c1-5.7,2.5-12.8,3.9-18.9c1.2-5.7,2.9-12.1,3.9-16.2
		c0.8-3.6,1.4-6.5,1.8-8.1c0.2-0.3,0.4-0.7,0.5-1.2c0.5-2-0.7-4.2-2.7-4.7c-2-0.5-4.2,0.7-4.7,2.7c-0.5,1.2-1.5,4.7-2.7,9.1
		c-1,4-2.7,10.6-3.9,16.5c-0.2,1.2-0.5,2.4-0.7,3.6c-0.2,0.7-0.4,1.4-0.7,2.1c-2,6.1-4,13-6.2,18.9c-2.2,5.7-4.2,11.5-6.4,15.7
		c-2,4-4,7.3-5.9,9.3c-1.3,1.5-1.8,1.9-2.9,2.4c-0.1,0-0.3,0.1-0.4,0.1c-0.5,0.2-1,0.5-1.4,0.8c-0.2,0-0.4,0-0.7-0.1
		c-0.8,0-1.2,0-1.9-0.8c-0.8-1-1.2-2-1.9-4.4c-0.3-2.2-0.7-5.1-0.7-8.3c0-2.9,0.3-7.1,0.7-10.5c0.2-3.4,0.2-6.6,0.3-8.9
		c-0.2-2.2,0-4.2-0.3-5.7c-0.1-0.4-0.6-0.8-1.2-1.3c-0.1-0.4-0.3-0.8-0.6-1.2c0.3-1.9,0.3-3.9-0.1-5.6c-0.7-2.4-2.9-4.6-4.7-5.7
		c-1.7-0.8-5.1-1.7-8.1-1.3c-2.2,0.5-5.9,2-8.9,4.7c-2.2,2.4-4.7,6.2-6.4,10.1c-1.5,4-3,9.4-3.9,14c-0.8,4.7-1.3,10-1.5,14
		c-0.3,4-0.5,8.1-0.3,11.1c0,1.6,0.1,3,0.4,4.4c-1.1,0.6-1.9,0.7-3.1,0.7c-1.2,0.2-2,0-3.5-1s-2.9-2.2-4-4c-1.3-2.2-2.4-4.7-3.4-8.1
		c-0.8-3.2-1.3-7.4-1.9-11.5c-0.5-3.9-0.5-8.8-0.8-12.7c-0.5-3.9-0.8-7.9-1.5-11c-0.8-2.9-2-5.7-3.4-7.6c-2.5-2.2-6.7-2.9-8.3-2.4
		c0,0,0,0,0,0c-1.2,0.2-2.1,0.8-2.9,1.6c-0.9,0.7-1.7,1.4-2.3,2.1c-1.2,1.2-2.7,2.9-4.2,5.2c-0.8,1-1.6,2.2-2.5,3.6c0-0.7,0-1.4,0-2
		c0.3-0.9,0.4-1.8,0.3-2.8c-0.3-4-3.9-6.9-7.9-6.6c-1.6,0.1-2.9,0.7-4,1.7c-0.3,0-0.5,0-0.5,0c-0.3,0.5-0.6,0.9-0.8,1.4
		c-0.9,1.4-1.4,3-1.3,4.8c0,0.3,0.1,0.6,0.1,0.9c-0.1,0.9-0.2,1.8-0.4,3c-0.5,2-1.2,4.6-1.9,7.3c-1,2.9-1.9,6.1-3,9.4
		c-1.3,3.2-2.9,6.9-4.4,10.1c-1.5,3.2-2.9,6.2-4.2,8.1c-1.2,2-2.4,2.9-3.5,3.9c-0.1,0.1-0.2,0.2-0.2,0.3c-0.1,0-0.2,0-0.3,0.1
		c-0.6,0.1-1.2,0.3-1.7,0.6c0,0-0.1-0.1-0.1-0.1c-0.8-0.8-1.3-1.7-2-3.5c-0.5-2-1-4.4-1.2-7.1c0-2.7,0.5-5.7,0.8-9.4
		c0.7-3.4,1.3-7.4,2.2-11c0.5-2.5,1-5.1,1.5-7.3c0.4-0.8,0.8-1.7,0.9-2.7c0.1-0.4,0.1-0.8,0-1.2c0.1-0.6,0.3-1.1,0.4-1.7
		c0.5-0.8,0.8-1.7,1-2.7c0.9-2.2,1-4.6,0.2-6.7c0-0.1-0.1-0.2-0.1-0.2c0-0.1,0-0.1-0.1-0.2c-0.7-1.9-2.1-3.5-3.9-4.5
		c-3.6-3-8.8-1.8-11.4,2.2c0,0,0.1,0,0.1,0c-0.9,1.2-1.6,2.6-1.8,4.2c-0.2,1.6,0,3.1,0.5,4.5c0,0.2,0,0.3,0.1,0.5
		c0,1.1-0.1,2.5-0.2,4.1c-0.1,0.8-0.1,1.6,0.1,2.4c0.1,2.3,0.1,5,0.2,7.6c0.2,3.5,0.2,7.8,0.3,11.5c0,3.5,0,7.1,0.5,10.5
		c0.2,3.2,0.8,6.6,1.5,8.9c0.5,2.5,1.5,5.1,2.4,6.9c1.2,2,3,4.2,4.7,5.4c0.9,0.5,2.1,1,3.5,1.4c1.3,0.6,2.7,0.8,4.2,0.5
		c0.3-0.1,0.7-0.2,1-0.3c2.1-0.7,4.6-2,6.4-3.4c1.5-1.5,3.3-3.9,4.9-6.6c-0.2,1.8-0.3,3.2-0.3,3.9c0,0.1,0,0.2,0,0.2
		c-0.8,2.2,0.1,4.8,2.2,6.2c2.4,1.3,5.4,0.5,6.9-1.9c0.7-1.2,1.3-3,2.4-5.7c0.8-2.7,1.9-7.3,3-11.1c1.2-4.2,2.5-9.4,3.9-13.7
		c1.3-4.4,2.5-8.4,3.9-11.8c1.3-3,2.9-5.4,4-7.4c0.8-1,1.5-1.7,2.1-2.3c0.1,0.5,0.2,1.2,0.4,2c0.7,2.4,1.2,5.7,1.9,9.8
		c0.8,3.5,1.5,8.6,2.5,12.8C142.9,365,144.2,369.5,145.7,373.1z M174.8,368.2c0.8-4,1.7-8.6,3-12.8c1.3-4,3-8.6,4.7-11.6
		c1.5-3,3-5.2,4.7-6.6c1.2-1.3,2.2-1.7,3.7-2.2c0.7-0.5,0.8-0.7,1.9-0.5c0.7-0.2,0.8-0.5,1-0.3c0.4,0.4,0.5,1,0.5,2.5
		c-0.1,0.1-0.1,0.1-0.2,0.2c-0.7,1.2-1.2,2.7-1.9,4.7c-0.8,2-1.9,4.7-3,8.3c-1.3,3.4-2.9,7.9-4.4,11.8c-0.5,1.3-1,2.7-1.5,4
		c-0.2,0.3-0.4,0.6-0.6,0.9c-2.2,3.7-4.9,7.4-7.3,10.1c-0.6,0.7-1.2,1.3-1.8,1.9c0-0.1,0-0.3,0-0.4
		C173.7,375.6,174.1,371.9,174.8,368.2z M139.3,335.1c0.1,0,0.1,0,0.2,0C139.6,335.2,139.5,335.1,139.3,335.1z"/>
	<path fill="#999999" d="M303.8,343.9c1.5-0.8,1-0.7,1.3-0.8c0.7-0.3,1.4-0.7,2-1.1c0.2-0.1,0.5-0.2,0.7-0.3c1.4-0.5,3-1.2,4.2-1.6
		c0.6-0.1,1.1-0.4,1.7-0.6c1.1-0.4,2.3-0.7,3.6-1.1c1-0.3,2-0.6,2.9-0.8c-0.2,0.5-0.4,1-0.7,1.5c-1,2.2-2.4,4.7-4,7.4
		c-1.5,2.5-3.9,5.4-5.9,8.3c-1.9,2.5-4,5.2-5.6,7.6c-1.7,2.4-3.4,4.6-4.4,6.4c-1.3,2-2.2,3.9-2.7,5.1c-0.7,1.3-1.5,3.4-1.7,5.2
		c0,1.9,2,5.7,3.7,7.3c1.7,1,4,1.7,5.9,1.9c1.5,0,4.2,0.2,6.7,0c0.5,0,1-0.1,1.5-0.2c2-0.3,4.3-0.8,6.3-1.3c2.5-0.5,5.4-1.3,7.9-2
		c0.2,0,0.4-0.1,0.6-0.2c2.3-0.6,4.4-1.4,5.8-1.8c1.4-0.3,2.9-0.5,4.5-0.9c0.3-0.1,0.6-0.1,0.9-0.3c2.2-0.7,3.5-1.5,4.2-1.5
		c1.4-0.8,2.5-2,3-3.3c0.8,2,1.9,3.9,3.1,5.4c2,2.5,5.4,4.9,9.1,5.9c3.5,0.8,8.6,1.3,13.5,0.2c4.7-1.3,10.5-4.9,14.3-7.1
		c4.2-2.5,6.9-5.1,10.1-7.4c1.5-1,1.9-3,0.8-4.4c-1-1.5-3-1.9-4.4-0.8c-3.4,2.2-6,4.2-9.4,6.1c-0.3,0.1-0.5,0.2-0.7,0.3
		c-0.2,0.1-0.4,0.3-0.6,0.4c-3.7,2.1-8.4,4.8-11.8,5.6c-0.1,0-0.2,0-0.3,0.1c-0.1,0-0.2,0.1-0.3,0.1c-3.3,0.8-6.2,0.7-8.8,0.2
		c-0.2-0.1-0.5-0.2-0.8-0.3c-0.3-0.1-0.6-0.1-0.9-0.1c-1.9-0.6-3.2-1.5-4.5-3.1c-1.5-1.7-2.4-3.5-2.5-6.2c-0.2-2.9,0.7-6.6,2-10.6
		c0.5-1.4,1.2-2.8,1.8-4.3c0.2,0.1,0.3,0.2,0.5,0.2c-0.3-0.2,0.8,0.5,2.9,1c1.4,0.4,2.9,0.4,4.2,0.2c0.6,0,1.1,0,1.6-0.1
		c1.2-0.1,2.7-0.2,4.4-0.5c0.9-0.2,1.8-0.6,2.5-1.1c1.4-0.7,2.8-1.6,3.9-2.4c1.9-1.3,4-3.5,5.6-5.4c1.7-1.9,3.2-4,4.4-6.1
		c1.2-2,2.2-4.4,2.7-6.2c0.7-2,1.2-4.6,1.2-6.4c0-1.7-0.7-5.1-2.4-7.4c-0.8-1-4.6-3.7-8.8-4c-2.4,0.3-6.2,1.5-9.3,3.5
		c-2.5,1.9-6.2,4.7-9.6,8.6c-2.7,3.5-6.2,8.9-8.4,13.7s-4.2,10.1-5.1,14.7c-1,3.8-1.6,7.8-1.5,11.3c-1.9-2.1-5.1-2.7-7.8-1.3
		c-1.5,1-1.7,1.5-2.2,1.9c0,0,0,0,0,0c0,0,0,0,0,0c-0.7,0.3-2.2,0.7-4.2,1.3c-1.9,0.5-3.9,1.1-5.6,1.4c-0.2,0-0.4,0.1-0.6,0.1
		c-0.1,0-0.1,0-0.2,0c-2.1,0.3-4.5,0.5-6.9,0.6c-2.4,0.2-4.6,0.2-6.6,0c-1.1,0-2.1-0.1-3-0.3c0.1-0.2,0.1-0.4,0.2-0.6
		c0.7-1.5,1.9-3.5,3.2-5.7c1.5-2,3.7-4.4,5.7-6.7c2.2-2.2,5.1-4.9,7.6-7.4c2.4-2.5,4.7-5.2,6.4-7.8c1.7-2.5,3.2-5.4,4-7.6
		c0.8-3,0.5-6.4,0.3-7.6c-0.8-2.5-3.7-5.7-5.4-6.6c-2.9-0.8-5.2-0.7-6.1-0.5c-1.3,0.2-2.9,0.3-4.4,0.7c-1.5,0.2-3.5,0.3-5.4,0.7
		c-1.7,0.2-3.9,0.3-6.1,0.7c-2.2,0.3-4.7,1-6.1,1.2c-1.2,0.2-2.2,0.2-3.4,0.3c-2,0.8-3.2,1.5-3,1.3c-4.2,2.2-6.1,7.4-3.9,11.6
		C294.4,344.2,299.6,346.1,303.8,343.9z M369.1,338.1c2.7-2.5,5.2-3.9,7.8-5.2c0,0,0,0,0.1,0c-0.3,0.8-0.7,1.5-1.2,2.4
		c-0.8,1.2-1.9,2.2-3,3.4c-1.2,1-2.7,1.7-4,2.4c-0.1,0.1-0.3,0.1-0.4,0.1c-0.6,0-1.2,0-1.8,0.1c-0.1,0-0.2,0-0.2-0.1
		C367.2,340,368.2,339,369.1,338.1z"/>
	<path fill="#999999" d="M600.2,367c-1.5-1.5-4-1.7-5.6-0.2c-2.3,2-4,3.8-6.1,5.3c-0.4,0.1-0.8,0.3-1.2,0.6
		c-0.3,0.2-0.5,0.5-0.7,0.8c-2.5,1.6-5.1,3.3-7.5,4.3c-0.4,0.1-0.7,0.2-1.1,0.4c-0.1,0.1-0.2,0.1-0.4,0.2c-2.5,1-4.7,1.3-6.9,1.3
		c-1.9,0.2-3.7-0.3-5.4-1c-1.5-0.5-2-0.7-2.9-1.7c-1-1-1.3-1.5-1.7-3c-0.2-1.5,0.3-3.9,0.8-6.6c0.4-1.2,0.7-2.3,1.1-3.5
		c0.2,0.1,0.5,0.2,0.7,0.2c0.2,0.1,0.4,0.2,0.6,0.2c0.7,0.2,1.5,0.4,2.2,0.4c1.3,0.4,2.7,0.5,4.2,0.3c1.4-0.3,2.6-0.8,3.6-1.6
		c0.9-0.5,1.7-1.1,2.3-1.6c1.3-1.2,2.9-2.7,3.9-4c1-1.3,2.4-3,3-4.4c0.8-1.3,1.7-3,2.2-4.2c0.7-1.5,1.2-3,1.3-3.9
		c0.2-0.3,0.7-2.5,0.3-5.7c-0.5-1.7-3.5-5.2-5.9-6.4c-0.7-0.2-4-1-7.4-0.3c-1.7,0.5-4.9,1.9-7.6,3.9c-1.9,1.7-4.6,4.6-6.6,7.8
		c-1.9,3-3.7,7.4-4.7,10.8c-1.2,3.4-2,7.1-2.5,10.1c-0.1,0.6-0.3,1.2-0.4,1.8c-1.3,0.2-2.6,0.8-3.7,1.9c-2.2,2.4-4.4,4.9-5.7,5.9
		c-0.2,0.2-0.4,0.4-0.6,0.6c-0.1,0.1-0.2,0.2-0.3,0.3c-0.1-0.2-0.2-0.4-0.3-0.6c-0.5-1.5-0.8-3.4-1.3-5.9c-0.2-2.7-0.2-6.1-0.2-9.4
		c0-3,0.2-6.6,0.2-9.8c-0.2-2.9-0.3-6.4-0.8-8.8c-0.4-1.5-1.2-3.1-2.1-4.6c-0.4-1-1.1-1.9-2-2.7c-1.9-1.6-4.6-1.9-6.8-1
		c-0.8,0.1-1.4,0.2-1.8,0.3c-1.9,0.8-3.5,2.2-4.9,3.4c-1.3,1.2-3.4,2.7-5.1,4.4c-1.7,1.5-3.9,3.4-5.9,5.7c-2,2.2-4.6,5.2-6.6,8.1
		c-1.5,2.1-3,4.5-4.4,7c0.8-4.1,1.9-9,3.2-13.7c1.5-5.6,3.2-11.8,4.9-17.5c1.7-5.7,3.5-11.3,5.2-16.4c1.3-4.6,3-9.3,4-12.3
		c0.8-3,1.5-4.9,1.9-5.9c0-0.1,0-0.1-0.1-0.2c0.3-1.2,0.3-2.5,0-3.7c0-0.5-0.1-0.9-0.2-1.4c-1.2-4-5.2-6.2-9.3-5.2
		c0.1-0.1,0.1-0.1,0.2-0.2c-0.1,0.1-0.2,0.1-0.2,0.2c-2.1,0.6-3.7,2.1-4.6,3.8c-0.5,0.8-1,1.6-1.2,2.6c-0.1,0.4-0.3,1.3-0.7,2.7
		c-0.4,0.6-0.9,1.2-1.4,1.9c-1.2,1.3-2.2,2.7-3.7,4.2c-1.5,1.5-3.4,3.2-5.2,4.9c-1.9,1.5-3.9,2.9-6.1,4.2c-2.5,1.5-4.9,2.9-7.4,4
		c-0.8,0.3-1.6,0.6-2.4,0.9c1.4-4.8,2.6-9,3.7-12.4c1-3.7,2-6.7,2.9-9.1c0.7-2.2,1.2-3.2,1.3-2.9c0.2-0.3-0.7,1.5,0.7-1
		c2-4.4,0.2-9.6-4.2-11.6c-4.7-2-9.8-0.2-11.8,4.2c0.7-0.9-0.1,0.3-0.9,2.3c0,0.1-0.1,0.2-0.1,0.3c-0.1,0.2-0.1,0.4-0.2,0.5
		c-0.4,1.3-0.5,2.5-0.3,3.8c0,0.2,0,0.4,0,0.6c-0.1,0.3-0.1,0.7-0.2,1c-0.4,2.2-0.9,5.1-1.5,8.4c-0.1,0.4-0.1,0.8-0.2,1.2
		c-0.5,3.8-1.1,8.1-1.7,13c-0.2,1.7-0.5,3.6-0.8,5.5c-0.2,0.1-0.4,0.1-0.6,0.2c-0.3,0.1-0.5,0.3-0.8,0.4c-1.6,0.5-3.2,1.1-4.5,1.6
		c-0.8,0.1-1.5,0.3-2.3,0.7c-0.1,0-0.1,0.1-0.2,0.1c-1.3,0-2.6,0.3-3.9,0.9c-0.7,0.4-1.3,0.8-1.8,1.3c-1,0.5-1.5,0.9-1.9,1.1
		c-4.2,2.4-5.7,7.8-3.4,12c2.2,4.2,7.4,5.7,11.6,3.2c1.7-1,1.5-1.2,3.2-2c0.6-0.3,1.2-0.7,1.8-1.2c0.1,0,0.1-0.1,0.2-0.1
		c-0.5,3.7-0.9,7.3-1.1,10.6c-0.5,5.2-0.8,10-1,14.3c-0.3,3.9-0.5,7.8-0.3,10.8c0,3.2,0.3,5.9,0.8,8.1s1.3,4.9,3,6.7
		c1.3,1.3,3.4,2.7,5.7,3.4c0.5,0.2,1.1,0.4,1.7,0.5c2.5,0.3,6.2,0.2,9.3-0.8c2.9-1.2,6.4-3.2,9.3-5.6c0.8-0.7,1.5-1.5,2.2-2.3
		c0,0.1,0,0.2,0,0.3c0,0.2-0.1,0.5-0.1,0.7c-0.7,0.9-1,2.1-1,3.3c0.2,2.7,2.5,4.6,5.2,4.4c1.4-0.1,2.6-0.8,3.4-1.9
		c1.4-1,2-1.9,2.7-2.9c0.8-1.5,2-4,3.2-6.7c1.2-3,2.7-7.1,4.2-10.3c1.3-3.4,2.9-6.6,4.4-9.4c1.5-2.7,3.4-5.4,4.9-7.4
		c1.7-1.9,3.4-3.2,5.1-4.7c1.3-0.9,2.6-1.6,3.8-2.2c0.3,1.4,0.6,3.5,1,5.4c0.5,2.7,0.8,6.1,1.3,9.4c0.5,3.2,1,6.9,1.7,10
		c0.5,2.9,1,5.4,1.7,7.6c0.4,1.6,1,3.5,1.9,5.3c0.2,0.5,0.5,1,0.9,1.5c0.7,0.9,2.2,2,3.9,2.7c1.3,0.8,2.9,1.2,4.5,1
		c0.3-0.1,0.7-0.2,1-0.3c2.4-0.8,5-2.3,6.9-3.9c0.3-0.3,0.5-0.5,0.8-0.8c0.5-0.6,1.1-1.2,1.6-1.9c0.2,0.4,0.5,0.8,0.7,1.1
		c1.5,2.2,4,4.4,6.9,5.7c2.4,1,6.4,2,10.1,1.9c0.2,0,0.5,0,0.7-0.1c3.2-0.4,6.9-1.6,10.2-3.3c3.5-1.9,7.6-5.1,10.3-7.4
		c3-2.5,5.1-5.1,7.3-7.3C601.5,371,601.7,368.5,600.2,367z M465.7,362.4c0.5-4.2,1.2-8.6,2.2-13.7c1-4.9,2.5-10.6,3.9-16.2
		c0.2-0.6,0.3-1.2,0.5-1.8c1.3-0.7,2.7-1.5,4.1-2.3c2.5-1.5,5.1-3,7.6-4.7c2.7-1.7,5.2-3.5,7.6-5.4c2.4-1.5,4.6-3.2,6.6-4.9
		c0.4-0.3,0.7-0.5,1.1-0.8c-0.8,4.8-1.8,10.2-2.6,15.5c-1,5.9-2,12.5-2.7,18.2c-0.7,5.4-1.3,11-1.7,15.2c-0.3,2.7-0.5,5.1-0.7,7.2
		c-0.7,0.2-1.5,0.6-2,1.2c-2.4,2.3-4.5,4.8-6.4,6.4c-0.4,0.2-0.8,0.4-1.2,0.7c-0.2,0.2-0.3,0.3-0.5,0.5c-1.9,1.4-3.6,2.4-5.3,3
		c-0.2,0-0.4,0.1-0.6,0.2c-0.3,0.1-0.6,0.3-0.9,0.5c-1.3,0.4-2.4,0.5-3.6,0.5c0,0-0.1,0-0.1,0c0,0,0,0-0.1,0c-0.5-0.1-1,0-1.5,0.1
		c-0.4,0-0.8-0.2-1.2-0.4c-1-0.3-1.3-0.8-2-2.5c-0.5-1.7-0.8-3.5-1-6.4C465.1,369.9,465.4,366.3,465.7,362.4z"/>
	<path fill="#999999" d="M365.4,440.5c-4.9,0-8.9,4-8.9,8.9c0,0.5,0,1,0,1.5c0,4.9,4,8.9,8.9,8.9s8.9-4,8.9-8.9c0-0.5,0-1,0-1.5
		C374.3,444.6,370.3,440.5,365.4,440.5z"/>
	<path fill="#999999" d="M470.5,505.3c-0.5-1.9-1.2-3.9-2-5.9c-0.7-1.9-1.7-3.9-2.9-5.9c-1.2-2-2.5-4.2-3.5-5.7
		c-1.2-1.9-2.4-3.2-3-4.4c-1-1.5-1.5-2.4-1.9-3.2c-0.3-0.7-0.3-1-0.5-2c-0.2-0.7,0-1.3,0.2-2.5c0.2-1,0.3-1.5,0.7-2.4
		c0.3-0.8,0.7-1.7,1.2-2.4c0.1-0.1,0.1-0.2,0.2-0.3c0.2-0.1,0.3-0.3,0.5-0.4c3.5-3,4-8.3,1-11.8c-3-3.5-8.3-4-11.8-1
		c-0.5,0.4-1,0.9-1.4,1.5c-0.5,0.6-1.1,1.3-1.5,1.9c-0.3,0.7-1.2,2.4-1.9,4c-0.3,1.5-0.8,3.5-1,5.2c-0.2,1.5-0.2,3.5-0.2,5
		c-0.7,1.4-1.6,3-2.5,4.6c-1.7,2.7-3.5,5.7-5.6,8.9c-2.2,3-4.4,6.4-6.7,9.4c-2.4,2.9-4.9,5.9-7.3,8.1c-2.5,2.4-4.7,4.2-7.1,5.7
		c-2.2,1.5-4,2.4-6.1,3.2c-1.7,0.8-3.2,1.2-4.7,1.3c-0.5,0.1-0.8,0.2-1.2,0.3c-0.3,0-0.6-0.1-0.9-0.1c-0.9,0-1.7,0.1-2.5,0.4
		c-0.1-0.2-0.1-0.5-0.2-0.9c-0.3-1.5-0.5-3.4-0.5-5.9c0-2.3,0.2-5.2,0.5-8.2c0.4-1.3,0.7-2.6,1-3.7c0.4-1,0.2-2-0.2-2.8
		c0.2-1.3,0.4-2.6,0.6-3.9c0.7-3.5,1.7-7.4,2.5-11.3c1-3.9,2.2-8.1,3.4-12c1.3-4,2.9-7.9,4.2-11.8c0.8-2.6,1.7-5.1,2.5-7.5
		c0.8-0.8,1.4-1.9,1.7-3.1c0.2-0.9,0.2-1.8,0-2.6c0.2-1,0.5-2,0.7-2.9c0.6-0.8,1-1.8,1.2-2.9c0-0.2,0.1-0.4,0.1-0.6
		c0.6-1,1-2.1,1.1-3.4c0.1-1.1-0.1-2.2-0.4-3.1c0-0.2,0-0.3,0.1-0.4c0-4.2-3.4-7.6-7.6-7.6c-3.9,0.2-7.3,3.5-7.3,7.8
		c0,1.3,0.2,1.9,0.2,2.2c-0.1,0.6,0,1.3,0.1,1.9c0,0.3,0,0.6-0.1,1c-0.1,0.4-0.1,0.7-0.1,1.1c-0.2,1.9-0.5,4.5-0.7,7
		c-0.1,0.3-0.1,0.5-0.1,0.8c-0.4,3-1,6.4-1.6,9.8c-0.5,3.9-1.3,8.1-2,12.5c-0.7,4-1.3,8.6-1.9,12.5c-0.7,4-1.3,8.1-1.9,11.6
		c-0.3,1.9-0.6,3.7-0.9,5.5c0,0.1-0.1,0.2-0.1,0.3c-1.9,5-3.2,10.6-5.1,14.2c-0.2,0.2-0.3,0.4-0.5,0.7c-0.1,0.2-0.2,0.3-0.2,0.5
		c-1.8,3-4.1,5.4-6.2,6.8c-0.3,0.1-0.6,0.3-0.9,0.4c-0.2,0.2-0.5,0.3-0.6,0.5c-1.7,1-3.2,1.2-4.9,1.2c-0.3-0.1-0.6-0.2-0.9-0.2
		c-0.4-0.1-0.7,0-1.1,0c-1.6-0.4-3.4-1.7-5-3c-1.7-1.5-2.7-3-3.4-5.2c-0.7-2.4-0.8-5.1-0.7-8.4c0.3-2.9,1.3-6.2,2.4-10
		c0.7-3.2,1.9-7.3,2.5-10c0.7-2.7,1.2-4.7,1.7-6.1c0-0.8-0.5-0.2-0.2-1c0,0-0.1,0-0.1,0c1.6-2.8,0.7-6.4-2.1-8.3
		c-2.9-1.7-6.6-0.8-8.4,2c0-0.3-1.3,1.3-2.2,3.2c-0.5,1.5-1.2,4-2,7.1c-0.4,2.4-1,6-1.4,9.3c-0.8,1.6-1.6,3.3-2.4,5.1
		c-2,3.7-4.4,8.3-6.6,11.8c-2.4,3.7-4.7,7.6-6.9,9.8c-2.2,2.5-4,3.9-6.1,5.1c-1.7,1.2-2.2,1.3-3.2,1.2c0,0,0,0,0,0c0,0-0.1,0-0.1,0
		c-0.2,0-0.4,0-0.6,0c-0.3-0.1-0.6-0.4-1.1-0.7c-0.7-0.5-1-1.2-1.7-3c-0.5-1.7-0.7-3.2-0.7-5.6c0-2,0.5-5.4,1-8.3
		c0.1-1.8,0.3-3.5,0.5-5.2c1.3-1.1,2.3-2.6,2.7-4.4c0-0.5,0.3-1.5,0.7-3.4c0.2-1.1,0.1-2.3-0.2-3.3c0,0,0,0,0,0c0-0.3,0-0.6,0-0.9
		c0-1.3,0.1-3.3,0-4.9c0-0.5,0-0.9-0.1-1.3c-0.1-1.5-0.3-3.2-0.7-4.6c-0.3-1.7-0.8-3.7-1.7-5.6c-0.5-1.3-2-3.9-4-5.7
		c-1.3-1-4.7-2.7-8.3-2.9c-1.7,0.2-5.6,1.2-8.8,3.5c-2.4,2-5.4,5.4-7.9,9.1c-2.5,3.7-5.2,8.8-7.4,13c-2,4.4-4,9.3-5.4,13.3
		c-1.3,3.9-2.2,8.1-2.7,11.1c-0.1,0.7-0.2,1.3-0.2,2c-1.3,0.1-2.7,0.7-3.7,1.7c-1.7,1.9-2.7,3.4-3.7,4.4c-1.7,1.7-2.9,3-3.2,3h0
		c-0.4,0.1-0.8,0.2-1.2,0.4c-0.3,0-0.7-0.2-1.2-0.4c-1.2-0.7-2.2-1.7-3.2-3.7c-1-2.2-1.7-5.1-2.4-8.6c-0.3-3.5-0.5-7.4-0.5-12
		c0.2-2.3,0.4-4.9,0.7-7.6c0.1-0.1,0.1-0.1,0.2-0.2c1.3-0.8,3.1-1.9,5.1-3.2c0.7-0.4,1.2-0.8,1.7-1.4c2-1.7,4.3-3.6,5.9-5
		c2.4-1.9,4.9-3.7,6.7-5.1c1-0.5,1.8-1,2.4-1.4c-0.1,0.1,0.1,0.4,0.7,1c3.4,2,7.8,1,9.8-2.4c2-3.4,1-7.8-2.4-9.8
		c0.3,0.7-1.2-0.2-3.7-0.8c0,0,0,0-0.1,0c0,0-0.1,0-0.1,0c-1.2-0.3-2.4-0.2-3.5,0.1c-0.5,0.1-1.1,0.2-1.6,0.3
		c-0.3,0-0.5,0.1-0.8,0.2c-0.4,0.1-0.7,0.3-1,0.5c-1.3,0.6-2.7,1.4-4.1,2.1c-0.4,0.1-0.8,0.3-1.2,0.5c-0.1,0.1-0.2,0.2-0.3,0.2
		c-2.1,1-4.9,2.4-7.4,3.6c-0.5,0.2-1,0.5-1.5,0.7c0.6-2,1.2-3.9,1.8-5.8c1.5-4.6,2.5-9.1,3.4-12.3c1-3.4,1.5-5.9,2-7.9
		c0.7-2.2,0.8-3.7,1.2-4.9c0.3-0.8,0.8-2.5-0.2-5.7c-2.4-2-7.4-1.7-9.4-0.2c-0.8,0.8-2.5,2.7-4,5.6c-1,2.4-2.7,6.2-3.9,10.6
		c-1,4.4-1.9,10-2.5,15.2c-0.3,3.6-0.6,7.3-0.7,11.1c-0.3,0.1-0.7,0.2-1,0.4c0,0,0,0,0,0c-0.3,0-0.5,0.1-0.8,0.1
		c-0.2,0-0.4-0.1-0.6-0.1c-4.9,0.5-8.4,4.9-7.8,9.8c0.4,4.2,3.4,7.2,7.1,7.8c-0.1,0.3-0.3,0.5-0.4,0.8c-2.7,4.7-5.4,9.4-8.3,13
		c-3,3.7-6.1,6.4-9.3,8.6c-2.9,2.2-5.4,3.2-8.1,4c-2,0.7-4,1-5.8,1c-0.4-0.1-0.7-0.2-1.1-0.2c-0.4,0-0.9,0-1.3,0.1
		c-1-0.1-1.8-0.4-2.9-1.1c-1.5-0.7-2.9-1.9-4-3.4s-2-3.4-2.5-5.7c-0.5-2.7-0.8-5.2-0.5-8.3c0.3-1.9,0.9-4,1.5-6.2
		c0.1,0.3,0.2,0.6,0.4,0.8c1.5,3.7,6.7,5.4,11.1,3.4c-0.9,0.3,0.6-0.2,2.4-1.3c0.1-0.1,0.2-0.1,0.3-0.2c0.2-0.1,0.4-0.2,0.5-0.4
		c1.2-0.9,2-2,2.6-3.3c0.3-0.4,0.6-0.7,0.8-1.1c0.8-0.9,1.9-2.3,2.8-4c0.4-0.6,0.6-1.1,0.9-1.7c0.9-1.9,1.7-4.1,2.3-5.9
		c1-2.5,1.9-5.2,2.5-7.6c0.8-2.4,1.5-4.6,1.9-6.2c0.5-1.3,1.2-3.4,1.2-5.4c-0.2-2.2-3-6.2-4.7-7.3c-0.7-0.3-4.2-1.3-7.6-0.8
		c-1.9,0.7-4.9,2-7.4,3.7c-1.9,1.5-4.7,4-7.1,7.3c-2,3-4.4,7.3-5.9,11.3c-1.5,3.7-3,8.3-3.9,12.1c-1,3.9-2,8.3-2.2,11.8
		c-0.3,3.7-0.2,7.4,0.3,10.5c0.4,2.3,0.9,4.6,1.8,6.7c-0.3,0.1-0.5,0.1-0.8,0.2c-2.4,1.2-4,2.4-5.7,2.9c-2.3,0.8-4.6,1.8-5.5,1.8
		c-0.4-0.1-0.9-0.1-1.3,0c-0.4-0.1-0.7-0.5-1.2-1.1c0,0,0,0,0,0c0,0,0,0,0,0c-1-1.3-1.5-3.2-1.7-6.2c-0.2-3.2,0.3-7.4,1-12.7
		c0.8-4.9,1.9-11,3.2-17c0.1-0.3,0.1-0.6,0.2-0.9c1.5-5,2.9-9.9,4.2-14.4c1.5-4.9,2.9-9.6,4-14c0,0,0,0,0,0c0.7-2.1,1.5-4.2,2.2-6.2
		c1.5-4.9,3.2-9.4,4.6-12.8c1-3.2,1.9-5.1,2.7-6.7c0.5-1.7,0.3-1.9-0.2-1.3c0,0,0,0,0,0c2.2-3,1.5-7.3-1.5-9.6
		c-3-2.4-7.4-1.7-9.8,1.3c-0.8,1-1.9,2.4-2.7,4.2c-0.5,1.5-1.7,4.2-2.7,7.8c-0.8,3.5-2.2,8.6-3.4,13.8c-1,5.2-2,11.3-3,17.7
		c0,0.2-0.1,0.4-0.1,0.5c-0.1-0.1-0.2-0.1-0.2-0.2c-1.4-1-3-1.5-4.7-1.7c-0.1,0-0.2-0.1-0.4-0.1c-1-0.4-2.7-1-5-1.3
		c-0.4-0.1-0.8-0.1-1.1-0.1c-1.2,0-2.3,0.2-3.4,0.6c-1.9,0.5-3.7,1.2-5.1,2c-2,1.3-4.6,3.2-6.9,5.7c-2,2.2-4.7,5.4-6.6,8.4
		c-2,3-4,6.9-5.4,10.3c-1.5,3.4-2.7,7.1-3.4,10.5c-0.8,3.2-1.5,6.9-1.7,9.8c-0.3,3-0.3,6.2,0,8.8c0.3,2.7,1.2,5.6,2.2,7.8
		c1,2.2,3,4.7,4.9,6.1c1.5,1.1,3.5,2.1,5.5,2.7c0.6,0.3,1.3,0.5,2.1,0.5c2,0.2,5.6,0,8.8-1.2c2.2-1.2,5.4-3.4,7.9-6.2
		c2.2-2.9,4.6-6.6,6.6-10.6c0.2-0.3,0.3-0.7,0.5-1c0,0.1,0,0.2,0,0.3c0.2,3.7,1,7.1,2.4,9.3c1.2,2.3,3.4,4.4,5.9,5.4
		c0.3,0.1,0.6,0.3,0.9,0.3c2.8,0.6,6.2,0.2,8.6-0.2c0.3,0,0.7-0.1,1-0.1c2.9-0.5,5.4-1.5,7.3-2c1.2-0.5,2.2-1.4,2.8-2.5
		c0.4,0.3,0.8,0.7,1.1,0.9c2.4,1.5,5.6,3,9.1,3.4c3,0,7.3-0.7,10.8-2c3.2-1.3,6.9-3.7,10.3-6.6c3.2-2.9,6.6-6.7,9.6-11.1
		c2-3,4-6.5,5.8-10c0.2,3.3,0.5,6.3,1,9c0.5,3.9,1.3,7.4,2.5,10.3c0.9,2.6,2.5,5,4.1,6.7c0.2,0.2,0.4,0.4,0.6,0.6
		c1.6,1.4,4,2.6,6.6,2.9c0.7,0.2,1.4,0.3,2.2,0.1c2.8-0.6,5.3-2.2,7.1-3.4c0.4-0.2,0.7-0.4,1-0.7c0.8-0.6,1.5-1.2,2.2-1.9
		c0.1,0.1,0.1,0.2,0.2,0.3c0.6,1.2,1.8,2.5,3.1,3.5c0.7,0.7,1.6,1.3,2.6,1.5c2.2,0.5,5.7,0.3,8.3-0.5c2-1,5.1-2.9,7.4-5.6
		c2-2.7,4.2-6.6,5.9-9.6c0.5-0.9,0.9-1.9,1.4-2.9c0.5,3,1.3,6.2,2.4,8.6c0.8,2.4,2.5,5.2,4.7,7.3c1.7,1.5,4.6,3.1,7.7,3.7
		c0.4,0.1,0.7,0.1,1.1,0.2c3,0,6.7-1.2,9.6-3c2.5-1.9,5.6-4.7,8.3-8.1c2.4-3.4,4.7-8.1,6.6-12.1c0.5-1,0.9-2,1.4-3.1
		c0.4,2.5,1,5,2,7.1c1.3,3.2,3.5,6.4,6.2,8.6c2.5,2.2,6.6,4.7,10.6,5.4c3.7,0.3,8.4-0.7,12.3-3c1.5-1.1,3.1-2.6,4.7-4.4
		c0.1,0.4,0.1,0.9,0.2,1.3c0.8,2.4,2.9,4.7,4.4,5.7c1.3,0.7,3.1,1.4,4.7,1.7c0.5,0.2,1.1,0.3,1.7,0.3c0.3,0,0.5,0,0.8,0
		c1.8,0,4-0.2,6.2-0.8c2-0.7,4.7-1.9,7.3-3.4c2.2-1.5,4.9-3.4,7.3-5.7c2.4-2.2,4.9-5.1,7.3-8.1c2.2-2.9,4.6-6.6,6.6-9.8
		c2.2-3.4,4.2-7.1,6.1-10.3c1.3-2.1,2.6-4.2,3.7-6.1c1,1.7,2.1,3.3,3,4.6c1.3,1.7,2.5,3,3.5,4.4c1.2,1.5,2.5,3.2,3.4,4.6
		c1,1.5,1.7,2.7,2.2,4.2c0.5,1.3,1,2.5,1.2,3.9c0.2,1,0.2,2.2,0.3,3.5c0,1.5,0.2,2.4-0.2,2.9c-0.5,0.3-1.5,0.7-3.2,1
		c-1.7,0.5-3.9,0.8-6.2,1.2c-0.4,0-0.8,0.1-1.1,0.2c-1.8,0.2-4,0.4-6,0.5c-0.2,0-0.5,0-0.7,0c-2.2,0.2-4.2,0.3-5.7,0.3
		c-1.5-0.2-2.7-0.5-4.7-0.8c-3.2-0.5-6.1,1.7-6.6,4.7c-0.5,3.2,1.7,6.1,4.7,6.6c1.2,0.1,2.5,0.5,4.2,0.7c0.5,0.2,1.1,0.3,1.7,0.3
		c0.5,0,0.9,0,1.4-0.1c2,0.1,4.1,0.1,5.9,0.1c2.2,0.2,5.1,0.3,7.6,0.3s5.4-0.2,7.8-0.3c2.2-0.3,4.9-1,7.1-1.9
		c2.4-1.2,4.6-3.5,5.6-5.1c1.2-2.4,1.5-5.1,1.7-6.4c0-2-0.3-3.9-0.5-5.2C471.3,509.2,471,507.3,470.5,505.3z M227.1,468.3
		c-0.1-0.3-0.2-0.5-0.2-0.6C227,467.2,227.2,467.2,227.1,468.3z M222.3,477c0.8-0.8,1.6-1.4,2.5-1.9c-0.7,1.4-1.6,2.9-2.5,4.4
		c-0.5,0.8-1,1.6-1.5,2.3c-1,0.6-2,1.4-2.7,2.4c-0.2,0.3-0.3,0.5-0.5,0.8c-0.7,0.3-1.4,0.7-2.1,1.3c-0.2,0.1-0.5,0.2-0.7,0.4
		c0.4-0.6,0.7-1.2,1.1-1.8C217.9,481.7,220.1,478.8,222.3,477z M176.4,501.4c-2.4,4.7-4.7,8.8-7.1,12.1c-2.2,3.4-4.2,5.7-6.1,7.4
		c-1.5,1.5-2.5,2-4,2.4c-0.7,0.5-0.2,0.3-1.3,0.2c-0.7,0.2-1,0.2-1.5-0.2c-0.8-0.2-1-0.3-1.7-1.2c-0.8-1-1.3-2-1.9-3.7
		c-0.5-1.9-0.8-3.7-0.7-6.2c0.2-2.4,0.7-5.2,1.3-7.8c1-2.9,2-5.4,3.5-8.3c1.5-2.7,3.5-5.4,5.6-7.8c1.9-2.2,4.2-4,6.1-5.4
		c1.1-0.8,2-1.3,2.9-1.6c0.2,0.1,0.5,0.1,0.7,0.1c0.7,0.5,1.4,1,2.3,1.3c0.1,0,0.1,0,0.2,0.1c0.4,0.3,0.8,0.5,1.3,0.7
		c0.1,0.1,0.1,0.2,0.2,0.3c1.7,1.7,3.9,2.6,6.2,2.6c0,0.4-0.1,0.7-0.1,1.1c-0.1,0.5-0.1,1-0.2,1.6
		C180.3,493.4,178.4,497.8,176.4,501.4z M285.1,476c0.1-0.1,0.2-0.1,0.3-0.2c0.3,0.1,0.6,0.2,0.8,0.3
		C285.7,476.1,285.3,476,285.1,476z M268.4,441.2c0,0.3,0.1,0.7,0.1,1.1C267.9,439.9,268.1,439.9,268.4,441.2z M306.5,502.8
		c-1.9,2.9-3.7,6.2-5.6,9.1c-1.9,2.9-3.7,6.1-5.2,7.6c-1.3,1.7-2.2,2.2-3.5,2.9c-0.4,0.4-0.6,0.6-0.8,0.8c-0.2-0.1-0.5-0.2-0.7-0.3
		c-0.5-0.1-1-0.1-1.5,0c-0.3-0.5-0.5-1.2-0.7-2.3c-0.2-1.9-0.3-3.5,0-6.1c0.7-2.7,1.7-5.9,3.2-9.3c1.7-3.5,4-7.6,6.6-11.3
		c2.5-3.7,5.4-7.8,8.1-10.6c2.4-2.7,4.7-4.7,6.6-5.6c0.2-0.1,0.3-0.2,0.4-0.3c0.1,0.4,0.1,0.8,0.1,2c0,0.8,0,1.6-0.1,2.4
		c-0.1,0.4-0.1,0.8-0.1,1.3v0c-0.2,1.2-0.5,3.2-0.7,4.7c-0.1,0.4-0.1,0.7-0.2,1c0,0.1,0,0.1,0,0.2c-0.1,0.4-0.2,0.6-0.3,0.7
		c-0.2,0.5-0.3,0.8-0.7,2c-0.2,0.9-0.3,1.8-0.2,2.7c-0.1,0.1-0.1,0.2-0.2,0.3C309.7,496.9,308.2,499.9,306.5,502.8z M458.5,514.7
		C458.6,514.7,458.6,514.7,458.5,514.7C458.5,515.3,458.6,515,458.5,514.7z"/>
	<path fill="#999999" d="M277.5,322.1c0.5,0,0.8,0.2,1.3,0.2c4.9,0.8,9.4-2.5,10.3-7.4s-2.5-9.4-7.4-10.3c-0.5,0-0.8-0.2-1.3-0.2
		c-4.9-0.8-9.4,2.5-10.3,7.4C269.2,316.7,272.4,321.3,277.5,322.1z"/>
</g>
</svg>
