<?xml version="1.0" encoding="utf-8"?>
<!-- Generator: Adobe Illustrator 18.0.0, SVG Export Plug-In . SVG Version: 6.00 Build 0)  -->
<!DOCTYPE svg PUBLIC "-//W3C//DTD SVG 1.1//EN" "http://www.w3.org/Graphics/SVG/1.1/DTD/svg11.dtd">
<svg version="1.1" id="Layer_1" xmlns="http://www.w3.org/2000/svg" xmlns:xlink="http://www.w3.org/1999/xlink" x="0px" y="0px"
	 viewBox="0 0 612 792" enable-background="new 0 0 612 792" xml:space="preserve">
<g>
	<path fill="#F99D1C" d="M77.6,560c-2.2-1.5-5.1-1-6.6,1.2c-0.2,0.2-0.3,0.5-0.4,0.8c-0.2,0.3-0.4,0.6-0.6,1
		c-0.2,0.1-0.3,0.2-0.5,0.3c-1,0.5-2.4,1-4,1.7c-1.9,0.7-4,1.3-6.4,2.2c-2.5,0.7-5.6,1.7-8.3,2.4c-2.7,0.7-6.1,1.5-8.4,2.2
		c-1.6,0.4-3,0.7-4.2,1c0,0,0,0,0,0c-0.3,0-0.7,0-1,0c-0.1,0-0.1,0-0.2,0c-0.1,0-0.1,0-0.2,0c0,0-0.1,0-0.1,0
		c-0.9-0.1-1.8,0-2.6,0.3c-2.4,1.2-3.4,3.9-2.4,6.2c0.7,1.5,2.1,2.4,3.6,2.7c0.1,0,0.3,0.1,0.4,0.1c0.4,0.8,0.7,0.8,0.6,0.8
		c0.5,0,0.8,0,1,0c0.2,0,0.7,0,1,0c1.9,0,3.5-1.2,4.2-2.9c0.7-0.3,1.5-0.6,2.4-0.9c2.2-0.8,5.4-2.2,8.1-3.2c2.7-1.2,5.7-2.4,8.1-3.4
		c2.4-0.8,4.6-1.7,6.4-2.4c0.4-0.1,0.8-0.2,1.2-0.3c-0.5,2.9-1,6.8-1.8,11.8c-0.6,4-1.4,9.6-2.1,14.6c0,0.1-0.1,0.2-0.1,0.3
		c-0.3,1.4-0.2,1.9-0.6,2.9c0,0-0.1,0.1-0.1,0.1c-0.2,0.3-0.3,0.7-0.4,1c-0.6,1.3-1.4,2.7-2.7,4.1c-1.5,1.7-3.2,3.3-5.6,5
		c-0.3,0.1-0.6,0.2-0.8,0.3c-0.3,0.2-0.5,0.4-0.6,0.7c-2.6,1.8-5.9,4-9.1,5.4c-3.5,1.7-7.8,3.2-11.3,3.9c-3.6,0.8-7,1.3-9.9,1.1
		c-0.2-0.1-0.5-0.2-0.7-0.2c-0.3,0-0.6,0-0.9,0c-2.7-0.4-5.2-1.4-7-2.9c-2.2-1.7-3.5-3.7-4.7-7.1c-1.2-3.5-1.9-7.6-1.9-12.8
		c0-4.9,1-11.1,2.2-17.2c1.3-6.1,3-13.2,5.4-18.9c2.4-6.1,5.4-12,8.6-16.5c3.2-4.7,6.4-8.4,9.8-11.5c3-2.7,6.7-4.4,9.8-5.6
		c2.9-1.2,5.1-1.3,7.6-1.5c1.9-0.2,3.5,0.3,5.2,0.8c0.8,0.2,1.4,0.7,2.5,1.3c0,0,0,0,0,0c0.1,0.1,0.1,0.1,0.2,0.1
		c0.1,0.2,0.2,0.4,0.3,0.7c1.5,2.7,5.1,3.5,7.6,1.9c2.2-2,3-5.4,1.5-8.1c0,0.2-0.3-0.4-0.9-1.3c-0.3-0.5-0.6-1-1-1.4
		c-0.5-0.5-1.1-0.8-1.7-1.1c-0.6-0.3-1.2-0.6-1.7-0.8c-0.1,0-0.2-0.1-0.3-0.1c-0.9-0.3-2.7-1.1-5-1.6c-0.4-0.1-0.7-0.1-1.1-0.1
		c-2-0.1-4.7-0.2-7.4,0.2c-2.7,0.7-6.1,1.5-9.6,3.5c-3,1.7-7.3,4.4-10.6,7.9c-3.4,3.5-6.9,8.1-9.8,13.3c-2.9,5.1-5.9,11.5-8.1,17.9
		c-2.2,6.1-3.9,13.5-5.1,19.7c-1.2,6.2-2,12.8-2.2,17.9c-0.2,5.4,0.7,10.1,1.9,14c1.2,3.7,3,6.9,5.6,9.1c2.7,2.2,6.4,3.9,10.1,4.6
		c3.9,0.5,8.3,0,12.3-0.8c3.9-0.8,8.6-2.5,12.3-4.4c3.9-1.9,7.8-4.6,10.5-6.6c2.4-1.7,4.3-3.4,5.9-4.9c-0.3,2.6-0.7,5-1,7.2
		c-0.7,5.4-1.2,10-1.7,14c-0.5,3.9-0.7,6.9-1,9.6c-0.3,2.7-0.7,4.7-0.8,6.4c-0.3,1.4-0.3,2.5-0.4,3.2c-0.1,0.2-0.1,0.4-0.1,0.6
		c-0.3,1.2-0.5,1-1,2c-0.3,1.7,0.8,3.2,2.5,3.4s3.2-0.8,3.4-2.5c-0.2-0.5-0.2-1-0.2-2.5c0-0.2,0-0.5,0-0.7c0-0.8-0.1-1.9-0.1-3.2
		c0.2-1.6,0.3-3.3,0.5-5.7c0.1-0.2,0.2-0.4,0.2-0.6c0-0.3,0-0.5-0.1-0.8c0.3-2.4,0.6-5.3,1.2-8.7c0.7-4,1.5-8.6,2.5-13.8
		c1-5.1,2.4-11.3,3.5-17c0-0.2,0.1-0.4,0.1-0.6c0,0,0,0,0,0c0.2-0.4,0.3-0.9,0.3-1.3c1.1-5.1,2.4-10.8,3.3-14.7
		c1.2-4.9,2-8.6,2.9-11.5c0.5-2.1,1-3.6,1.3-4.4c0,0,0.1-0.1,0.1-0.1c0,0,0,0-0.1,0c0,0,0,0,0,0c0,0,0,0,0.1,0
		c0.1-0.1,0.2-0.2,0.3-0.3C80.3,564.4,79.8,561.5,77.6,560z"/>
	<path fill="#F99D1C" d="M78.6,566.9c0,0-0.1,0-0.1,0c0,0,0,0,0,0C78.5,566.9,78.6,566.9,78.6,566.9z"/>
	<path fill="#F99D1C" d="M167.3,576.5c-0.8-0.5-2.2-0.2-2.7,0.7c-2,3-3,5.6-5.6,8.8c-2.4,3.2-5.9,7.9-8.9,10.6
		c-2.9,2.9-6.2,5.4-8.8,6.6c-2.5,1.3-5.1,1.7-6.7,1.3c-1.3,0-1.9-0.5-2.9-1.9c-0.8-1.2-1.3-2.9-1.5-5.2c0-2.7,0.5-5.6,1.2-9.8
		c0.5-2.7,1.2-5.9,2.1-9.4c1-2.1,2-4.3,2.9-6.6c1.5-0.5,3.1-1.1,4.8-1.8c2.9-1.2,7.1-2.5,10.1-3.7c0.3-0.1,0.5-0.2,0.7-0.3
		c2.6-1.1,4.7-2,7.1-3.1c1.5-0.5,2.4-2.2,1.7-3.7c-0.5-1.5-2.2-2.4-3.7-1.7c-2.7,0.8-4.9,1.5-7.9,2.2c-2.5,0.7-5.9,1.5-8.8,2.2
		c1.7-4.7,3.1-9.3,4.3-13.1c1.5-4.6,2.5-8.8,3.2-12c0.8-3.2,1.3-5.4,1.7-7.1c0.5-1.9,0.7-2.9,0.8-3.9c0,0,0-0.1,0-0.1
		c0.3-1.1-0.2-2.3-1.2-2.9c-1.2-0.8-2.9-0.3-3.7,0.8c-0.5,0.8-1.3,2.2-2.4,4.7c-0.8,2.5-2.2,6.4-3.7,10.8c-1.3,4.6-3,10.6-4.7,16.4
		c-0.6,2.5-1.3,5.4-2,8.2c-0.6,0.1-1.1,0.3-1.5,0.4c-1,0.3-1.9,0.5-2.6,0.6c0,0,0,0,0,0c-0.5,0.1-0.9,0.2-1.3,0.2
		c0,0.1,0,0.1-0.1,0.2c-2.1,1.1-3.1,3.6-2.3,6c0.2,0.4,0.4,0.8,0.7,1.1c0.7,1,1.8,1.8,3.2,2.1c0.2,0,0.4,0,0.6,0.1
		c0.3,0.1,0.6,0.1,0.8,0.1c-0.2,1.1-0.5,2.3-0.7,3.3c-0.2,0.4-0.4,0.8-0.7,1.2c-2.9,5.1-6.1,9.3-9.3,13.2c-3,3.5-6.2,6.6-9.4,8.9
		c-3,2.2-6.9,3.9-9.6,4.6c-2.9,1-4.6,0.8-6.9,0.5c-2.2-0.2-4.2-1-5.7-2c-1.3-0.8-2-2-2.9-4.2c-0.8-2.2-1.3-4.7-1.3-7.6
		c0.2-2.9,1-6.1,2-9.4c1.2-3.2,2.7-7.1,4.2-10c1.9-3,3.9-5.7,6.1-7.9c1.9-2,4-3.4,6.1-4.6c1.2-0.8,2.3-1.1,3.1-1.2
		c-0.1,0.7-0.4,1.6-0.6,2.6c-0.5,1.5-0.8,2.9-1.5,4c-0.7,1.2-1.7,2.5-2.7,3.5c-0.8,1-1.7,1.7-2.5,2c-0.5,0.3-1.7,0.7-2.9,1
		c-0.5,0.2-0.3,0-0.7,0c-0.3,0-0.2,0-1.2,0c-2.7,0.3-4.7,2.7-4.4,5.4c1.2,3.5,3.5,5.6,6.2,5.2c0.2,0,0.8,0,2.2-0.3
		c0.7-0.1,1.3-0.4,1.9-0.8c0.2-0.1,0.3-0.1,0.5-0.2c0.7-0.3,2.5-1.2,4.2-2.4c0.3-0.2,0.5-0.4,0.7-0.7c1.1-1.1,2.2-2.3,3-3.5
		c1-1.5,2.4-3.5,3-5.4c0.8-1.9,1.3-3.9,1.7-5.4c0.5-1.3,1-3.2,1-4.9c0.2-1.2-0.2-3.7-1.5-5.6c-1-1-3.7-2.4-6.4-2.2
		c-1.7,0.3-4.6,1.2-6.9,2.7c-2.2,1.5-4.9,3.7-7.3,6.6c-2.2,2.7-4.2,6.2-5.9,9.8c-1.5,3.4-2.9,7.8-3.7,11.1c-1,3.5-1.9,7.3-1.9,10.6
		c-0.2,3.4,0.5,6.6,1.3,9.1c0.7,2.4,2,4.9,3.9,6.7c2,1.7,5.4,3,8.1,3.5c2.7,0.3,5.9,0.3,9.4-0.8c3-1,7.4-3.2,11-5.9
		c3.4-2.7,6.7-6.4,9.8-10.3c1.6-2,3.2-4.2,4.7-6.5c-0.6,3.6-1,6.5-0.8,9.2c0,2.7,0.7,5.4,1.7,7.1c0.9,1.7,2.5,3.4,4.8,4.2
		c0.2,0.1,0.4,0.2,0.6,0.2c2.4,0.3,6.1,0.2,9.4-1.3c2.9-1.5,6.6-4.2,9.7-7.1c0.1-0.1,0.3-0.2,0.4-0.4c3.2-3.2,6.9-8.3,9.1-11.6
		c2.5-3.7,3.5-6.4,5.2-9.4C168.5,578.4,168.2,577,167.3,576.5z"/>
	<path fill="#F99D1C" d="M228.7,555.2c-1.4-1.7-3.4-2.9-5.2-3.6c-0.3-0.2-0.7-0.4-1-0.5c-0.4-0.1-0.8-0.1-1.1-0.1
		c-2.1-0.4-4.2-0.6-5.9-0.6c-2.4,0-4.7,0.3-6.4,0.5s-3.5,0.7-5.1,1c-1.5,0.7-3,1.7-3.9,2.4c-1.2,1.3-1.9,2.9-2,3.5
		c-0.3,1-0.5,2.7-0.3,3.7c0.1,0.5,0.3,1.1,0.6,1.6c0.2,1,0.7,1.9,1.4,2.6c0.5,0.5,1.2,0.9,1.9,1.1c-0.1,1.3-0.2,2.8-0.2,4.4
		c-0.2,3-0.5,6.7-0.8,11c-0.3,4.2-0.8,9.1-1.3,14.2c-0.3,2.4-0.5,4.9-0.8,7.5c-0.3-0.2-0.6-0.4-1.2-0.6c-1.9-0.5-3.7,0.5-4.2,2.4
		c-0.5,1.9,0.5,3.7,2.4,4.2c0.4,0,1.2,0.2,2.3,0.3c-0.1,0.5-0.1,0.9-0.1,1.4c-0.7,5.1-1.3,10.1-1.9,14.5c-0.5,4.6-1.2,8.8-1.5,12.5
		c-0.5,3.5-0.8,6.9-1,9.4c-0.2,2.5-0.5,4.6-0.3,6.1c0,1.7,0.3,2.4,0.5,3s0.8,1.2,1.5,1s1.2-0.8,1-1.5c-0.3-1.2-0.7-1.3-0.7-2.5
		c0-1.3,0-3.2,0.3-5.9c0.2-2.5,0.5-5.7,1-9.2c0,0,0-0.1,0-0.1c0,0,0-0.1,0-0.1c0,0,0-0.1,0-0.1c0.5-3.7,1-7.9,1.7-12.5
		c0.7-4.4,1.5-9.4,2.2-14.5c0.1-0.5,0.2-1.1,0.3-1.6c1.1-0.1,2.3-0.3,3.6-0.8c1.8-0.5,3.6-1.3,5.7-2.7c0.1,0,0.3-0.1,0.4-0.2
		c0.2-0.1,0.3-0.2,0.4-0.3c1.9-1.2,4.4-2.9,6.5-5.1c2.2-2.2,4.7-5.1,6.6-7.9c2-3,4-6.4,5.4-10c1.3-3.4,2-7.6,2.5-10.8
		c0.3-3.4,0.2-7.1-0.2-9.8C231.1,560,230.1,557.3,228.7,555.2z M226.4,572.1c-0.2,3-0.5,6.7-1.5,9.8c-1,3.2-2.5,6.4-4.2,9.4
		c-1.7,2.7-3.7,5.4-5.7,7.4c-2,2-4.6,3.5-6.6,4.6c-2,1-3.4,1.3-5.1,1.7c-0.6,0.1-1.2,0-1.7,0c0.4-2.8,0.9-5.5,1.2-8.1
		c0.8-4.9,1.7-9.8,2.4-14c0.7-4,1.3-7.8,1.9-10.8c0.4-2.4,0.7-4.4,1.1-5.9c0.2-0.2,0.3-0.4,0.5-0.6c1.4-1.4,1.8-3.6,0.9-5.4
		c0-0.1,0.1-0.1,0.1-0.1c0-0.1,0-0.1,0-0.1c0-0.1,0.1-0.2,0.2-0.4c0.1-0.2,0.1-0.4,0.1-0.5c0.3-0.1,0.6-0.2,0.9-0.3
		c1.7-0.5,3.4-0.8,5.1-1c1.9-0.2,3.7-0.3,4.9,0c1.5,0.3,2.4,0.7,3,1.5c1,1,1.5,2.4,2,4.7C226.2,566.2,226.5,569.2,226.4,572.1z"/>
	<path fill="#F99D1C" d="M385.6,556.9c-1.4-1.7-3.4-2.9-5.2-3.6c-0.3-0.2-0.7-0.4-1-0.5c-0.4-0.1-0.8-0.1-1.1-0.1
		c-2.1-0.4-4.2-0.6-5.9-0.6c-2.4,0-4.7,0.3-6.4,0.5s-3.5,0.7-5.1,1c-1.5,0.7-3,1.7-3.9,2.4c-1.2,1.3-1.9,2.9-2,3.5
		c-0.3,1-0.5,2.7-0.3,3.7c0.1,0.5,0.3,1.1,0.6,1.6c0.2,1,0.7,1.9,1.4,2.6c0.6,0.6,1.4,1,2.2,1.2c0,0.3,0,0.6,0,1
		c-0.2,3.2-0.5,7.6-1,12.1c-0.5,4.9-1.3,10.5-2,16.4c-0.3,2.3-0.6,4.7-1,7.2c-0.2-0.1-0.4-0.2-0.7-0.3c-1.9-0.5-3.7,0.5-4.2,2.4
		c-0.5,1.9,0.5,3.7,2.4,4.2c0.3,0,0.9,0.1,1.7,0.2c-0.2,1.5-0.4,3-0.6,4.5c-0.8,6.1-1.7,12.3-2.4,17.9c0,0.1,0,0.2,0,0.3
		c-0.7,5.6-1.3,10.8-1.8,15.4c-0.5,4.6-1,8.1-1.5,12c0,0.7,0.3,1.2,1,1.2s1.2-0.3,1.2-1c0.5-3.8,1-7.2,1.4-11.3
		c0.1-0.1,0.2-0.3,0.2-0.5c0-0.2,0-0.4-0.1-0.6c0.7-4.6,1.3-9.7,2.1-15.3c0.8-5.3,1.7-11.4,2.6-17.4c0-0.1,0-0.1,0.1-0.2
		c0-0.1,0-0.2,0-0.3c0.3-1.5,0.5-3.1,0.8-4.6c1.2-0.1,2.7-0.3,4.2-0.8c1.8-0.5,3.6-1.3,5.7-2.7c0.1,0,0.3-0.1,0.4-0.2
		c0.2-0.1,0.3-0.2,0.4-0.3c1.9-1.2,4.4-2.9,6.5-5.1c2.2-2.2,4.7-5.1,6.6-7.9c2-3,4-6.4,5.4-10c1.3-3.4,2-7.6,2.5-10.8
		c0.3-3.4,0.2-7.1-0.2-9.8C388,561.7,387,559,385.6,556.9z M366.5,560.9C366.5,560.9,366.5,560.8,366.5,560.9
		C366.6,560.8,366.6,560.8,366.5,560.9C366.6,560.8,366.6,560.8,366.5,560.9z M383.3,573.8c-0.2,3-0.5,6.7-1.5,9.8
		c-1,3.2-2.5,6.4-4.2,9.4c-1.7,2.7-3.7,5.4-5.7,7.4c-2,2-4.6,3.5-6.6,4.6c-2,1-3.4,1.3-5.1,1.7c-0.8,0.1-1.5,0-2.3-0.1
		c0.5-2.7,1-5.4,1.4-7.8c1-5.7,2.2-11.5,3-16.2c0.8-4.7,1.5-8.9,2.2-12.1c0.1-0.9,0.3-1.8,0.4-2.6c0.2-0.2,0.3-0.4,0.5-0.5
		c1.3-1.3,1.8-3.3,1.1-5c0.6-0.5,1-1.1,1.2-1.8c1.6-0.5,3.3-0.8,4.9-1c1.9-0.2,3.7-0.3,4.9,0c1.5,0.3,2.4,0.7,3,1.5
		c1,1,1.5,2.4,2,4.7C383.1,567.9,383.4,570.9,383.3,573.8z"/>
	<path fill="#F99D1C" d="M346.7,598.8c-0.2-0.8-0.3-1.9-0.7-2.9c-0.3-1-0.7-2.2-1-3.2s-0.8-2.2-1.3-3.4c-0.5-1.2-1-2.5-1.3-3.7
		c-0.5-1.3-1-2.5-1.3-3.7c-0.5-1.2-0.8-2.4-1.2-3.5c-0.3-1.2-0.8-2.5-1-3.4c-0.3-1-0.3-1.9-0.5-2.9c0-0.1,0-0.3-0.1-0.4
		c0.2-0.5,0.4-1,0.6-1.4c0.5-1.3,1.2-2.7,1.5-4c0.5-1.2,0.8-2.4,1.2-3.4c0.3-0.8,0.7-1.7,1-2.4c0.3-0.8,0.5-1.5,0.7-1.9
		c0.2-0.5,0.3-1,0.5-1.5c0.2-0.3,0-1.5-0.3-2.9c-0.5-0.8-2.5-2.2-4.2-2.5c-0.8,0-2.4,0.5-3.2,1c-0.5,0.3-1.3,1.2-2,2
		c-0.5,0.7-1,1.9-1.5,2.7c-0.3,0.8-0.7,1.9-0.8,2.9s-0.3,2-0.5,3c-0.2,1-0.2,2-0.2,3c0,0.8,0,2,0,3.2c0.2,1.2,0.3,2.4,0.5,3.4
		c0.1,0.7,0.3,1.3,0.5,2c-0.4,0.8-0.7,1.6-1.2,2.4c-0.7,1.3-1.3,2.4-2,3.5c-0.8,1.2-1.5,2.4-2.5,3.7c-0.8,1.2-1.9,2.5-2.9,3.7
		c-1,1.2-2,2.4-3,3.5c-1,1-1.9,1.9-2.7,2.7c-0.8,0.6-1.5,1.2-2.4,1.8c-0.8-0.2-1.6-0.1-2.3,0.4c-2.2,1.3-4,2.5-6.1,3.7c0,0,0,0,0,0
		c0,0,0,0,0,0c-1.7,0.9-3.6,2.1-4.9,2.6c-0.3,0-0.7,0-1,0.1c-0.3,0.1-0.5,0.2-0.7,0.3c-0.2-0.1-0.3-0.2-0.6-0.5c0,0.1,0,0.1,0,0.1
		c0,0,0,0,0,0c0-0.1-0.1-0.4-0.3-1c-0.3-0.8-0.7-1.7-0.8-2.9s0-3,0.2-4.9c0.2-1.9,0.3-3.7,0.7-5.9c0.2-2,0.5-4.4,0.7-6.7
		c0.2-2.2,0.3-4.7,0.5-6.7c0.2-2.2,0.2-4.2,0.2-6.1s-0.2-3.7-0.3-5.2c-0.2-1.5-0.5-3.2-1-4.4c-0.7-1.5-1.5-2.7-1.9-3.2
		c-0.4-0.5-1-1-1.6-1.5c-0.4-0.4-0.8-0.7-1.3-0.9c-1.4-0.6-3-0.5-4.2,0.3c-0.6,0.3-1.3,0.7-1.8,1.2c-0.3,0.5-1,1.3-1.5,2.4
		c-0.3,0.8-0.7,2-1,3c-0.3,1.2-0.5,2.4-0.7,3.5c-0.2,1.3-0.5,2.7-0.8,4.4c-0.3,1.5-0.7,3.2-1.3,5.2c-0.7,2.2-1.5,4.6-2.7,7.3
		c-1.3,2.7-2.9,5.9-4.9,8.9c-2,3-4.6,6.7-6.9,9.3c-2.5,2.7-5.4,4.9-8.1,6.6c-2.5,1.7-5.1,2.7-7.4,3.4c-2.2,0.7-4.2,0.7-6.1,0.3
		c-1.9-0.2-3-0.7-4.2-1.5c-1.2-0.8-1.9-1.7-2.5-3.4s-1-3.4-1-5.7c0.2-2.5,0.8-5.6,1.5-8.8c0.7-2.6,1.6-5.6,2.6-8.4
		c0.5,0.5,1.2,0.9,1.9,1.1c0.4,0.1,0.8,0.1,1.3,0.2c0.6,0.1,1.5,0.1,2.3,0c0.4,0,0.7-0.1,1.1-0.2c0.9-0.2,2-0.5,3-0.9
		c1.3-0.7,2.9-1.7,4.2-2.7c1.2-1,2.7-2.2,4-3.5c1.3-1.2,2.9-3,4-4.4c1.2-1.2,2.4-2.7,3-3.9c0.8-1.3,1.5-2.9,1.9-3.9
		c0.3-0.8,0.5-3-0.2-4.7c-1-1.3-2.9-2.4-4-2.7c-0.8-0.2-2.5-0.3-4.4-0.2c-1.3,0.2-3.7,0.5-5.9,1.5c-1.7,0.8-4,2-6.1,3.9
		c-1.9,1.7-3.9,4-5.7,7.1c-1.7,2.9-3.4,6.7-4.4,10.1c-1.2,3.5-2.2,7.4-2.7,10.6c-0.7,3.4-1.3,6.7-1.3,9.6c-0.2,2.7,0.3,5.2,1,7.1
		c0.7,2,1.9,4,3.4,5.6c1.5,1.3,3.9,2.7,6.4,3.2c2.2,0.3,5.4,0.3,8.3-0.3c2.7-0.8,6.1-2.4,8.8-4.4c2.9-2,5.7-4.9,8.4-8.1
		c2.4-3,4.9-7.1,6.7-10.3c2-3.4,3.5-6.6,4.9-9.4c1.3-2.9,2.2-5.4,3-7.4s1.3-3.7,2-5.1c0.7-1.5,1.3-2.9,1.9-3.9
		c0.4-1,0.9-1.8,1.3-2.4c0.2,0.5,0.4,1,0.6,1.7c0.3,1.2,0.7,2.7,0.8,4.4c0.3,1.7,0.5,3.4,0.7,5.6c0.2,2,0.2,4.2,0.2,6.4
		s-0.3,4.4-0.3,6.4c-0.2,2-0.3,4-0.5,5.9c-0.2,1.7-0.5,3.9-0.5,5.6s0.2,3.5,0.7,4.9c0.3,0.8,0.7,2.3,1.8,3.6
		c0.3,0.4,0.6,0.8,1.1,1.1c1.1,0.6,3.5,1.3,5.9,1.1c0.3,0,0.6,0,0.8-0.1c0.3-0.1,0.5-0.2,0.7-0.3c1-0.4,2.1-1,3.1-1.5
		c1.1,0.9,3.2,1.2,5.1,0.3c0,0,0.5-0.3,1.1-0.6c0.2,0.1,0.4,0.1,0.6,0.2c0.1,0.1,0.2,0.1,0.3,0.1c0.2,0.1,0.3,0.1,0.4,0.1
		c1.6,0.5,3.7,1,5.8,1.6c2.2,0.7,5.1,1.3,7.4,1.9c2.4,0.5,4.7,1.2,6.7,1.5c2.2,0.3,4.2,0.2,5.6,0.2c1.7-0.2,3.2-0.7,4-1.2
		c1.2-0.7,2.4-2,2.9-2.7c0.7-1.3,0.8-2.7,1-3.2c0-1,0-2,0-2.5c0-0.7,0-1.3-0.2-2.2S347,599.8,346.7,598.8z M248.6,571.6
		c1.7-2.4,3.4-3.7,5.2-5.1c1.5-1.2,2.9-1.5,4.6-2c1.2-0.3,2.7-0.5,3.9-0.5c0.1,0,0.2,0,0.2,0c-0.5,0.8-1.3,1.6-2.3,2.7
		c-1.2,1.2-2.5,2.5-3.7,3.4c-1.3,1-2.4,1.5-3.7,2.2c-1.2,0.7-2.2,1-3,1.3c0,0-0.1,0-0.1,0c-0.6-0.3-1.3-0.6-2-0.6c0,0,0,0,0,0
		C248,572.5,248.3,572,248.6,571.6z M340.9,560.8c0,0-0.2,0-0.3,0.1c0,0,0.1,0,0.1-0.1C340.7,560.8,340.7,560.8,340.9,560.8z
		 M336,557.8c0.2,0.2,0.2,0.3,0.3,0.8c0,0.4,0.1,0.7,0.1,0.9c-0.1-0.1-0.2-0.2-0.3-0.2C335.9,558.3,335.9,557.4,336,557.8z
		 M340.1,601.8c0,0.7-0.2,1.2-0.2,1.9c0,0.8,0,1.3-0.2,1.5c0,0.1-0.1,0.2-0.1,0.3c0,0-0.1,0-0.1,0c-0.5,0.3-0.5,0.5-1.3,0.7
		c-1.2,0.3-2.5,0.5-4.2,0.5s-3.9-0.2-6.2-0.5c-2.2-0.2-5.2-0.5-7.4-0.8c-1.5-0.2-3.1-0.5-4.4-0.7c0.1-0.1,0.2-0.3,0.3-0.4
		c0.3-0.3,0.7-0.6,1-0.9c0.7-0.7,1.2-1.3,2-2.2c0.7-0.7,1.7-1.7,2.5-2.7s1.9-2.2,2.7-3.4s1.9-2.7,2.9-4c0.8-1.3,1.9-2.9,2.7-4.2
		s1.7-2.7,2.5-4c0.4-0.7,0.8-1.4,1.2-2c0.4,1.1,0.9,2.2,1.3,3.2c0.5,1.3,1.2,2.5,1.7,3.7c0.5,1.2,1,2.4,1.3,3.5
		c0.3,1.2,0.7,2.2,1,3.2c0.3,1,0.5,2,0.7,2.9c0.2,0.8,0.2,1.5,0.2,2.4C340.1,600.3,340.1,601.1,340.1,601.8z"/>
	<path fill="#F99D1C" d="M512.2,555c0.1,0.2,0.1,0.3,0.1,0.3c0,0,0.1,0.1,0.3,0.2c1,1.5,2.8,2.2,4.6,1.8c0.9-0.2,1.7-0.7,2.3-1.4
		c0.2-0.1,0.3-0.2,0.4-0.3c0.2-0.3,0.7-1,1-1.7c0,0,0,0,0,0c0,0,0,0,0,0c0.1-0.3,0.2-0.6,0.3-0.9c0.1-0.3,0.2-0.6,0.2-0.8
		c0.1-0.5,0-0.9,0-1.3c0-0.3,0-0.6-0.1-0.8c0-0.1,0-0.1,0-0.2c0-0.1,0-0.1-0.1-0.2c-0.3-1-0.9-1.8-1.8-2.4c-0.8-0.5-1.8-0.7-2.7-0.6
		c-1.2,0.1-2.5,0.6-3.4,1.6c0,0-0.3,0.3-0.7,0.8c-0.2,0.3-0.3,0.6-0.5,0.9c0,0.1-0.1,0.1-0.1,0.1c0,0,0,0,0,0c0-0.1-0.1,0.1-0.2,0.4
		c-0.2,0.3-0.3,0.6-0.4,1v0C511.4,552.8,511.6,554,512.2,555z"/>
	<path fill="#F99D1C" d="M564.4,569.1c2,0.8,4.4-0.3,5.2-2.4c-0.5,0.7,0.2-0.3,0.3-1.9c-0.1-0.3-0.1-0.6-0.2-0.9
		c-0.2-0.9-0.6-1.7-1.3-2.2c-0.7-0.8-1.7-1.2-2.7-1.1c-0.8,0-1.6,0.3-2.2,0.9c-0.2,0.2-0.3,0.3-0.4,0.5c-0.2,0.2-0.3,0.4-0.4,0.7
		c-0.2,0.3-0.3,0.6-0.4,0.9c0-0.3,0-0.3-0.3,0.3c-0.2,0.4-0.2,0.8-0.3,1.2c-0.3,0.6-0.7,1.3-1.1,2.1c-1,1.9-2.4,4.6-3.7,7.4
		c-1.3,2.7-3,6.4-4.4,9.4c-1.5,3.2-2.9,6.4-4,8.9c-1.2,2.4-2,4.4-2.9,5.9c-0.4,1-0.9,1.9-1.3,2.6c-0.1-0.1-0.1-0.2-0.2-0.4
		c-0.7-1.2-1.5-2.9-2.4-4.7c-0.8-2-1.9-4.2-2.7-6.7c-0.8-2.5-1.7-5.4-2.4-8.1c-0.5-2.5-1.2-5.2-1.3-7.1c-0.3-2-0.3-3.7-0.5-5.1
		c-0.2-1.2-0.2-1.7-0.2-2.4c-0.2-0.7-0.7-2-1.3-2.7c-0.3-0.1-0.5-0.2-0.8-0.2c-1.5-1.1-3.7-1-5.1,0.4c-1.1,1.1-1.4,2.8-0.9,4.2
		c-0.1-0.1-0.1-0.2-0.1-0.2c0.1,0.2,0.2,0.5,0.3,1c0,0.4,0,0.7,0,1.2c0,0.8-0.2,1.7-0.3,2.9c-0.3,1.2-0.5,2.5-1,4
		c-0.5,1.7-1.2,3.5-1.9,5.7c-0.8,2-1.7,4.4-2.5,6.6c-1,2.4-2.2,4.7-3.2,6.7c-1,1.9-2,3.4-3,4.6c-0.8,1-1.7,1.7-2.5,2
		c-0.4,0.3-0.6,0.3-1,0.3c-0.2-0.1-0.3-0.1-0.5-0.2c-0.2,0-0.4-0.1-0.7-0.1c-0.1,0-0.1-0.1-0.2-0.1c-0.5-0.5-0.7-1-1-2.2
		c-0.2-1.3-0.3-2.9-0.2-4.9c0.2-2,0.5-4.4,0.8-6.9c0.5-2.5,1.2-5.4,1.9-7.9c0.7-2.5,1.5-5.2,2.2-7.3c0.5-1.9,1.2-3.4,1.7-4.6
		c0.1-0.4,0.3-0.8,0.4-1.1c0.1,0,0.2,0,0.2,0.1c1.3-1.9,0.8-4.6-1.2-5.7c-2-1.9-4.6-1.3-5.9,0.7c0,0,0,0,0,0
		c-0.3,0.4-0.5,0.7-0.7,1.2c-0.2,0.6-0.3,1.1-0.3,1.7c0,0.2,0,0.3-0.1,0.5c-0.1,0.3-0.1,0.6-0.2,0.8c-0.2,1.1-0.6,2.5-1,4.2
		c-0.1,0.2-0.1,0.5-0.1,0.7c-0.3,2.1-0.8,4.6-1.2,7.2c-0.3,2.7-0.7,5.9-0.8,8.5c-0.7-0.1-1.5,0.1-2,0.7c-1.3,1.3-2.4,2.5-3.9,4
		c-1.7,1.7-3.5,3.9-5.4,5.4c0,0,0,0,0,0c0,0,0,0,0,0c-1.6,1.3-3.6,2.8-5.3,3.9c-0.2,0.1-0.5,0.2-0.7,0.3c-0.2,0.1-0.4,0.3-0.5,0.5
		c-1.6,1-2.9,1.7-4,2.2c-1.1,0.4-1.8,0.6-2.4,0.6c-0.1-0.1-0.2-0.2-0.3-0.2c-0.2-0.1-0.4-0.1-0.6-0.2c-0.2-0.3-0.3-0.7-0.6-1.3
		c-0.5-1.3-0.8-3-1-5.4c0-2.4,0.3-5.2,0.8-8.8c0.5-3.4,1.2-7.4,2.2-11.8c1-4.4,2.4-9.6,3.7-14.3c1.3-4.4,2.7-9,4.2-13.4
		c0.1,0,0.2-0.1,0.4-0.1c2.2-0.5,5.1-1.2,7.1-1.9c2-0.5,3.9-0.8,5.4-1.2c1.1-0.3,2.1-0.4,2.8-0.5c0.8,0.3,1.6,0.3,2.4,0
		c1.2-0.3,3-2.5,1.5,0c2-1.2,2.7-3.7,1.5-5.7c-1.2-2-3.7-2.7-5.7-1.5c-0.4,0.6-0.6,0.9-0.7,1.1c-0.2,0.1-0.3,0.3-0.5,0.4
		c-0.7,0.3-1.5,0.5-2.6,0.8c-1.3,0.2-3.2,0.5-5.2,0.8c-1.1,0.1-2.5,0.2-3.9,0.4c1.1-3.1,2.1-6.2,3.1-8.8c1.3-3.9,2.9-7.6,3.7-10.1
		c1-2.9,1.5-4.4,2-5.6c0.3-1,0.5-0.8,0.8-1.5c0-0.1-0.1-0.1-0.2-0.2c0.1-0.2,0.1-0.5,0.2-0.7c0.1-0.4,0.2-0.8,0.2-1.3
		c0-2.7-2.2-4.9-5.1-4.9c-2.7,0-4.9,2.2-4.9,5.1c0,0.2,0,0.3,0,0.5c0,0.1,0,0.1,0,0.2c-0.3,1.5-0.5,3-1.2,5.7
		c-0.5,2.5-1.5,6.4-2.5,10.5c-0.8,3.4-1.9,7.6-2.8,11.6c-1.1,0-2.1,0-2.9,0c-0.4,0-0.7,0-1.1,0c-1.3-1.1-3.2-1.3-4.9-0.7
		c-0.2,0-0.6,0.2-0.9,0.3c-0.3,0.1-0.6,0.3-0.8,0.4c-2.3,0.9-3.6,3.4-3,5.9c0-0.3,0.1-0.4,0.2-0.4c-0.1,0.1-0.1,0.3-0.2,0.4
		c0.4,1.7,1.7,2.9,3.2,3.4c0.7,0.3,1.4,0.5,2.2,0.4c0.6,0,1.2-0.2,1.7-0.4c0.1,0,0.2,0,0.3-0.1c0.9-0.3,2.3-0.6,4-0.9
		c-0.9,3.5-1.7,7-2.5,10.6c-1.2,4.9-2.2,10.3-3,14.8s-1.3,8.6-1.7,12c-0.5,3.5-0.8,6.6-0.7,9.3c0,2.5,0.3,4.9,0.7,6.4
		c0.3,1.5,1,3.2,2.4,4.2c0.1,0.1,0.3,0.2,0.4,0.3c1.7,0.8,4,0.8,5.9,0.5c1.9-0.5,4-1.7,6.1-2.9c2-1.3,4.6-3.2,6.6-5.1
		c2-1.9,4-4.2,5.6-5.9c0.8-0.9,1.4-1.6,2.1-2.3c0,0.6,0,1.2,0,1.8c0,2.2,0,4,0.2,5.7c0.2,1.5,0.7,3.2,1.3,4.4
		c0.6,0.9,1.7,1.9,2.8,2.5c0.3,0.2,0.7,0.4,1.1,0.5c1.3,0.3,3.4,0.3,5.2-0.3c1.3-0.7,3.2-2.2,4.6-3.7c1.2-1.7,2.4-3.7,3.2-5.9
		c1-2.2,2-5.1,2.7-7.4c0.8-2.4,1.5-4.7,2.2-6.9c0.7-2,1.3-4,1.9-5.7c0.1-0.2,0.1-0.3,0.2-0.5c0.5,1.5,1.1,3.1,1.7,4.7
		c1,2.5,2.2,5.6,3.4,7.9c1,2.5,2.2,4.9,3.2,6.7c0.8,1.9,1.7,3.7,2.4,5.1c0.5,1.3,1,2.4,1.3,3.2c0.2,0.5,0.4,0.9,0.6,1.3
		c0.3,1.6,1.8,2.9,3.6,2.8c0.6-0.1,1.1-0.2,1.5-0.5c0.9-0.4,1.7-1,2-1.3c0.5-0.7,0.8-1.5,1.3-2.5c0.3-1,0.8-2.4,1.3-4s1.2-3.7,2-6.2
		c0.8-2.7,2-6.1,3-9.3c1-3,2.4-6.7,3.4-9.6c1.2-2.9,2.4-5.6,3.2-7.4c0.1-0.2,0.2-0.3,0.2-0.5C564,568.9,564.2,569,564.4,569.1z
		 M504.4,540.2C504.4,540.2,504.3,540.2,504.4,540.2C504.3,540.2,504.4,540.2,504.4,540.2z M475.5,543.2c-0.1,0-0.2,0.1-0.3,0.1
		C474.9,543.4,475,543.3,475.5,543.2z M516.1,568.1c0,0,0.1,0,0.1,0C516.2,568.1,516.1,568.1,516.1,568.1z M545.9,603.3
		c-0.1,0-0.1,0-0.2,0c0,0-0.1-0.1-0.1-0.1C545.7,603.3,545.8,603.3,545.9,603.3z"/>
	<path fill="#F99D1C" d="M608.8,601c-0.3-0.8-1.3-1.2-2-0.8c-2.8,1.1-5.1,2.3-8,3.3c-0.2,0-0.3,0.1-0.5,0.1c-0.1,0-0.3,0.1-0.4,0.2
		c-3.3,1.1-7.2,2.4-10.4,2.7c-3.2,0.5-5.9,0.2-8.6-0.2c-2.5-0.3-4.9-1-6.4-1.9c-1.7-0.8-2.4-1.5-3.4-3c-0.8-1.3-1.3-2.7-1.5-4.6
		c-0.2-1.9,0.3-3.9,0.8-6.2c0.7-2.4,1.5-4.9,2.5-7.4c0.3,0.1,0.6,0.2,1,0.3c0.2,0,0.3,0.1,0.5,0.1c0.4,0.1,0.8,0.3,1.3,0.4
		c0.4,0.1,0.9,0.1,1.3,0.1c0.5,0,1.1,0,1.5,0c0.8,0,2,0,3.5-0.2c0.3,0,0.6,0,0.9-0.1c1.1-0.1,2.5-0.3,3.8-0.6c1.5-0.3,3.4-1,5.1-1.9
		c1.7-0.8,3.4-2,4.7-3c1.3-1.2,2.7-2.5,3.5-3.5c1-1.2,1.9-2.5,2.2-3.4c0.7-1.2,1-2.4,1.2-3.2c0.2-0.7,0.3-2.4-0.3-4
		c-0.7-1.2-2-2.5-3-3.2c-1-0.5-2.5-1-3.9-1.2c-1-0.2-3.2-0.3-5.2-0.2c-1.7,0.3-3.9,0.7-5.9,1.9c-1.9,1-4.2,2.5-6.2,4.6
		c-1.9,1.9-3.9,4.7-5.6,7.3c0,0,0,0.1-0.1,0.1c-0.9,0.2-1.7,0.6-2.3,1.2c-1.8,1.5-2.1,3.8-1.1,5.7c-0.2,0.5-0.4,1-0.6,1.4
		c-1.2,2.7-1.9,5.6-2.5,8.1c-0.7,2.4-1.2,4.9-1,7.3c0,2.4,0.7,4.7,1.7,6.6c1,1.9,2.5,3.5,4.7,4.9c2,1,5.1,2,8.1,2.4
		c2.9,0.3,6.4,0.3,10-0.3c3.7-0.7,8.1-2.4,11.5-3.7c3.2-1.2,5.6-2.5,8.3-3.9C608.8,602.6,609.1,601.6,608.8,601z M594.5,567.6
		c0,0.1,0,0.3,0,0.4c0,0,0,0,0,0C594.5,567.8,594.5,567.7,594.5,567.6z M580.8,570.3c1.7-1.3,3.4-2,5.2-2.7c1.3-0.5,2.4-0.5,3.9-0.5
		c1,0,2,0.3,3.2,0.7c1,0.2,1,0.2,1.3,0.5c0,0,0,0,0.1,0c0,0.1,0,0.3-0.1,0.5c-0.3,0.7-0.5,1.3-1.2,2.2c-0.7,0.8-1.5,1.9-2.5,2.5
		c-1.2,0.8-2.4,1.5-3.5,1.9c-1.2,0.3-2.2,0.5-3.5,0.7c-0.8,0.1-1.8,0.1-2.7-0.1c-0.1,0-0.2,0-0.3,0c-0.1,0-0.3,0-0.4-0.1
		c-1-0.2-1.7-0.3-2.7-0.5c-0.2,0-0.4-0.1-0.5-0.1c-0.3-0.1-0.6-0.3-0.9-0.3C577.6,573,579.2,571.4,580.8,570.3z M568.8,581.6
		C568.8,581.5,568.8,581.5,568.8,581.6C568.8,581.5,568.8,581.6,568.8,581.6z"/>
	<path fill="#F99D1C" d="M468.8,561.1c-0.2-1-0.7-1.9-1.4-2.6c0,0-0.1-0.1-0.1-0.1c-0.2-0.3-0.5-0.5-0.8-0.8
		c-0.2-0.2-0.4-0.4-0.7-0.6c-0.3-0.3-0.7-0.6-1.1-0.8c-0.5-0.2-1-0.3-1.5-0.3c-0.9-0.2-1.8-0.3-2.4-0.2c-0.8,0-2.4,0.2-3.9,0.7
		c-1.2,0.5-2.9,1.2-4.2,1.9c-1.3,0.8-2.7,1.9-4,2.9s-2.7,2.4-4,3.9c-1.2,1.3-2.7,3-3.9,4.7c-1.2,1.7-2.4,3.7-3.2,5.7
		c-1,2-1.7,4.2-2.2,6.1c-0.7,1.9-1.2,4-1.5,5.7c-0.5,1.9-0.8,3.7-1,5.6c-0.2,1.9-0.2,3.9,0.3,5.6c0,0.1,0,0.1,0.1,0.2
		c-2.1,0.9-4,1.8-6.3,2.6c-0.3,0-0.6,0-0.9,0.1c-0.3,0.1-0.6,0.3-0.8,0.5c-2.9,1-6.4,2-9.2,2.6c-0.3-0.1-0.7-0.1-1.1,0
		c-0.3,0-0.6,0.2-0.8,0.3c-2.5,0.3-4.9,0-7.1-0.3c-0.2-0.1-0.4-0.2-0.7-0.2c-0.3,0-0.5,0-0.7,0c-2.2-0.4-4.2-1-5.5-1.7
		c-1.7-0.8-2.4-1.5-3.4-3c-0.8-1.3-1.5-2.9-1.7-4.7c-0.2-1.9,0.3-3.9,0.8-6.2c0.7-2.3,1.5-4.8,2.7-7.4c0.4,0.2,0.8,0.3,1.3,0.4
		c0.1,0,0.3,0.1,0.4,0.1c0.3,0.1,0.7,0.2,1.1,0.3c0.4,0.1,0.9,0.1,1.3,0.1c0.5,0,1.1,0,1.5,0c0.8,0,2,0,3.7-0.2c0.3,0,0.7-0.1,1-0.1
		c1.1-0.1,2.5-0.3,3.7-0.5c1.5-0.3,3.4-1,5.1-1.9s3.4-2,4.7-3.2c1.3-1.2,2.7-2.5,3.5-3.7c1-1.2,1.9-2.5,2.4-3.5
		c0.7-1.2,1-2.5,1.2-3.2s0.3-2.4-0.3-4c-0.7-1.2-2-2.5-3-3.2c-1-0.5-2.5-1-3.9-1.2c-1-0.2-3.2-0.3-5.2-0.2c-1.7,0.3-3.9,0.7-6.1,1.9
		c-1.9,1-4.2,2.5-6.4,4.6c-1.8,1.8-3.9,4.5-5.4,7c-1,0.1-2,0.6-2.9,1.5c-1.3,1.9-1.6,4.1-0.9,5.9c-0.2,0.5-0.4,1-0.6,1.5
		c-1.2,2.9-1.9,5.6-2.5,8.3c-0.7,2.4-1.2,5.1-1,7.4c0,2.4,0.7,4.7,1.7,6.6s2.5,3.7,4.7,4.9c2,1.2,5.2,2,8.1,2.4
		c2.8,0.3,6.1,0.3,9.7-0.3c0.1,0,0.3,0,0.4-0.1c3.7-0.7,8.3-2.5,11.5-3.7c2.7-1,4.9-2.2,7.2-3.3c0.4,0.6,0.8,1.2,1.3,1.8
		c1.2,1.3,2.9,2.5,4.7,3.2c1.5,0.5,3.7,0.9,5.7,1c0.2,0,0.5,0,0.7,0c0.2,0,0.5,0,0.7-0.1c2-0.2,4.1-0.7,6-1.3
		c2.2-0.7,4.7-1.9,6.6-2.9c2-1.2,3.5-2.5,4.7-3.5c1.3-1,1.5-2.7,0.7-4c-1-1.3-2.7-1.5-4-0.7c-1.7,1.2-2.7,2.4-4.2,3
		c-1.5,0.8-3.5,1.5-5.6,2c-1.9,0.5-3.5,0.8-5.1,0.7c-1.5,0-2.9-0.2-4-0.7c-1-0.3-1.5-0.5-2.2-1.3c-0.7-0.5-1-1.2-1.3-2.2
		c-0.3-1-0.5-2-0.5-3.5c0-1.3,0.3-2.9,0.7-4.7c0.3-1.7,0.8-3.5,1.3-5.2c0.7-1.9,1.2-3.7,2.2-5.2c0.8-1.5,1.9-3,3-4.6
		c1-1.3,2.4-2.5,3.5-3.7s2.4-2,3.7-2.7c1.2-0.7,2.2-1.2,3.2-1.7c1-0.3,1.9-0.7,2.7-0.7c0.1,0,0.3-0.1,0.4-0.1c0.6,2,2.4,3.5,4.5,3.6
		c2.5,0.2,4.9-2,5.1-4.7c-0.1,0.4,0,0.1,0-0.6C468.9,562.2,468.9,561.7,468.8,561.1z M421.9,565c0,0.2,0,0.4,0.1,0.6
		c0,0-0.1-0.1-0.1-0.1C421.9,565.3,421.9,565.2,421.9,565z M408.2,567.9c1.9-1.3,3.4-2,5.2-2.7c1.3-0.5,2.5-0.5,3.9-0.5
		c1,0,2,0.3,3.2,0.7c1,0.2,1,0.2,1.3,0.5c0,0,0.1,0,0.1,0c0,0.1,0,0.2-0.1,0.3c-0.3,0.7-0.5,1.5-1.2,2.2c-0.7,0.8-1.5,1.9-2.5,2.5
		c-1.2,0.8-2.4,1.5-3.5,2c-1.2,0.5-2.2,0.7-3.5,0.7c-1,0.2-2.4,0-3.5-0.2c-1-0.2-1.7-0.3-2.7-0.5c-0.6-0.1-1-0.2-1.2-0.3
		C405.1,570.8,406.8,569,408.2,567.9z M396.2,579.5C396.2,579.5,396.2,579.5,396.2,579.5C396.2,579.5,396.2,579.5,396.2,579.5z"/>
	<path fill="#F99D1C" d="M199.2,202.7c1.5,1.5,4,2.9,6.6,3.5c2.2,0.3,5.4,0.5,8.3-0.2c0.2,0,0.4-0.1,0.6-0.2
		c2.4-0.7,5.3-2.1,7.7-3.5c2.5-1.7,5.6-3.9,7.9-6.1c2.5-2.4,4.9-5.2,7.3-7.9c2.2-2.5,4.6-5.6,6.6-8.4c2.2-2.9,4.4-5.9,6.1-8.6
		c1.9-2.7,3.5-5.2,4.9-7.8c1.3-2.4,2.5-4.9,3.2-7.1c0.8-2.4,1.2-4.7,1.5-6.2c0.3-1.7,0.7-3.7,0.7-5.7c0-1.5-0.7-4.4-2.4-6.6
		c-2-1.9-4.6-2.9-6.1-3.2c-1.7-0.3-4.4-0.8-6.9-0.7c-0.3,0-0.6,0-0.9,0.1c-2.1,0.2-4.8,0.5-7,1.3c-2.7,0.8-5.4,2-7.4,3
		c-0.3,0.1-0.6,0.3-0.9,0.4c-0.1-0.3-0.3-0.5-0.5-0.8c-2.7-3.2-7.3-3.9-10.6-1.5c0.1,0-0.4,0.3-1.2,1c-0.2,0.2-0.4,0.3-0.6,0.5
		c-0.8,0.7-1.4,1.5-1.8,2.4c0,0-0.1,0.1-0.1,0.1c-0.3,0.3-0.5,0.7-0.7,1c-0.6,0.9-1.5,2.2-2.3,3.7c-0.3,0.5-0.6,0.9-0.8,1.4
		c-0.8,1.6-1.7,3.6-2.6,5.6c-1.2,2.7-2.5,6.1-3.5,9.1c-1.2,3-2.4,6.4-3.4,9.8c-1,3-2,6.7-2.7,9.6c-0.8,2.9-1.3,5.6-1.7,7.9
		c-0.3,2.4-0.7,5.1-0.3,7.4C196.5,198.6,198,201.2,199.2,202.7z M250.3,145.9c0,0-0.1,0-0.1-0.1C250.2,145.4,250.2,145,250.3,145.9z
		 M205.1,182.4c0.7-2.5,1.9-5.9,2.9-8.6c1.3-2.9,2.9-5.7,4.6-8.4c1.7-2.7,3.4-5.4,5.1-7.6c1.5-2,3-3.9,4.2-5.2
		c0.9-1.1,1.8-1.8,2.6-2.6c1.5,0.9,3.4,1,5,0.1c1.4-0.8,2.4-1.4,3.5-2c0.4-0.1,0.7-0.2,1-0.3c0.3-0.1,0.5-0.3,0.8-0.5
		c1.6-0.6,3.4-1.3,5-1.6c1.5-0.3,3-0.4,4.4-0.4c0.4,0.1,0.8,0.1,1.1,0.1c1.5,0,2.7,0.3,4,0.7c0.6,0.1,0.9,0.2,1.1,0.1
		c0.3,0.7,0.4,1.7,0.4,3.4c0,1.9,0.2,3.2,0,4.9c-0.3,1.9-1,3.9-1.9,6.1c-1,2.2-2.5,4.6-4.2,7.3c-1.7,2.5-3.9,5.4-6.1,8.1
		c-2.2,2.5-4.6,5.2-6.7,7.4c-2.5,2.4-4.7,4.6-7.3,6.2c-2.4,1.7-4.7,3-7.1,4.2c-2.2,1-4.2,1.7-5.9,1.9c-1.7,0.3-2.9,0.3-4,0
		c-1,0-1.2,0-1.9-0.5c-0.8-0.3-1-0.3-1.3-1c-0.5-1-0.5-2.5-0.5-4.7C204.1,187.3,204.4,185.1,205.1,182.4z"/>
	<path fill="#F99D1C" d="M290.5,172.2c0.5,2.9,1.7,5.6,3,7.6c1.3,2.2,3.4,4.6,5.6,6.1c2.4,1.5,5.4,2.4,7.6,2.9
		c2.4,0.5,5.2,0.7,7.9,0.2c2.5-0.5,5.4-1.5,7.8-2.9c2.2-1.3,4.9-3.4,6.7-5.4c2-2.2,3.9-5.1,5.2-7.4c1.5-2.5,2.7-5.2,3.4-7.8
		c0.8-2.4,1.3-5.2,1.7-7.8c0.2-2.5,0.2-5.4-0.3-8.1c-0.5-2.5-1.3-5.4-2.5-8.1c-1.2-2.4-3.2-5.4-5.2-7.4c-2-2.2-4.9-4-7.3-5.2
		c-2.5-1.3-5.6-2.2-8.3-2.7c-2.5-0.5-5.7-0.5-8.6,0c-0.4,0.1-0.7,0.2-1.1,0.3c-2.4-1.8-6.1-1.8-8.9,0.2c2-0.6,2.1-0.7,1.5-0.3
		c-1.5,0.5-2.9,1.4-3.8,2.8c-0.6,1-1,2-1.2,3.1c-0.2,0.9-0.8,2.7-1.3,4.9c-0.2,0.6-0.3,1.2-0.3,1.8c-0.3,1.7-0.8,3.7-1,5.8
		c-0.3,2.9-0.8,6.4-1,9.4c-0.3,2.9-0.5,5.9-0.3,9.1C289.6,165.9,289.8,169.5,290.5,172.2z M324.7,140.1c1.3,1.5,2.7,3.4,3.5,5.4
		c1,1.9,1.5,3.5,1.9,5.7c0.3,2,0.5,3.7,0.3,5.7c-0.2,2-0.5,3.7-1.2,5.7c-0.7,2.2-1.5,3.9-2.9,5.9c-1.2,2-2.7,4-4.2,5.4
		c-1.5,1.5-3.2,2.5-4.9,3.4c-1.7,1-3,1.3-4.7,1.7c-1.5,0.3-2.9,0.3-4.7,0c-1.9-0.2-3.2-0.5-4.4-1.2c-1.3-0.7-2.2-1.5-3.2-3
		c-1-1.3-1.7-2.7-2.2-4.7c-0.3-1.9-0.3-4.6-0.3-7.1c0.2-2.5,0.8-4.9,1.5-7.8c0.7-2.7,1.7-5.7,2.5-8.1c0.4-1.1,0.9-2.1,1.3-3.1
		c0.8-0.7,1.4-1.6,1.7-2.6c0.1-0.3,0.2-0.6,0.2-0.8c0.9-0.7,1.6-1.6,2.1-2.7c0.1-0.1,0.2-0.2,0.3-0.3c0.3-0.5,0.5-0.9,0.7-1.4
		c0.2-0.4,0.4-0.8,0.5-1.2c0.2,0,0.4,0,0.6-0.1c0.4-0.1,0.7-0.2,1-0.4c1-0.1,2-0.1,3.2,0.1c0.3,0.1,0.7,0.2,1,0.3
		c0.3,0,0.6,0.1,0.9,0c1.6,0.3,3,0.8,4.5,1.6C321.7,137.6,323.2,138.6,324.7,140.1z"/>
	<path fill="#F99D1C" d="M362.7,167.9C362.7,167.9,362.7,167.9,362.7,167.9c0.1,0.7,0.3,1.3,0.5,1.9c0.1,0.6,0.2,1.2,0.4,1.7
		c0.2,0.9,0.4,2.1,0.8,3.3c0.1,0.4,0.2,0.9,0.4,1.3c0.5,1.6,1,3.5,1.8,5.5c1,2.4,2.2,5.2,3.5,7.8c1.3,2.5,3,5.2,4.9,7.6
		c1.7,2.2,3.9,4.7,5.9,6.4c2,1.9,4.6,3.4,6.7,4.6c2.2,1,4.9,2,7.4,2.4c2.4,0.2,5.6-0.2,7.9-0.8c2.2-0.8,5.1-2.5,7.1-4.6
		c1.9-2.2,3.5-5.2,4.6-8.1s1.5-6.4,1.9-9.6c0.3-3.4,0.5-7.4,0.2-11c-0.3-3.5-1-7.1-2-10.6c-0.8-3.2-2.2-7.3-3.7-10.3
		c-1.5-3.2-3.5-5.9-5.1-8.1c-1.7-2.4-3.7-4.6-5.7-6.2c-2-1.7-4.6-2.7-6.6-3.4c-2.2-0.7-5.1-1-7.8-0.7c-2.5,0.5-5.4,1.9-7.6,3.4
		c-1.7,1.3-4.2,3.9-5.9,6.9c0,0,0,0,0,0c-1.5,3.2-2.2,7.4-2.7,10c-0.1,0.4-0.2,0.7-0.2,1.1c-0.2,0-0.4,0.1-0.6,0.1
		c-4.7,0.7-7.4,4.7-6.4,8.8C362.6,168.2,362.7,167.9,362.7,167.9z M391.5,146.2c1.5,0.2,2.7,0.3,4,1.2c1.5,1,3,2.4,4.7,4.2
		c1.7,2,3.4,4,4.7,6.6c1.2,2.5,2.4,6.1,3,9.1c0.7,3.2,1,6.1,1,9.3c0,3-0.5,6.4-1,9.4c-0.5,2.9-1.2,5.4-2.2,7.4
		c-0.8,2.2-1.9,3.7-3,4.9c-0.8,1.2-1.7,1.5-3.2,2.2c-1.2,0.5-2.4,0.8-3.7,0.7c-1.5,0-2.7-0.3-4.4-1.2c-1.7-0.7-3.2-1.7-4.7-3
		c-1.5-1.3-3-3.2-4.2-5.2c-1.2-2-2.2-4.2-3-6.6c-0.7-2.2-1.2-4.4-1.5-6.7c-0.3-1.9-0.3-3.9-0.3-5.7c-0.2-1.7-0.2-3,0-4.2
		c0-0.7,0.2-1,0.3-2.2c-0.1-1.1-0.3-1.9-0.4-2.1c0,0,0-0.1,0-0.1c0,0,0,0,0,0c0,0,0,0,0-0.1c0.2-1.6,0.4-3.1,0.9-4.7
		c0.7-2.7,1.3-5.9,2.4-7.6c0.8-1.5,1.9-2.4,3.4-3.4c1.3-1.2,2.4-1.7,3.5-2C388.8,145.8,389.8,145.8,391.5,146.2z"/>
	<path fill="#F99D1C" d="M361,328.7c0,0.2,0,0.5,0,0.8c-0.2,4.2,3.2,7.8,7.4,7.9c1.7,0.1,3.4-0.7,4.7-2c0.5,0.5,1.1,1.1,1.9,1.8
		c1.3,0.8,3.2,1.7,5.1,2.4c0,0,0,0,0,0c0.4,0.2,0.8,0.3,1.2,0.4c1.7,0.5,3.6,0.9,5.5,1.5c2.5,0.8,5.1,1.3,8.1,2.5
		c3,1.3,6.9,3.5,10.6,5.4c3.9,2.2,7.9,4.7,12.1,7.1c4,2.2,8.8,4.7,12.8,6.4c4,1.7,8.1,2.7,11.1,3.5c3.7,0.8,6.7,0.8,8.9,1.2
		c2.5,0.2,4.6,0.3,6.4,0.5c1.7,0,3.5,0.2,5.2,0s3.5-0.8,4.6-1.2c1.7-0.8,3.4-2.2,4.2-3c0,0,0-0.1,0-0.2c0,0,0,0,0,0
		c1.8-2.1,2.1-5.1,1.1-7.5c-0.4-1.3-1.2-2.5-2.2-3.3c-0.1-0.2-0.2-0.4-0.3-0.7c-0.5-1.3-1.2-2.9-1.9-4.9c-0.7-2.2-1.3-4.9-2.2-7.9
		c-0.8-2.9-1.7-5.9-2.7-9.4c-0.8-3.4-1.7-7.6-2.5-11.8c-0.8-4.2-1.9-8.6-2.9-13.2c-1-4.4-1.9-8.9-3.2-14c-1-4.7-2.5-10.8-3.9-15.5
		c-1.3-5.1-2.7-9.1-4-13.7c-1.3-4.4-2.9-9.3-4.2-13.2s-2.9-7.1-4-10c-1.3-3-2.5-5.7-3.9-8.4c-1.3-2.5-3.2-5.1-4.7-6.9
		c-1.7-2-3.7-3.7-5.2-4.9c-1.9-1.3-4.2-2.4-5.9-2.9c-2.2-0.7-4.2-0.7-5.4-0.8c-0.3,0-0.5,0-0.8,0c0,0,0,0,0,0c-0.2,0-0.5,0-0.7,0
		c-1.1,0-2.2,0-3.2,0.2c-1.5,0.2-3.2,0.5-4.7,1c-1.3,0.5-3.2,1.2-4.9,2.2c-1.5,0.8-3.2,2.2-4.6,3.4c-1.3,1.2-2.7,2.7-4,4.4
		c-1,1.3-2.2,3.2-3.4,5.4c-1,2-2,4.6-2.9,6.9c-1,2.5-2.2,5.4-3.4,8.8c-1.2,3.2-2.4,7.1-3.4,10.8c-1.2,3.5-2.4,7.6-3.4,11.3
		c-1.2,3.9-2,7.8-3,11.5s-2.2,7.4-3,11c-1,3.4-2,6.9-2.9,10.1c-0.6,2.2-1,4.4-1.3,6.5c-0.8,1-1.3,2.1-1.4,3.4c-0.1,1,0.1,2.1,0.4,3
		c-0.1,0.9-0.2,1.8-0.2,2.6c-0.7,1.1-1.2,2.3-1.2,3.7c0,0.5,0,0.9,0.1,1.4c-0.4,0.9-0.7,1.9-0.8,3
		C360.3,326.5,360.5,327.7,361,328.7z M376.5,293.8c0.7-3.5,1.3-7.3,2.2-11c0.8-3.9,1.7-7.6,2.5-11.5c1-3.7,2-7.6,3-11.1
		c1.2-3.7,2.4-7.4,3.4-10.3c1.2-3,2.5-5.4,3.7-7.9c1.2-2.4,2.2-4.2,3.2-5.6c1-1.3,1.9-2,3-3c1-1,2-1.7,3.2-2.5c1-0.7,2-1.3,3-1.7
		c0.8-0.5,1.7-0.7,2.7-0.8c0.8-0.2,1.3-0.3,2.4-0.3c0.8,0,1.7,0,2.5,0c1.3,0,1.9,0,2.4,0.3c1,0.3,1.7,0.5,2.7,1.2
		c1.2,0.7,2,1.2,3.2,2.4c1.3,1.3,2.5,2.9,3.9,4.9c1.3,2,2.5,4.2,4.2,7.1c1.5,2.7,3.2,5.6,4.7,8.8c1.7,3.5,3.5,8.1,5.2,12.3
		c1.7,4.4,3.4,8.1,5.1,13c1.5,4.4,3.2,10.3,4.7,14.8c1.3,4.9,2.4,9.3,3.4,13.8s2,8.8,2.9,13c0.7,4,1.3,8.3,2,11.8
		c0.7,3.7,1.2,6.7,1.7,9.6c0.5,2.9,0.7,5.7,1,8.3c0.3,1.8,0.4,3.4,0.6,4.6c-0.6,0.1-1.4,0.2-2.4,0.3c-1.7,0.2-3.4,0.5-5.6,0.5
		c-2.7,0.2-4.9,0.5-7.4,0.2c-2.9-0.2-6.1-0.7-9.6-1.7c-3.7-1-8.3-3-12.3-4.7c-4.2-1.9-8.3-4-12.5-6.1c-3.7-1.9-7.9-4-11.1-5.6
		c-3.4-1.7-6.1-2.5-8.3-3.4c-2.4-1.2-4.2-1.9-5.6-2.7c-0.3-0.2-0.5-0.3-0.6-0.5c-0.3-0.6-0.7-1.1-1.2-1.5c0-0.2,0.2-0.5-0.8-2.2
		c-1.6-2-4.1-2.8-6.3-2.2c0-0.3-0.1-0.5-0.2-0.8c0-0.6-0.1-1.3-0.1-2.1c0-2.4-0.2-5.7,0-8.6c0-0.4,0-0.7,0-1.1c0-2.6,0-5.2,0.3-8
		C375.5,300.7,376,297.3,376.5,293.8z"/>
	<path fill="#F99D1C" d="M154.7,361.8c0.5,2.3,1.8,4.1,3.5,5.1c1.4,1,3.2,1.6,4.9,1.5c-0.6,1.9-0.4,4,0.6,5.8c2,3.5,6.4,4.7,10,2.7
		c0.5-0.4,0.6-0.6,0.5-0.6c0.6-0.4,1.2-0.8,1.7-1.3c0.5-0.3,1-0.7,1.4-1.1c0.9-0.5,1.9-1.1,3.2-1.7c1.3-0.7,2.9-1.5,4.6-2.5
		c1.7-0.8,3.9-2,5.7-2.9c2.2-1,4.2-1.9,6.6-2.9c2.4-0.8,4.9-1.9,7.6-2.9c2.5-0.8,5.4-1.9,7.9-3c2.9-1,5.6-2.2,8.1-3.2
		c2.7-1,5.2-2,7.8-2.9c2.4-0.8,4.9-1.7,7.1-2.4c2.2-0.8,4.2-1.5,6.1-2.2c1.9-0.7,3.5-1.7,5.1-2.4c1.5-0.8,2.9-1.7,3.9-2.4
		c1-0.8,2.2-2.2,2.9-3.2c0.8-1.9,1.3-3.9,1.3-4c0-1.3,0-2.4-0.2-2.5c-0.2-0.7-0.2-1.3-0.3-1.9c-0.2-0.7-0.3-1.3-0.5-2
		c-0.3-0.7-0.5-1.7-0.8-2.5c-0.3-1-0.7-1.9-1-2.9c-0.3-1-0.8-2.4-1.3-3.9c-0.5-1.5-1-3-1.5-4.7c-0.5-1.9-0.8-3.7-1.5-6.1
		c-0.5-2.4-1.2-5.1-1.9-8.3c-0.5-3-1.2-6.7-1.9-10.3c-0.7-3.7-1.2-7.6-1.9-11.3c-0.5-3.7-1-7.3-1.5-11c-0.3-3.5-0.8-7.3-1.2-10.6
		c-0.3-3.5-0.7-6.9-0.8-10.3c-0.2-3.2-0.5-6.7-0.7-9.8c-0.2-2.9-0.3-5.7-0.7-8.3c-0.3-2.7-0.8-5.2-1.3-7.3c-0.5-2-1.3-4-2-5.7
		c-1-1.7-2.5-3.5-3.9-4.7c-2-1.3-4.6-1.9-5.4-2c-1.9-0.2-3.5,0.2-4.4,0.3c-1,0.2-2.5,0.5-4,1c-1.3,0.5-2.9,1.2-4.2,2
		c-1.2,0.8-2.7,1.7-4,3c-1.3,1.2-2.9,2.7-4.2,4.4c-1.3,1.7-2.5,3.4-3.7,5.2c-1.2,1.9-2.7,4-4,6.6c-1.3,2.4-2.9,5.4-4.2,8.1
		c-1.5,2.9-3.2,5.9-4.7,9.3c-1.5,3.2-3.2,6.7-4.9,10.3c-1.5,3.5-3.2,7.3-4.7,11.3c-1.7,4-3.2,8.4-4.7,12.8c-1.5,4.2-2.9,8.8-4.2,13
		c-1.3,4-2.5,8.4-3.5,12.1c-1.2,4-2,7.6-3,11.1c-0.8,3.4-1.7,6.7-2.4,9.8c-0.7,3-1.3,6.2-1.7,8.8c-0.5,2.9-0.7,5.1-1,7.1
		c-0.3,2-0.5,4-0.8,5.7c0,0.3-0.1,0.6-0.1,0.9c-0.7,1.2-1.1,2.5-1.1,4c0,0.3,0.1,0.7,0.1,1c0,0.2-0.1,0.4-0.1,0.6
		C154.5,359.1,154.4,360.4,154.7,361.8z M241.3,333.7c0-0.1,0.1-0.3,0.2-0.5c0,0.1,0,0.1,0,0.2C241.4,334,241.4,334.1,241.3,333.7z
		 M241.7,332.6c0,0-0.1,0.1-0.1,0.1c0-0.1,0.1-0.2,0.1-0.3C241.7,332.6,242.1,332.2,241.7,332.6z M167.2,331.1
		c0.2-3.2,0.5-6.2,0.8-9.6c0.5-3.5,1-7.1,1.9-11c0.8-3.7,1.9-8.1,2.9-12.1c1.2-4.2,2.5-8.6,3.9-12.8c1.5-4.2,3-8.4,4.7-12.5
		c1.5-3.9,3.2-7.6,4.7-11.1c1.7-3.5,3.2-6.9,4.7-10.1c1.7-3.2,3.2-6.1,4.9-8.9c1.5-2.7,3-5.4,4.6-7.6c1.5-2.2,3-4,4.6-5.6
		c1.5-1.7,2.7-2.7,4-3.7c1.3-1,2.7-1.9,4-2.5c1.2-0.7,2-0.8,3.4-1.2c1-0.3,1.9-0.5,2.7-0.5c0.7,0,1.2,0,2.2,0c0.3,0,0.6,0,0.8,0
		c0.2,0.1,0.5,0.1,0.7,0.2c0.2,0.2,0.4,0.4,0.7,0.9c0.7,0.8,1,1.7,1.7,3.2c0.7,1.7,1.5,3.5,2.2,5.7c0.7,2,1.3,4.6,2,7.4
		c0.7,2.9,1.3,6.2,2,9.4c0.7,3.4,1.3,6.6,2,10.1c0.7,3.4,1.3,6.9,2,10.5c0.7,3.5,1.2,7.3,1.9,11s1.3,7.6,2,11.3
		c0.5,3.5,1.2,7.3,1.7,10.3c0.5,3.2,0.8,5.9,1.2,8.3c0.2,2.4,0.3,4.2,0.5,6.2c0,1.9,0.2,3.4,0,4.7c0,1.3-0.2,2.7-0.3,3.9
		c0,1.2-0.2,2.2-0.3,3c0,0.8-0.2,1.7-0.2,2.5c0,0.7-0.2,1.3-0.2,1.7c0,0.3-0.1,0.5-0.1,0.8c-0.4,0.4-0.8,0.9-1.6,1.6
		c-1,0.8-2.2,1.7-3.5,2.7c-1.5,1-3,2-5.1,3.2c-1.9,1-4,2.4-6.4,3.5c-2.4,1.2-4.9,2.5-7.3,3.9c-2.5,1.3-5.1,2.5-7.8,3.9
		c-2.5,1.2-5.2,2.2-7.6,3.2c-2.5,1-5.1,1.9-7.6,2.7s-4.7,1.7-6.9,2.5s-4.4,1.7-6.1,2.4c-1.9,0.5-3.4,1-4.7,1.3
		c-0.9,0.2-1.6,0.4-2.2,0.4c-0.2-0.1-0.5-0.1-0.7-0.2c-1.2-0.6-2.7-0.9-4.1-0.7c0.5-1.6,0.5-3.4-0.2-5.1c-0.1-0.2-0.2-0.4-0.3-0.5
		c-0.1-0.2-0.1-0.3-0.2-0.5c0-0.2-0.1-0.3-0.1-0.5c-0.1-0.3-0.1-0.6-0.2-0.8c0-0.7-0.2-1.4-0.4-2c-0.1-0.6-0.2-1.3-0.3-2
		c-0.2-1.7-0.5-3.5-0.7-5.6c-0.2-2.2-0.3-4.2-0.5-6.7C167,337.1,167,333.9,167.2,331.1z"/>
	<path fill="#F99D1C" d="M267.2,307.1c2,3.7,6.6,5.1,10.3,3c0.1,0,0.1-0.1,0.2-0.1c0.4-0.1,0.8-0.1,1.3-0.2c0.1,0,0.2,0,0.2,0
		c0.1,0,0.2-0.1,0.3-0.1c4.3-0.7,9.5-1.8,15-2.8c0.1,0,0.2,0,0.3,0c0,0,0.1,0,0.1,0c3-0.3,7.1-1,10-1c6.6-0.2,13.5,0.2,19.4,0.3
		c2.7,0.2,4.9,0.7,6.6,1c3.2,0.3,5.4,0.7,7.6,0.8c1,0.2,1.7,0.2,2.2,0.3c1-0.2,2.2-0.3,2.5-0.7c0.1-0.1,0.2-0.1,0.2-0.2
		c3.8-0.9,6.3-4.7,5.5-8.6c-0.8-3.6-4.1-6-7.7-5.7c-0.2-0.4-0.5-0.9-0.7-1.6c-1-3.2-2.2-6.4-3.2-10.6c-0.5-2.2-1-4.4-1.3-8.1
		c-0.8-7.8-1.9-17.2-2.5-26.3c-0.2-4.6-0.2-11-0.3-15.4c-0.7-8.1-1.2-15.5-1.9-21.6c-0.5-3.4-1.7-6.6-3-8.3c-2.9-2.7-6.2-4-7.9-4.6
		c0,0,0,0,0,0c-1.1-0.4-2.3-0.5-3.4-0.2c-1.3,0.1-2.4,0.3-3,0.6c-2,0.8-4.2,2-6.4,3.4c-1.2,1-2.5,2.5-3.7,4
		c-2.4,2.5-5.1,5.6-7.8,9.1c-1.3,1.7-3,4-4.4,6.7c-2.7,4.7-5.4,9.3-8.1,15.5c-2.7,6.1-5.7,13.8-8.3,20.9c-1.5,3.7-3,8.1-4.2,11.8
		c-1.2,3.7-2.2,7.9-3,11c-1,6.1-1.9,12.1-2.4,16.9c-0.3,3.2,0,6.1,0,6.4C266.7,306.8,270.7,309.8,267.2,307.1z M283.7,259.5
		c2-7.1,4.4-14.8,6.6-20.7c2.4-5.9,4.7-10.1,7.3-14.8c1.3-2,2.7-3.9,4-5.4c2.7-3,5.6-5.4,8.1-7.8c1.3-0.8,2-1.2,2.7-1.3
		c1.3-0.7,2.4-0.9,3.6-1.1c0,0,0.1,0,0.1,0.1c1.9,0.8,2.4,0.7,2.7,1.5c0.3,0.2,0.2-0.7,0.7,1.7c1.2,5.6,2,12.7,3,20.7
		c0.7,3.9,1.2,10.5,2,15.2c1.3,9.3,2.9,18.7,4.4,26.5c0.8,4,1.7,6.6,2.4,8.6c1.2,4.4,2.4,7.8,3.4,11c0,0,0,0,0,0
		c-0.9,0-1.9,0.1-3,0.1c-1.5,0.2-4,0.3-7.3,0.7c-5.9,0.5-13,0.8-20.1,1.7c-3.7,0.5-8.3,1.7-11.1,2.5c-4.2,0.8-8.1,1.8-11.5,2.5
		c-0.2-0.5-0.4-1-0.6-1.5c-0.3-0.2-0.5-0.5-0.7-0.6c-0.1-0.4-0.3-0.8-0.5-1.2c0-0.1,0-0.1,0-0.2c0.2-4.6,0.5-10.1,1.2-16.2
		c0.1-0.5,0.1-1,0-1.4c0.1-2.7,0.5-5.9,0.8-9C282.4,267.1,282.9,263.2,283.7,259.5z"/>
	<path fill="#F99D1C" d="M394.2,408.3c1.5-1.3,3-2.9,4.2-4.6c0.9-1.2,1.7-2.6,2.5-3.9c0.2-0.3,0.4-0.7,0.6-1.1
		c0.6-1.4,0.9-3,1.3-4.3c2.1,1.3,4.2,2.6,6.3,3.8c4,2.5,8.3,5.4,12,7.8c3.5,2.4,6.9,4.9,10,7.1c3.2,2.2,6.1,3.9,8.6,5.4
		c2.7,1.5,5.1,2.9,7.3,3.9c2.2,1.2,4.4,2,6.1,3c1.7,0.8,3.4,1.9,5.1,2.7c1.7,0.8,2.9,1.3,4,2c1.3,0.5,2.5,1,3.2,1.3
		c0.2,0.1,0.4,0.1,0.5,0.2c0.5,0.7,1.1,1.3,1.9,1.8c0.1,0.1,0.2,0.1,0.3,0.2c3,2.6,7.5,2.3,10.3-0.4c2.5-2.5,2.8-6,1.4-8.9
		c0-0.1,0.1,0.1,0.3,0.4c-1.3-3.9-5.4-6.1-9.3-5c-0.4-0.1-0.9-0.2-1.5-0.4c-1.2-0.3-2.4-0.5-3.4-0.7c-1.3-0.3-2.2-0.5-3.7-1
		c-1.3-0.3-3.2-1.2-5.4-1.9c-2.2-0.7-4.2-1.2-6.4-1.9c-2.4-0.8-4.6-1.5-7.3-2.7c-2.7-1.2-5.6-2.4-8.8-4c-3-1.7-6.6-3.9-10.3-6.2
		c-3.9-2.4-8.1-4.9-12.3-7.4c-3.2-1.9-6.4-3.7-9.7-5.6c-0.6-0.6-1.3-1-2.2-1.3c-0.4-0.2-0.8-0.4-1.2-0.7c-4.6-2.7-9.6-5.7-14.5-8.6
		c-5.1-3.2-10.1-6.4-15.5-10c-1.7-1.1-3.4-2.2-5.2-3.4c-0.3-0.5-0.7-1-1.2-1.4c-0.6-0.4-1.4-0.7-2.1-0.8c-2.6-1.7-5.2-3.4-7.7-5
		c-4.9-3.4-10.3-6.9-14.2-9.8c-4.4-3-7.4-5.6-10.5-7.9c-2.7-2.2-5.2-4.6-7.3-6.2c-2-1.7-3.5-2.9-4.9-3.9c-0.2-0.1-0.4-0.3-0.6-0.4
		c-0.8-0.9-1.8-1.7-3.1-2.1c-1.3-0.5-2.7-0.6-3.9-0.4c-0.3,0-0.5,0-0.8,0.1c-0.6,0.1-1.2,0.3-1.7,0.5c-0.3,0.1-0.5,0.2-0.8,0.3
		c-1,0.5-1.8,1.2-2.4,1.9c-0.2,0.2-0.4,0.3-0.6,0.4c-0.5,0.5-1,1-1.5,1.3c-0.5,0.5-1.2,1-1.9,1.5c-0.7,0.5-1.3,1.2-2.2,1.9
		c-0.8,0.8-2,1.9-3,2.7c-1,1-2,1.9-3.4,3c-1.3,1.3-2.7,2.7-4.4,4.2c-1.7,1.3-3.7,2.9-6.1,4.7c-2.5,1.9-5.2,3.9-8.6,6.1
		c-2.6,1.7-5.3,3.3-8.4,5.2c-0.6,0.1-1.3,0.3-1.9,0.5c-1.1,0.6-2.1,1.4-2.9,2.4c-3.8,2.3-8.2,5.1-12.3,7.7
		c-5.2,3.2-10.6,6.4-16.2,9.8c-4.3,2.7-9,5.5-13.5,8.3c-1.7-0.3-3.6-0.1-5.2,0.8c-1.8,1-3.1,2.6-3.7,4.4c-3.8,2.2-7.6,4.3-11.2,6.3
		c-5.4,3-10.5,5.7-15.2,8.3c-4.7,2.5-9.4,4.7-13.5,6.9c-4,2-7.8,3.9-10.8,5.4c-1.7,0.8-3.3,1.5-4.7,2.2c-1,0-2.1,0.3-3.1,0.9
		c-0.6,0.3-1.1,0.7-1.6,1.2c-0.3,0.1-0.5,0.2-0.8,0.3c-0.9,0.1-1.9,0.3-2.7,0.7c-0.2,0.1-0.3,0.2-0.5,0.3c-0.5,0.1-1.1,0.3-1.6,0.6
		c-0.1,0.1-0.2,0.1-0.3,0.2c0,0,0,0,0,0c-1,0.5-1.2,0.5-1.9,0.8c-3.7,1.9-5.2,6.4-3.4,10.3c2,3.5,6.7,5.1,10.5,3.2
		c0.7-0.3,0.8-0.5,1.9-1c0.7-0.4,1.4-0.8,1.9-1.4c0.4-0.2,0.7-0.4,1-0.7c1-0.7,2.4-1.5,3.9-2.5c0.4-0.2,0.7-0.4,1.1-0.7
		c1.8-1.2,3.8-2.7,6.4-4.4c2.9-2,6.2-4.6,9.8-7.1c3.7-2.5,8.1-5.4,12.5-8.4c4.6-3,9.3-6.1,14.5-9.6c2.7-1.7,5.5-3.5,8.5-5.3
		c0.2,0.3,0.5,0.9,1,1.6c0.5,0.7,1,1.4,1.7,1.9c0.2,0.3,0.5,0.5,0.8,0.8c0.6,0.6,1.2,1.3,1.9,1.9c0.5,0.6,1.1,1,1.7,1.4
		c0.6,0.5,1.2,0.9,1.9,1.3c1.3,0.8,2.9,1.9,4.6,2.9c1.5,0.8,3.2,2,5.4,3c2,1,4.7,2.2,7.3,3.2c2.5,1,5.2,2,8.1,3c2.9,1,6.1,2,9.3,3
		c3,1,6.6,2,10,2.9c3.5,1,7.3,1.9,11,2.7s7.8,1.7,12,2.2c4,0.7,8.3,1.2,12.5,1.5c4.2,0.3,8.6,0.7,12.8,0.8c4.4,0,8.6,0,12.8-0.3
		c4-0.2,8.4-0.7,12.3-1.2c4-0.5,7.9-1.3,11.5-2.2c3.7-0.8,7.1-1.7,10.5-2.7c3.2-1,6.6-2,9.6-3.2c3.2-1.2,6.2-2.5,9.1-3.9
		c2.9-1.3,5.4-2.9,7.8-4.4c2.4-1.3,4.7-3,6.6-4.4c1.7-1.1,3.2-2.3,4.5-3.4C393.8,408.7,394,408.6,394.2,408.3z M273.8,359.6
		c3.5-2,6.6-3.7,9.3-5.2c2.7-1.3,5.1-2.4,7.1-3.5c2.2-1.2,4-2.2,5.6-2.9c1.5-0.8,2.7-1.2,4-1.9s2.7-1.3,3.5-1.9
		c1-0.5,1.9-0.8,2.7-1.3c0.8-0.5,1.6-1,2.3-1.3c1.2,0.5,2.5,1,4.6,2.3c2,1,5.1,3,8.4,4.9c3.5,2,7.1,3.9,11.8,6.6
		c4.2,2.4,10,5.6,15.2,8.4c2,1.1,4.1,2.3,6.2,3.5c-0.3,0.5-0.6,1-1.1,1.6c-1,1-2.5,2.2-4.7,3.7c-2.2,1.5-5.1,3.5-7.9,5.2
		c-3,1.9-6.2,3.9-9.6,5.2c-3.4,1.5-6.7,2.9-10.1,3.5c-3.2,0.7-6.4,1-9.6,1c-3.2-0.2-6.4-0.7-9.8-1.3c-3.2-0.7-6.4-1.5-9.3-2.5
		s-5.7-2.5-8.3-3.9c-2.5-1.3-4.4-2.7-6.2-4.2c-1.5-1.3-2.9-2.9-4.2-4.4c-1-1.2-1.7-2.2-2.2-3.4c-0.5-0.7-0.7-1.3-1.3-2.5
		c-0.3-0.7-0.5-1,0-0.5c0.2,0.3,0.8,2.4,0.2,0c-0.4-0.9-1-1.7-1.6-2.4C270.4,361.4,272.1,360.5,273.8,359.6z M379.4,411.7
		c-2.2,1.5-4.4,3-6.9,4.6c-2.5,1.3-5.4,2.9-8.4,4c-2.9,1.2-6.1,2.4-9.3,3.2c-3.4,1-6.6,1.9-10.1,2.7c-3.5,0.8-7.3,1.5-11.1,2
		c-3.7,0.5-7.9,1-12,1.2c-4.2,0.2-8.3,0.3-12.5,0.3c-4,0-8.3-0.3-12.5-0.7c-4-0.3-8.3-1-12.1-1.7c-4-0.7-7.8-1.5-11.5-2.5
		s-7.1-2-10.5-3.2c-3.2-1.2-6.4-2.4-9.3-3.7c-3-1.3-5.7-2.7-8.4-4c-2.5-1.3-5.1-2.7-7.3-3.9c-2.2-1.3-4.4-2.5-5.9-3.7
		c-1.5-1.2-2.7-2.2-4-3.4c-1.2-1.2-2.2-2.2-3-3.2c-0.3-0.3-0.5-0.6-0.7-0.8c-0.3-0.6-0.7-1.2-1.2-1.7c-0.1-0.1-0.2-0.3-0.4-0.4
		c-0.1-0.2-0.3-0.4-0.4-0.7c-0.2-0.7-0.5-1.5-0.9-2.1c0,0,0,0,0,0c-0.3-0.5-0.2-0.5-0.7-1.3c-0.1-0.1-0.1-0.2-0.2-0.4
		c3.9-2.6,7.9-5.2,11.7-7.6c5.6-3.5,10.8-6.7,16-10c2.6-1.6,5.1-3.2,7.6-4.7c0.1,0.5,0.3,1,0.5,1.5c-0.2-0.8-0.2-0.8-0.1-0.4
		c0.2,0.8,0.5,1.5,0.9,2.2c0.6,1.1,1.5,1.9,2.5,2.6c0.1,0.1,0.2,0.1,0.2,0.2c0.4,0.5,0.9,1,1.5,1.6c0.6,0.7,1.3,1.2,2,1.5
		c0.8,0.6,1.6,1.2,2.6,1.8c1.7,1,4,2.5,6.6,3.7c2.4,1.2,5.2,2.2,8.3,3.2c2.9,1,6.4,2,9.8,2.7c3.4,0.7,6.9,1.3,10.3,1.7
		c3.4,0.3,7.1,0.8,10.8,0.7c3.4,0,7.3-0.5,10.8-1.3c3.7-0.8,7.6-2.4,11-3.9c3.5-1.7,7.1-3.7,10.1-5.6c3-1.7,6.1-3.7,8.4-5.2
		c2.4-1.3,4.2-2.5,5.7-3.5c1-0.7,1.8-1.5,2.5-2c0.4-0.2,0.7-0.5,1.1-0.8c1.5,0.8,3,1.6,4.4,2.4c5.6,3.2,10.6,6.2,16,9.1
		c4.3,2.4,8.7,4.9,12.7,7.1c-0.2,0.3-0.3,0.7-0.4,1c-0.5,2-0.7,3.9-1.2,5.1c0,0,0,0,0,0c-0.1,0.3-0.2,0.7-0.3,1
		c-0.2,0.6-0.4,1.2-0.7,1.8c-0.2,0.2-0.4,0.4-0.5,0.7c-0.3,0.4-0.4,0.8-0.6,1.3c-0.4,0.7-0.9,1.4-1.5,2.1c-0.2,0.1-0.3,0.3-0.5,0.5
		c-0.3,0.3-0.5,0.7-0.7,1.1c-0.8,1-1.7,2-2.8,3.1C383.3,408.5,381.2,410.2,379.4,411.7z"/>
</g>
</svg>
