<?xml version="1.0" encoding="utf-8"?>
<!-- Generator: Adobe Illustrator 18.0.0, SVG Export Plug-In . SVG Version: 6.00 Build 0)  -->
<!DOCTYPE svg PUBLIC "-//W3C//DTD SVG 1.1//EN" "http://www.w3.org/Graphics/SVG/1.1/DTD/svg11.dtd">
<svg version="1.1" id="Layer_1" xmlns="http://www.w3.org/2000/svg" xmlns:xlink="http://www.w3.org/1999/xlink" x="0px" y="0px"
	 viewBox="0 0 864 288" enable-background="new 0 0 864 288" xml:space="preserve">
<g>
	<path fill="#FDFFFF" d="M413.5,204.1H259.7c-4.5,0-8.2-3.7-8.2-8.2V95.4c0-4.5,3.7-8.2,8.2-8.2h153.8c4.5,0,8.2,3.7,8.2,8.2v100.4
		C421.8,200.4,418.1,204.1,413.5,204.1z M259.7,92.2c-1.8,0-3.2,1.5-3.2,3.2v100.4c0,1.8,1.5,3.2,3.2,3.2h153.8
		c1.8,0,3.2-1.5,3.2-3.2V95.4c0-1.8-1.5-3.2-3.2-3.2H259.7z"/>
	<path fill="#FFFFFF" d="M336.6,161.3c-3,0-5.9-1.1-8.5-3.2l-73.9-63c-1.1-0.9-1.2-2.5-0.3-3.5c0.9-1.1,2.5-1.2,3.5-0.3l73.9,63
		c3.2,2.7,7.3,2.7,10.4,0l73.9-63c1-0.9,2.6-0.8,3.5,0.3c0.9,1.1,0.8,2.6-0.3,3.5l-73.9,63C342.6,160.2,339.6,161.3,336.6,161.3z"/>
	<path fill="#FFFFFF" d="M256.9,201.2c-0.7,0-1.4-0.3-1.9-0.9c-0.9-1.1-0.8-2.6,0.3-3.5L316,145c1.1-0.9,2.6-0.8,3.5,0.3
		c0.9,1.1,0.8,2.6-0.3,3.5l-60.8,51.8C258,201,257.4,201.2,256.9,201.2z"/>
	<path fill="#FFFFFF" d="M417.4,200.4c-0.6,0-1.1-0.2-1.6-0.6l-61-52c-1.1-0.9-1.2-2.5-0.3-3.5c0.9-1.1,2.5-1.2,3.5-0.3l61,52
		c1.1,0.9,1.2,2.5,0.3,3.5C418.8,200.1,418.1,200.4,417.4,200.4z"/>
	<path fill="none" stroke="#FFFFFF" stroke-width="5" stroke-linecap="round" stroke-linejoin="round" stroke-miterlimit="10" d="
		M304.3,134.5"/>
</g>
<g>
	<path fill="#FFFFFF" d="M687.8,129.5c-0.6,0-1.1-0.2-1.6-0.5l-31.3-25c-0.6-0.5-1-1.3-0.9-2.1c0-0.8,0.5-1.5,1.1-2l45.2-29.5
		c0.9-0.6,2.1-0.5,3,0.2L735,97c0.6,0.5,0.9,1.3,0.9,2.1c-0.1,0.8-0.5,1.5-1.2,1.9l-45.6,28.2C688.7,129.4,688.2,129.5,687.8,129.5z
		 M660.8,102.2L688,124l41.2-25.4l-27.6-23L660.8,102.2z"/>
	<path fill="#FFFFFF" d="M701.7,184.1c-0.5,0-0.9-0.1-1.4-0.4l-45.2-29.5c-0.7-0.4-1.1-1.2-1.1-2c0-0.8,0.3-1.6,0.9-2.1l31.3-25.1
		c0.8-0.7,2-0.7,2.9-0.2l45.6,28.2c0.7,0.4,1.1,1.1,1.2,1.9c0.1,0.8-0.3,1.6-0.9,2.1l-31.7,26.4
		C702.9,183.9,702.3,184.1,701.7,184.1z M660.8,151.9l40.8,26.6l27.6-23L688,130.1L660.8,151.9z"/>
	<path fill="#FFFFFF" d="M765.1,184.1c-0.6,0-1.1-0.2-1.6-0.6l-31.7-26.4c-0.6-0.5-0.9-1.3-0.9-2.1c0.1-0.8,0.5-1.5,1.2-1.9
		l45.6-28.2c0.9-0.6,2.1-0.5,2.9,0.2l31.3,25.1c0.6,0.5,1,1.3,0.9,2.1c0,0.8-0.5,1.5-1.1,2l-45.2,29.5
		C766,184,765.5,184.1,765.1,184.1z M737.7,155.5l27.6,23l40.8-26.6l-27.2-21.8L737.7,155.5z"/>
	<path fill="#FFFFFF" d="M779,129.5c-0.5,0-0.9-0.1-1.3-0.4L732.1,101c-0.7-0.4-1.1-1.1-1.2-1.9c-0.1-0.8,0.3-1.6,0.9-2.1l31.7-26.4
		c0.8-0.7,2-0.8,3-0.2l45.2,29.5c0.7,0.4,1.1,1.2,1.1,2c0,0.8-0.3,1.6-0.9,2.1l-31.3,25C780.1,129.4,779.6,129.5,779,129.5z
		 M737.7,98.6l41.2,25.4l27.2-21.8l-40.8-26.6L737.7,98.6z"/>
	<path fill="#FFFFFF" d="M733.5,218c-0.4,0-0.9-0.1-1.3-0.4l-45.3-27.2c-0.8-0.5-1.2-1.3-1.2-2.1V172h5v14.9l42.8,25.7l42.8-25.7
		V172h5v16.4c0,0.9-0.5,1.7-1.2,2.1l-45.3,27.2C734.4,217.9,733.9,218,733.5,218z"/>
</g>
<g>
	<path fill="#FFFFFF" d="M486.4,216.5C486.4,216.5,486.3,216.5,486.4,216.5c-0.9,0-1.8-0.5-2.2-1.3l-26.9-49c-0.4-0.8-0.4-1.7,0-2.4
		L509.7,72c0.4-0.8,1.3-1.3,2.2-1.3c0,0,0,0,0,0c0.9,0,1.7,0.5,2.2,1.3l27.2,49.8c0.4,0.8,0.4,1.7,0,2.5l-52.7,90.9
		C488.1,216.1,487.3,216.5,486.4,216.5z M462.4,165.1l24.1,43.9l49.8-85.9l-24.4-44.7L462.4,165.1z"/>
	<path fill="#FFFFFF" d="M590,216.7H486.4c-0.9,0-1.7-0.5-2.2-1.3c-0.4-0.8-0.4-1.7,0-2.5l27.7-47.7c0.4-0.8,1.3-1.2,2.2-1.2h104.1
		c0.9,0,1.7,0.5,2.2,1.3c0.4,0.8,0.4,1.7,0,2.5l-28.1,47.7C591.7,216.2,590.9,216.7,590,216.7z M490.7,211.7h97.9l25.2-42.7h-98.3
		L490.7,211.7z"/>
	<path fill="#FFFFFF" d="M618.1,169h-55c-0.9,0-1.8-0.5-2.2-1.3l-51.3-93.2c-0.4-0.8-0.4-1.7,0-2.5c0.5-0.8,1.3-1.2,2.2-1.2h55
		c0.9,0,1.8,0.5,2.2,1.3l51.3,93.2c0.4,0.8,0.4,1.7,0,2.5C619.8,168.5,619,169,618.1,169z M564.7,164h49.2l-48.5-88.2h-49.2
		L564.7,164z"/>
</g>
<g>
	<path fill="#FFFFFF" d="M167.8,218.2c-0.9,0-1.8-0.5-2.3-1.4c-0.6-1.2-0.1-2.7,1.2-3.3c25.4-12,41.8-37.8,41.8-65.9
		c0-40.2-32.7-72.8-72.8-72.8c-40.2,0-72.8,32.7-72.8,72.8c0,28.1,16.4,53.9,41.8,65.9c1.2,0.6,1.8,2.1,1.2,3.3s-2.1,1.8-3.3,1.2
		c-27.1-12.8-44.7-40.4-44.7-70.4c0-42.9,34.9-77.8,77.8-77.8c42.9,0,77.8,34.9,77.8,77.8c0,30-17.5,57.6-44.7,70.4
		C168.5,218.1,168.2,218.2,167.8,218.2z"/>
	<path fill="#FFFFFF" d="M159.9,201.5c-0.9,0-1.8-0.5-2.3-1.4c-0.6-1.2-0.1-2.7,1.2-3.3c18.9-8.9,31.2-28.2,31.2-49.2
		c0-30-24.4-54.3-54.3-54.3s-54.3,24.4-54.3,54.3c0,20.9,12.2,40.2,31.2,49.2c1.2,0.6,1.8,2.1,1.2,3.3c-0.6,1.2-2.1,1.8-3.3,1.2
		c-20.7-9.8-34-30.8-34-53.7c0-32.7,26.6-59.3,59.3-59.3s59.3,26.6,59.3,59.3c0,22.9-13.4,43.9-34,53.7
		C160.6,201.4,160.3,201.5,159.9,201.5z"/>
	<path fill="#FFFFFF" d="M153.2,187.3c-0.9,0-1.8-0.5-2.3-1.4c-0.6-1.2-0.1-2.7,1.2-3.3c13.5-6.4,22.2-20.1,22.2-35
		c0-21.3-17.3-38.6-38.6-38.6S97,126.2,97,147.6c0,14.9,8.7,28.6,22.2,35c1.2,0.6,1.8,2.1,1.2,3.3c-0.6,1.2-2.1,1.8-3.3,1.2
		c-15.2-7.2-25-22.7-25-39.5c0-24.1,19.6-43.6,43.6-43.6s43.6,19.6,43.6,43.6c0,16.8-9.8,32.3-25,39.5
		C154,187.2,153.6,187.3,153.2,187.3z"/>
	<path fill="#FFFFFF" d="M124.1,174.7c-0.4,0-0.7-0.1-1.1-0.2c-10.4-4.9-17.1-15.5-17.1-26.9c0-16.4,13.3-29.7,29.7-29.7
		s29.7,13.3,29.7,29.7c0,11.5-6.7,22-17.1,26.9c-1.2,0.6-2.7,0.1-3.3-1.2c-0.6-1.2-0.1-2.7,1.2-3.3c8.6-4.1,14.2-12.9,14.2-22.4
		c0-13.6-11.1-24.7-24.7-24.7c-13.6,0-24.7,11.1-24.7,24.7c0,9.5,5.6,18.3,14.2,22.4c1.2,0.6,1.8,2.1,1.2,3.3
		C125.9,174.2,125,174.7,124.1,174.7z"/>
	<path fill="#FFFFFF" d="M141,161.3c-0.9,0-1.8-0.5-2.3-1.4c-0.6-1.2-0.1-2.7,1.2-3.3c3.5-1.6,5.7-5.2,5.7-9c0-5.5-4.5-9.9-9.9-9.9
		c-5.5,0-9.9,4.5-9.9,9.9c0,3.8,2.2,7.4,5.7,9c1.2,0.6,1.8,2.1,1.2,3.3c-0.6,1.2-2.1,1.8-3.3,1.2c-5.2-2.5-8.6-7.8-8.6-13.5
		c0-8.2,6.7-14.9,14.9-14.9c8.2,0,14.9,6.7,14.9,14.9c0,5.8-3.4,11.1-8.6,13.5C141.7,161.2,141.4,161.3,141,161.3z"/>
</g>
</svg>
