<?xml version="1.0" encoding="utf-8"?>
<!-- Generator: Adobe Illustrator 18.0.0, SVG Export Plug-In . SVG Version: 6.00 Build 0)  -->
<!DOCTYPE svg PUBLIC "-//W3C//DTD SVG 1.1//EN" "http://www.w3.org/Graphics/SVG/1.1/DTD/svg11.dtd">
<svg version="1.1" id="Layer_2" xmlns="http://www.w3.org/2000/svg" xmlns:xlink="http://www.w3.org/1999/xlink" x="0px" y="0px"
	 viewBox="0 335 612 115" enable-background="new 0 335 612 115" xml:space="preserve">
<g>
	<path fill="#666766" d="M119.1,406.3C119.1,406.3,118.9,406.3,119.1,406.3c-0.2,0-0.2-0.2-0.2-0.2s0,0,0-0.2
		c-0.2-0.2-0.3-0.5-0.5-0.8c-0.2-0.3-0.5-0.7-0.7-0.8c-0.2-0.3-0.5-0.7-0.7-1c-0.2-0.3-0.5-0.7-0.7-1.2c-0.3-0.5-0.5-1-0.8-1.3
		c-0.3-0.5-0.5-1-0.8-1.5s-0.7-1.2-1-1.7c-0.3-0.5-0.7-1.2-1-1.7c-0.3-0.7-0.7-1.2-1-1.9s-0.7-1.3-1-2c-0.3-0.7-0.7-1.3-1-2
		c-0.3-0.7-0.7-1.3-1-2c-0.3-0.7-0.7-1.3-1-2c-0.3-0.7-0.8-1.3-1.2-2.2c-0.3-0.7-0.8-1.3-1.2-2.2c-0.3-0.7-0.8-1.5-1.2-2
		c-0.5-0.7-0.8-1.2-1.2-1.9s-0.8-1.3-1.2-2c-0.3-0.7-0.8-1.3-1.2-2c-0.3-0.7-0.8-1.3-1.2-2c-0.3-0.7-0.8-1.3-1.2-2
		c-0.3-0.7-0.7-1.3-1-1.9c-0.3-0.7-0.7-1.2-1-1.9c-0.3-0.5-0.5-1.2-0.8-1.7c-0.2-0.5-0.5-1-0.8-1.7c-0.3-0.5-0.5-1.2-0.8-1.7
		s-0.7-1.2-1-1.7c-0.3-0.5-0.7-1.2-1-1.7c-0.3-0.5-0.7-1.2-0.8-1.7c-0.3-0.5-0.5-1-0.7-1.5s-0.5-1-0.7-1.5c-0.2-0.5-0.3-0.8-0.7-1.3
		c-0.2-0.3-0.3-0.8-0.5-1.2s-0.3-0.7-0.5-1s-0.3-0.7-0.5-1c-0.2-0.3-0.3-0.5-0.3-0.7c0-0.2-0.2-0.3-0.2-0.5c0-0.2,0-0.3,0-0.3
		c0-1.2-0.7-2.2-1.9-2.7c-0.8-0.5-2-0.7-2.9-0.2c-0.2,0.2-0.5,0.3-0.7,0.5c0,0,0,0-0.2,0c-0.3,0-0.7,0-1,0c-0.3,0-0.7,0-1.2,0l0,0
		l0,0c-0.3,0-0.8,0-1.2,0c-0.5,0-0.8,0-1.3,0l0,0l0,0c-0.5,0-1,0-1.5,0l0,0c-0.5,0-1.2,0-1.7,0l0,0c-0.5,0-1,0-1.5,0s-1,0-1.5,0l0,0
		l0,0l0,0c-0.5,0-1,0-1.5,0s-1.2,0-1.9,0s-1.3,0-2,0l0,0c-0.7,0-1.5,0-2.2,0c-0.8,0-1.5,0-2.2,0c-0.7,0-1.5,0-2.2,0l0,0l0,0
		c-0.7,0-1.7-0.2-2.4-0.2s-1.3-0.2-2-0.2c-0.7,0-1.2-0.2-1.9-0.2c-0.5,0-1-0.2-1.3-0.2l0,0l0,0l0,0c-0.2,0-0.3,0-0.5,0
		c-0.2,0-0.3,0-0.5,0c-0.2,0-0.2,0-0.3,0c-0.2,0-0.5-0.2-0.7-0.2l0,0l0,0l0,0c-0.3,0-0.5-0.2-0.8-0.2l0,0l0,0c0,0,0,0-0.2,0l0,0
		c-0.3,0-0.7-0.2-1,0l0,0l0,0l0,0l0,0c-0.3,0-0.7,0.2-0.5,0c-1.5,0.3-2.5,1.7-2.4,3c0,0.2-0.2,0.3-0.2,0.5c-0.2,0.2-0.2,0.3-0.2,0.5
		c0,0.3,0,0.5,0,0.5l0,0c0,0.2-0.2,0.5-0.2,0.7l0,0l0,0c-0.2,0.3-0.2,0.5-0.2,0.8v0.2l0,0c0,0.2-0.2,0.3-0.2,0.5
		c0,0.2-0.2,0.3-0.2,0.7c-0.2,0.5-0.3,0.8-0.5,1.3c-0.2,0.5-0.5,1.2-0.8,1.7c-0.3,0.7-0.7,1.3-1.2,2c-0.3,0.7-0.8,1.5-1.3,2.4
		c-0.5,0.8-1,1.7-1.5,2.5c-0.5,0.8-1,1.7-1.5,2.5c-0.5,0.8-1.2,1.9-1.7,2.9c-0.7,1-1.2,2-1.9,3s-1.3,2-1.9,3.2c-0.7,1-1.2,2-1.7,3
		c-0.5,1-1.2,2-1.7,3c-0.7,1-1.2,2-1.7,3c-0.5,1-1.2,2-1.7,3c-0.5,1-1.2,1.9-1.7,2.7c-0.5,0.8-1,1.7-1.5,2.5c-0.5,0.7-1,1.5-1.5,2.4
		c-0.5,0.8-1,1.7-1.5,2.4s-0.8,1.3-1.3,2c-0.3,0.7-0.8,1.3-1.2,1.9s-0.7,0.8-1,1.3c-0.2,0.2-0.3,0.3-0.5,0.7
		c-0.2,0.2-0.3,0.3-0.5,0.5l0,0c-0.2,0.2-0.3,0.3-0.5,0.5l-0.2,0.2c-0.3,0.2-0.5,0.5-0.7,0.8l0,0c-0.2,0.3-0.2,0.3-0.3,0.5
		c-0.2,0.2-0.2,0.3-0.2,0.5c-0.8,0.5-1.3,1.3-1.3,2.4c0,1,0.5,1.9,1.2,2.4c0,0.2,0.2,0.2,0.2,0.3c0.2,0.3,0.3,0.5,0.3,0.8
		c0.2,0.3,0.3,0.7,0.5,1c0.2,0.3,0.3,0.7,0.5,1.2c0.2,0.5,0.5,1,0.7,1.3c-0.2,1.3,0.2,1.7,0.5,2.2c0.3,0.5,0.7,1,0.8,1.3
		c0.3,0.5,0.5,0.8,0.8,1.3c0.3,0.5,0.5,1,0.8,1.5c0.3,0.5,0.5,1,0.8,1.5c0.2,0.5,0.5,1,0.7,1.5c0.3,0.5,0.5,1.2,0.8,1.7
		c0.2,0.5,0.5,1,0.8,1.7c0.3,0.5,0.7,1.2,0.8,1.5c0.3,0.5,0.5,1,0.8,1.3c0.3,0.5,0.5,1,0.8,1.3c0.2,0.3,0.3,0.8,0.7,1.2
		c0.2,0.5,0.3,0.8,0.5,1.2c0.2,0.3,0.3,0.8,0.5,1.2c0.2,0.3,0.3,0.7,0.5,1c0.2,0.3,0.3,0.7,0.3,0.8c0.2,0.3,0.2,0.5,0.3,0.7
		c0,0.2,0.2,0.3,0.3,0.7c0.2,0.2,0.2,0.5,0.3,0.7c0.2,0.2,0.2,0.3,0.3,0.5c0.2,0.2,0.3,0.3,0.5,0.5c0,0,0.2,0,0.2,0.2
		c0.2,0.2,0.3,0.2,0.5,0.3c0.2,0.2,0.3,0.2,0.3,0.2c0.2,0,0.3,0.2,0.7,0.2c0.5,1,1.5,1.9,2.7,1.9h0.2c0.3,0,0.5,0,0.8-0.2l0,0l0,0
		c0.2,0,0.5,0,0.7-0.2l0,0c0.3,0,0.5-0.2,0.8-0.2c0.3,0,0.7-0.2,0.8-0.2c0.3,0,0.5,0,0.8-0.2c0.3,0,0.7,0,1-0.2c0.3,0,0.7,0,1.2,0
		c0.3,0,0.8,0,1.3,0c0.5,0,1,0,1.5,0c0.5,0,1,0,1.5,0c0.5,0,1.2,0,1.7,0c0.5,0,1.2,0,1.7,0c0.7,0,1.2,0,1.9-0.2c0.5,0,1.2,0,1.7-0.2
		c0.7,0,1.2,0,1.9,0s1.2,0,1.9-0.2c0.7,0,1.3,0,1.9-0.2c0.7,0,1.3,0,1.9-0.2c0.7,0,1.3,0,1.9-0.2c0.7,0,1.3,0,2-0.2c0.7,0,1.3,0,2,0
		c0.7,0,1.3,0,2,0s1.5,0,2.2,0c0.8,0,1.5,0,2.4,0c0.8,0,1.5,0,2.4,0.2c0.8,0,1.5,0,2.4,0.2c0.8,0,1.7,0,2.4,0c0.8,0,1.5,0,2.4,0
		c0.7,0,1.7,0,2.4,0c0.8,0,1.5,0,2.2,0.2c0.8,0,1.5,0.2,2.4,0.2c0.7,0,1.3,0.2,2,0.2c0.7,0,1.3,0,2,0.2c0.7,0,1.2,0.2,1.9,0.2
		s1.2,0,1.7,0.2c0.5,0,1,0.2,1.7,0.2c0.5,0,1,0,1.7,0.2c0.5,0,1,0.2,1.5,0.2c0.5,0,1,0,1.3,0c0.5,0,0.8,0,1.2,0s0.7,0,1,0
		c0.2,0,0.2,0,0.3,0c0.2,0,0.3,0,0.5,0c0.3,0.2,0.7,0.2,1.2,0c0.5-0.2,1-0.2,0.8-0.2c1-0.3,1.7-1.3,1.7-2.4c0.2-0.2,0.2-0.3,0.2-0.5
		c0-0.2,0-0.3,0-0.7l0,0c0-0.3,0-0.5,0-0.8c0-0.2,0-0.3,0-0.5v-0.2c0-0.2,0-0.3,0.2-0.5c0-0.2,0-0.3,0-0.5c0-0.3,0.2-0.7,0.3-1.2
		s0.3-0.8,0.5-1.3c0.2-0.5,0.5-1.2,0.8-1.9c0.3-0.7,0.8-1.3,1.2-2.2c0.5-0.8,1-1.7,1.5-2.7c0.5-0.8,1.2-1.7,1.7-2.7
		c0.7-0.8,1.3-2,2-2.9c0.7-1,1.5-1.9,2.2-2.7c0.5-0.7,1-1.3,1.5-2c0.2-0.2,0.3-0.3,0.3-0.5c0.3-0.5,0.5-0.8,0.8-1.2l0.2-0.2
		c0.3-0.3,0.7-0.7,0.8-1.2l0,0l0,0l0,0c0.2-0.5,0.2-1,0.2-1.5c0,0.2,0,0.2,0.2,0.3c0-0.3,0-0.7-0.2-1
		C120.8,408.5,120.3,407,119.1,406.3z M12,409.2L12,409.2L12,409.2L12,409.2z M32.6,427.4c-0.3,0.5-0.7,1.2-1,1.5
		c-0.3,0.3-0.5,0.8-0.8,1.2s-0.5,0.7-0.8,1c-0.2,0.3-0.5,0.7-0.7,1c-0.2,0.3-0.5,0.7-0.7,1l-0.2-0.2c-0.2-0.2-0.3-0.5-0.5-0.7
		c-0.2-0.3-0.3-0.5-0.5-0.8c-0.2-0.3-0.3-0.7-0.7-1.2c-0.2-0.3-0.5-0.8-0.7-1.2c-0.2-0.3-0.5-0.8-0.8-1.3c-0.3-0.5-0.7-1-0.8-1.5
		c-0.3-0.5-0.5-0.8-0.8-1.3c-0.3-0.5-0.7-1-0.8-1.3c-0.2-0.5-0.5-1-0.7-1.5c-0.3-0.5-0.5-1-0.8-1.5c-0.2-0.5-0.5-1-0.7-1.7
		c-0.2-0.5-0.5-1.2-0.8-1.7c-0.3-0.5-0.5-1-0.8-1.5c-0.2-0.5-0.5-1-0.8-1.5c-0.3-0.5-0.5-1-0.7-1.3c-0.2-0.5-0.3-0.8-0.5-1.2
		c-0.2-0.5-0.3-0.8-0.5-1.2c-0.2-0.3-0.2-0.7-0.3-1c-0.2-0.3-0.2-0.7-0.3-1c0-0.3-0.2-0.5-0.2-0.8c0-0.2,0-0.3,0-0.5
		c0,0,0-0.2,0-0.5l0,0c0,0,0,0,0.2-0.2c0.2-0.2,0.2-0.3,0.3-0.5c0.2-0.3,0.3-0.7,0.3-0.8v-0.2c0.2-0.2,0.2-0.3,0.3-0.7
		c0.2-0.2,0.2-0.3,0.3-0.7c0.2-0.2,0.2-0.5,0.3-0.7c0.2-0.5,0.5-1,0.7-1.7c0.3-0.7,0.5-1.3,0.8-2c0.3-0.7,0.7-1.3,1-2.2
		c0.3-0.8,0.7-1.7,1.2-2.4c0.3-0.8,0.8-1.5,1.3-2.4c0.5-0.8,0.8-1.7,1.3-2.7c0.5-0.8,1-1.9,1.5-2.9c0.5-1,1-2,1.5-3
		c0.5-1,1-2.2,1.5-3.2c0.5-1,1-2,1.7-3c0.5-1,1-2,1.7-3c0.5-1,1.2-2,1.9-3.2c0.7-1,1.2-2,1.9-3c0.7-1,1.2-2,1.9-2.9s1.2-1.7,1.7-2.5
		s1.2-1.7,1.7-2.4c0.5-0.8,1.2-1.5,1.7-2.2c0.5-0.7,1-1.3,1.3-2c0.3-0.5,0.8-1.2,1.2-1.7c0.3-0.3,0.5-0.7,0.7-1
		c0.2,0.2,0.3,0.3,0.5,0.5c0.2,0.2,0.5,0.5,0.7,0.8c0.3,0.3,0.7,0.7,0.8,1c0.3,0.3,0.7,0.7,1,1.2c0.3,0.3,0.7,0.8,1,1.2
		c0.3,0.3,0.7,0.8,1,1.2c0.3,0.5,0.7,0.8,1,1.3c0.3,0.5,0.7,0.8,1,1.3c0.3,0.5,0.7,1,1,1.5c0.3,0.5,0.5,0.8,1,1.5
		c0.3,0.5,0.7,1.2,1,1.7c0.3,0.5,0.7,1.2,1.2,1.7c0.3,0.7,0.8,1.2,1.2,1.9c0.3,0.5,0.8,1.2,1.3,1.9s0.8,1.2,1.3,1.7
		c0.5,0.5,0.8,1.2,1.3,1.7c0.2,0.2,0.3,0.3,0.3,0.5c0,0.2,0,0.2,0,0.3l0,0c0,0.2-0.2,0.3-0.2,0.5s0,0.2-0.2,0.3
		c-0.2,0.3-0.2,0.7-0.3,1.2c-0.2,0.3-0.3,0.8-0.5,1.2s-0.3,0.8-0.7,1.3c-0.3,0.5-0.5,1-0.8,1.7c-0.3,0.5-0.7,1.2-1,1.9
		c-0.3,0.7-0.7,1.3-1,2c-0.3,0.7-0.7,1.3-1,2c-0.3,0.7-0.7,1.3-1.2,2c-0.5,0.7-0.8,1.5-1.3,2.4c-0.5,0.8-1,1.7-1.3,2.5
		c-0.5,0.8-1,1.9-1.3,2.7c-0.5,0.8-1,1.7-1.5,2.5c-0.5,0.8-0.8,1.7-1.3,2.5c-0.5,0.8-1,1.5-1.3,2.4c-0.5,0.8-1,1.7-1.5,2.5
		s-1,1.7-1.5,2.5s-1,1.7-1.5,2.5c-0.5,0.8-1,1.5-1.5,2.4c-0.5,0.7-1,1.5-1.5,2.2c-0.5,0.7-1,1.5-1.5,2.2c-0.5,0.7-1,1.5-1.3,2.2
		c-0.5,0.7-0.8,1.3-1.3,2c-0.5,0.7-0.8,1.3-1.2,2C33.4,426.4,33.1,426.9,32.6,427.4z M113.5,412.5c-0.3,0.7-0.7,1.5-1,2.2
		c-0.5,1-1,2-1.5,3.2c-0.5,1-1,2.4-1.5,3.2c-0.5,1-1,1.9-1.5,2.9c-0.5,0.8-1,1.9-1.5,2.5c-0.5,0.7-1,1.3-1.3,2
		c-0.5,0.5-0.8,1.2-1.3,1.7c-0.3,0.5-0.7,1-1,1.3c-0.3,0.5-0.7,0.8-0.8,1.3c-0.2,0.3-0.3,0.5-0.3,0.8c-0.2,0.2-0.2,0.3-0.2,0.5
		c0,0.2-0.2,0.3-0.2,0.5c-0.2,0.2-0.2,0.3-0.2,0.7c0,0.2,0,0.2,0,0.3c0,0.2-0.2,0.3-0.2,0.5c-0.3,0-0.7,0-0.8,0c-0.3,0-0.7,0-1.2,0
		c-0.5,0-0.8,0-1.3,0c-0.5,0-1,0-1.5,0s-1,0-1.5,0c-0.5,0-1,0-1.7,0l0,0c-0.7,0-1.2,0-1.9,0c-0.7,0-1.2,0-1.9,0s-1.3,0-2,0
		c-0.7,0-1.3,0-2,0c-0.7,0-1.5,0-2.4-0.2c-0.8,0-1.5,0-2.2,0c-0.8,0-1.7,0-2.5,0l0,0c-0.8,0-1.5,0-2.4,0l0,0c-0.8,0-1.5,0-2.4,0
		c-0.8,0-1.5-0.2-2.4-0.2c-0.8,0-1.7-0.2-2.4-0.2c-0.8,0-1.5-0.2-2.4-0.2s-1.5,0-2.2,0c-0.7,0-1.3,0-2,0s-1.3,0-2,0s-1.3,0-2,0
		c-0.7,0-1.3,0-2,0c-0.7,0-1.3,0-1.9,0c-0.7,0-1.3,0-1.9,0c-0.7,0-1.2,0-1.9,0s-1.2,0-1.9,0c-0.5,0-1.2,0-1.7,0c-0.7,0-1.2,0-1.7,0
		s-1.2,0-1.7,0c-0.5,0-1.2,0-1.7,0c-0.5,0-1,0-1.5,0c-0.5,0-1,0-1.5,0s-0.8,0-1.3,0c-0.3,0-0.8,0-1.2,0l0,0l0,0l0,0
		c-0.3,0-0.8,0-1.2,0c-0.3,0-0.7,0-1,0l0,0c0-0.2,0.2-0.3,0.2-0.5c0.2-0.3,0.3-0.7,0.5-1c0.2-0.3,0.3-0.7,0.7-1.2
		c0.2-0.3,0.5-0.8,0.7-1.3c0.3-0.5,0.5-1.2,0.8-1.7c0.3-0.5,0.7-1.2,1-1.9c0.3-0.7,0.7-1.3,1-2c0.3-0.7,0.7-1.3,1-2
		c0.3-0.7,0.8-1.5,1.2-2.2c0.3-0.7,0.8-1.3,1.3-2.2c0.5-0.7,1-1.5,1.5-2.4s1-1.5,1.3-2.4c0.5-0.8,1-1.7,1.5-2.5
		c0.5-0.8,1-1.7,1.5-2.5c0.5-0.8,1-1.7,1.5-2.5s1-1.7,1.5-2.5s1-1.7,1.3-2.5c0.5-0.8,1-1.7,1.3-2.7c0.5-0.8,1-1.9,1.3-2.7
		c0.5-0.8,1-1.7,1.3-2.5c0.5-0.8,1-1.5,1.3-2.4c0.5-0.7,0.8-1.3,1.3-2s0.8-1.3,1.2-2c0.3-0.7,0.7-1.3,1.2-2c0.3-0.7,0.7-1.2,1-1.7
		c0.3-0.5,0.7-1,1-1.5c0.3-0.5,0.7-0.8,0.8-1.3c0.3-0.5,0.5-0.8,0.8-1.2c0.3,0.3,0.5,0.7,0.8,1c0.5,0.7,1,1.3,1.5,1.9
		c0.5,0.7,1,1.2,1.3,1.9c0.5,0.7,0.8,1.2,1.3,1.9s0.8,1.3,1.3,1.9c0.3,0.7,0.8,1.2,1.2,1.9c0.3,0.7,0.8,1.2,1.2,1.9
		c0.3,0.5,0.8,1.2,1.2,1.9c0.3,0.7,0.8,1.2,1.2,1.7c0.3,0.5,0.7,1,1,1.7c0.3,0.5,0.7,1.2,1,1.7c0.3,0.5,0.5,1,0.8,1.7
		c0.3,0.5,0.5,1.2,0.8,1.7c0.3,0.5,0.7,1.2,0.8,1.7c0.3,0.5,0.7,1.2,1,1.7c0.3,0.5,0.5,1,0.8,1.5c0.2,0.3,0.3,0.8,0.5,1
		c-0.5,0-1,0-1.5,0c-0.7,0-1.3,0-1.9,0c-0.7,0-1.2,0-1.7,0l0,0c-0.5,0-1.2,0-1.7,0c-0.5,0-1.2,0-1.7,0l0,0c-0.5,0-1.2,0-1.7,0
		s-1.2,0-1.7,0c-0.5,0-1.2,0-1.7,0c-0.5,0-1,0-1.7,0c-0.5,0-1,0-1.5,0c-0.5,0-1,0-1.5,0c-0.5,0-1,0-1.5,0c-0.5,0-1,0-1.5,0
		s-1,0-1.5,0c-0.5,0-1,0-1.5,0c-0.5,0-1,0-1.5,0c-0.5,0-1,0-1.3-0.2c-0.5,0-0.8,0-1.2-0.2c-0.3,0-0.7,0-1,0c-0.3,0-0.5,0-0.8,0
		c-0.3,0-0.5,0-0.7,0c-0.2,0-0.3,0-0.5,0c-0.2,0-0.3,0-0.5,0c-0.2,0-0.2,0-0.3,0h-0.2c-1.5,0-2.9,1.3-2.9,2.9s1.3,2.9,2.9,2.9h0.2
		c0.2,0,0.2,0,0.3,0c0.2,0,0.3,0,0.5,0c0.2,0,0.3,0,0.5,0c0.2,0,0.5,0,0.7,0c0.2,0,0.5,0,0.8,0s0.7,0,1,0c0.3,0,0.8,0,1.2-0.2
		c0.5,0,1,0,1.3-0.2c0.5,0,1,0,1.5,0c0.5,0,1,0,1.5,0c0.5,0,1,0,1.5,0c0.5,0,1,0,1.5,0c0.5,0,1,0,1.7,0c0.5,0,1,0,1.5,0s1,0,1.5,0
		c0.5,0,1,0,1.5,0c0.5,0,1.2,0,1.7,0c0.5,0,1.2,0,1.7,0s1,0,1.5,0c0.5,0,1,0,1.7,0c0.5,0,1.2,0,1.7,0c0.5,0,1.2,0,1.7,0s1.2,0,1.9,0
		s1.2,0,1.9,0c0.5,0,1.2,0,1.7,0c0.8,0.7,2.2,0.7,3-0.2c0.3,0,0.8,0,1.2,0c0.7,0,1.2,0,1.9,0c0.7,0,1.3,0,2,0c0.7,0,1.3,0,1.9,0
		c0.7,0,1.2,0,1.9,0c0.5,0,1.2,0,1.7,0s1.2,0,1.7,0c0.5,0,1.2,0,1.7,0c0.5,0,1,0,1.5,0s1,0,1.5,0c0.5,0,1,0,1.5,0c0.5,0,1,0,1.3,0
		c0.5,0,0.8,0,1.2,0s0.8,0,1.2,0s0.8,0,1.2,0s0.8,0,1.2,0c0.3,0,0.5,0,0.8,0C113.7,412.4,113.7,412.4,113.5,412.5z M113.9,407.5
		c-0.3,0-0.7,0-1,0l0,0l0,0l0,0c-0.3,0-0.8,0-1.2,0s-0.8,0-1.2,0s-0.8,0-1.2,0c-0.3,0-0.8,0-1.2,0c-0.5,0-1,0-1.3,0l0,0l0,0l0,0
		c-0.5,0-1,0-1.5,0s-1,0-1.5,0s-1,0-1.5,0s-1.2,0-1.7,0l0,0l0,0c-0.5,0-1.2,0-1.7,0c-0.5,0-1.2,0-1.9,0c-0.7,0-1.2,0-1.9,0
		s-1.2,0-1.9,0c-0.7,0-1.3,0-2,0l0,0c-0.7,0-1.2,0-1.9,0l0,0l0,0c-0.3,0-0.5,0-0.8,0l0,0l0,0c-0.2-0.2-0.3-0.3-0.3-0.5
		c-0.3,0.5-0.5,0.3-0.5,0.2c0,0,0,0,0-0.2l0,0c0-0.2-0.2-0.3-0.3-0.5c-0.2-0.2-0.2-0.3-0.3-0.5c-0.2-0.3-0.5-0.8-0.8-1.2
		c-0.3-0.5-0.5-0.8-0.8-1.3c-0.3-0.5-0.7-1-1-1.5c-0.3-0.5-0.7-1-0.8-1.5c-0.3-0.5-0.7-1-0.8-1.7c-0.3-0.5-0.7-1-1-1.7
		c-0.3-0.5-0.7-1.2-1-1.7c-0.3-0.5-0.7-1.2-1.2-1.7c-0.3-0.5-0.8-1.2-1.2-1.7c-0.3-0.5-0.8-1.2-1.2-1.7c-0.5-0.7-0.8-1.2-1.2-1.9
		c-0.3-0.5-0.8-1.2-1.3-1.9c-0.5-0.7-1-1.3-1.3-1.9c-0.5-0.7-0.8-1.2-1.3-1.9c-0.5-0.7-1-1.3-1.3-1.9c-0.5-0.7-1-1.3-1.5-2
		c-0.5-0.7-1-1.2-1.3-1.9c0.7-1.3,0-3-1.3-3.5c-0.5-0.2-1-0.3-1.3-0.2c-0.3-0.5-0.8-1.2-1.2-1.7c-0.5-0.7-0.8-1.2-1.2-1.7
		c-0.3-0.5-0.8-1.2-1.2-1.7c-0.3-0.7-0.8-1.2-1.2-1.7c-0.3-0.5-0.7-1.2-1-1.7c-0.3-0.5-0.7-1.2-1-1.7c-0.3-0.5-0.7-1-1-1.7
		c-0.3-0.5-0.8-1.2-1.2-1.7c-0.3-0.5-0.7-1-1-1.3c-0.3-0.5-0.7-1-1-1.3c-0.3-0.5-0.5-0.8-0.8-1.3c-0.3-0.5-0.7-0.8-0.8-1.3
		c-0.3-0.5-0.5-0.8-0.8-1.2c-0.2-0.3-0.5-0.7-0.7-1c-0.2-0.3-0.3-0.7-0.5-1c-0.2-0.3-0.3-0.5-0.3-0.7c0,0,0-0.2-0.2-0.5
		c-0.2-0.2-0.2-0.2-0.2-0.3c0,0,0-0.2-0.2-0.5c0,0,0,0,0.2,0s0.3,0,0.5,0c0.2,0,0.3,0,0.5,0c0.3,0,0.8-0.2,1.3-0.2
		c0.5,0,1.2-0.2,1.9-0.2c0.7,0,1.3-0.2,2-0.2c0.3-0.5,1.2-0.5,2-0.5c0.7,0,1.5,0,2.2,0c0.8,0,1.5,0,2.2,0s1.5,0,2,0
		c0.7,0,1.3,0,2,0.2c0.7,0,1.3,0,1.9,0.2c0.5,0,1,0,1.5,0.2c0.5,0,1,0,1.5,0c0.5,0,1,0,1.5,0c0.5,0,1.2,0,1.7,0c0.5,0,1,0,1.5,0
		s0.8,0,1.3,0c0.3,0,0.8,0,1.2,0c0.3,0,0.8,0,1.2,0c0.3,0,0.7,0,1,0c0.2,0,0.2,0,0.2,0c0,0.2,0.2,0.2,0.2,0.3
		c0.2,0.2,0.2,0.3,0.3,0.5c0,0.2,0.2,0.2,0.2,0.3c0.3,0.3,0.5,0.7,0.7,0.8c0.5,0.3,0.8,0.5,1,0.8c0.2,0.3,0.3,0.7,0.5,0.8
		c0.2,0.3,0.3,0.7,0.5,1s0.3,0.7,0.7,1.2c0.2,0.3,0.5,1,0.8,1.5c0.3,0.5,0.7,1,1,1.5c0.3,0.5,0.7,1.2,1.2,1.7c0.3,0.5,0.8,1.2,1,1.7
		c0.3,0.5,0.7,1,0.8,1.5c0.3,0.5,0.5,1,0.8,1.5c0.2,0.5,0.5,1,0.7,1.7c0.3,0.5,0.5,1.2,0.8,1.9c0.3,0.7,0.7,1.3,1.2,1.9
		c0.3,0.7,0.8,1.3,1.2,2c0.5,0.7,0.8,1.3,1.3,2c0.5,0.7,0.8,1.3,1.3,2c0.3,0.7,0.8,1.3,1.2,1.9c0.3,0.7,0.8,1.3,1.2,2
		c0.3,0.7,0.8,1.2,1.2,1.9c0.3,0.7,0.8,1.3,1.2,2c0.5,0.7,0.8,1.3,1.2,2c0.3,0.7,0.8,1.3,1.2,2c0.3,0.7,0.7,1.3,1,2
		c0.3,0.7,0.7,1.3,1,2c0.3,0.7,0.7,1.3,1,2c0.3,0.7,0.7,1.3,1,2c0.3,0.7,0.7,1.3,1,1.9c0.3,0.7,0.5,1.2,0.8,1.7
		c0.3,0.5,0.5,1.2,0.8,1.9c0.3,0.5,0.5,1,0.7,1.5c0.2,0.5,0.5,1,0.7,1.5s0.5,0.8,0.7,1.2s0.3,0.8,0.5,1.2c0.2,0.3,0.3,0.7,0.5,1v0.2
		C114.2,407.5,114,407.5,113.9,407.5z M119.6,407L119.6,407L119.6,407L119.6,407z"/>
	<path fill="#666766" d="M228.9,404.3c0.2-0.2,0.3-0.3,0.5-0.5c0.2-0.2,0.3-0.3,0.7-0.7l0,0c0.2-0.2,0.3-0.3,0.3-0.5
		c0.2-0.3,0.3-0.7,0.5-0.8l0,0c0-0.2,0.2-0.3,0.2-0.5c0.2-0.3,0.2-0.7,0.2-1c0-0.5,0-1.2,0-1.5c0-0.5,0-1.2,0-1.7
		c0-0.5,0-1.2-0.2-1.7c0-0.5-0.2-1.2-0.3-1.9c-0.2-0.5-0.3-1.2-0.5-1.7c-0.2-0.5-0.5-1-0.8-1.5c-0.3-0.3-0.8-1-1.3-1.3
		c-0.5-0.3-1.2-0.7-1.7-0.8c-0.5-0.2-1.2-0.2-1.7-0.3c-0.7,0-1.2,0-1.5,0s-1,0-1.5,0c-0.5,0-1,0-1.3,0s-0.8,0.2-1.3,0.2
		c-0.5,0.2-1,0.3-1.3,0.3c-0.3,0.2-0.8,0.3-1.2,0.5c-0.3,0.2-0.8,0.5-1.2,0.8c-0.3,0.3-0.7,0.7-1,1c-0.3,0.3-0.7,0.8-0.8,1.2
		c-0.2,0.5-0.3,1-0.5,1.3c-0.2,0.3-0.2,1-0.2,1.3c0,0.5,0,1,0,1.2c0,0.3,0,0.7,0,1c0,0.3,0,0.7,0,1s0,0.7,0,1s0,0.7,0,1
		s0,0.7,0.2,1.2c0.2,0.3,0.3,0.8,0.3,1.2c0.2,0.5,0.5,0.7,0.5,0.8l0,0c0.2,0.3,0.3,0.5,0.5,0.8l0,0l0.2,0.2c0.2,0.3,0.5,0.5,0.8,0.7
		l0,0l0,0c0.2,0.2,0.5,0.2,0.5,0.2c1.5,0.7,3.4,0.2,4-1.3c0.7-1.5,0.2-3.2-1.2-4l-0.2-0.2c0-0.2,0-0.3-0.2-0.7c0-0.3,0-0.7,0-1
		s0-0.7,0-1c0-0.3,0-0.7,0-1s0-0.7,0-0.8c0-0.2,0-0.5,0.2-0.7c0-0.3,0-0.3,0.2-0.3c0-0.2,0,0,0.2-0.2c0.2-0.2,0.2-0.2,0.3-0.3
		c0.2-0.2,0.3-0.3,0.5-0.3c0.2-0.2,0.3-0.2,0.5-0.3c0.3-0.2,0.3-0.2,0.5-0.2s0.5-0.2,0.8-0.2c0.3,0,0.7-0.2,1-0.2
		c0.3,0,0.8,0,1.3-0.2c0.5,0,0.8,0,1,0c0.3,0,0.5,0,0.7,0.2c0.2,0,0.2,0,0.2,0.2c0,0,0.2,0.2,0.2,0.3c0.2,0.2,0.2,0.3,0.3,0.7
		c0.2,0.3,0.3,0.5,0.3,1c0.2,0.3,0.2,0.8,0.3,1.2c0,0.5,0.2,0.8,0.2,1.3c0,0.5,0,1,0,1.3c0,0.5,0,0.7-0.2,0.8c0,0.2,0,0.2,0,0.2
		s0,0.2-0.2,0.2c-0.2,0-0.3,0.2-0.5,0.2c0.2-0.2,0.3-0.2-0.2,0c-1.3,0.7-1.9,2.2-1.3,3.5c0.7,1.3,2.2,1.9,3.5,1.3
		C227.9,404.8,228.4,404.6,228.9,404.3z"/>
	<path fill="#666766" d="M212,414.6L212,414.6L212,414.6z"/>
	<path fill="#666766" d="M233.6,411.9c0.2-0.2,0.5-0.5,0.7-0.8c0.3-0.3,0.5-0.7,0.8-1s0.5-0.7,0.8-1c0.3-0.3,0.5-0.8,0.8-1.2
		s0.5-0.8,0.7-1.2c0.2-0.3,0.5-0.8,0.7-1.2c0.2-0.5,0.5-1,0.7-1.3c0.2-0.5,0.3-1,0.5-1.3c0.2-0.5,0.3-0.8,0.5-1.3
		c0.2-0.3,0.3-0.8,0.3-1.3c0.2-0.5,0.2-1,0.2-1.5c0-0.5,0-1.2,0-1.5c0-0.5,0-1,0-1.3s0-0.7,0-1.2c0-0.3,0-0.8-0.2-1.2
		c0-0.3-0.2-0.8-0.2-1.3c-0.2-0.5-0.2-1-0.3-1.3c-0.2-0.5-0.3-0.8-0.3-1.2c-0.2-0.3-0.3-0.7-0.3-1c-0.2-0.3-0.3-0.7-0.5-1.2
		c-0.2-0.5-0.3-0.8-0.5-1.2s-0.3-0.8-0.7-1.2c-0.3-0.5-0.7-0.8-0.7-1c-0.2-0.3-0.3-0.5-0.7-0.8c-0.2-0.3-0.5-0.7-0.8-1
		c-0.2-0.3-0.5-0.7-0.8-1s-0.7-0.7-1.2-1c-0.5-0.3-1-0.5-1.3-0.7c-0.3-0.2-0.8-0.3-1.3-0.5c-0.5-0.2-1-0.3-1.3-0.3
		c-0.5,0-1-0.2-1.3-0.2c-0.5,0-0.8,0-1.3,0c-0.5,0-0.8,0-1.2,0s-0.8,0-1.3,0c-0.3,0-0.8,0-1.3,0s-1,0.2-1.3,0.2
		c-0.5,0-0.8,0.2-1.3,0.2c-0.3,0-0.8,0.2-1.3,0.2c-0.3,0-0.8,0.2-1.3,0.2s-1,0.2-1.3,0.3c-0.5,0.2-1,0.3-1.3,0.3
		c-0.3,0.2-0.8,0.3-1.3,0.5c-0.3,0.2-0.8,0.5-1.3,0.7c-0.5,0.3-0.8,0.7-1.2,0.8c-0.5,0.3-0.8,0.7-1,1c-0.3,0.3-0.7,0.5-1,0.8
		s-0.7,0.7-1,0.8c-0.3,0.2-0.7,0.5-1,0.8c-0.3,0.3-0.7,0.7-1,1s-0.7,0.8-0.8,1.2c-0.3,0.5-0.5,1-0.8,1.3c-0.2,0.3-0.5,0.8-0.7,1.3
		s-0.3,0.8-0.5,1.3c-0.2,0.5-0.2,1-0.3,1.5c0,0.5-0.2,1-0.2,1.5c0,0.5,0,1-0.2,1.5c0,0.5,0,1,0,1.3c0,0.3,0,0.8,0,1.2
		c0,0.3,0,0.8,0,1.3s0.2,1,0.2,1.3c0.2,0.5,0.2,0.8,0.3,1.2c0.2,0.5,0.3,0.7,0.3,1c0.2,0.3,0.2,0.5,0.3,0.8s0.2,0.7,0.3,1
		s0.3,0.8,0.5,1.2s0.5,0.7,0.5,0.8c0.2,0.3,0.3,0.5,0.5,0.7c0.2,0.3,0.3,0.3,0.3,0.5c0,0.2,0.2,0.3,0.3,0.7c0.2,0.2,0.2,0.5,0.3,0.7
		c0,0.2,0.2,0.5,0.5,0.8c0.2,0.3,0.5,0.7,0.5,0.8c0.2,0.2,0.3,0.5,0.5,0.7c0.2,0.2,0.3,0.5,0.5,0.7c0.2,0.2,0.3,0.3,0.5,0.5
		c0.2,0.2,0.5,0.3,0.7,0.5c0.3,0.2,0.7,0.3,0.7,0.3s0,0,0.2,0c0.3,0.2,0.5,0.3,0.8,0.3l0,0l0,0h0.2c1,0.3,2.2,0.2,3-0.7l0,0l0,0l0,0
		c0.8-0.8,1.2-2.4,0.7-3.4c-0.5-1.2-1.7-2-3-1.9l-0.2-0.2c-0.2-0.2-0.2-0.2-0.3-0.3c-0.2-0.2-0.3-0.3-0.3-0.3s-0.2-0.2-0.3-0.5
		c-0.2-0.2-0.3-0.5-0.3-0.7c-0.2-0.2-0.3-0.5-0.5-0.8c-0.2-0.3-0.5-0.5-0.5-0.7c-0.2-0.2-0.3-0.5-0.5-0.7c-0.2-0.3-0.3-0.3-0.3-0.5
		c-0.2-0.2-0.2-0.3-0.3-0.7c-0.2-0.2-0.2-0.5-0.3-0.8c-0.2-0.3-0.2-0.5-0.3-0.8s-0.2-0.5-0.3-0.8s-0.2-0.5-0.2-0.8s-0.2-0.5-0.2-0.8
		s0-0.7-0.2-1c0-0.3,0-0.7,0-1c0-0.3,0-0.7,0-1.2c0-0.3,0-0.8,0-1.3s0-0.8,0-1.2s0.2-0.5,0.2-0.8s0.2-0.5,0.3-0.7
		c0.2-0.3,0.3-0.5,0.5-1c0.2-0.3,0.3-0.7,0.5-1c0.2-0.3,0.3-0.5,0.7-0.8c0.2-0.3,0.5-0.5,0.7-0.7c0.2-0.2,0.5-0.3,0.8-0.7
		s0.7-0.7,1-0.8c0.3-0.3,0.7-0.7,1-0.8c0.3-0.3,0.7-0.7,1-0.8c0.3-0.2,0.5-0.5,0.8-0.5c0.3-0.2,0.5-0.2,0.8-0.3
		c0.3-0.2,0.5-0.2,1-0.3c0.3-0.2,0.7-0.2,1-0.3s0.7-0.2,1-0.2c0.3,0,0.7-0.2,1.2-0.2c0.3,0,0.8-0.2,1.2-0.2c0.5,0,0.8-0.2,1.2-0.2
		c0.5,0,0.8-0.2,1.2-0.2s0.7,0,1.2,0c0.3,0,0.8,0,1.2,0c0.5,0,0.8,0,1.2,0s0.7,0,1,0c0.3,0,0.5,0,0.8,0.2c0.3,0,0.5,0.2,0.8,0.2
		c0.2,0,0.5,0.2,0.7,0.3c0.3,0.2,0.3,0.2,0.5,0.3c0.2,0.2,0.2,0.2,0.5,0.5c0.2,0.2,0.3,0.5,0.7,0.7c0.2,0.3,0.5,0.5,0.7,0.8
		s0.3,0.5,0.7,0.8s0.5,0.5,0.5,0.7c0.2,0.2,0.3,0.5,0.5,0.8s0.3,0.7,0.5,1c0.2,0.3,0.2,0.7,0.3,1s0.3,0.7,0.3,1
		c0.2,0.3,0.2,0.7,0.3,1c0.2,0.3,0.2,0.7,0.2,1s0,0.5,0.2,1c0,0.3,0,0.5,0,0.8c0,0.3,0,0.5,0,1c0,0.5,0,0.8,0,1.2c0,0.5,0,0.8,0,1.2
		s0,0.7-0.2,1c0,0.3-0.2,0.5-0.2,1c-0.2,0.3-0.2,0.7-0.3,1.2c-0.2,0.3-0.3,0.8-0.5,1.2c-0.2,0.5-0.3,0.7-0.5,1s-0.3,0.5-0.5,0.8
		c-0.2,0.3-0.3,0.7-0.7,1c-0.2,0.3-0.5,0.7-0.7,1c-0.2,0.3-0.5,0.5-0.7,0.8c-0.2,0.3-0.5,0.5-0.7,0.7c-0.2,0.2-0.3,0.3-0.5,0.3
		c0,0,0,0-0.2,0s-0.2,0,0,0c-0.7,0-1.5,0.3-2,0.8c-1.2,1.2-1.2,3,0,4c0.5,0.5,1.3,0.8,2.2,0.8c0.2,0,0.2,0,0,0c1.2,0,2-0.7,2.5-1.5
		C233.1,412.2,233.5,412,233.6,411.9z"/>
	<path fill="#666766" d="M238.4,422.8c0.5-0.5,0.8-1.2,0.8-2c0,0,0-0.2,0.2-0.2c0.2-0.3,0.3-0.7,0.5-1c0.2-0.3,0.3-0.7,0.7-1
		c0.2-0.3,0.5-0.7,0.8-1s0.7-0.8,1-1.3c0.3-0.5,0.7-1,1-1.5c0.3-0.5,0.7-1.2,1-1.7c0.3-0.5,0.7-1.2,1-1.7c0.3-0.5,0.5-1.2,0.8-1.7
		c0.3-0.7,0.5-1.3,0.8-1.9c0.2-0.7,0.5-1.3,0.7-1.9c0.2-0.7,0.5-1.3,0.7-1.9c0.2-0.5,0.3-1.2,0.5-1.9c0.2-0.7,0.3-1.3,0.3-2
		c0-0.7,0.2-1.3,0.2-1.9c0-0.7,0-1.3,0-1.9c0-0.7,0-1.2,0-1.9s0-1.3-0.2-2c0-0.7-0.2-1.3-0.2-2c0-0.7-0.2-1.5-0.2-2.2
		c-0.2-0.7-0.2-1.3-0.3-2c-0.2-0.7-0.3-1.2-0.5-1.9c-0.2-0.7-0.5-1.3-0.7-1.9c-0.3-0.7-0.5-1.2-0.8-1.7s-0.7-1.2-1-1.7
		c-0.3-0.5-0.7-1-1.2-1.5c-0.3-0.5-0.8-1-1.3-1.7c-0.5-0.5-1-1-1.5-1.5c-0.5-0.5-1-0.8-1.7-1.3c-0.5-0.5-1.2-0.8-1.7-1.2
		c-0.5-0.3-1-0.8-1.7-1.2s-1.3-0.8-2-1c-0.7-0.3-1.3-0.5-2-0.7c-0.7-0.2-1.5-0.3-2.2-0.5c-0.8-0.2-1.5-0.2-2.4-0.3
		c-0.7,0-1.5-0.2-2.4-0.2c-0.8,0-1.5,0-2.2,0c-0.7,0-1.5,0-2.4,0c-0.7,0-1.5,0.2-2.2,0.2c-0.7,0.2-1.5,0.2-2.4,0.3
		c-0.7,0.2-1.5,0.3-2.2,0.5c-0.7,0.2-1.5,0.5-2.2,0.7c-0.7,0.3-1.5,0.7-2.4,1s-1.5,0.8-2.2,1.3c-0.7,0.5-1.3,1-2,1.5
		c-0.7,0.5-1.2,1-1.7,1.5c-0.5,0.5-1.2,1-1.7,1.7c-0.5,0.5-1.2,1.3-1.7,1.9c-0.5,0.7-1,1.3-1.5,2c-0.5,0.7-1,1.5-1.5,2.2
		c-0.5,0.7-0.8,1.3-1.3,2.2c-0.3,0.8-0.8,1.7-1.2,2.5c-0.3,0.8-0.5,1.7-0.7,2.5s-0.3,1.9-0.3,2.7c-0.2,0.8-0.2,1.9-0.2,2.5
		c0,0.8,0,1.7,0,2.4c0,0.7,0,1.5,0.2,2.2c0,0.7,0.2,1.3,0.3,2s0.2,1.3,0.3,2c0.2,0.7,0.3,1.3,0.5,1.9c0.2,0.7,0.3,1.3,0.5,2
		c0.2,0.7,0.3,1.3,0.7,2c0.2,0.7,0.5,1.3,0.8,1.7c0.2,0.5,0.5,1,0.7,1.5c0.3,0.5,0.7,0.8,0.8,1.2c0.3,0.3,0.5,0.7,0.8,1.2
		c0.3,0.3,0.7,0.8,1,1.2c0.3,0.3,0.7,0.8,1,1.2c0.3,0.3,0.7,0.7,1,0.8c0.3,0.3,0.7,0.5,0.7,0.7c0.2,0.2,0.3,0.3,0.5,0.5
		c0.2,0.2,0.2,0.3,0.3,0.5c0,0,0,0.2,0.2,0.2c0.2,0.3,0.3,0.8,0.7,1.2l0,0l0,0c0.2,0.2,0.3,0.3,0.5,0.3c0.3,0.5,0.7,0.8,1.2,1l0,0
		l0,0c0.7,0.3,1.2,0.3,1,0.3c1.7,0.3,3.2-0.5,3.7-2.2c0.3-1.7-0.5-3.2-2.2-3.7c-0.2,0-0.2,0-0.2,0l0,0c-0.2-0.3-0.5-0.5-0.7-0.7
		c-0.2-0.2-0.5-0.5-0.8-0.7c-0.3-0.2-0.7-0.5-1-0.7c-0.3-0.3-0.7-0.5-0.8-0.5c-0.3-0.2-0.5-0.3-0.8-0.5c-0.3-0.2-0.5-0.3-0.8-0.7
		c-0.2-0.2-0.5-0.5-0.8-0.8c-0.3-0.3-0.5-0.7-0.8-1c-0.3-0.3-0.5-0.7-0.7-0.8c-0.2-0.3-0.3-0.5-0.7-1c-0.3-0.5-0.5-0.8-0.7-1.3
		s-0.5-1-0.7-1.7c-0.2-0.5-0.5-1.2-0.7-1.9s-0.3-1.2-0.5-1.7c-0.2-0.7-0.3-1.2-0.3-1.7c-0.2-0.7-0.2-1.2-0.3-1.7
		c0-0.7-0.2-1.2-0.2-2c0-0.7-0.2-1.5-0.2-2.2c0-0.8,0-1.5,0-2.4s0.2-1.7,0.2-2.4c0.2-0.8,0.3-1.3,0.5-2s0.5-1.5,1-2.2
		c0.3-0.7,0.7-1.3,1.2-2s0.8-1.3,1.3-2s1-1.3,1.5-1.9c0.5-0.7,1-1.2,1.5-1.7s1-1,1.5-1.5c0.5-0.5,1-0.8,1.7-1.3
		c0.7-0.5,1.2-0.8,1.7-1.2c0.7-0.3,1.2-0.7,1.9-1c0.7-0.3,1.3-0.7,2-0.8c0.7-0.2,1.3-0.5,2-0.7c0.7-0.2,1.2-0.3,1.9-0.5
		c0.7-0.2,1.3-0.2,2-0.3c0.7,0,1.3-0.2,2-0.2s1.3,0,2.2,0c0.7,0,1.3,0,2,0s1.3,0,2.2,0.2c0.7,0,1.3,0.2,2,0.3
		c0.7,0.2,1.2,0.3,1.9,0.5c0.7,0.2,1.2,0.3,1.7,0.7c0.5,0.2,1,0.5,1.5,0.8c0.5,0.3,1,0.7,1.5,1.2c0.5,0.5,1.2,0.8,1.5,1.2
		c0.5,0.3,1,0.8,1.5,1.2c0.5,0.5,0.8,0.8,1.2,1.2s0.7,0.8,1,1.3c0.3,0.5,0.7,0.8,0.8,1.3c0.3,0.5,0.5,1,0.8,1.5s0.5,1,0.7,1.5
		c0.2,0.5,0.3,1,0.5,1.5c0.2,0.5,0.3,1,0.3,1.5c0.2,0.5,0.2,1,0.3,1.7c0.2,0.7,0.2,1.3,0.3,2c0,0.7,0.2,1.3,0.2,1.9
		c0,0.7,0,1.3,0.2,2c0,0.7,0,1.2,0,1.9s0,1.2,0,1.7c0,0.5-0.2,1-0.2,1.5s-0.2,1-0.3,1.5c-0.2,0.5-0.3,1-0.5,1.7
		c-0.2,0.7-0.3,1.2-0.5,1.9c-0.2,0.7-0.3,1.2-0.5,1.7c-0.2,0.5-0.5,1.2-0.7,1.7c-0.2,0.5-0.5,1-0.7,1.5c-0.3,0.5-0.5,1-0.8,1.5
		c-0.3,0.5-0.7,1-1,1.5c-0.3,0.5-0.7,1-1,1.3c-0.3,0.3-0.7,0.7-1,1.2c-0.3,0.3-0.7,0.7-1,1.2c-0.3,0.3-0.7,0.8-0.8,1.2
		c-0.3,0.3-0.5,0.7-0.7,0.8l0,0c-0.5,0.2-0.8,0.3-1.2,0.7c0,0.2-0.2,0.2,0,0l0,0l0,0c-1.2,1-1.3,2.7-0.3,3.9c1,1.2,2.7,1.3,3.9,0.3
		C238.2,423,238.4,422.8,238.4,422.8z"/>
	<path fill="#666766" d="M241.2,434.5c0.2-0.2,0.3-0.2,0.5-0.3c0.2-0.2,0.3-0.3,0.5-0.7c0.2-0.2,0.3-0.2,0.3-0.3
		c0.2-0.2,0.3-0.3,0.5-0.5c0.2-0.2,0.3-0.3,0.5-0.5c0.2-0.2,0.3-0.3,0.5-0.5c0.2-0.2,0.3-0.3,0.7-0.5c0.2-0.2,0.5-0.3,0.7-0.5
		c0.2-0.2,0.5-0.3,0.7-0.5c0.2-0.2,0.3-0.3,0.7-0.5c0.2-0.2,0.3-0.3,0.7-0.5c0.2-0.2,0.3-0.3,0.7-0.5c0.2-0.2,0.5-0.3,0.7-0.7
		c0.2-0.2,0.5-0.5,0.8-0.8c0.3-0.3,0.5-0.7,0.7-0.8c0.2-0.3,0.5-0.7,0.7-0.8c0.2-0.3,0.5-0.5,0.7-0.8c0.2-0.3,0.3-0.5,0.7-0.8
		c0.2-0.3,0.3-0.5,0.7-0.8c0.2-0.3,0.5-0.7,0.7-1c0.2-0.3,0.3-0.7,0.7-1c0.2-0.3,0.5-0.7,0.7-1c0.2-0.3,0.3-0.7,0.7-1
		c0.2-0.3,0.3-0.7,0.5-1c0.2-0.3,0.3-0.5,0.5-1c0.2-0.3,0.3-0.8,0.5-1c0.2-0.3,0.3-0.7,0.5-1c0.2-0.3,0.3-0.7,0.5-1s0.3-0.7,0.3-1
		c0.2-0.3,0.3-0.7,0.5-1c0.2-0.3,0.3-0.7,0.5-1s0.3-0.7,0.3-1c0.2-0.3,0.2-0.7,0.3-1.2c0.2-0.3,0.2-0.7,0.3-1c0.2-0.3,0.2-0.7,0.3-1
		c0.2-0.3,0.2-0.7,0.2-1s0.2-0.7,0.3-1c0-0.3,0.2-0.8,0.2-1.2c0-0.3,0.2-0.7,0.2-1.2c0-0.3,0-0.8,0-1c0-0.3,0-0.7,0-0.8
		c0-0.3,0-0.7,0-1s0-0.7,0-1s0-0.8,0-1c0-0.3,0-0.7,0-1s0-0.7,0-1s0-0.7,0-1c0-0.3,0-0.7-0.2-1c0-0.3,0-0.7,0-1s0-0.7-0.2-1
		c0-0.3-0.2-0.7-0.2-1s-0.2-0.7-0.2-1c0-0.3-0.2-0.7-0.2-1s-0.2-0.7-0.2-1c-0.2-0.3-0.2-0.8-0.3-1c0-0.3-0.2-0.5-0.2-0.8
		c-0.2-0.3-0.2-0.7-0.3-0.8c0-0.2-0.2-0.5-0.2-0.8c-0.2-0.3-0.2-0.7-0.3-1c0-0.3-0.2-0.7-0.3-1c-0.2-0.3-0.2-0.7-0.3-1
		c-0.2-0.3-0.2-0.7-0.3-0.8c-0.2-0.2-0.2-0.5-0.3-0.8c-0.2-0.3-0.2-0.7-0.3-0.8c-0.2-0.3-0.2-0.7-0.3-1c-0.2-0.3-0.3-0.7-0.5-1
		s-0.3-0.5-0.3-0.7c-0.2-0.2-0.2-0.5-0.3-0.7c-0.2-0.3-0.2-0.5-0.3-0.7c-0.2-0.2-0.3-0.5-0.5-0.8c-0.2-0.3-0.3-0.5-0.5-0.8
		c-0.2-0.2-0.3-0.5-0.5-0.8s-0.3-0.5-0.5-0.8c-0.2-0.2-0.3-0.5-0.5-0.7c-0.2-0.3-0.3-0.5-0.5-0.7c-0.2-0.2-0.3-0.3-0.5-0.7
		c-0.2-0.2-0.3-0.5-0.5-0.7c-0.2-0.2-0.3-0.5-0.7-0.7c-0.2-0.2-0.3-0.5-0.7-0.7c-0.2-0.2-0.3-0.5-0.7-0.7c-0.2-0.2-0.3-0.3-0.7-0.7
		c-0.3-0.2-0.5-0.5-0.7-0.7c-0.2-0.2-0.5-0.3-0.7-0.5c-0.3-0.2-0.5-0.3-0.7-0.5c-0.2-0.2-0.3-0.3-0.5-0.5c-0.2-0.2-0.3-0.3-0.5-0.5
		c-0.2-0.2-0.3-0.3-0.5-0.5c-0.2-0.2-0.3-0.3-0.5-0.5c-0.2-0.2-0.3-0.3-0.5-0.5c-0.2-0.2-0.3-0.3-0.7-0.5c-0.2-0.2-0.5-0.3-0.7-0.5
		c-0.3-0.2-0.5-0.3-0.8-0.5c-0.3-0.2-0.5-0.3-0.7-0.3c-0.2-0.2-0.5-0.2-0.7-0.3c-0.2-0.2-0.5-0.2-0.7-0.3c-0.2-0.2-0.5-0.2-0.7-0.3
		c-0.2-0.2-0.5-0.2-0.8-0.3c-0.3-0.2-0.7-0.2-0.8-0.3c-0.2,0-0.5-0.2-0.7-0.3c-0.3-0.2-0.5-0.2-0.8-0.3c-0.3-0.2-0.5-0.2-0.7-0.2
		c-0.2,0-0.5-0.2-0.8-0.3c-0.3-0.2-0.5-0.2-0.8-0.3c-0.2,0-0.5-0.2-0.8-0.3c-0.3-0.2-0.7-0.2-1-0.2c-0.3,0-0.5-0.2-0.8-0.2
		s-0.7-0.2-1-0.2c-0.3,0-0.7-0.2-1-0.2c-0.3,0-0.7,0-1-0.2c-0.3,0-0.7,0-1,0c-0.3,0-0.5,0-0.8,0s-0.5,0-0.8,0c-0.3,0-0.5,0-0.8,0
		s-0.5,0-0.8,0s-0.5,0-0.8,0c-0.3,0-0.7,0-0.8,0c-0.3,0-0.5,0-0.8,0s-0.5,0-0.8,0s-0.7,0-0.8,0c-0.3,0-0.5,0-0.8,0l0,0
		c-0.3,0-0.7,0-1,0c-0.7,0-1.2,0.2-1.7,0.2c-0.3,0-0.7,0-0.8,0.2c-0.2,0-0.5,0-1,0.2c-0.3,0-0.7,0.2-0.8,0.2s-0.5,0.2-1,0.2
		c-0.5,0.2-0.8,0.2-1,0.3c-0.2,0-0.5,0.2-0.8,0.2c-0.3,0.2-0.7,0.2-0.8,0.3c-0.2,0-0.5,0.2-0.8,0.2c-0.3,0.2-0.7,0.2-1,0.3
		c-0.3,0.2-0.7,0.2-1,0.3c-0.3,0.2-0.7,0.2-0.8,0.3c-0.3,0.2-0.7,0.2-1,0.3c-0.3,0.2-0.7,0.2-0.8,0.3c-0.3,0.2-0.7,0.2-0.8,0.3
		c-0.3,0.2-0.7,0.2-0.8,0.3c-0.2,0-0.7,0.2-1,0.3c-0.7,0.2-1.3,0.5-1.9,0.8c-0.5,0.2-0.8,0.5-1.2,0.7c-0.3,0.2-0.7,0.5-0.8,0.7
		c-0.3,0.2-0.5,0.3-0.8,0.7c-0.3,0.2-0.5,0.3-0.8,0.7c-0.3,0.2-0.5,0.5-0.8,0.7c-0.3,0.2-0.5,0.5-0.7,0.7c-0.2,0.2-0.5,0.5-0.8,0.7
		c-0.2,0.2-0.5,0.5-0.8,0.7s-0.5,0.5-0.7,0.8c-0.2,0.2-0.5,0.5-0.8,0.8c-0.5,0.5-1,1.2-1.3,1.9c-0.3,0.3-0.5,0.7-0.7,0.8
		c-0.3,0.5-0.8,1.2-1.3,1.9c-0.2,0.3-0.5,0.7-0.7,1c-0.2,0.3-0.5,0.8-0.7,1.2c-0.2,0.3-0.3,0.7-0.5,1s-0.3,0.7-0.5,1
		c-0.3,0.5-0.7,1.2-1,1.9c-0.2,0.3-0.3,0.7-0.5,1c-0.3,0.7-0.5,1.2-0.8,1.9c-0.2,0.2-0.3,0.5-0.3,1c-0.2,0.5-0.3,1.2-0.5,1.7
		c-0.2,0.5-0.2,0.8-0.2,1c-0.2,0.7-0.3,1.2-0.3,1.9c0,0.2-0.2,0.5-0.2,0.8c-0.2,0.5-0.2,1-0.3,1.7c0,0.3-0.2,0.8-0.2,1.2
		c0,0.7,0,1.3,0,2c0,0.3,0,0.7,0,1c0,0.7,0,1.3,0,2c0,0.3,0,0.7,0,1c0,0.7,0,1.3,0,1.9c0,0.3,0,0.7,0,1c0,0.7,0,1.2,0.2,1.9
		c0,0.3,0,0.7,0,1.2c0,0.7,0.2,1.2,0.2,1.9c0,0.3,0.2,0.7,0.2,0.8c0.2,0.7,0.3,1.2,0.3,1.9c0,0.2,0,0.5,0.2,1
		c0.2,0.7,0.3,1.3,0.3,1.9c0.2,0.3,0.2,0.7,0.2,1c0.2,0.5,0.3,1.2,0.5,1.7c0.2,0.3,0.2,0.7,0.3,1c0.2,0.5,0.3,1,0.5,1.3
		c0.2,0.2,0.2,0.3,0.2,0.7c0.2,0.5,0.3,1,0.5,1.5c0,0.2,0.2,0.7,0.3,1c0.2,0.5,0.5,1,0.7,1.3c0.2,0.3,0.3,0.5,0.3,0.7
		c0.2,0.3,0.3,0.7,0.7,1.2c0.2,0.2,0.3,0.5,0.5,0.7c0.3,0.5,0.7,0.8,0.8,1.2c0,0.2,0.2,0.3,0.3,0.5c0.2,0.2,0.5,0.7,0.8,1.2
		c0.5,0.5,0.8,0.7,0.8,0.7c0.3,0.2,0.7,0.5,0.8,0.7c0,0,0.2,0.2,0.3,0.3c0.3,0.3,0.7,0.5,1,0.8c0.2,0.2,0.2,0.2,0.3,0.3
		c0.3,0.3,0.5,0.5,0.8,0.8c0,0,0.2,0.2,0.5,0.5c0.3,0.3,0.7,0.7,1,0.8c0.3,0.2,0.7,0.5,0.7,0.5c0.3,0.2,0.7,0.3,0.8,0.5
		c0.2,0.2,0.5,0.3,0.8,0.5c0.2,0.2,0.3,0.2,0.3,0.2c0.2,0,0.2,0.2,0.2,0.2c0.2,0.2,0.3,0.3,0.5,0.5c0,0,0.2,0.2,0.5,0.3
		c0.2,0.2,0.3,0.2,0.3,0.2s0,0,0.2,0.2c0,0,0.2,0.2,0.3,0.3l0,0c0.2,0.2,0.5,0.3,0.7,0.5l0,0l0,0c0.3,0.2,0.5,0.2,0.5,0.2
		c1.5,0.7,3.2-0.2,3.9-1.7c0.7-1.5-0.2-3.4-1.7-3.9c-0.3-0.2-0.2,0,0,0c-0.2,0-0.2-0.2-0.3-0.2c-0.2-0.2-0.3-0.2-0.5-0.3
		c-0.3-0.2-0.7-0.3-0.7-0.3c-0.2-0.2-0.3-0.3-0.5-0.3c-0.2-0.2-0.3-0.2-0.5-0.3c-0.2-0.2-0.3-0.2-0.5-0.2c-0.2-0.2-0.5-0.3-0.8-0.5
		c-0.3-0.2-0.5-0.3-0.7-0.5c-0.2,0-0.2,0-0.2,0c-0.2-0.2-0.3-0.3-0.7-0.5c0,0.2,0,0-0.3-0.3s-0.7-0.7-1-1c-0.2-0.2-0.5-0.5-0.7-0.7
		c-0.3-0.3-0.7-0.5-1-0.8c0,0-0.2-0.2-0.5-0.5c-0.3-0.3-0.7-0.5-1-0.7c0,0,0,0-0.2,0c0-0.2-0.2-0.3-0.3-0.5c0-0.2-0.2-0.3-0.3-0.5
		c-0.3-0.3-0.7-0.8-0.8-1.2c-0.2-0.2-0.2-0.3-0.3-0.5c-0.2-0.3-0.3-0.7-0.7-1c-0.2-0.3-0.2-0.3-0.3-0.3c-0.2-0.3-0.3-0.7-0.5-1
		c0,0,0-0.2-0.2-0.5c-0.2-0.5-0.3-1-0.5-1.5c-0.2-0.3-0.2-0.7-0.3-0.8c-0.2-0.5-0.3-1-0.5-1.3c-0.2-0.2-0.2-0.5-0.2-0.7
		c-0.2-0.5-0.3-1-0.5-1.7c-0.2-0.3-0.2-0.5-0.2-0.7c-0.2-0.5-0.3-1.2-0.3-1.7c0-0.2-0.2-0.5-0.2-1c-0.2-0.7-0.3-1.3-0.3-1.9
		c0-0.3-0.2-0.5-0.2-0.7c0-0.5-0.2-1-0.2-1.5c0-0.2,0-0.5,0-0.8c0-0.7,0-1.2-0.2-1.9c0-0.3,0-0.7,0-0.8c0-0.7,0-1.2,0-1.9
		c0-0.3,0-0.5,0-0.8c0-0.7,0-1.3,0-2c0-0.3,0-0.7,0-0.8c0-0.7,0-1.2,0-1.9c0-0.2,0-0.3,0-0.7c0.2-0.5,0.2-1,0.3-1.5
		c0-0.2,0.2-0.5,0.2-0.8c0.2-0.7,0.3-1.2,0.5-1.9c0.2-0.3,0.2-0.7,0.2-0.8c0.2-0.5,0.3-1,0.5-1.5c0-0.2,0.2-0.3,0.2-0.7
		c0.2-0.5,0.5-1.2,0.8-1.7c0.2-0.3,0.3-0.7,0.3-0.8c0.3-0.5,0.5-1.2,0.8-1.7c0.2-0.3,0.3-0.5,0.5-0.8c0.2-0.3,0.3-0.7,0.5-1
		c0.2-0.3,0.3-0.7,0.5-1c0.2-0.3,0.3-0.5,0.5-0.8c0.3-0.5,0.8-1.2,1.2-1.7c0.2-0.3,0.3-0.5,0.5-0.8c0.5-0.5,0.8-1.2,1.3-1.7
		c0.2-0.2,0.3-0.3,0.5-0.7c0.2-0.2,0.3-0.3,0.7-0.7c0.2-0.2,0.3-0.3,0.7-0.5c0.2-0.2,0.5-0.3,0.7-0.7c0.3-0.2,0.5-0.3,0.7-0.5
		c0.2-0.2,0.5-0.3,0.7-0.5s0.5-0.3,0.7-0.5c0.3-0.2,0.5-0.3,0.8-0.7c0.3-0.2,0.5-0.5,0.8-0.5c0.3-0.2,0.5-0.3,0.5-0.3
		c0.5-0.2,1-0.5,1.5-0.7c0.2,0,0.3-0.2,0.8-0.2c0.3-0.2,0.7-0.2,0.8-0.3c0.3-0.2,0.7-0.2,0.8-0.3c0.3-0.2,0.7-0.2,0.8-0.3
		c0.3-0.2,0.7-0.2,1-0.3s0.7-0.2,1-0.3c0.3-0.2,0.7-0.2,1-0.3c0.3-0.2,0.5-0.2,0.8-0.2c0.2,0,0.5-0.2,0.8-0.2
		c0.3-0.2,0.7-0.2,0.8-0.2s0.5-0.2,0.8-0.2c0.3-0.2,0.7-0.2,0.8-0.2s0.3,0,0.8-0.2c0.3,0,0.5-0.2,0.7-0.2s0.5,0,0.7,0
		c0.3,0,0.5,0,0.8,0c0.5,0,1.2-0.2,1.7-0.2c0.2,0,0.3,0,0.7,0c0.2,0,0.5,0,0.8,0s0.7,0,0.8,0c0.3,0,0.7,0,0.8,0c0.3,0,0.5,0,0.8,0
		s0.7,0,0.8,0c0.3,0,0.5,0,0.8,0s0.7,0,0.8,0c0.3,0,0.5,0,0.8,0s0.5,0,0.8,0s0.5,0,0.8,0s0.5,0,0.8,0s0.5,0,0.7,0
		c0.3,0,0.5,0,0.7,0.2c0.2,0,0.5,0.2,0.8,0.2s0.5,0.2,0.8,0.2s0.5,0.2,0.7,0.2c0.2,0,0.3,0.2,0.7,0.2c0.3,0.2,0.5,0.2,0.7,0.3
		c0.2,0,0.5,0.2,0.8,0.3c0.3,0.2,0.5,0.2,0.8,0.3c0.3,0.2,0.5,0.2,0.7,0.3c0.2,0,0.5,0.2,0.7,0.3c0.3,0.2,0.5,0.2,0.7,0.2
		c0.2,0,0.3,0.2,0.5,0.2c0.2,0.2,0.3,0.2,0.7,0.3c0.2,0.2,0.3,0.2,0.7,0.3c0.2,0.2,0.5,0.2,0.7,0.3c0.2,0.2,0.3,0.2,0.5,0.3
		c0.2,0.2,0.3,0.2,0.5,0.3c0.2,0,0.2,0.2,0.5,0.3c0.2,0.2,0.3,0.3,0.5,0.3c0.2,0.2,0.3,0.3,0.5,0.5c0.2,0.2,0.5,0.3,0.7,0.5
		c0.2,0.2,0.3,0.3,0.7,0.5c0.2,0.2,0.5,0.3,0.7,0.5c0.2,0.2,0.3,0.3,0.7,0.5c0.3,0.2,0.5,0.3,0.5,0.3c0.2,0.2,0.3,0.3,0.5,0.5
		s0.3,0.3,0.5,0.3c0.2,0.2,0.2,0.2,0.5,0.5c0.2,0.2,0.3,0.3,0.5,0.5c0.2,0.2,0.3,0.3,0.5,0.7c0.2,0.2,0.3,0.3,0.5,0.7
		c0.2,0.2,0.3,0.3,0.5,0.5c0.2,0.2,0.3,0.3,0.5,0.5c0.2,0.2,0.3,0.3,0.5,0.5c0.2,0.2,0.3,0.3,0.5,0.5c0.2,0.2,0.3,0.3,0.3,0.5
		c0.2,0.2,0.2,0.3,0.5,0.7c0.2,0.3,0.3,0.5,0.3,0.7c0.2,0.2,0.2,0.3,0.3,0.7c0.2,0.3,0.2,0.5,0.3,0.7c0.2,0.2,0.2,0.5,0.3,0.7
		c0.2,0.3,0.3,0.5,0.3,0.7c0.2,0.2,0.2,0.5,0.3,0.7c0.2,0.2,0.2,0.3,0.3,0.7c0.2,0.3,0.2,0.5,0.3,0.8c0.2,0.2,0.2,0.5,0.3,0.8
		s0.2,0.7,0.3,0.8c0.2,0.3,0.2,0.5,0.3,0.7c0,0.2,0.2,0.5,0.3,0.8c0.2,0.3,0.2,0.7,0.3,1c0,0.3,0.2,0.7,0.3,1
		c0.2,0.3,0.2,0.7,0.3,0.8c0,0.2,0.2,0.5,0.2,0.8c0.2,0.3,0.2,0.7,0.2,0.8c0,0.3,0.2,0.5,0.2,0.8s0.2,0.7,0.2,1
		c0,0.3,0.2,0.5,0.2,0.8c0,0.3,0,0.5,0.2,0.8c0,0.3,0,0.5,0.2,0.8c0,0.3,0,0.5,0,1c0,0.3,0,0.7,0.2,1c0,0.3,0,0.7,0,1s0,0.7,0,0.8
		c0,0.3,0,0.5,0,0.8s0,0.7,0,1s0,0.7,0,1c0,0.3,0,0.7,0,1s0,0.5,0,0.8c0,0.3,0,0.5,0,0.7c0,0.2,0,0.5-0.2,0.8c0,0.3,0,0.7-0.2,1
		c0,0.3-0.2,0.5-0.2,1c0,0.3-0.2,0.7-0.2,0.8c0,0.2-0.2,0.5-0.2,0.8c-0.2,0.3-0.2,0.7-0.3,1c-0.2,0.3-0.2,0.7-0.3,1
		c-0.2,0.3-0.2,0.7-0.3,0.8c-0.2,0.3-0.2,0.5-0.3,0.8c-0.2,0.3-0.3,0.7-0.3,1c-0.2,0.3-0.3,0.7-0.5,1s-0.3,0.7-0.3,1
		c-0.2,0.3-0.3,0.7-0.5,1c-0.2,0.3-0.3,0.7-0.3,0.8c-0.2,0.2-0.3,0.5-0.5,0.8c-0.2,0.3-0.3,0.7-0.5,1s-0.3,0.7-0.5,1s-0.3,0.7-0.5,1
		c-0.2,0.3-0.3,0.5-0.5,0.8s-0.3,0.5-0.5,0.8s-0.3,0.5-0.5,0.7c-0.2,0.2-0.3,0.5-0.7,0.8c-0.2,0.3-0.3,0.5-0.7,0.8
		c-0.2,0.3-0.5,0.5-0.7,0.8c-0.2,0.3-0.3,0.5-0.5,0.7c-0.2,0.2-0.3,0.3-0.5,0.5c-0.2,0.2-0.3,0.2-0.5,0.3c-0.2,0.2-0.3,0.2-0.5,0.3
		c-0.2,0.2-0.5,0.3-0.7,0.5c-0.2,0.2-0.3,0.3-0.5,0.5c-0.2,0.2-0.3,0.3-0.7,0.5c-0.2,0.2-0.5,0.3-0.7,0.5c-0.2,0.2-0.5,0.3-0.7,0.5
		c-0.3,0.2-0.5,0.3-0.7,0.5c-0.2,0.2-0.3,0.3-0.5,0.3c-0.2,0.2-0.3,0.3-0.5,0.3c-0.3,0-0.7,0.2-1,0.3l0,0c0.2,0,0,0-0.2,0
		c-1.5,0.7-2,2.5-1.3,4C239.2,435.6,239.5,435.3,241.2,434.5C240.9,434.6,240.9,434.6,241.2,434.5z"/>
	<path fill="#666766" d="M271.9,387.2c0-0.7,0-1.2-0.2-1.9c0-0.5,0-1.2-0.2-1.7c0-0.5,0-1.2-0.2-1.7c0-0.5-0.2-1.2-0.2-1.9
		c-0.2-0.7-0.3-1.2-0.5-1.7c-0.2-0.5-0.3-1.2-0.5-1.7s-0.3-1-0.7-1.5c-0.2-0.5-0.3-1-0.7-1.5c-0.2-0.5-0.5-1-0.8-1.5
		c-0.3-0.5-0.7-1-0.8-1.5c-0.3-0.5-0.7-1-1-1.5c-0.3-0.5-0.7-1-1-1.3c-0.3-0.5-0.7-1-1-1.5c-0.3-0.5-0.7-1-1.2-1.5
		c-0.3-0.5-0.8-1-1.3-1.5c-0.5-0.5-1-1-1.3-1.3c-0.5-0.3-0.8-0.8-1.3-1.2c-0.3-0.3-0.8-0.8-1.3-1.3c-0.5-0.5-1-0.8-1.5-1.3
		c-0.5-0.5-1.2-0.8-1.9-1.2c-0.7-0.3-1.2-0.8-1.9-1.2c-0.5-0.3-1.2-0.7-1.7-1s-1-0.7-1.7-1c-0.5-0.3-1.3-0.7-1.9-1
		c-0.7-0.3-1.3-0.7-2-1c-0.7-0.3-1.3-0.7-2-0.8c-0.7-0.3-1.3-0.5-2-0.8c-0.7-0.3-1.3-0.5-2-0.8c-0.7-0.2-1.3-0.5-2-0.8
		s-1.5-0.5-2.2-0.8c-0.7-0.2-1.3-0.5-2.2-0.7c-0.7-0.2-1.5-0.5-2.4-0.7c-0.8-0.2-1.5-0.3-2.2-0.5c-0.7-0.2-1.5-0.3-2.4-0.3
		c-0.7-0.2-1.5-0.2-2.2-0.3c-0.7,0-1.5-0.2-2.4-0.2s-1.5,0-2.2,0c-0.7,0-1.3,0-2,0c-0.7,0-1.3,0-2,0c-0.7,0-1.5,0-2.2,0.2
		c-0.7,0-1.5,0.2-2.4,0.3s-1.7,0.3-2.5,0.5c-0.8,0.2-1.7,0.5-2.4,0.8c-0.8,0.3-1.7,0.7-2.5,1c-0.8,0.3-1.7,0.7-2.4,1.2
		c-0.8,0.3-1.7,0.8-2.5,1.2c-0.8,0.5-1.7,1-2.7,1.5c-0.8,0.5-1.7,1.2-2.4,1.7c-0.8,0.7-1.7,1.2-2.4,1.9c-0.7,0.7-1.5,1.2-2.2,1.9
		c-0.7,0.5-1.5,1.2-2,1.9c-0.7,0.7-1.3,1.2-2,1.9c-0.7,0.7-1.2,1.3-1.9,2c-0.7,0.7-1.3,1.5-1.9,2.4c-0.7,0.8-1.2,1.7-1.7,2.5
		s-1,1.9-1.3,2.7c-0.5,0.8-0.8,1.7-1.2,2.5c-0.5,0.8-0.8,1.7-1.3,2.5c-0.5,0.8-1,1.9-1.3,2.7c-0.5,0.8-0.8,1.9-1.2,2.9
		c-0.3,1-0.7,2-1,3c-0.2,1-0.5,2-0.7,2.9s-0.3,1.9-0.3,2.9c-0.2,1-0.2,1.7-0.2,2.7c0,0.8,0,1.9,0,2.7c0,0.8,0,1.9,0,2.7
		c0,1,0,1.9,0,2.9c0,0.8,0,1.9,0.2,2.7c0,0.8,0.2,1.9,0.3,2.5c0.2,0.8,0.3,1.7,0.3,2.4c0.2,0.7,0.3,1.5,0.5,2.4
		c0.2,0.8,0.3,1.7,0.5,2.5s0.3,1.5,0.7,2.4c0.2,0.8,0.5,1.7,0.8,2.4c0.3,0.7,0.7,1.3,1,2c0.3,0.7,0.7,1.3,1,1.9
		c0.3,0.5,0.7,1.2,1,1.7s0.5,1,0.8,1.7c0.3,0.5,0.7,1,1,1.7c0.3,0.5,0.7,1,1.2,1.7c0.5,0.5,0.8,1,1.2,1.5s0.8,1,1.2,1.3
		c0.3,0.5,0.8,0.8,1.2,1.3c0.3,0.5,0.8,1,1.2,1.3c0.3,0.5,0.8,0.8,1.2,1.3c0.5,0.5,0.8,0.8,1.3,1.2s1,0.8,1.3,1
		c0.5,0.3,0.8,0.7,1.3,1c0.3,0.3,0.8,0.7,1,0.8c0.2,0.2,0.5,0.5,1,0.7c0.3,0.3,0.8,0.5,1.2,0.5c0.2,0,0.3,0.2,0.5,0.2
		c0.2,0,0.2,0.2,0.3,0.2l0,0l0,0c0,0,0,0,0.2,0.2c1.3,1,3.2,0.5,4.2-0.8c1-1.3,0.5-3.2-0.8-4.2c0.2,0.2-0.2-0.2-0.7-0.5l0,0
		c-0.3-0.2-0.8-0.3-1.2-0.3c-0.2,0-0.2,0-0.3,0c-0.3,0-0.5,0-0.8,0c-0.2,0-0.3-0.2-0.5-0.3c-0.3-0.2-0.7-0.3-1.2-0.7
		c-0.5-0.2-0.8-0.5-1.3-0.8c-0.5-0.3-0.8-0.5-1.2-0.8s-0.8-0.7-1.2-0.8c-0.3-0.3-0.7-0.7-1.2-1c-0.3-0.3-0.8-0.8-1.2-1.3
		c-0.5-0.5-0.8-0.8-1.2-1.3c-0.3-0.5-0.8-0.8-1.2-1.3c-0.3-0.5-0.8-0.8-1.2-1.2c-0.3-0.5-0.7-0.8-1-1.3s-0.5-0.8-0.8-1.3
		c-0.3-0.5-0.5-1-0.8-1.5c-0.3-0.5-0.7-1.2-1-1.7c-0.3-0.7-0.7-1.2-1-1.7s-0.7-1.2-0.8-1.7c-0.3-0.7-0.5-1.3-0.8-1.9
		c-0.2-0.7-0.3-1.3-0.7-2c-0.2-0.7-0.3-1.5-0.5-2.4c-0.2-0.8-0.3-1.5-0.5-2.2c-0.2-0.8-0.3-1.5-0.5-2.4s-0.3-1.5-0.3-2.4
		c-0.2-0.8-0.2-1.5-0.2-2.5c0-0.8,0-1.7-0.2-2.7c0-0.8,0-1.9,0-2.7s0-1.9,0-2.5c0-0.8,0-1.5,0.2-2.4s0.2-1.7,0.3-2.5
		s0.3-1.9,0.5-2.7c0.2-1,0.5-1.9,0.7-2.7c0.3-0.8,0.7-1.7,1-2.7c0.3-0.8,0.8-1.7,1.3-2.5c0.5-0.8,0.8-1.7,1.3-2.5
		c0.5-0.8,0.8-1.7,1.3-2.5c0.5-0.8,0.8-1.7,1.3-2.4c0.5-0.8,1-1.5,1.5-2.2s1.2-1.5,1.7-2.2c0.5-0.7,1.2-1.2,1.7-1.9
		c0.7-0.7,1.2-1.2,1.9-1.7c0.7-0.5,1.3-1.2,2-1.7c0.7-0.7,1.3-1.2,2.2-1.9c0.7-0.7,1.5-1.2,2.2-1.9c0.7-0.5,1.5-1.2,2.2-1.5
		c0.7-0.5,1.5-0.8,2.4-1.3c0.8-0.3,1.5-0.8,2.4-1.2c0.8-0.3,1.5-0.7,2.4-1c0.8-0.3,1.5-0.7,2.4-0.8c0.8-0.3,1.3-0.5,2.2-0.7
		c0.7-0.2,1.5-0.3,2.2-0.3c0.7-0.2,1.3-0.2,2-0.2c0.7,0,1.3,0,2,0s1.3,0,2,0s1.3,0,2,0s1.3,0,2.2,0c0.7,0,1.5,0,2.2,0.2
		c0.7,0,1.3,0.2,2,0.2c0.7,0.2,1.3,0.2,2.2,0.3c0.7,0.2,1.3,0.3,2,0.5c0.7,0.2,1.5,0.3,2.2,0.7c0.7,0.2,1.3,0.3,2,0.7
		c0.7,0.2,1.3,0.5,2,0.7c0.7,0.3,1.3,0.5,2,0.8s1.3,0.5,2,0.8c0.7,0.3,1.3,0.5,1.9,0.8c0.7,0.3,1.3,0.5,1.9,0.8
		c0.7,0.3,1.2,0.7,1.9,1c0.5,0.3,1.2,0.7,1.7,1c0.5,0.3,0.8,0.7,1.5,1c0.5,0.3,1.2,0.7,1.7,1c0.5,0.3,1.2,0.7,1.7,1.2
		c0.5,0.3,1.2,0.7,1.5,1c0.5,0.3,0.8,0.7,1.2,1.2c0.3,0.3,0.8,0.8,1.2,1.3c0.5,0.5,0.8,0.8,1.3,1.3s1,0.8,1.3,1.2s0.7,0.8,1,1.2
		c0.3,0.3,0.7,0.8,1,1.3c0.3,0.5,0.5,0.8,0.8,1.3s0.7,0.8,0.8,1.3c0.3,0.5,0.7,1,0.8,1.3c0.3,0.5,0.5,0.8,0.8,1.3
		c0.2,0.5,0.5,0.8,0.7,1.3c0.2,0.3,0.3,0.8,0.5,1.3c0.2,0.5,0.3,0.8,0.5,1.3s0.3,1,0.5,1.5c0.2,0.5,0.3,0.8,0.3,1.3
		c0.2,0.5,0.2,0.8,0.2,1.3c0,0.5,0.2,1,0.2,1.5c0,0.5,0,1,0.2,1.7c0,0.5,0.2,1.2,0.2,1.7c0,0.5,0,1.2,0.2,1.7c0,0.7,0,1.2,0,1.9
		c0,0.7,0,1.2,0,2c0,0.7,0,1.3,0,2.2c0,0.7,0,1.5,0,2.2s0,1.3-0.2,2.2c0,0.7-0.2,1.3-0.2,2c-0.2,0.7-0.3,1.3-0.3,2
		c-0.2,0.7-0.3,1.3-0.5,2s-0.3,1.3-0.5,2c-0.2,0.7-0.5,1.3-0.7,2c-0.2,0.7-0.5,1.3-0.7,2c-0.2,0.7-0.5,1.3-0.8,2
		c-0.3,0.7-0.5,1.2-0.8,1.9c-0.3,0.7-0.5,1.3-0.7,1.9c-0.2,0.7-0.5,1.2-0.7,1.7c-0.2,0.7-0.5,1-0.7,1.5c-0.3,0.5-0.5,1-0.8,1.5
		c-0.3,0.5-0.7,1-1,1.5s-0.8,1-1.2,1.5c-0.5,0.5-0.8,0.8-1.3,1.3c-0.5,0.5-0.8,1-1.3,1.3c-0.5,0.5-1,0.8-1.5,1.3
		c-0.5,0.3-1,0.8-1.5,1.2c-0.5,0.3-1.2,0.8-1.7,1.2c-0.5,0.3-1,0.7-1.3,0.8c-0.5,0.3-0.8,0.5-1.3,0.8c-0.3,0.2-0.8,0.5-1.3,0.7
		c-0.5,0.2-0.8,0.5-1.2,0.7s-0.5,0.3-0.7,0.3c-0.3,0-0.7-0.2-1,0c-1.7,0.2-2.7,1.7-2.5,3.4c0,0,0,0.2,0,0.5l0,0
		c0.2,0.7,0.5,1.2,0.8,1.5c0.2,0.2,0.2,0.2,0.3,0.3l0,0c0.7,0.5,1.5,0.7,2.4,0.5l0,0l0,0l0,0c0.8-0.2,1.5-0.7,1.9-1.3
		c0.2-0.2,0.3-0.3,0.5-0.5c0.2-0.2,0.5-0.3,0.7-0.7c0.3-0.2,0.7-0.5,1-0.8c0.3-0.2,0.8-0.5,1.2-0.8c0.5-0.3,1-0.7,1.3-1
		c0.5-0.3,0.8-0.7,1.3-1c0.5-0.3,1.2-0.8,1.7-1.2c0.5-0.3,1.2-0.8,1.7-1.3s1.2-1,1.7-1.5s1-1,1.5-1.5c0.5-0.5,0.8-0.8,1.3-1.5
		c0.5-0.5,1-1.2,1.5-1.7c0.5-0.5,0.8-1.2,1.3-1.9c0.3-0.7,0.8-1.3,1-2c0.3-0.7,0.5-1.3,0.7-1.9c0.2-0.7,0.5-1.2,0.7-1.9
		c0.2-0.7,0.5-1.2,0.7-1.9c0.2-0.7,0.5-1.2,0.7-1.9c0.2-0.7,0.5-1.3,0.8-2s0.5-1.3,0.7-2c0.2-0.7,0.5-1.3,0.7-2.2
		c0.2-0.7,0.3-1.5,0.5-2.2c0.2-0.7,0.3-1.3,0.5-2c0.2-0.7,0.3-1.5,0.5-2.2c0.2-0.7,0.2-1.5,0.3-2.4c0-0.8,0.2-1.5,0.2-2.4
		s0-1.5,0-2.2s0-1.5,0-2.2c0-0.7,0-1.3,0-2s0-1.3,0-2C272.1,388.4,272.1,387.9,271.9,387.2z M194,440.7L194,440.7
		C193.8,440.7,193.8,440.7,194,440.7C193.8,440.7,193.8,440.7,194,440.7z"/>
	<path fill="#666766" d="M441.3,429.9c0-0.2,0-0.2,0-0.3s0-0.2,0-0.3c0-0.2,0-0.2,0-0.3c0-0.2,0-0.2,0-0.2c0-0.2,0-0.2,0-0.3
		s0-0.2,0-0.2c0-0.2,0-0.2,0-0.3c0,0,0-0.2,0-0.3c0-0.2,0-0.3-0.2-0.5c0-0.2,0-0.3-0.2-0.5c0-0.2,0-0.3,0-0.3c0-0.2,0-0.3,0-0.5
		c0-0.2,0-0.3,0-0.5c0-0.2,0-0.3,0-0.7c0-0.2,0-0.3,0-0.5c0-0.2,0-0.3,0-0.5c0-0.2,0-0.3,0-0.5c0-0.2,0-0.2,0-0.5c0-0.2,0-0.3,0-0.5
		c0-0.2,0-0.3,0-0.5c0-0.2,0-0.3,0-0.5c0-0.2,0-0.3,0-0.5c0-0.2,0-0.3,0-0.7c0-0.2,0-0.5,0-0.7s0-0.5,0-0.7c0-0.2,0-0.5,0-0.8
		c0-0.3,0-0.5,0-0.8s0-0.5,0-0.8s0-0.7,0-0.8c0-0.3,0-0.5,0-0.8c0-0.2,0-0.5,0-0.8c0-0.3,0-0.5,0-0.7c0-0.2,0-0.3,0-0.5
		c0-0.2,0-0.5,0-0.7c0-0.2,0-0.3,0-0.7s0-0.5,0-0.8s0-0.7,0-0.8c0-0.3,0-0.5,0-0.8c0-0.2,0-0.5,0-0.7s0-0.5,0-0.7c0-0.3,0-0.5,0-0.8
		c0-0.3,0-0.7,0-1s0-0.7,0-1.2c0-0.3,0-0.7,0-1s0-0.7,0-1c0-0.3,0-0.7,0-1s0-0.7,0-1.2c0-0.3,0-0.8,0-1.2s0-0.8,0-1.2s0-0.7,0-1
		s0-0.7,0-1c0-0.3,0-0.7,0-1s0-0.7,0-1s0-0.7,0-0.8c0-0.3,0-0.7,0-1s0-0.7,0-1s0-0.7,0-1s0-0.5,0-0.8s0-0.5,0-0.8s0-0.5,0-0.8
		c0-0.3,0-0.7,0-0.8c0-0.3,0-0.5,0-0.8c0-0.3,0-0.5,0-0.8c0-0.2,0-0.5,0-0.7c0-0.2,0-0.5,0-0.7c0-0.2,0-0.5,0-0.7s0-0.5,0-0.7
		c0-0.2,0-0.5,0-0.8s0-0.5,0-0.8s0-0.7,0-0.8c0-0.3-0.2-0.5-0.2-0.7s0-0.3-0.2-0.7c0-0.2,0-0.3-0.2-0.5c0-0.2,0-0.3,0-0.5
		c0-0.2,0-0.3,0-0.5c0-0.2,0-0.3,0-0.5c0-0.2,0-0.5,0-0.7c0-0.2,0-0.3,0-0.5c0-0.2,0-0.3,0-0.5c0-0.2,0-0.3,0-0.7c0-0.2,0-0.3,0-0.7
		c0-0.2,0-0.5,0-0.7c0-0.2,0-0.5,0-0.7c0-0.2,0-0.5,0-0.7c0-0.2,0-0.5,0-0.7c0-0.3,0-0.5,0-0.7c0-0.2,0-0.3,0-0.7c0-0.2,0-0.3,0-0.5
		c0-0.2,0-0.2,0-0.5c0-0.2,0-0.3,0-0.7c0-0.2,0-0.5,0-0.7c0-0.2,0-0.5,0-0.8s0-0.5,0-0.5c0-0.2,0-0.2,0-0.3s0,0,0-0.2c0,0,0,0,0-0.2
		c0-0.2,0-0.2,0-0.3c0-0.2,0-0.3,0-0.3c0-0.2,0-0.3,0-0.5s0-0.3,0-0.5c0-0.2,0-0.3,0-0.5c0-0.2,0-0.3,0-0.5c0-0.2,0-0.3,0-0.5l0,0
		c0.2-0.5,0.2-0.8,0-1.3l0,0l0,0c0-0.2-0.2-0.3-0.2-0.7c0-0.2,0-0.2-0.2-0.3c-0.3-0.8-1-1.3-2-1.7l0,0l0,0l0,0c-0.3,0-0.7-0.2-1,0
		l0,0l0,0c0,0,0,0,0.2,0c0,0,0,0-0.2,0c-0.3-0.2-0.8-0.2-1.3,0c-0.3,0.2,0,0,0.3,0l0,0c-0.3,0-0.5,0.2-0.8,0.2H435l0,0
		c-0.2,0-0.5,0-0.7,0c-0.3,0-0.7,0-1,0s-0.7,0-1,0c-0.3,0-0.7,0-1.2,0c-0.3,0-0.7,0-1.2,0c-0.3,0-0.8,0-1.2,0c-0.5,0-0.8,0-1.2,0
		s-0.8,0-1.3,0c-0.5,0-0.8,0-1.3,0c-0.3,0-0.8,0-1.3,0s-1,0-1.3,0c-0.5,0-1,0-1.7-0.2c-0.5,0-1,0-1.7,0c-0.5,0-1.2,0-1.7,0
		s-1.2,0-1.7,0c-0.7,0-1.2,0-1.9,0c-0.7,0-1.3,0-2,0s-1.3,0-2,0s-1.3,0-2.2,0c-0.7,0-1.3,0-2.2,0c-0.7,0-1.3,0-2,0s-1.3,0-2,0
		s-1.3,0-2,0s-1.3,0-2,0l0,0c-0.7,0-1.3,0-2.2,0c-0.7,0-1.3,0-2,0s-1.3,0-2,0s-1.3,0-2,0c-0.7,0-1.3,0-2,0s-1.5,0-2.2,0
		c-0.8,0-1.3,0-2.2,0c-0.7,0-1.5,0-2.4,0c-0.7,0-1.5,0-2.2,0s-1.5,0-2.2,0c-0.7,0-1.3,0-2.2,0c-0.7,0-1.3,0-2,0s-1.5,0-2.2,0
		c-0.7,0-1.3,0-2.2,0c-0.7,0-1.5,0-2.2,0c-0.7,0-1.3,0-2,0c-0.7,0-1.3,0-2,0s-1.3,0-2,0s-1.3,0-2,0s-1.3,0-2,0s-1.3,0-1.9,0
		c-0.7,0-1.3,0-1.9,0c-0.7,0-1.2,0-1.9,0c-0.5,0-1.2,0-1.7,0c-0.5,0-1.2,0-1.7,0s-1,0-1.7,0c-0.5,0-1.2,0-1.5,0c-0.5,0-1,0-1.5,0
		c-0.5,0-1,0-1.5,0c-0.5,0-1,0-1.3-0.2c-0.3,0-0.5,0-0.8,0c-0.2,0-0.3,0-0.5,0l0,0l0,0c-0.5,0-0.8,0-1.2-0.2c-0.3,0-0.7,0-0.8-0.2
		c-0.2,0-0.2,0-0.3,0c0,0,0,0-0.2,0s-0.5-0.2-0.7-0.2c-0.5,0-1,0.2-1.5,0.3c-0.3,0-0.5,0-0.8,0.2c-1.5,0.5-2.4,2.2-2,3.7
		c0,0,0.2,0.3,0.2,0.7c0,0,0,0,0,0.2c-0.5,1-0.5,2.2,0.3,3.2l0.2,0.2c0,0.2,0,0.2,0.2,0.2c0,0.2,0,0.3,0,0.5c0,0.3,0.2,0.5,0.2,1
		c0,0.3,0,0.8,0.2,1.3c0,0.5,0,1,0.2,1.5c0,0.5,0,1.2,0,1.9s0,1.2,0,1.9c0,0.7,0,1.3,0,2s0,1.5,0,2.2c0,0.7,0,1.3,0,2.2s0,1.7,0,2.5
		c0,0.8,0,1.5,0,2.2c0,0.8,0,1.9,0,2.7s0,1.5,0,2.4s0,1.7,0,2.5s0,1.5,0.2,2.4c0,0.8,0,1.9,0.2,2.7c0,1,0,1.7,0,2.7
		c0,0.8,0,1.9,0,2.9c0,0.8,0,1.9,0,2.7c0,1,0,1.9,0,2.9c0,0.8,0,1.9,0,2.9c0,0.8,0,1.9,0,2.7c0,0.8,0,1.9-0.2,2.7
		c0,0.8,0,1.5-0.2,2.4c0,0.8-0.2,1.7-0.2,2.4c0,0.7-0.2,1.3-0.2,2c0,0.7-0.2,1.2-0.2,1.9c0,0.5-0.2,1-0.2,1.5c0,0.5-0.2,0.8-0.2,1.2
		v0.2c0,0.2,0,0.3-0.2,0.5c-0.2,0.3-0.2,0.7-0.2,1l0,0l0,0c0,0.3,0,0.7,0.2,1c-0.3,1.3,0.3,2.7,1.5,3.4l0,0c0.3,0.2,0.5,0.3,0.8,0.3
		c0.5,0.2,0.8,0,1.3,0c0.3,0,0.5,0,0.8-0.2c0.2,0,0.3,0,0.7,0c0,0,0,0,0.2,0c0.3,0,0.7,0,1-0.2c0.3,0,0.8,0,1.3,0s1,0,1.5,0
		c0.5,0,1.2,0,1.9,0s1.2,0,1.9-0.2c0.7,0,1.3,0,1.9,0c0.7,0,1.3,0,1.9,0c0.7,0,1.2,0,1.9,0c0.7,0,1.3,0,1.9,0c0.7,0,1.2,0,1.9,0
		c0.7,0,1.2,0,1.9,0c0.7,0,1.2,0,1.9,0c0.7,0,1.2,0,1.9,0c0.7,0,1.2,0,1.9,0s1.2,0,1.9,0c0.7,0,1.2,0,1.7,0c0.7,0,1.2,0,1.9,0
		c0.7,0,1.2,0,1.9,0c0.7,0,1.3,0,1.9,0c0.7,0,1.2,0,1.9,0c0.5,0,1.2,0,1.9,0s1.3,0,1.9,0c0.7,0,1.3,0,2,0s1.3,0,2,0s1.3,0,2,0
		s1.3,0,2,0s1.3,0,2,0s1.3,0,2,0s1.3,0,2,0s1.3,0,2,0s1.3,0,2,0s1.3,0,2,0c0.7,0,1.3,0,2,0s1.3,0,2,0s1.3,0,2,0c0.7,0,1.2,0,1.9,0
		c0.7,0,1.2,0,1.9,0c0.7,0,1.2,0,1.9,0c0.5,0,1.2,0,1.7,0c0.7,0,1.2,0,1.9,0c0.7,0,1.2,0,1.9,0c0.7,0,1.3,0,2,0s1.3,0,2,0s1.3,0,2,0
		s1.3,0,2,0s1.3,0,1.9,0c0.7,0,1.2,0,1.9,0c0.7,0,1.2,0,1.9,0s1.2,0,1.7,0s1.2,0,1.7,0s1,0,1.3,0c0.5,0,1,0,1.3,0s0.7,0,1,0.2
		c0.3,0,0.7,0.2,0.8,0.2s0.5,0.2,0.7,0.2s0.5,0.2,0.8,0.2c0.3,0,0.5,0.2,0.7,0.2c0.2,0,0.2,0,0.3,0.2h0.2h0.2l0,0c0,0,0,0,0.2,0
		c0.5,0.2,1,0.2,1.5,0c0.2,0,0.5-0.2,0.7-0.2s0.3-0.2,0.3-0.2l0,0c0,0,0,0-0.2,0.2c0,0,0.2,0,0.2-0.2c1,0.5,2.4,0.3,3.4-0.5
		C441.3,432.1,441.6,430.9,441.3,429.9L441.3,429.9z M328.8,363.9L328.8,363.9L328.8,363.9L328.8,363.9z M335.5,361.1
		c0.3,0,0.8,0,1.2-0.2c0.5,0,1,0,1.3-0.2c0.5,0,1,0,1.5,0c0.5,0,1,0,1.5,0c0.5,0,1,0,1.5,0c0.5,0,1,0,1.5,0c0.5,0,1.2,0,1.7,0
		s1.2,0,1.7,0c0.7,0,1.2,0,1.9,0c0.7,0,1.2,0,1.9,0s1.3,0,2,0s1.3,0,2,0s1.3,0,2,0c0.7,0,1.3,0,2,0s1.3,0,2,0s1.3,0,2,0s1.5,0,2.2,0
		c0.7,0,1.5,0,2.2,0s1.5,0,2.2,0c0.7,0,1.3,0,2,0s1.3,0,2.2,0c0.7,0,1.3,0,2.2,0c0.7,0,1.5,0,2.2,0s1.5,0,2.4,0s1.3,0,2.2,0
		c0.7,0,1.5,0,2.2,0c0.7,0,1.3,0,2,0.2c0.7,0,1.3,0,2,0s1.3,0,2.2,0c0.7,0,1.3,0,2,0c0.7,0,1.3,0,2.2,0c0.7,0,1.3,0,2,0s1.3,0,2,0
		s1.3,0,2,0s1.3,0,2,0s1.5,0,2.2,0c0.7,0,1.3,0,2.2,0c0.7,0,1.3,0,2,0c0.7,0,1.3,0,1.9,0c0.7,0,1.2,0,1.7,0.2c0.5,0,1.2,0.2,1.7,0.2
		c0.5,0,1.2,0.2,1.7,0.2s1,0,1.5,0.2c0.5,0,1,0.2,1.5,0.2s1,0.2,1.3,0.2c0.5,0,0.8,0.2,1.3,0.2s1,0,1.3,0.2c0.3,0,0.8,0.2,1.3,0.2
		c0.5,0,0.8,0,1.2,0.2c0.3,0,0.8,0,1.2,0.2c0.2,0,0.2,0,0.3,0c-0.2,0.2-0.5,0.3-0.7,0.7c-0.3,0.3-0.7,0.5-0.8,0.8
		c-0.3,0.3-0.7,0.7-0.8,0.8c-0.3,0.3-0.7,0.7-0.8,0.8c-0.3,0.3-0.7,0.5-0.8,0.8c-0.3,0.2-0.5,0.5-0.8,0.7s-0.7,0.5-1,0.8
		c-0.3,0.3-0.7,0.7-1,1c-0.3,0.3-0.7,0.7-1,1s-0.7,0.7-0.8,0.8c-0.3,0.3-0.7,0.5-1,0.8c-0.3,0.2-0.7,0.5-1,0.8c-0.3,0.3-0.7,0.7-1,1
		c-0.3,0.3-0.7,0.7-1,1c-0.3,0.3-0.7,0.7-1,1c-0.3,0.3-0.7,0.7-1,1c-0.3,0.3-0.7,0.7-1,1c-0.3,0.3-0.7,0.7-1,1c-0.3,0.3-0.7,0.7-1,1
		c-0.3,0.3-0.7,0.7-1,1c-0.3,0.3-0.7,0.7-1,1s-0.7,0.7-1.2,1c-0.3,0.3-0.7,0.7-1,1c-0.3,0.3-0.7,0.7-1,1c-0.3,0.3-0.7,0.7-1,1
		s-0.7,0.5-1,0.8c-0.3,0.3-0.7,0.5-1,0.8c-0.3,0.3-0.7,0.7-1,0.8c-0.3,0.3-0.7,0.7-1,1s-0.7,0.7-1,1c-0.3,0.3-0.7,0.7-1,1
		c-0.3,0.3-0.7,0.5-1,0.8c-0.3,0.3-0.7,0.7-0.8,0.8c-0.3,0.3-0.5,0.5-0.8,0.8s-0.5,0.5-0.8,0.8c-0.3,0.2-0.5,0.5-0.8,0.7
		c-0.2,0.2-0.5,0.3-0.8,0.7c-0.3,0.2-0.5,0.3-0.7,0.5c-0.2,0-0.3,0.2-0.7,0.3c-0.3,0.2-0.5,0.3-0.5,0.3c-0.2,0-0.3,0.2-0.5,0.3
		c-0.3,0.2-0.5,0.3-0.5,0.3s-0.2,0.2-0.5,0.3c-0.3,0.2-0.5,0.3-0.7,0.3c-0.2,0.2-0.3,0.2-0.5,0.3c-0.2,0.2-0.3,0.3-0.5,0.3
		s-0.2,0.2-0.5,0.3c-0.2,0.2-0.3,0.2-0.5,0.3c-0.2,0-0.2,0.2-0.3,0.2s-0.2,0-0.3,0.2c-0.2,0-0.5,0.2-0.7,0.2l0,0
		c-0.2,0.2-0.3,0.2-0.5,0.3c-0.2,0.2-0.3,0.2-0.5,0.3h-0.2l0,0c-0.2-0.2-0.5-0.2-0.7-0.3c-0.2-0.2-0.5-0.3-0.8-0.5
		c-0.3-0.2-0.7-0.3-1-0.7c-0.3-0.2-0.7-0.5-1-0.8s-0.7-0.5-1.2-0.8c-0.3-0.3-0.7-0.5-1.2-0.8c-0.3-0.3-0.8-0.5-1.2-0.8
		c-0.5-0.3-0.8-0.5-1.2-0.7c-0.3-0.2-0.7-0.5-1.2-0.8c-0.3-0.3-0.8-0.7-1.3-1s-0.8-0.7-1.3-1.2c-0.5-0.3-1-0.7-1.3-1
		c-0.5-0.3-0.8-0.7-1.2-1s-0.8-0.7-1.3-1.2c-0.5-0.3-1-0.8-1.5-1.2c-0.5-0.3-1-0.8-1.5-1.2s-0.8-0.7-1.3-1.2
		c-0.5-0.3-0.8-0.8-1.3-1.2s-0.8-0.8-1.3-1.2c-0.5-0.5-1-0.8-1.3-1.3c-0.5-0.3-0.8-0.7-1.3-1.2c-0.5-0.3-1-0.8-1.3-1.2
		c-0.3-0.3-0.7-0.7-1.2-1c-0.3-0.3-0.8-0.8-1.3-1.2c-0.3-0.3-0.7-0.7-1.2-1c-0.5-0.3-0.8-0.8-1.3-1.2c-0.3-0.3-0.8-0.7-1.2-1
		s-0.8-0.7-1.2-1c-0.5-0.3-0.8-0.7-1.2-1s-0.7-0.5-1.2-0.8c-0.3-0.3-0.7-0.5-1-0.7c-0.3-0.2-0.5-0.5-0.8-0.7s-0.7-0.5-1-0.8
		s-0.7-0.7-1-0.8c-0.3-0.3-0.7-0.5-1-0.8c-0.3-0.2-0.7-0.5-0.8-0.7c-0.3-0.2-0.5-0.5-0.8-0.7c-0.2-0.2-0.5-0.3-0.7-0.7
		c-0.2-0.2-0.5-0.5-0.7-0.7c-0.2-0.2-0.5-0.5-0.8-0.7c-0.3-0.3-0.5-0.5-0.8-0.7c-0.3-0.2-0.5-0.3-0.7-0.5c-0.2-0.2-0.3-0.3-0.7-0.7
		c-0.3-0.2-0.5-0.5-0.7-0.7C335.9,361.4,335.7,361.3,335.5,361.1L335.5,361.1z M337.5,422.7c-0.3,0.3-0.7,0.5-1,0.7
		c-0.3,0.2-0.7,0.3-0.8,0.5c-0.3,0.2-0.5,0.3-0.8,0.5c-0.2,0.2-0.3,0.2-0.7,0.3c-0.2,0-0.2,0-0.2,0.2c0-0.3,0-0.5-0.2-0.8
		c0-0.5-0.2-1.2-0.2-1.9c0-0.7-0.2-1.3-0.2-2s-0.2-1.5-0.2-2.4s0-1.5-0.2-2.4c0-0.8,0-1.9-0.2-2.7c0-0.8,0-1.9-0.2-2.7
		c0-0.8,0-1.9-0.2-2.9c0-1,0-1.9,0-2.9c0-0.8,0-1.9,0-2.7c0-1,0-1.9,0-2.9c0-1,0-1.9,0-2.7s0-1.9,0-2.7s0-1.7,0-2.4
		c0-0.8,0-1.7,0-2.5s0-1.5,0-2.4c0-0.8,0-1.9,0-2.7s0-1.5,0-2.2c0-0.8,0-1.7,0-2.5c0-0.8,0-1.3,0-2.2c0-0.7,0-1.5,0-2.2
		c0-0.7,0-1.3,0-2s0-1.3,0-1.9c0-0.7,0-1.2,0-1.9c0-0.5,0-1,0.2-1.5c0-0.5,0-0.8,0.2-1.2l0,0c0.2,0.2,0.5,0.3,0.7,0.7
		c0.3,0.2,0.5,0.5,0.8,0.7c0.3,0.2,0.5,0.3,0.7,0.7c0.2,0.2,0.5,0.3,0.7,0.7c0.2,0.2,0.5,0.5,0.8,0.7c0.3,0.2,0.5,0.5,0.8,0.7
		c0.3,0.3,0.7,0.5,0.8,0.7c0.3,0.2,0.7,0.5,0.8,0.7c0.3,0.2,0.7,0.5,1,0.7c0.3,0.2,0.7,0.5,1,0.8c0.3,0.2,0.7,0.5,1,0.8
		s0.7,0.5,1,0.8c0.3,0.3,0.7,0.5,1,0.8c0.3,0.3,0.7,0.5,1,0.7c0.3,0.3,0.7,0.5,1.2,0.8c0.3,0.3,0.8,0.7,1.2,1c0.5,0.3,0.8,0.7,1.2,1
		c0.5,0.3,0.8,0.7,1.3,1c0.3,0.3,0.7,0.7,1.2,1c0.3,0.3,0.8,0.8,1.3,1.2c0.3,0.3,0.8,0.7,1.2,1.2c0.5,0.3,1,0.8,1.3,1.2
		c0.5,0.3,0.8,0.7,1.3,1c0.5,0.3,0.8,0.8,1.3,1.2s0.8,0.8,1.3,1.2s1,0.8,1.3,1.2c0.5,0.3,1,0.8,1.5,1.2c0.5,0.3,1,0.8,1.5,1.2
		c0.5,0.3,1,0.8,1.5,1.2c0.5,0.3,0.8,0.8,1.3,1.2s0.8,0.7,1.3,1c0,0,0.2,0,0.2,0.2c0,0,0,0,0,0.2c0,0,0,0.2-0.2,0.5l0,0l0,0l0,0l0,0
		l0,0c0,0-0.2,0-0.2,0.2c-0.2,0.2-0.3,0.3-0.5,0.5c-0.2,0.2-0.3,0.3-0.7,0.5c-0.2,0.2-0.5,0.5-0.7,0.7c-0.2,0.2-0.5,0.5-0.7,0.7
		c-0.3,0.3-0.5,0.5-0.8,0.8c-0.3,0.3-0.7,0.7-1,1c-0.3,0.3-0.7,0.7-1,1c-0.3,0.3-0.7,0.7-1.2,1c-0.3,0.3-0.7,0.7-1.2,1
		c-0.3,0.3-0.8,0.7-1.3,1.2c-0.5,0.5-0.8,0.8-1.3,1.3c-0.5,0.5-1,0.8-1.5,1.3c-0.5,0.5-1,0.8-1.3,1.3c-0.5,0.5-1,1-1.3,1.3
		c-0.5,0.5-0.8,0.8-1.3,1.3c-0.5,0.3-0.8,0.8-1.3,1.2s-1,0.7-1.5,1.2c-0.5,0.3-1,0.8-1.5,1.2c-0.5,0.5-1,0.8-1.5,1.2
		c-0.5,0.3-1,0.7-1.3,1.2c-0.3,0.3-0.8,0.7-1.3,1s-0.8,0.7-1.3,1s-0.8,0.7-1.3,1c-0.5,0.3-0.8,0.7-1.2,1s-0.8,0.5-1.2,0.8
		C338.2,422.1,337.9,422.5,337.5,422.7z M431,428.4c-0.3,0-0.8,0-1.2,0c-0.5,0-0.8,0-1.3,0s-0.8,0-1.3,0s-1,0-1.7,0
		c-0.5,0-1.2,0-1.7,0c-0.5,0-1.2,0-1.9,0c-0.7,0-1.2,0-1.9,0c-0.7,0-1.2,0-1.9,0c-0.7,0-1.3,0-2,0s-1.3,0-2,0c-0.7,0-1.3,0-2,0l0,0
		l0,0c-0.7,0-1.3,0-2,0s-1.2,0-1.9,0s-1.2,0-1.9,0c-0.5,0-1.2,0-1.7,0c-0.7,0-1.2,0-1.9,0c-0.7,0-1.2,0-1.9,0c-0.7,0-1.2,0-1.9,0
		s-1.3,0-2,0s-1.3,0-2,0s-1.3,0-2,0s-1.3,0-2,0s-1.3,0-2,0s-1.3,0-2,0s-1.3,0-2,0s-1.3,0-2,0c-0.7,0-1.3,0-2,0s-1.3,0-2,0
		s-1.3,0-2,0c-0.7,0-1.3,0-2,0s-1.3,0-2,0s-1.3,0-1.9,0c-0.7,0-1.2,0-1.9,0c-0.7,0-1.2,0-1.9,0c-0.7,0-1.2,0-1.9,0
		c-0.7,0-1.2,0-1.9,0c-0.7,0-1.2,0-1.9,0s-1.2,0-1.7,0s-1.2,0-1.9,0c-0.7,0-1.2,0-1.9,0c-0.7,0-1.2,0-1.9,0c-0.7,0-1.2,0-1.9,0
		s-1.2,0-1.9,0c-0.7,0-1.2,0-1.9,0s-1.3,0-1.9,0c-0.7,0-1.2,0-1.9,0c-0.7,0-1.3,0-1.9,0c-0.7,0-1.3,0-1.9,0c-0.7,0-1.2,0-1.7-0.2
		l0,0l0,0l0,0c-0.5,0-0.8-0.2-1.3-0.2l0.2-0.2c0.3-0.2,0.7-0.5,0.8-0.8c0.3-0.3,0.7-0.7,1-0.8c0.3-0.3,0.7-0.5,1-0.8
		c0.3-0.3,0.7-0.7,1.2-1c0.3-0.3,0.8-0.7,1.2-1.2c0.5-0.3,0.8-0.8,1.2-1.2c0.3-0.3,0.7-0.7,1.2-1c0.3-0.3,0.8-0.7,1.3-1
		s1-0.8,1.5-1.2c0.5-0.5,1-0.8,1.5-1.3c0.5-0.3,1-0.8,1.3-1.2c0.5-0.3,1-0.7,1.5-1.2c0.5-0.3,1-0.8,1.5-1.3c0.5-0.5,1-1,1.5-1.3
		c0.5-0.5,1-1,1.5-1.5c0.5-0.5,0.8-0.8,1.3-1.3c0.5-0.5,1-0.8,1.3-1.3c0.5-0.5,0.8-0.8,1.3-1.2c0.5-0.3,0.8-0.7,1.3-1
		c0.3-0.3,0.8-0.7,1.2-1s0.8-0.7,1.2-1s0.8-0.7,1.2-1s0.7-0.7,1-0.8c0.3-0.3,0.5-0.5,0.8-0.7c0.3-0.2,0.5-0.3,0.8-0.5
		c0.2-0.2,0.5-0.3,0.7-0.5c0.2-0.2,0.3-0.2,0.7-0.3c0.2-0.2,0.3-0.3,0.5-0.3s0.3-0.2,0.5-0.3c0.2-0.2,0.3-0.3,0.7-0.3l0,0
		c0.2,0,0.2-0.2,0.3-0.3c0.2-0.2,0.2-0.2,0.3-0.3c0.2,0.2,0.3,0.3,0.7,0.5c0.5,0.3,0.8,0.7,1.2,0.8c0.3,0.3,0.7,0.5,1,0.8
		c0.3,0.3,0.7,0.5,1,0.8c0.3,0.3,0.7,0.5,1,0.8s0.8,0.7,1,0.8c0.3,0.3,0.7,0.5,1,0.7c0.3,0.2,0.5,0.5,0.8,0.7
		c0.2,0.2,0.5,0.3,0.7,0.5c0.2,0.2,0.5,0.3,0.7,0.5c0.2,0.2,0.3,0.2,0.3,0.3c0.2,0.2,0.3,0.3,0.5,0.3c0.2,0,0.2,0.2,0.3,0.2
		c0,0,0.2,0,0.2,0.2l0,0c0.8,0.3,2,0.3,2.9-0.3l0,0c0.3,0,0.7-0.2,1-0.3c0.2-0.2,0.3-0.2,0.5-0.3c0.2-0.2,0.3-0.2,0.5-0.3
		c0.2,0,0.2-0.2,0.3-0.2c0.2,0,0.2-0.2,0.3-0.2c0.2-0.2,0.2-0.2,0.3-0.3c0,0,0.2-0.2,0.3-0.2c0.2-0.2,0.3-0.2,0.3-0.3
		c0.2,0,0.3-0.2,0.5-0.3c0.2-0.2,0.3-0.3,0.5-0.3c0.2-0.2,0.3-0.2,0.5-0.3c0.2-0.2,0.3-0.2,0.3-0.3c0,0,0.2-0.2,0.5-0.3
		c0.3-0.2,0.5-0.3,0.7-0.5c0.2,0,0.3-0.2,0.7-0.5c0.3-0.2,0.5-0.5,0.7-0.5c0.2-0.2,0.3-0.3,0.7-0.5c0.3-0.3,0.5-0.5,0.8-0.7l0.2-0.2
		c0.2,0,0.2,0.2,0.3,0.2c0,0,0,0,0.2,0l0,0c0,0,0,0,0.2,0c0.2,0.2,0.3,0.3,0.5,0.3s0.3,0.2,0.5,0.3c0.2,0.2,0.3,0.2,0.3,0.2
		c0.2,0,0.2,0.2,0.3,0.2s0.2,0.2,0.3,0.3c0.2,0.2,0.3,0.3,0.5,0.5c0.2,0.2,0.3,0.3,0.5,0.5c0.2,0.2,0.3,0.3,0.7,0.7
		c0.3,0.2,0.5,0.5,0.7,0.7c0.2,0.2,0.5,0.5,0.8,0.7c0.3,0.3,0.7,0.5,0.8,0.7c0.2,0.2,0.5,0.3,0.8,0.7c0.3,0.2,0.5,0.3,0.7,0.5
		c0.2,0.2,0.3,0.3,0.5,0.5c0.2,0.2,0.3,0.3,0.5,0.5c0.2,0.2,0.3,0.3,0.7,0.7c0.2,0.2,0.5,0.5,0.7,0.7c0.2,0.2,0.5,0.5,0.7,0.7
		c0.2,0.2,0.5,0.3,0.7,0.7c0.3,0.2,0.5,0.5,0.7,0.7c0.2,0.2,0.5,0.3,0.7,0.7c0.3,0.3,0.5,0.3,0.7,0.5c0.2,0.2,0.3,0.5,0.7,0.7
		c0.2,0.3,0.5,0.5,0.8,0.8c0.3,0.3,0.5,0.5,0.8,0.8c0.3,0.2,0.7,0.5,0.8,0.7c0.3,0.3,0.7,0.5,0.8,0.7c0.3,0.2,0.5,0.5,0.8,0.7
		c0.3,0.3,0.7,0.5,0.8,0.8c0.3,0.2,0.7,0.5,1,0.8c0.3,0.3,0.8,0.7,1.2,1s0.8,0.5,1.2,0.8c0.3,0.3,0.8,0.5,1,0.7
		c0.3,0.2,0.5,0.3,0.8,0.7c0.3,0.2,0.5,0.3,0.7,0.7c0.2,0.2,0.5,0.5,0.8,0.7c0.3,0.2,0.5,0.5,0.8,0.7s0.7,0.5,1,0.7
		c0.3,0.3,0.7,0.5,0.8,0.7c0.3,0.2,0.5,0.3,0.7,0.5c0.2,0.2,0.5,0.3,0.7,0.5c0.2,0.2,0.3,0.3,0.7,0.5c0.3,0.2,0.5,0.3,0.8,0.5
		c0.3,0.2,0.5,0.3,0.7,0.5c0.2,0.2,0.3,0.3,0.5,0.5c0.2,0.2,0.3,0.3,0.5,0.5c0.2,0.2,0.3,0.3,0.5,0.7l0.2,0.2
		C431.3,428.4,431.2,428.4,431,428.4z M435.2,425c-0.2-0.2-0.3-0.3-0.5-0.3c-0.2-0.2-0.3-0.3-0.5-0.5c-0.2-0.2-0.3-0.3-0.7-0.7
		c-0.2-0.2-0.5-0.5-0.8-0.7c-0.3-0.2-0.7-0.5-0.8-0.7c-0.3-0.2-0.7-0.3-0.8-0.5c-0.2-0.2-0.5-0.3-0.7-0.5c-0.3-0.2-0.5-0.3-0.7-0.5
		c-0.3-0.2-0.5-0.3-0.7-0.3c-0.3-0.2-0.5-0.3-0.7-0.3c-0.2-0.2-0.5-0.3-0.7-0.5c-0.2-0.2-0.5-0.5-0.8-0.7c-0.3-0.2-0.7-0.5-1-0.7
		s-0.7-0.5-1-0.7c-0.3-0.2-0.7-0.5-1-0.7c-0.3-0.2-0.7-0.5-1-0.7c-0.3-0.2-0.7-0.5-1-0.7c-0.3-0.3-0.7-0.5-1-0.8
		c-0.3-0.2-0.5-0.5-0.8-0.8s-0.7-0.7-0.8-0.8c-0.3-0.3-0.5-0.5-0.8-0.8s-0.7-0.5-0.8-0.8c-0.3-0.2-0.5-0.5-0.8-0.7s-0.5-0.5-0.7-0.7
		c-0.2-0.2-0.3-0.3-0.7-0.7c-0.2-0.2-0.5-0.5-0.8-0.8c-0.3-0.3-0.7-0.5-0.8-0.7c-0.2-0.2-0.5-0.5-0.8-0.7c-0.3-0.2-0.5-0.5-0.7-0.5
		c-0.2-0.2-0.3-0.3-0.7-0.7c-0.2-0.2-0.5-0.5-0.7-0.7c-0.2-0.2-0.3-0.3-0.7-0.7c-0.2-0.2-0.3-0.3-0.7-0.7c-0.2-0.2-0.5-0.5-0.7-0.7
		c-0.2-0.2-0.5-0.5-0.8-0.7c-0.3-0.3-0.7-0.5-0.8-0.7c-0.2-0.2-0.5-0.3-0.7-0.7c-0.3-0.3-0.5-0.5-0.7-0.5c-0.2-0.2-0.3-0.3-0.5-0.5
		c-0.2-0.2-0.3-0.3-0.5-0.5c-0.2-0.2-0.3-0.3-0.5-0.7c-0.2-0.3-0.5-0.5-0.7-0.7c-0.2-0.2-0.3-0.3-0.5-0.5c-0.2-0.2-0.3-0.3-0.5-0.5
		c-0.2-0.2-0.5-0.3-0.7-0.5c-0.3-0.2-0.5-0.3-0.5-0.3l-0.2-0.2c-0.2-0.2-0.2-0.3-0.3-0.5c0.2-0.2,0.5-0.5,0.8-0.8s0.7-0.7,1-1
		c0.3-0.3,0.7-0.7,1-1c0.3-0.3,0.7-0.7,1-0.8c0.3-0.3,0.7-0.5,1-0.8c0.3-0.3,0.7-0.5,1-0.8c0.3-0.3,0.7-0.7,1-1s0.7-0.7,1-1
		c0.3-0.3,0.7-0.7,1-1c0.3-0.3,0.7-0.7,1-1c0.3-0.3,0.7-0.7,1-1s0.7-0.7,1.2-1c0.3-0.3,0.8-0.8,1-1c0.3-0.3,0.7-0.7,1-1
		c0.3-0.3,0.7-0.7,1-1s0.7-0.7,1-1c0.3-0.3,0.7-0.7,1.2-1c0.3-0.3,0.7-0.8,1-1.2c0.3-0.3,0.7-0.7,1-1c0.3-0.3,0.7-0.5,1-0.8
		c0.3-0.2,0.7-0.5,1-0.8c0.3-0.3,0.7-0.7,1.2-1c0.3-0.3,0.7-0.7,1-1c0.3-0.3,0.7-0.7,0.8-0.8c0.3-0.3,0.5-0.5,0.8-0.7
		c0.3-0.2,0.7-0.5,1-0.7c0.3-0.2,0.7-0.5,1-0.8c0.3-0.3,0.7-0.7,1-1s0.7-0.7,1-1c0.3-0.3,0.7-0.5,0.8-0.8c0.3-0.2,0.5-0.5,0.8-0.7
		c0.2-0.2,0.5-0.3,0.8-0.7c0.3-0.2,0.5-0.5,0.8-0.7c0.2-0.2,0.3-0.2,0.3-0.3c0,0.2,0,0.3,0,0.5c0,0.2,0,0.3,0.2,0.5
		c0,0.3,0.2,0.3,0.2,0.3c0,0.2,0,0.2,0,0.3c0,0.2,0,0.3,0,0.5c0,0.2,0,0.2,0,0.5c0,0.2,0,0.3,0,0.7c0,0.2,0,0.5,0,0.7
		c0,0.2,0,0.3,0,0.7c0,0.2,0,0.3,0,0.5c0,0.2,0,0.3,0,0.7c0,0.2,0,0.5,0,0.7c0,0.2,0,0.5,0,0.7c0,0.2,0,0.5,0,0.7c0,0.2,0,0.5,0,0.7
		c0,0.2,0,0.3,0,0.7c0,0.2,0,0.3,0,0.5c0,0.2,0,0.3,0,0.5s0,0.3,0,0.7c0,0.2,0,0.3,0,0.7c0,0.2,0,0.5,0,0.8c0,0.2,0,0.5,0,0.8
		s0,0.5,0.2,0.7c0,0.2,0,0.3,0.2,0.7c0,0.3,0,0.3,0.2,0.5c0,0.2,0,0.3,0,0.7c0,0.2,0,0.3,0,0.7c0,0.2,0,0.5,0,0.7s0,0.5,0,0.7
		c0,0.2,0,0.5,0,0.7c0,0.2,0,0.5,0,0.7c0,0.2,0,0.5,0,0.7s0,0.5,0,0.8s0,0.5,0,0.8s0,0.7,0,0.8c0,0.3,0,0.5,0,0.8c0,0.3,0,0.5,0,0.8
		s0,0.5,0,0.8s0,0.7,0,1c0,0.3,0,0.7,0,1s0,0.7,0,1s0,0.7,0,0.8c0,0.3,0,0.7,0,1c0,0.3,0,0.7,0,1s0,0.7,0,1s0,0.7,0,1
		c0,0.3,0,0.7,0,1.2c0,0.3,0,0.8,0,1.2c0,0.3,0,0.8,0,1.2c0,0.3,0,0.8,0,1.2c0,0.3,0,0.7,0,1s0,0.7,0,1s0,0.7,0,1c0,0.3,0,0.5,0,0.8
		s0,0.5,0,0.8c0,0.2,0,0.5,0,0.8s0,0.7,0,0.8c0,0.3,0,0.7,0,0.8c0,0.3,0,0.5,0,0.7c0,0.2,0,0.5,0,0.7c0,0.2,0,0.3,0,0.7s0,0.5,0,0.7
		s0,0.3,0,0.7c0,0.3,0,0.5,0,0.7c0,0.2,0,0.5,0.2,0.8c0,0.3,0.2,0.7,0.2,0.8c0,0.3,0,0.5,0.2,0.8c0,0.2,0,0.5,0,0.7
		c0,0.2,0,0.3,0,0.5c0,0.2,0,0.3,0,0.7c0,0.2,0,0.5,0,0.7s0,0.5,0,0.7c0,0.2,0,0.5,0,0.7c0,0.2,0,0.3,0,0.5c0,0.2,0,0.3,0,0.5
		c0,0.2,0,0.3,0,0.5c0,0.2,0,0.3,0,0.5c0,0.2,0,0.3,0,0.7s0,0.5,0,0.7s0,0.3,0,0.7C435.4,424.7,435.4,424.8,435.2,425
		C435.4,425,435.4,425,435.2,425C435.4,425,435.4,425,435.2,425z"/>
	<path fill="#666766" d="M602,365.1c-0.5-0.3-1-0.5-1.5-0.5c-0.3-0.2-0.5-0.2-0.8-0.2c-0.2,0-0.3,0-0.5-0.2H599
		c-0.2,0-0.3-0.2-0.5-0.2c-0.2,0-0.3-0.2-0.5-0.2c-0.3-0.2-0.7-0.3-1.2-0.5c-0.3-0.2-0.8-0.5-1.3-0.8s-1.2-0.7-1.7-1
		c-0.7-0.3-1.2-0.7-1.9-1.2c-0.7-0.3-1.3-0.8-1.9-1.2c-0.7-0.3-1.2-0.8-1.9-1.2c-0.5-0.3-1.2-0.8-1.7-1.2s-1.2-0.8-1.7-1.2
		s-1.2-0.7-1.9-1.2c-0.7-0.3-1.3-0.8-1.9-1.2c-0.5-0.3-1.2-0.7-1.7-1s-1-0.7-1.5-1s-0.8-0.7-1.3-1c-0.3-0.3-0.8-0.5-1.2-0.8
		c-0.5-0.3-0.8-0.5-1.2-0.7c-0.3-0.2-0.7-0.3-1-0.5c-0.2,0-0.2-0.2-0.3-0.2c-0.2-0.2-0.3-0.2-0.5-0.2l0,0c-0.2,0-0.3-0.2-0.5-0.2
		c-0.2,0-0.2-0.2-0.3-0.2l0,0l0,0c-0.2,0-0.2,0-0.5-0.2c-0.8-0.3-1.9-0.3-2.5,0.2c-0.3,0.2-0.8,0.3-1.2,0.5
		c-0.2,0.2-0.2,0.3-0.2,0.5c-0.2,0.2-0.3,0.3-0.5,0.5l0,0c-0.3,0.3-0.5,0.5-0.8,0.8s-0.7,0.7-1.2,1c-0.3,0.3-0.8,0.7-1.2,1
		c-0.3,0.3-0.8,0.7-1.3,1s-0.8,0.7-1.3,1c-0.5,0.3-0.8,0.7-1.3,1s-1,0.7-1.3,1c-0.5,0.3-1,0.7-1.3,1c-0.5,0.3-1,0.7-1.5,0.8
		c-0.5,0.3-0.8,0.5-1.3,0.8c-0.3,0.2-0.8,0.5-1.2,0.7c-0.5,0.3-0.8,0.5-1.2,0.7c-0.3,0.2-0.7,0.3-1,0.7c-0.2,0-0.2,0.2-0.3,0.2
		c-0.2,0.2-0.3,0.3-0.5,0.5l-0.2-0.2c-0.2-0.2-0.3-0.3-0.5-0.3c-0.2-0.2-0.2-0.2-0.3-0.2c0,0-0.2,0-0.2-0.2c-0.2,0-0.2-0.2-0.3-0.3
		l0,0l0,0c-0.2-0.2-0.3-0.2-0.5-0.3c-0.2,0-0.3-0.2-0.5-0.3c-0.2-0.2-0.3-0.3-0.5-0.3c-0.2-0.2-0.3-0.3-0.7-0.5
		c-0.2-0.2-0.5-0.5-0.8-0.7c-0.3-0.3-0.7-0.5-1-0.8s-0.7-0.7-1-1s-0.8-0.7-1.2-1c-0.3-0.3-0.7-0.7-1-1s-0.8-0.7-1.2-1.2
		c-0.3-0.3-0.8-0.8-1.2-1.2c-0.5-0.5-0.8-0.8-1.2-1.2s-0.7-0.8-1.2-1.2c-0.3-0.3-0.7-0.7-1-1.2c-0.3-0.3-0.8-0.8-1.2-1.2
		c-0.5-0.5-0.8-0.8-1.2-1c-0.2-0.2-0.3-0.2-0.5-0.3c-0.2-0.2-0.3-0.3-0.5-0.5l0,0c-0.2-0.2-0.5-0.3-0.7-0.5
		c-0.2-0.3-0.5-0.5-0.8-0.7l0,0c-0.3-0.3-0.7-0.3-0.8-0.5c-0.5-0.3-1.2-0.5-1.7-0.3c-0.8-0.2-1.9,0.3-2.5,1c-0.2,0.2,0,0.2,0,0
		c-0.2,0.2-0.3,0.3-0.3,0.5l-0.2,0.2l0,0c-0.2,0.2-0.5,0.3-0.7,0.7c-0.2,0.2-0.5,0.5-1,0.7c-0.3,0.3-0.7,0.5-1,0.8s-0.8,0.5-1.3,0.8
		s-1,0.7-1.5,1c-0.5,0.3-1.2,0.7-1.9,1s-1.3,0.8-1.9,1.2c-0.7,0.3-1.2,0.8-1.9,1.2c-0.5,0.3-1.2,0.7-1.9,1s-1.2,0.7-1.9,1
		c-0.7,0.3-1.2,0.7-1.9,1s-1.3,0.7-1.9,1c-0.7,0.3-1.2,0.7-1.9,1c-0.5,0.3-1.2,0.7-1.7,0.8c-0.5,0.3-1,0.5-1.5,0.8
		c-0.5,0.3-1,0.5-1.3,0.7c-0.3,0.2-0.8,0.3-1.2,0.5c-0.2,0-0.2,0.2-0.3,0.2c-0.3,0.2-0.5,0.2-0.7,0.3l0,0c-0.2,0.2-0.3,0.2-0.5,0.3
		h-0.2c-0.3,0.2-0.7,0.3-1,0.7l0,0l0,0l0,0c-0.3,0.3-0.3,0.5-0.5,0.5c-0.5,0.5-0.7,1.2-0.7,1.7c-0.5,1-0.3,2.4,0.5,3.4
		c0.2,0.2,0.2,0.3,0.5,0.5c0.2,0.2,0.5,0.5,0.8,0.5c0.2,0.2,0.5,0.3,0.7,0.5c0.2,0.2,0.3,0.3,0.7,0.3c0.2,0,0.2,0.2,0.3,0.2
		c0.3,0.2,0.7,0.5,1,0.7c0.3,0.2,0.7,0.5,1.2,0.7c0.3,0.2,0.8,0.5,1.2,0.7c0.3,0.2,0.8,0.5,1.2,0.7c0.3,0.3,0.8,0.5,1.2,0.7
		c0.3,0.2,0.7,0.5,1,0.7c0.3,0.3,0.7,0.5,1,0.7c0.3,0.2,0.5,0.5,0.8,0.7c0.3,0.2,0.5,0.5,0.7,0.7c0.2,0.2,0.3,0.3,0.7,0.7
		c0.3,0.3,0.5,0.5,0.7,0.7s0.3,0.3,0.7,0.7c0.3,0.3,0.5,0.3,0.5,0.5c0,0,0.2,0.2,0.5,0.3c0.2,0.2,0.3,0.3,0.7,0.5
		c0.3,0.2,0.5,0.3,0.5,0.3c0.2,0.2,0.3,0.2,0.5,0.3c0.2,0.2,0.3,0.3,0.5,0.5c0.2,0.2,0.3,0.3,0.7,0.7c0.2,0.2,0.5,0.3,0.7,0.7
		c0.3,0.2,0.5,0.5,0.8,0.7c0.2,0.2,0.3,0.2,0.3,0.3c-0.2,0.2-0.3,0.3-0.5,0.5c-0.3,0.3-0.7,0.7-1.2,1.2l0,0l0,0
		c-0.5,0.3-1,0.8-1.5,1.3c-0.5,0.5-1.2,1-1.7,1.5s-1,0.8-1.7,1.3c-0.5,0.5-1,0.8-1.7,1.3c-0.5,0.5-1.2,0.8-1.7,1.3
		c-0.5,0.5-1.2,1-1.5,1.3c-0.5,0.5-1,0.8-1.5,1.2s-1,0.7-1.3,1c-0.5,0.3-0.8,0.5-1.2,0.7h-0.2c-0.3,0-0.5,0.2-0.7,0.3l0,0l0,0
		c-0.3,0-0.8,0.2-1.2,0.3l0,0c-0.5,0.2-0.8,0.5-0.7,0.3c-1.5,0.8-2,2.5-1.2,4c0.3,0.7,0.8,1,1.5,1.3c0,0.2,0.2,0.2,0.3,0.3
		c0.3,0.3,0.7,0.5,1,0.7c0.2,0,0.2,0.2,0.3,0.2c0.2,0.2,0.5,0.3,0.7,0.3s0.2,0.2,0.3,0.2c0.3,0.2,0.7,0.3,1.2,0.5
		c0.3,0.2,0.8,0.5,1.3,0.7c0.5,0.3,1,0.5,1.5,0.7c0.5,0.2,1,0.5,1.7,0.8c0.7,0.3,1.2,0.5,1.7,0.8s1.2,0.7,1.7,1
		c0.7,0.3,1.2,0.7,1.9,1s1.3,0.7,2,1.2c0.7,0.3,1.3,0.8,2,1.2c0.7,0.5,1.5,0.8,2.2,1.2s1.3,0.8,2,1.2c0.7,0.3,1.3,0.7,1.9,1
		c0.5,0.3,1.2,0.7,1.7,1.2c0.5,0.3,1,0.7,1.5,1s0.8,0.7,1.3,1c0.3,0.3,0.8,0.5,1,0.8c0.2,0.2,0.3,0.2,0.3,0.3
		c0.2,0.2,0.2,0.2,0.3,0.3s0.2,0.2,0.3,0.3c0.2,0.3,0.5,0.5,0.8,0.7c0.2,0.2,0.3,0.3,0.3,0.3c1,0.5,2.2,0.2,2.9-0.5
		c0.2,0,0.5,0,0.7-0.2c0.7-0.2,1.2-0.7,1.5-1.2l0,0c0.2,0,0.2-0.2,0.3-0.2c0.2-0.2,0.3-0.3,0.5-0.5c0.2-0.2,0.5-0.5,0.7-0.7
		c0.3-0.5,0.8-0.8,1.2-1.3c0.5-0.3,1-0.8,1.3-1.3c0.5-0.5,1-0.8,1.5-1.2s1-0.7,1.7-1.2c0.5-0.3,1.2-0.8,1.7-1.2s1-0.7,1.5-1
		s1-0.7,1.3-1c0.3-0.2,0.8-0.5,1.3-0.7c0.3-0.2,0.8-0.3,1.2-0.7c0.3-0.2,0.7-0.3,1-0.5c0,0,0.2-0.2,0.3-0.2l0,0
		c0.2,0.2,0.2,0.3,0.3,0.3c0.3,0.3,0.7,0.5,1,0.7h0.2c0.3,0.2,0.7,0.3,1,0.5c0.3,0.2,0.8,0.5,1.2,0.7c0.5,0.3,0.8,0.5,1.3,0.8
		s1,0.7,1.7,1.2c0.5,0.3,1.2,0.7,1.7,1c0.7,0.3,1.2,0.7,1.9,1.2c0.5,0.3,1,0.7,1.7,1.2c0.5,0.3,1,0.8,1.5,1.2c0.5,0.3,0.8,0.7,1.2,1
		c0.3,0.3,0.8,0.7,1,1c0.3,0.3,0.5,0.5,0.8,0.8s0.5,0.5,0.8,0.8l0.2,0.2c0.2,0.2,0.3,0.3,0.5,0.5c0,0,0,0,0.2,0
		c0.2,0.2,0.3,0.3,0.5,0.5l0,0c0.2,0.2,0.3,0.3,0.7,0.5c0.3,0.2,0.5,0.2,0.5,0.3l0,0c0.5,0.2,1,0.2,1.5,0.2c0.7,0.2,1.5,0,2.2-0.5
		c0.3-0.2,0.3-0.2,0.2-0.2c0.2-0.2,0.3-0.2,0.5-0.3l0.2-0.2c0.2-0.2,0.3-0.2,0.5-0.3c0.2-0.2,0.3-0.3,0.5-0.3
		c0.2-0.2,0.3-0.2,0.5-0.3c0.3-0.3,0.8-0.7,1.2-1c0.3-0.3,0.8-0.7,1.2-1c0.5-0.3,0.8-0.7,1.3-1c0.5-0.3,1-0.7,1.5-1s1-0.7,1.5-1
		s1-0.8,1.7-1.2c0.5-0.3,1.2-0.8,1.7-1.2s1-0.7,1.7-1c0.5-0.3,1-0.7,1.7-1c0.5-0.3,1-0.7,1.5-1s1-0.7,1.5-0.8c0.5-0.3,1-0.7,1.3-0.8
		c0.3-0.2,0.8-0.5,1.3-0.8c0.5-0.3,0.8-0.5,1.3-0.7c0.3-0.2,0.7-0.5,1.2-0.7c0.3-0.2,0.7-0.3,1-0.5c0.3-0.2,0.7-0.3,0.8-0.5
		c0.3-0.2,0.5-0.3,0.8-0.7c0.2-0.2,0.5-0.3,0.7-0.5c0.2-0.2,0.5-0.3,0.7-0.5c0.2-0.2,0.3-0.3,0.3-0.3c0.3-0.5,0.5-1.2,0.5-1.9
		c0.5-1.2,0-2.5-1-3.2c0,0-0.2-0.2-0.5-0.2l0,0c-0.2-0.2-0.5-0.2-0.7-0.3c0,0,0,0-0.2,0l-0.2-0.2c0,0,0,0-0.2,0
		c-0.2-0.2-0.5-0.3-0.8-0.7c-0.3-0.2-0.5-0.5-1-0.8c-0.3-0.3-0.7-0.7-1.2-0.8c-0.3-0.3-0.8-0.7-1.2-0.8c-0.3-0.3-0.7-0.7-1-0.8
		c-0.3-0.3-0.7-0.5-1-0.8c-0.3-0.2-0.5-0.5-1-1c-0.3-0.3-0.8-0.7-1.2-1s-0.8-0.7-1.2-1c-0.5-0.3-1-0.7-1.3-1
		c-0.5-0.3-0.8-0.7-1.2-0.8c-0.3-0.3-0.8-0.7-1.2-0.8c-0.3-0.3-0.7-0.7-1-0.8c-0.2-0.2-0.5-0.5-0.7-0.8l0,0c0.2-0.2,0.3-0.3,0.5-0.5
		c0,0,0.2,0,0.2-0.2c0.3-0.3,0.7-0.7,1-0.8c0.3-0.3,0.7-0.7,1-1s0.8-0.7,1.2-1.2c0.5-0.3,0.8-0.8,1.3-1.2s1-0.8,1.3-1.2
		c0.5-0.3,0.8-0.7,1.3-1c0.5-0.3,1-0.8,1.3-1c0.5-0.3,0.8-0.7,1.5-1c0.5-0.3,1-0.8,1.5-1.2s1-0.8,1.3-1.2c0.5-0.5,1-0.8,1.3-1.2
		c0.3-0.3,0.7-0.5,1-0.8c0,0,0,0,0.2,0c0,0,0,0,0.2,0s0.5-0.2,0.7-0.3c0.3-0.2,0.7-0.3,1-0.7c0.2-0.2,0.3-0.3,0.5-0.3
		C603.4,367.8,603.2,366.1,602,365.1z M514.5,375.8c-0.3-0.2-0.5-0.3-0.7-0.5c-0.2-0.2-0.3-0.3-0.5-0.3c-0.2,0-0.3-0.2-0.7-0.5
		c-0.3-0.2-0.5-0.3-0.5-0.3s-0.2-0.2-0.5-0.3c-0.2-0.2-0.3-0.3-0.5-0.3c-0.2-0.2-0.3-0.3-0.7-0.7c-0.3-0.2-0.7-0.5-0.8-0.7
		c-0.3-0.2-0.7-0.5-1-0.7c-0.3-0.3-0.8-0.5-1.2-0.7c-0.3-0.2-0.8-0.5-1.2-0.7c-0.3-0.3-0.8-0.5-1.2-0.8c-0.3-0.2-0.7-0.5-1-0.8
		c-0.3-0.3-0.8-0.5-1-0.8c-0.3-0.3-0.7-0.5-1-0.7c-0.3-0.3-0.5-0.5-0.7-0.7l0,0c-0.2-0.2-0.2-0.3-0.3-0.3c0.2-0.2,0.3-0.2,0.3-0.3
		c0,0,0,0,0.2-0.2c0.2-0.2,0.7-0.5,1-0.8c0.5-0.3,0.8-0.7,1.2-1s0.8-0.7,1.3-1s1-0.7,1.5-1s1-0.7,1.7-1.2c0.5-0.3,1.2-0.7,1.9-1.2
		c0.7-0.3,1.2-0.7,1.9-1c0.5-0.3,1.2-0.7,1.9-1c0.7-0.3,1.2-0.7,1.9-1.2c0.7-0.3,1.2-0.8,1.9-1.2c0.7-0.3,1.2-0.8,1.9-1.2
		c0.5-0.3,1.2-0.7,1.9-1s1.2-0.7,1.7-0.8c0.5-0.3,1-0.5,1.5-0.8c0.5-0.2,0.8-0.5,1.2-0.7c0.3-0.2,0.7-0.3,1-0.5
		c0.3-0.2,0.7-0.3,0.8-0.3l0,0c0.3,0.2,0.5,0.3,0.8,0.3c0,0,0.2,0,0.2,0.2c0.2,0.2,0.3,0.2,0.5,0.3c0.2,0.2,0.3,0.2,0.7,0.3
		c0.2,0,0.2,0.2,0.3,0.2c0.3,0.2,0.7,0.3,1,0.5c0.3,0.2,0.7,0.5,1,0.8c0.3,0.3,0.7,0.7,1.2,1c0.3,0.3,0.8,0.8,1.3,1.2s1,0.8,1.3,1.2
		c0.3,0.3,0.8,0.7,1.2,1.2c0.3,0.3,0.8,0.7,1.2,1.2c0.3,0.3,0.7,0.7,1,1.2c0.3,0.3,0.8,0.8,1.2,1c0.3,0.3,0.7,0.7,1,1
		c0.3,0.3,0.7,0.7,0.8,0.8c0.2,0.3,0.5,0.5,0.7,0.8c0.2,0.2,0.3,0.5,0.7,0.8c0.2,0.2,0.5,0.5,0.7,0.7c0.2,0.2,0.3,0.3,0.7,0.7
		c0.2,0.2,0.3,0.2,0.3,0.3c0,0,0,0,0.2,0.2c0.2,0.2,0.3,0.3,0.3,0.3s0,0,0.2,0c-0.2,0-0.2,0.2-0.3,0.2c-0.2,0.2-0.5,0.3-0.7,0.5
		c-0.3,0.2-0.8,0.5-1.3,0.8c-0.5,0.3-1.2,0.7-1.7,1s-1,0.7-1.7,1c-0.7,0.3-1.3,0.8-2,1.3c-0.7,0.5-1.3,0.8-2.2,1.3
		c-0.7,0.5-1.5,0.8-2.4,1.3c-0.8,0.5-1.7,0.8-2.4,1.3c-0.8,0.5-1.5,0.8-2.2,1.3c-0.7,0.3-1.5,0.8-2.2,1.2s-1.3,0.7-1.9,1
		c-0.7,0.3-1.2,0.7-1.9,0.8c-0.5,0.3-1.2,0.5-1.5,0.7c-0.2,0.2-0.3,0.2-0.7,0.2c-0.2,0-0.3,0.2-0.5,0.2c-0.5-0.2-1-0.3-1.5-0.2
		c-0.2,0-0.2-0.2-0.3-0.2c-0.2-0.2-0.3-0.3-0.5-0.3c-0.2-0.2-0.3-0.3-0.5-0.5c-0.2-0.2-0.3-0.3-0.5-0.5c-0.2-0.2-0.3-0.3-0.7-0.7
		c-0.2-0.2-0.5-0.5-0.7-0.7C515,376.3,514.7,375.9,514.5,375.8z M530.2,414.9L530.2,414.9L530.2,414.9L530.2,414.9z M545.5,404.4
		c-0.2,0.2-0.5,0.5-1,0.7c-0.3,0.3-0.8,0.5-1.2,0.8c-0.5,0.3-1,0.7-1.5,1s-1,0.7-1.5,1.2c-0.5,0.3-1.2,0.8-1.7,1.2s-1.2,0.7-1.7,1.2
		c-0.7,0.3-1.2,0.8-1.7,1.2s-1.2,0.7-1.7,1.2c-0.5,0.3-1,0.7-1.5,1c-0.2,0.2-0.5,0.3-0.7,0.5c-0.2,0-0.3,0.2-0.3,0.2
		c-0.7,0-1.3,0.3-1.9,0.8l-0.2,0.2c-0.2,0-0.2-0.2-0.3-0.2c-0.3-0.2-0.7-0.3-1.2-0.5c-0.3-0.2-0.8-0.5-1.3-0.8
		c-0.5-0.3-1-0.5-1.5-0.8s-1.2-0.7-1.9-1s-1.3-0.7-2-1c-0.7-0.3-1.2-0.7-2-1.2c-0.7-0.3-1.3-0.8-2-1.2c-0.7-0.3-1.3-0.8-2-1.3
		c-0.7-0.5-1.3-0.8-1.9-1.3c-0.7-0.3-1.2-0.8-1.9-1.2c-0.5-0.3-1.2-0.8-1.7-1.2c-0.7-0.3-1.2-0.7-1.7-1s-1-0.7-1.5-1s-1-0.7-1.3-0.8
		c-0.3-0.3-0.7-0.5-1-0.8s-0.5-0.5-0.8-0.7c0.3-0.3,0.7-0.7,1-1c0.5-0.5,0.8-0.8,1.3-1.3c0.5-0.5,0.8-0.8,1.3-1.3s1-1,1.3-1.5
		c0.5-0.5,1-1,1.5-1.3c0.5-0.5,1-0.8,1.5-1.3c0.5-0.5,1-1,1.7-1.5c0.5-0.5,1.2-1,1.7-1.5c0.5-0.5,1-0.8,1.5-1.2l0,0l0,0
		c0.5-0.3,0.8-0.5,1.2-0.8c0,0.2,0.2,0.2,0.2,0.3c0,0,0.2,0.2,0.5,0.5c0.3,0.3,0.7,0.5,1,0.7c0,0,0,0,0.2,0c0.2,0.2,0.3,0.2,0.5,0.3
		c0.2,0.2,0.3,0.3,0.7,0.3c0.2,0.2,0.3,0.2,0.5,0.3c0.5,0.2,0.8,0.3,1.3,0.7c0.5,0.2,1,0.5,1.5,0.8c0.5,0.3,1,0.7,1.5,0.8
		c0.5,0.3,1,0.7,1.5,0.8c0.5,0.3,1,0.7,1.5,1c0.5,0.3,1,0.7,1.5,0.8c0.5,0.3,1.2,0.7,1.7,0.8c0.5,0.3,1,0.5,1.5,0.8s1,0.5,1.5,0.8
		s1,0.5,1.5,0.8s1.2,0.5,1.7,0.8c0.5,0.3,1.2,0.5,1.7,0.8c0.5,0.3,1,0.5,1.5,0.8c0.5,0.2,1,0.5,1.3,0.8c0.5,0.3,0.8,0.5,1.2,0.8
		c0.3,0.2,0.5,0.5,0.8,0.7c0.3,0.3,0.7,0.5,0.8,0.7c0.3,0.2,0.5,0.3,0.7,0.5l0,0c0,0.2,0.2,0.2,0.3,0.2l0,0
		C545.9,404.1,545.7,404.3,545.5,404.4z M552.1,399.9c-0.5,0.3-1,0.5-1.3,0.7c0,0-0.2,0-0.2,0.2c-0.2-0.3-0.3-0.5-0.7-0.7
		c0,0-0.2,0-0.3-0.2l0,0c-0.3-0.2-0.8-0.3-1.2-0.3c-0.2,0-0.2,0-0.3,0s-0.3-0.2-0.5-0.2c-0.3-0.2-0.5-0.3-0.8-0.5
		c-0.3-0.2-0.7-0.3-1.2-0.7c-0.3-0.2-1-0.5-1.3-0.8c-0.5-0.3-1-0.5-1.5-0.8c-0.5-0.3-1.2-0.5-1.7-0.8c-0.5-0.3-1-0.5-1.5-0.8
		s-1-0.5-1.7-0.8c-0.5-0.3-1-0.5-1.5-0.8s-1-0.5-1.5-0.8s-1-0.5-1.5-0.8c-0.5-0.3-1.2-0.7-1.7-0.8c-0.5-0.3-1-0.5-1.5-0.8
		s-0.8-0.7-1.3-1s-1-0.7-1.5-1s-1-0.7-1.5-1c-0.5-0.3-1-0.7-1.3-1c-0.5-0.3-0.7-0.7-1-0.8c-0.2-0.2-0.2-0.2-0.3-0.3l-0.2-0.2
		c0,0,0,0,0.2,0c0.2-0.2,0.3-0.3,0.5-0.5c0.2-0.2,0.3-0.3,0.5-0.3c0.3-0.3,0.8-0.7,1.3-1.2c0.5-0.3,1-0.8,1.7-1.2
		c0.5-0.3,1.2-0.8,1.7-1.2c0.7-0.5,1.3-0.8,2-1.3c0.7-0.5,1.3-1,2.2-1.5c0.7-0.5,1.5-1,2.2-1.5c0.8-0.5,1.5-1,2.4-1.5
		c0.7-0.5,1.5-0.8,2.2-1.3c0.7-0.3,1.5-0.8,2-1.2c0.7-0.3,1.2-0.5,1.7-0.8c0.7-0.3,1.2-0.5,1.7-0.8c0.5-0.2,1-0.3,1.5-0.7
		c0.3-0.2,0.7-0.3,1-0.3c0.2,0,0.3-0.2,0.3-0.2c0.2,0,0.2,0,0.3-0.2c0.3,0,0.5-0.2,0.8-0.3c0.2,0,0.3-0.2,0.7-0.3c0.2,0,0.3,0,0.5,0
		c0.2,0,0.5,0.2,0.7,0.2c0.2,0.2,0.5,0.2,0.7,0.2s0.3,0,0.5,0.2c0.3,0.2,0.8,0.3,1.3,0.5c0.5,0.2,1,0.5,1.5,0.7
		c0.5,0.2,1,0.5,1.7,0.8s1.3,0.5,1.9,0.8c0.7,0.3,1.2,0.7,1.9,0.8c0.7,0.3,1.3,0.7,2,1.2c0.7,0.3,1.3,0.8,2,1.2
		c0.7,0.3,1.3,0.8,2,1.2c0.7,0.3,1.3,0.8,2,1.2c0.7,0.3,1.3,0.8,1.9,1.2c0.5,0.3,1.2,0.7,1.7,1.2c0.5,0.3,1,0.7,1.5,1
		s0.8,0.5,1.2,0.8s0.8,0.5,1,0.8c0.2,0,0.2,0.2,0.2,0.2c0.2,0.2,0.3,0.3,0.5,0.3c0,0.2,0.2,0.2,0.3,0.3c0,0,0,0.2,0.2,0.2
		c-0.2,0.2-0.2,0.3-0.3,0.5c-0.2,0.2-0.2,0.2-0.3,0.3c-0.2,0.2-0.3,0.3-0.5,0.5c-0.2,0.2-0.3,0.3-0.5,0.5c-0.3,0.3-0.5,0.5-0.8,0.7
		s-0.7,0.5-1,0.8c-0.3,0.3-0.8,0.7-1.3,1c-0.5,0.3-1,0.7-1.5,1.2c-0.5,0.3-1.2,0.8-1.7,1.2s-1.2,0.8-1.7,1.2
		c-0.7,0.3-1.2,0.8-1.9,1.2c-0.5,0.3-1.2,0.8-1.9,1.2s-1.3,0.8-1.9,1.2c-0.7,0.5-1.2,0.8-1.9,1.2c-0.5,0.3-1.2,0.7-1.9,1
		s-1.3,0.8-1.9,1c-0.5,0.3-1.2,0.7-1.7,1C553.1,399.2,552.6,399.5,552.1,399.9z M584.5,390.3c0.5,0.3,0.8,0.5,1.3,0.8
		s0.8,0.7,1.3,0.8c0.3,0.3,0.7,0.5,1,0.8s0.7,0.7,1,0.8c0.2,0.2,0.5,0.5,0.8,1c0.3,0.3,0.7,0.7,1,1s0.8,0.7,1.2,1s0.8,0.7,1.2,0.8
		c0.3,0.3,0.7,0.5,1,0.8c0.3,0.3,0.5,0.5,0.8,0.8c0.2,0.2,0.3,0.5,0.7,0.7l0.2,0.2c0,0,0,0.2,0.2,0.2c-0.2,0.2-0.2,0.2-0.3,0.3
		c-0.2,0.2-0.5,0.3-0.7,0.7c-0.2,0.2-0.5,0.3-0.7,0.7c-0.3,0.2-0.5,0.5-1,0.7c-0.3,0.3-0.7,0.5-1.2,0.8c-0.3,0.2-0.8,0.5-1.3,0.8
		s-0.8,0.7-1.3,1s-1,0.7-1.5,1c-0.5,0.3-1,0.7-1.5,1s-1,0.7-1.7,1c-0.5,0.3-1.2,0.7-1.7,1s-1.2,0.8-1.7,1.2s-1.2,0.7-1.7,1
		s-1,0.7-1.5,1s-1,0.7-1.5,1s-1,0.7-1.5,0.8c-0.5,0.3-1,0.5-1.3,0.8c-0.5,0.2-0.8,0.5-1.2,0.5l0,0c-0.3,0-0.5,0.2-0.8,0.3l0,0
		c0,0-0.2,0-0.2,0.2c-0.3,0-0.8,0.2-1.2,0.3l0,0l0,0c-0.2,0-0.3,0.2-0.3,0.2h-0.2c0,0-0.2,0-0.2-0.2c-0.3-0.2-0.5-0.3-0.8-0.5
		c-0.3-0.2-0.7-0.3-1-0.7c-0.3-0.3-0.8-0.5-1.2-0.8c-0.3-0.3-0.8-0.7-1.3-1s-1.2-0.8-1.7-1.2s-1-0.8-1.7-1.2
		c-0.5-0.3-1.2-0.8-1.7-1.2s-1-0.8-1.5-1.2s-1-0.8-1.5-1.2s-0.8-0.8-1.3-1.2c-0.3-0.3-0.8-0.7-1.2-1c-0.2-0.2-0.3-0.3-0.5-0.5l0,0
		c0.2-0.2,0.5-0.5,0.8-0.8c0.5-0.3,1-0.8,1.3-1.2c0.5-0.3,0.8-0.7,1.5-1.2c0.5-0.3,1.2-0.8,1.7-1.2s1.2-0.7,1.7-1.2
		c0.7-0.5,1.2-0.8,1.9-1.3c0.7-0.5,1.2-0.8,1.9-1.3c0.7-0.3,1.2-0.8,1.9-1.2s1.2-0.8,1.9-1.2c0.5-0.3,1.2-0.8,1.9-1.2
		c0.7-0.3,1.2-0.8,1.7-1.2s1-0.7,1.7-1c0.5-0.3,1-0.7,1.5-0.8s0.8-0.3,1.2-0.7c0.5-0.2,0.8-0.5,1-0.5c0.3-0.2,0.7-0.3,0.8-0.5
		c0.2,0,0.2-0.2,0.2-0.2c0.2-0.2,0.3-0.2,0.5-0.3l0,0c0.2,0,0.3-0.2,0.3-0.2c0.2,0.2,0.3,0.2,0.7,0.2c0.2,0,0.3,0.2,0.5,0.3
		c0.3,0.2,0.7,0.5,1,0.8c0.3,0.3,0.8,0.7,1.3,0.8C583.7,389.8,584.2,389.9,584.5,390.3z M596.3,368.3c-0.3,0.3-0.7,0.8-1.2,1.2
		c-0.3,0.3-0.8,0.7-1.2,1c-0.5,0.3-0.8,0.7-1.3,1c-0.3,0.3-0.8,0.7-1.3,1s-1,0.8-1.5,1.2s-1,0.7-1.5,1c-0.5,0.3-1,0.7-1.5,1
		s-1,0.7-1.3,1c-0.5,0.3-1,0.7-1.3,0.8c-0.5,0.3-0.8,0.5-1.2,0.7c-0.3,0.2-0.7,0.3-1,0.5c-0.2,0-0.5,0.2-0.7,0.3
		c-0.2,0-0.3,0.2-0.5,0.2c-0.3-0.2-0.5-0.5-1-0.5c-0.3-0.2-0.2,0-0.2,0.2c-0.3-0.2-0.5-0.2-0.8-0.2c-0.2,0-0.2,0-0.3,0
		s-0.3-0.2-0.5-0.2c-0.2,0-0.2-0.2-0.3-0.2c-0.3-0.2-0.8-0.3-1.2-0.5c-0.5-0.2-0.8-0.3-1.3-0.7c-0.5-0.2-1-0.5-1.5-0.8
		s-1.2-0.7-1.7-1c-0.7-0.3-1.2-0.7-1.9-1.2c-0.7-0.3-1.3-0.8-2-1.2c-0.7-0.3-1.3-0.8-2-1.3c-0.7-0.5-1.3-0.8-2-1.3
		c-0.7-0.5-1.3-0.8-2-1.3c-0.7-0.3-1.3-0.8-1.9-1.2c-0.7-0.3-1.2-0.7-1.9-1c-0.5-0.3-1-0.7-1.7-1c-0.5-0.3-1-0.7-1.5-0.8
		c-0.2-0.2-0.3-0.3-0.5-0.3c0-0.2,0.2-0.2,0.3-0.3c0.3-0.3,0.5-0.5,0.8-0.8c0.3-0.2,0.7-0.5,1-0.8c0.3-0.3,0.8-0.7,1.2-1
		s0.8-0.7,1.3-1.2c0.5-0.3,1-0.8,1.3-1.2c0.5-0.3,0.8-0.7,1.3-1.2c0.5-0.3,0.8-0.7,1.3-1s0.8-0.7,1.3-1c0.5-0.3,0.8-0.7,1.3-1
		s0.8-0.7,1.3-1c0.3-0.3,0.8-0.7,1.2-1c0.2-0.2,0.3-0.2,0.3-0.3c0.2,0,0.3,0.2,0.5,0.2c0.3,0.2,0.7,0.2,0.8,0.2h0.2
		c0.3,0.2,0.5,0.2,0.8,0.2c0.2,0,0.3,0.2,0.5,0.2c0.3,0.2,0.7,0.3,1,0.3c0.3,0.2,0.7,0.3,1.2,0.5c0.5,0.2,1,0.5,1.5,0.8
		s1.2,0.5,1.7,0.8s1.2,0.7,1.9,0.8c0.7,0.3,1.3,0.7,1.9,1c0.5,0.3,1.2,0.7,1.7,1c0.5,0.3,1,0.7,1.7,1c0.5,0.3,1.2,0.8,1.7,1.2
		c0.7,0.3,1.2,0.8,1.9,1.2s1.3,0.8,2,1.2c0.7,0.3,1.3,0.8,1.9,1.2c0.5,0.3,1.2,0.7,1.5,1c0.5,0.3,0.8,0.7,1.3,1
		c0.3,0.3,0.8,0.7,1.2,0.8c0.2,0.2,0.3,0.2,0.5,0.3C596.5,368,596.3,368.2,596.3,368.3z"/>
	<path fill="#666766" d="M532.9,429.1L532.9,429.1L532.9,429.1z"/>
	<path fill="#666766" d="M584.8,418.9L584.8,418.9L584.8,418.9L584.8,418.9c-0.5-1.5-2-2.4-3.5-2c-0.5,0.2-0.8,0.3-1.2,0.7
		c-0.2,0-0.2,0.2-0.2,0.2l0,0c-0.2,0.2-0.2,0.3-0.3,0.5l-0.2,0.2c-0.3,0.2-0.5,0.3-1,0.7c-0.3,0.2-0.8,0.5-1.2,0.8
		c-0.5,0.3-1,0.7-1.5,0.8c-0.5,0.3-1.2,0.5-1.7,0.8c-0.5,0.2-1.2,0.5-1.7,0.7c-0.2,0-0.3,0.2-0.7,0.2c-0.3,0-0.5,0.2-0.8,0.3l0,0
		c-0.2,0-0.2,0.2-0.3,0.2c0,0-0.2,0-0.2,0.2c-0.2,0-0.2,0-0.3,0.2c-0.2-0.2-0.3-0.2-0.7-0.3c-0.3,0-0.3,0-0.2,0H569h-0.2
		c0,0,0,0-0.2,0c0,0,0,0-0.2,0c0,0,0,0-0.2,0c-0.3-0.2-0.5-0.3-0.8-0.5c-0.3-0.2-0.7-0.3-1.2-0.7c-0.3-0.2-0.8-0.5-1.3-0.8
		c-0.5-0.3-1-0.5-1.5-0.8s-1-0.7-1.7-1c-0.5-0.3-1.2-0.7-1.7-1s-1.2-0.7-1.7-1s-1-0.7-1.5-1s-0.8-0.7-1.2-1s-0.7-0.7-1-1
		s-0.7-0.5-0.8-0.8c-0.3-0.3-0.5-0.5-0.8-0.8c0-0.2-0.2-0.2-0.3-0.3s-0.3-0.3-0.5-0.5l0,0c-0.2-0.2-0.5-0.3-0.8-0.5
		c-0.3-0.3-0.5-0.5-1-0.7l0,0c-0.5-0.2-0.7-0.3-0.8-0.3c-1.5-0.7-3.2,0.2-3.9,1.7l0,0v0.2l0,0l-0.2,0.2l0,0
		c-0.2,0.2-0.2,0.2-0.3,0.3c-0.2,0.2-0.3,0.3-0.5,0.5c-0.3,0.3-0.7,0.7-1.2,1c-0.5,0.3-1,0.8-1.3,1.2c-0.5,0.5-1,0.8-1.7,1.3
		c-0.5,0.5-1,0.8-1.5,1.3c-0.5,0.3-1,0.8-1.5,1.2s-0.8,0.7-1.3,1s-0.8,0.7-1.3,0.8c-0.3,0.2-0.7,0.5-1.2,0.7
		c-0.3,0.2-0.8,0.5-1.2,0.7c-0.3,0.2-0.7,0.3-1,0.5l0,0c-0.2,0-0.3,0.2-0.3,0.2c-0.2,0-0.3,0.2-0.5,0.2l0,0c0.2,0,0.3-0.2,0,0
		c0,0-0.2,0-0.2,0.2H530c0,0,0,0-0.2,0l0,0c-0.2,0-0.5-0.2-1-0.3l0,0l0,0c-0.5-0.2-0.8-0.2-1.2-0.3c-0.3-0.2-0.8-0.2-1.2-0.3
		c-0.5-0.2-0.8-0.3-1.2-0.3c-0.3-0.2-0.8-0.3-1.3-0.7c-0.5-0.2-1-0.5-1.3-0.7c-0.5-0.2-0.8-0.5-1.3-0.7c-0.3-0.2-0.8-0.5-1.2-0.7
		c-0.2,0-0.2-0.2-0.3-0.3c-0.5-1.5-2-2.4-3.5-2c0.2,0,0.2,0,0.2,0c-0.7,0-1.5,0.3-2,1c-0.2,0.2-0.3,0.3-0.3,0.5
		c-0.7,0.7-1,1.5-0.8,2.5c0,0.3,0,0.3,0.2,0.5c0,0.2,0,0.5,0.2,0.7c0,0.2,0,0.2,0,0.2c0,0.2,0,0.2,0,0.3l0,0c0,0.2,0,0.3,0,0.5
		c0,0.2,0,0.3-0.2,0.5c0,0,0,0.2-0.2,0.3c-0.2,0.2-0.2,0.5-0.2,0.8c-0.2,0.5-0.2,1.2,0.2,1.7c0,0.2,0.2,0.3,0.3,0.5
		c0.2,0.2,0.3,0.5,0.5,0.7c0.3,0.3,0.7,0.5,0.7,0.5c0.2,0.2,0.3,0.2,0.3,0.2c0.2,0,0.3,0.2,0.5,0.2c0.2,0,0.5,0.2,0.8,0.5
		c0.3,0.2,0.7,0.3,1,0.5c0.3,0.2,0.8,0.3,1.2,0.5c0.3,0.2,0.8,0.5,1.3,0.7c0.5,0.2,0.8,0.5,1.5,0.7c0.5,0.2,1,0.5,1.7,0.8
		c0.5,0.3,1.2,0.5,1.7,0.8s1,0.7,1.7,1c0.5,0.3,1,0.7,1.5,1s1,0.8,1.5,1.2c0.5,0.3,1,0.8,1.7,1.2c0.5,0.3,1,0.7,1.5,1s1.2,0.7,1.7,1
		s1,0.7,1.5,1s1,0.7,1.7,1c0.5,0.3,1,0.7,1.7,1c0.5,0.3,1.2,0.7,1.7,1s1.2,0.7,1.5,0.8c0.5,0.3,1,0.5,1.3,0.8
		c0.5,0.3,0.8,0.5,1.2,0.8c0.3,0.2,0.7,0.5,1,0.8s0.5,0.5,0.8,0.7l0.2,0.2c0.2,0.2,0.2,0.2,0.3,0.3l0.2,0.2c0.3,0.5,0.8,0.8,1.3,1
		l0,0c0,0,0,0,0.2,0.2c1.2,1,3,0.8,4.2-0.3c0.3-0.3,0.2-0.2,0,0c0.2-0.2,0.3-0.3,0.3-0.5c0,0,0.2-0.2,0.2-0.3l0.2-0.2
		c0.2-0.2,0.3-0.3,0.5-0.5c0.2-0.2,0.2-0.2,0.3-0.3c0.5-0.5,1-1,1.5-1.3c0.5-0.5,1.2-1,1.9-1.5s1.5-1.2,2.4-1.9
		c0.8-0.5,1.7-1.2,2.4-1.9c0.8-0.7,1.7-1.3,2.4-1.9c0.8-0.7,1.7-1.2,2.5-1.9c0.8-0.5,1.7-1.2,2.5-1.9c0.8-0.5,1.7-1.2,2.5-1.7
		c0.8-0.5,1.7-1,2.4-1.5c0.7-0.5,1.5-0.8,2.2-1.2s1.3-0.7,1.9-0.8c0.5-0.2,1-0.3,1.5-0.5c0.2,0,0.3-0.2,0.7-0.2
		c0.3,0,0.5-0.2,0.7-0.3l0,0c0.2,0,0.2-0.2,0.3-0.2c0.8-0.2,1.5-0.8,1.7-1.9c0-0.3,0.2-0.7,0.2-1.2l0,0l0,0c0-0.5,0.2-1,0.2-1.5
		c0-0.3,0.2-0.7,0.2-1c0-0.2,0-0.3,0-0.7c0-0.5,0.2-1,0.2-1.3s0.2-0.7,0.2-1v-0.2C585,419.6,585,419.3,584.8,418.9z M569.7,423.3
		L569.7,423.3L569.7,423.3L569.7,423.3z M549.4,444.4L549.4,444.4L549.4,444.4C549.6,444.4,549.4,444.4,549.4,444.4z M579.8,425.7
		c-0.2,0-0.2,0.2-0.3,0.3s-0.3,0.2-0.5,0.3c-0.3,0.3-0.8,0.5-1.3,1c-0.5,0.3-1.2,0.7-1.9,1.2c-0.7,0.5-1.3,1-2.2,1.5
		c-0.8,0.5-1.5,1-2.4,1.7c-0.8,0.5-1.7,1.2-2.5,1.7s-1.7,1.2-2.5,1.7c-0.8,0.5-1.7,1.2-2.5,1.7c-0.8,0.5-1.7,1.2-2.5,1.7
		c-0.8,0.5-1.7,1-2.5,1.5s-1.7,1-2.5,1.3c-0.7,0.3-1.5,0.7-2.2,1.2c-0.7,0.3-1.5,0.8-1.9,1c-0.2,0.2-0.3,0.2-0.5,0.3
		c-0.3,0.2-0.5,0.2-0.8,0.3l0,0c-0.2,0-0.2,0.2-0.3,0.2c-0.2,0-0.3,0-0.5,0c-0.2,0-0.2,0-0.3,0h-0.2l0,0c-0.3-0.2-0.5-0.3-0.8-0.5
		c-0.3-0.2-0.7-0.5-1.2-0.7c-0.5-0.3-0.8-0.5-1.3-0.8s-1-0.5-1.5-0.8c-0.5-0.3-1-0.5-1.5-0.8c-0.5-0.3-1-0.7-1.5-0.8
		c-0.5-0.3-1-0.7-1.5-1s-1-0.7-1.5-1s-1-0.7-1.5-1s-1.2-0.7-1.7-1s-1-0.7-1.5-1s-1-0.7-1.5-1s-1-0.7-1.5-1.2c-0.5-0.3-1-0.8-1.7-1.2
		c-0.5-0.5-1.2-0.8-1.7-1.2c-0.7-0.3-1.2-0.7-1.7-1s-1-0.7-1.5-1s-0.8-0.5-1.2-0.8s-0.7-0.5-1.2-0.8c-0.3-0.3-0.7-0.5-1-0.8
		c-0.3-0.3-0.7-0.5-0.8-0.7c-0.2-0.2-0.3-0.2-0.3-0.3v-0.2c0.2,0,0.3,0.2,0.5,0.2c0.5,0.2,1,0.3,1.5,0.5c0.5,0.2,1,0.3,1.5,0.5
		c0.5,0.2,1,0.3,1.5,0.7c0.5,0.2,1,0.3,1.3,0.5c0.5,0.2,0.8,0.3,1.3,0.5c0.5,0.2,0.7,0.3,1,0.3l0,0l0,0c0.2,0,0.2,0.2,0.3,0.2
		c0.2,0.2,0.3,0.2,0.5,0.2c0,0,0.2,0,0.2,0.2c0.2,0.2,0.3,0.2,0.5,0.2c0,0,0.2,0.2,0.3,0.3l0,0c0.3,0.2,0.7,0.2,1,0.2
		c0.7,0.3,1.7,0.5,2.4,0.2c0,0,0.3-0.2,0.5-0.2c0.3-0.2,0.7-0.5,1-0.8l0,0c0,0,0,0,0.2,0c0.2-0.2,0.5-0.3,0.7-0.7
		c0.2-0.2,0.3-0.5,0.7-0.7c0.3-0.3,0.5-0.5,0.8-0.8c0.3-0.3,0.7-0.5,1-1c0.3-0.3,0.8-0.8,1.3-1.2c0.5-0.5,0.8-0.8,1.3-1.3
		c0.5-0.5,1-1,1.3-1.3c0.5-0.5,1-1,1.5-1.3c0.5-0.5,1-0.8,1.5-1.3c0.5-0.3,1-0.8,1.3-1.2c0.5-0.3,0.8-0.7,1.2-0.8
		c0.2-0.2,0.3-0.2,0.5-0.3l0,0c0.2,0,0.2,0.2,0.3,0.2l0,0c0.2,0.2,0.5,0.2,0.8,0.2c0.2,0,0.3,0.2,0.3,0.2c0.2,0.2,0.3,0.2,0.5,0.3
		c0.2,0.2,0.5,0.3,0.8,0.5c0.3,0.2,0.7,0.5,1,0.7c0.3,0.2,0.7,0.5,1.2,0.8c0.5,0.3,1,0.7,1.5,1s1.2,0.7,1.7,1s1.2,0.7,1.9,1
		c0.7,0.3,1.2,0.7,1.7,1s1,0.7,1.5,0.8c0.5,0.3,0.8,0.7,1.3,0.8c0.3,0.3,0.7,0.5,1.2,0.8c0.3,0.3,0.7,0.5,1,0.8
		c0.2,0.2,0.3,0.3,0.5,0.3c0.2,0.7,0.7,1.3,1.3,1.9c0.2,0.2,0.3,0.2,0.7,0.3c0.3,0.2,0.5,0.2,0.3,0.2c0.5,0.2,0.8,0.2,1.3,0
		c1,0.7,2.2,0.7,3.4,0c0.2-0.2,0.2-0.2,0.2-0.2c0.2-0.2,0.5-0.3,0.7-0.5c0,0,0,0,0.2-0.2l0.2-0.2c0.2-0.2,0.3-0.3,0.5-0.5
		c0.2-0.2,0.3-0.3,0.5-0.3c0.5-0.3,1-0.7,1.5-1.2c0.5-0.3,1.2-0.8,1.7-1.2s1-0.7,1.5-1c0.2-0.2,0.3-0.2,0.5-0.3
		c0,0.3,0.2,0.7,0.2,0.8c0,0.5,0,1,0,1.3C579.9,425.5,579.8,425.7,579.8,425.7z"/>
</g>
</svg>
